%TF.GenerationSoftware,KiCad,Pcbnew,5.1.10*%
%TF.CreationDate,2021-06-13T22:55:49-04:00*%
%TF.ProjectId,led-controller,6c65642d-636f-46e7-9472-6f6c6c65722e,v1.0*%
%TF.SameCoordinates,Original*%
%TF.FileFunction,Soldermask,Bot*%
%TF.FilePolarity,Negative*%
%FSLAX46Y46*%
G04 Gerber Fmt 4.6, Leading zero omitted, Abs format (unit mm)*
G04 Created by KiCad (PCBNEW 5.1.10) date 2021-06-13 22:55:49*
%MOMM*%
%LPD*%
G01*
G04 APERTURE LIST*
%ADD10C,1.600000*%
%ADD11R,1.600000X1.600000*%
%ADD12R,1.700000X1.700000*%
%ADD13O,1.700000X1.700000*%
%ADD14O,2.000000X1.700000*%
%ADD15C,1.200000*%
%ADD16O,1.950000X1.700000*%
%ADD17O,1.700000X1.950000*%
%ADD18C,1.000000*%
%ADD19C,3.200000*%
G04 APERTURE END LIST*
D10*
%TO.C,C14*%
X123250000Y-59000000D03*
D11*
X123250000Y-55500000D03*
%TD*%
D12*
%TO.C,J1*%
X153000000Y-78500000D03*
D13*
X153000000Y-75960000D03*
X155540000Y-78500000D03*
X155540000Y-75960000D03*
X158080000Y-78500000D03*
X158080000Y-75960000D03*
X160620000Y-78500000D03*
X160620000Y-75960000D03*
X163160000Y-78500000D03*
X163160000Y-75960000D03*
%TD*%
%TO.C,J2*%
G36*
G01*
X117250000Y-104850000D02*
X115750000Y-104850000D01*
G75*
G02*
X115500000Y-104600000I0J250000D01*
G01*
X115500000Y-103400000D01*
G75*
G02*
X115750000Y-103150000I250000J0D01*
G01*
X117250000Y-103150000D01*
G75*
G02*
X117500000Y-103400000I0J-250000D01*
G01*
X117500000Y-104600000D01*
G75*
G02*
X117250000Y-104850000I-250000J0D01*
G01*
G37*
D14*
X116500000Y-101500000D03*
D15*
X118500000Y-105600000D03*
%TD*%
%TO.C,J3*%
X110250000Y-54400000D03*
D14*
X112250000Y-58500000D03*
G36*
G01*
X111500000Y-55150000D02*
X113000000Y-55150000D01*
G75*
G02*
X113250000Y-55400000I0J-250000D01*
G01*
X113250000Y-56600000D01*
G75*
G02*
X113000000Y-56850000I-250000J0D01*
G01*
X111500000Y-56850000D01*
G75*
G02*
X111250000Y-56600000I0J250000D01*
G01*
X111250000Y-55400000D01*
G75*
G02*
X111500000Y-55150000I250000J0D01*
G01*
G37*
%TD*%
%TO.C,J4*%
G36*
G01*
X141750000Y-104850000D02*
X140250000Y-104850000D01*
G75*
G02*
X140000000Y-104600000I0J250000D01*
G01*
X140000000Y-103400000D01*
G75*
G02*
X140250000Y-103150000I250000J0D01*
G01*
X141750000Y-103150000D01*
G75*
G02*
X142000000Y-103400000I0J-250000D01*
G01*
X142000000Y-104600000D01*
G75*
G02*
X141750000Y-104850000I-250000J0D01*
G01*
G37*
X141000000Y-101500000D03*
D15*
X143000000Y-105600000D03*
%TD*%
%TO.C,J5*%
G36*
G01*
X149250000Y-104850000D02*
X147750000Y-104850000D01*
G75*
G02*
X147500000Y-104600000I0J250000D01*
G01*
X147500000Y-103400000D01*
G75*
G02*
X147750000Y-103150000I250000J0D01*
G01*
X149250000Y-103150000D01*
G75*
G02*
X149500000Y-103400000I0J-250000D01*
G01*
X149500000Y-104600000D01*
G75*
G02*
X149250000Y-104850000I-250000J0D01*
G01*
G37*
D14*
X148500000Y-101500000D03*
D15*
X150500000Y-105600000D03*
%TD*%
%TO.C,J6*%
X108000000Y-77850000D03*
D16*
X106000000Y-68750000D03*
X106000000Y-71250000D03*
X106000000Y-73750000D03*
G36*
G01*
X106725000Y-77100000D02*
X105275000Y-77100000D01*
G75*
G02*
X105025000Y-76850000I0J250000D01*
G01*
X105025000Y-75650000D01*
G75*
G02*
X105275000Y-75400000I250000J0D01*
G01*
X106725000Y-75400000D01*
G75*
G02*
X106975000Y-75650000I0J-250000D01*
G01*
X106975000Y-76850000D01*
G75*
G02*
X106725000Y-77100000I-250000J0D01*
G01*
G37*
%TD*%
%TO.C,J7*%
G36*
G01*
X106725000Y-92100000D02*
X105275000Y-92100000D01*
G75*
G02*
X105025000Y-91850000I0J250000D01*
G01*
X105025000Y-90650000D01*
G75*
G02*
X105275000Y-90400000I250000J0D01*
G01*
X106725000Y-90400000D01*
G75*
G02*
X106975000Y-90650000I0J-250000D01*
G01*
X106975000Y-91850000D01*
G75*
G02*
X106725000Y-92100000I-250000J0D01*
G01*
G37*
X106000000Y-88750000D03*
X106000000Y-86250000D03*
X106000000Y-83750000D03*
D15*
X108000000Y-92850000D03*
%TD*%
%TO.C,J8*%
X175600000Y-74750000D03*
D17*
X169000000Y-76750000D03*
X171500000Y-76750000D03*
G36*
G01*
X174850000Y-76025000D02*
X174850000Y-77475000D01*
G75*
G02*
X174600000Y-77725000I-250000J0D01*
G01*
X173400000Y-77725000D01*
G75*
G02*
X173150000Y-77475000I0J250000D01*
G01*
X173150000Y-76025000D01*
G75*
G02*
X173400000Y-75775000I250000J0D01*
G01*
X174600000Y-75775000D01*
G75*
G02*
X174850000Y-76025000I0J-250000D01*
G01*
G37*
%TD*%
%TO.C,J9*%
G36*
G01*
X174850000Y-83525000D02*
X174850000Y-84975000D01*
G75*
G02*
X174600000Y-85225000I-250000J0D01*
G01*
X173400000Y-85225000D01*
G75*
G02*
X173150000Y-84975000I0J250000D01*
G01*
X173150000Y-83525000D01*
G75*
G02*
X173400000Y-83275000I250000J0D01*
G01*
X174600000Y-83275000D01*
G75*
G02*
X174850000Y-83525000I0J-250000D01*
G01*
G37*
X171500000Y-84250000D03*
X169000000Y-84250000D03*
D15*
X175600000Y-82250000D03*
%TD*%
%TO.C,J10*%
X158000000Y-105600000D03*
D14*
X156000000Y-101500000D03*
G36*
G01*
X156750000Y-104850000D02*
X155250000Y-104850000D01*
G75*
G02*
X155000000Y-104600000I0J250000D01*
G01*
X155000000Y-103400000D01*
G75*
G02*
X155250000Y-103150000I250000J0D01*
G01*
X156750000Y-103150000D01*
G75*
G02*
X157000000Y-103400000I0J-250000D01*
G01*
X157000000Y-104600000D01*
G75*
G02*
X156750000Y-104850000I-250000J0D01*
G01*
G37*
%TD*%
D15*
%TO.C,J11*%
X165500000Y-105600000D03*
D14*
X163500000Y-101500000D03*
G36*
G01*
X164250000Y-104850000D02*
X162750000Y-104850000D01*
G75*
G02*
X162500000Y-104600000I0J250000D01*
G01*
X162500000Y-103400000D01*
G75*
G02*
X162750000Y-103150000I250000J0D01*
G01*
X164250000Y-103150000D01*
G75*
G02*
X164500000Y-103400000I0J-250000D01*
G01*
X164500000Y-104600000D01*
G75*
G02*
X164250000Y-104850000I-250000J0D01*
G01*
G37*
%TD*%
%TO.C,J12*%
G36*
G01*
X165500000Y-55150000D02*
X167000000Y-55150000D01*
G75*
G02*
X167250000Y-55400000I0J-250000D01*
G01*
X167250000Y-56600000D01*
G75*
G02*
X167000000Y-56850000I-250000J0D01*
G01*
X165500000Y-56850000D01*
G75*
G02*
X165250000Y-56600000I0J250000D01*
G01*
X165250000Y-55400000D01*
G75*
G02*
X165500000Y-55150000I250000J0D01*
G01*
G37*
X166250000Y-58500000D03*
D15*
X164250000Y-54400000D03*
%TD*%
%TO.C,J13*%
X156750000Y-54400000D03*
D14*
X158750000Y-58500000D03*
G36*
G01*
X158000000Y-55150000D02*
X159500000Y-55150000D01*
G75*
G02*
X159750000Y-55400000I0J-250000D01*
G01*
X159750000Y-56600000D01*
G75*
G02*
X159500000Y-56850000I-250000J0D01*
G01*
X158000000Y-56850000D01*
G75*
G02*
X157750000Y-56600000I0J250000D01*
G01*
X157750000Y-55400000D01*
G75*
G02*
X158000000Y-55150000I250000J0D01*
G01*
G37*
%TD*%
%TO.C,J14*%
G36*
G01*
X150500000Y-55150000D02*
X152000000Y-55150000D01*
G75*
G02*
X152250000Y-55400000I0J-250000D01*
G01*
X152250000Y-56600000D01*
G75*
G02*
X152000000Y-56850000I-250000J0D01*
G01*
X150500000Y-56850000D01*
G75*
G02*
X150250000Y-56600000I0J250000D01*
G01*
X150250000Y-55400000D01*
G75*
G02*
X150500000Y-55150000I250000J0D01*
G01*
G37*
X151250000Y-58500000D03*
D15*
X149250000Y-54400000D03*
%TD*%
%TO.C,J15*%
X141750000Y-54400000D03*
D14*
X143750000Y-58500000D03*
G36*
G01*
X143000000Y-55150000D02*
X144500000Y-55150000D01*
G75*
G02*
X144750000Y-55400000I0J-250000D01*
G01*
X144750000Y-56600000D01*
G75*
G02*
X144500000Y-56850000I-250000J0D01*
G01*
X143000000Y-56850000D01*
G75*
G02*
X142750000Y-56600000I0J250000D01*
G01*
X142750000Y-55400000D01*
G75*
G02*
X143000000Y-55150000I250000J0D01*
G01*
G37*
%TD*%
D18*
%TO.C,TP11*%
X130000000Y-74500000D03*
%TD*%
%TO.C,TP10*%
X130000000Y-72500000D03*
%TD*%
%TO.C,TP16*%
X111000000Y-81000000D03*
%TD*%
%TO.C,TP17*%
X111000000Y-79000000D03*
%TD*%
D11*
%TO.C,C13*%
X173750000Y-94500000D03*
D10*
X170250000Y-94500000D03*
%TD*%
D18*
%TO.C,TP1*%
X131500000Y-77500000D03*
%TD*%
%TO.C,TP2*%
X131500000Y-79500000D03*
%TD*%
%TO.C,TP4*%
X166250000Y-72000000D03*
%TD*%
%TO.C,TP5*%
X158750000Y-72500000D03*
%TD*%
%TO.C,TP6*%
X151250000Y-72500000D03*
%TD*%
%TO.C,TP7*%
X143750000Y-72500000D03*
%TD*%
%TO.C,TP8*%
X152000000Y-82000000D03*
%TD*%
%TO.C,TP9*%
X157750000Y-81750000D03*
%TD*%
%TO.C,TP12*%
X148000000Y-91750000D03*
%TD*%
%TO.C,TP13*%
X148500000Y-89750000D03*
%TD*%
%TO.C,TP14*%
X149000000Y-87750000D03*
%TD*%
%TO.C,TP15*%
X149500000Y-85750000D03*
%TD*%
D11*
%TO.C,C15*%
X132750000Y-55500000D03*
D10*
X132750000Y-59000000D03*
%TD*%
D19*
%TO.C,H1*%
X104000000Y-54000000D03*
%TD*%
%TO.C,H2*%
X176000000Y-54000000D03*
%TD*%
%TO.C,H3*%
X104000000Y-106000000D03*
%TD*%
%TO.C,H4*%
X176000000Y-106000000D03*
%TD*%
M02*
