M48
; DRILL file {KiCad 5.1.10} date Sun Jun 13 22:55:58 2021
; FORMAT={-:-/ absolute / metric / decimal}
; #@! TF.CreationDate,2021-06-13T22:55:58-04:00
; #@! TF.GenerationSoftware,Kicad,Pcbnew,5.1.10
; #@! TF.FileFunction,Plated,1,2,PTH
FMAT,2
METRIC
T1C0.400
T2C0.500
T3C0.800
T4C0.950
T5C1.000
%
G90
G05
T1
X101.0Y-58.0
X101.0Y-64.0
X101.0Y-65.5
X101.0Y-81.0
X101.0Y-97.75
X104.25Y-97.75
X107.5Y-96.5
X107.5Y-100.5
X108.25Y-95.75
X108.25Y-101.25
X109.0Y-96.5
X109.0Y-100.5
X109.75Y-95.75
X109.75Y-101.25
X110.5Y-65.5
X110.5Y-76.5
X110.5Y-85.5
X110.5Y-96.5
X110.5Y-100.5
X112.0Y-64.0
X112.0Y-75.0
X112.0Y-87.0
X112.0Y-98.0
X114.0Y-78.0
X117.5Y-78.0
X117.75Y-94.0
X118.5Y-84.25
X119.25Y-92.75
X120.25Y-76.5
X120.25Y-85.5
X120.5Y-91.25
X120.5Y-92.75
X121.75Y-75.0
X121.75Y-87.0
X122.0Y-91.25
X123.0Y-90.0
X123.75Y-93.0
X124.25Y-83.75
X124.25Y-88.25
X124.5Y-91.75
X126.3Y-76.9
X128.5Y-85.0
X128.5Y-88.0
X131.0Y-87.25
X131.25Y-82.75
X131.25Y-85.25
X132.75Y-80.0
X133.0Y-77.0
X133.5Y-74.5
X134.0Y-86.25
X134.75Y-87.25
X135.25Y-85.75
X136.25Y-75.25
X136.75Y-88.0
X137.5Y-83.75
X137.75Y-80.75
X138.0Y-73.5
X138.25Y-77.0
X138.25Y-102.0
X138.75Y-71.0
X139.75Y-85.0
X140.0Y-92.0
X140.25Y-72.0
X141.75Y-58.0
X141.75Y-94.5
X142.75Y-73.5
X143.25Y-85.0
X143.75Y-97.0
X144.0Y-80.75
X144.0Y-92.0
X144.75Y-83.0
X144.75Y-102.0
X145.25Y-71.5
X145.5Y-78.75
X145.5Y-79.75
X145.5Y-84.25
X145.513Y-80.763
X145.75Y-64.0
X145.75Y-77.5
X146.0Y-72.0
X146.75Y-71.25
X147.25Y-58.0
X147.75Y-72.0
X147.838Y-76.587
X148.0Y-86.5
X149.0Y-78.75
X149.0Y-77.25
X149.0Y-79.75
X149.0Y-80.75
X149.25Y-94.0
X150.5Y-84.5
X150.75Y-75.75
X151.25Y-97.0
X152.5Y-102.0
X152.75Y-71.5
X153.25Y-64.0
X153.25Y-72.25
X153.75Y-71.5
X153.75Y-93.0
X154.75Y-58.0
X154.75Y-87.0
X155.25Y-72.0
X158.75Y-97.0
X159.75Y-102.0
X160.25Y-71.5
X160.5Y-64.0
X160.75Y-72.25
X161.25Y-71.5
X161.25Y-82.25
X162.0Y-88.5
X162.25Y-58.0
X162.5Y-93.25
X162.75Y-72.0
X164.5Y-86.0
X165.25Y-100.5
X166.25Y-97.0
X167.0Y-64.0
X168.25Y-58.0
X168.25Y-71.5
X169.25Y-70.5
X169.25Y-71.5
X171.0Y-67.8
X172.0Y-80.25
X172.0Y-87.25
X172.1Y-69.5
X173.4Y-69.5
X173.5Y-65.75
X174.6Y-69.5
X175.9Y-69.5
X177.0Y-67.8
X179.0Y-58.0
X179.0Y-72.0
T2
X111.0Y-79.0
X111.0Y-81.0
X130.0Y-72.5
X130.0Y-74.5
X131.5Y-77.5
X131.5Y-79.5
X143.75Y-72.5
X148.0Y-91.75
X148.5Y-89.75
X149.0Y-87.75
X149.5Y-85.75
X151.25Y-72.5
X152.0Y-82.0
X157.75Y-81.75
X158.75Y-72.5
X166.25Y-72.0
T3
X123.25Y-55.5
X123.25Y-59.0
X132.75Y-55.5
X132.75Y-59.0
X170.25Y-94.5
X173.75Y-94.5
T4
X106.0Y-68.75
X106.0Y-71.25
X106.0Y-73.75
X106.0Y-76.25
X106.0Y-83.75
X106.0Y-86.25
X106.0Y-88.75
X106.0Y-91.25
X169.0Y-76.75
X169.0Y-84.25
X171.5Y-76.75
X171.5Y-84.25
X174.0Y-76.75
X174.0Y-84.25
T5
X112.25Y-56.0
X112.25Y-58.5
X116.5Y-101.5
X116.5Y-104.0
X141.0Y-101.5
X141.0Y-104.0
X143.75Y-56.0
X143.75Y-58.5
X148.5Y-101.5
X148.5Y-104.0
X151.25Y-56.0
X151.25Y-58.5
X153.0Y-75.96
X153.0Y-78.5
X155.54Y-75.96
X155.54Y-78.5
X156.0Y-101.5
X156.0Y-104.0
X158.08Y-75.96
X158.08Y-78.5
X158.75Y-56.0
X158.75Y-58.5
X160.62Y-75.96
X160.62Y-78.5
X163.16Y-75.96
X163.16Y-78.5
X163.5Y-101.5
X163.5Y-104.0
X166.25Y-56.0
X166.25Y-58.5
T0
M30
