%TF.GenerationSoftware,KiCad,Pcbnew,5.1.10*%
%TF.CreationDate,2021-06-13T22:55:49-04:00*%
%TF.ProjectId,led-controller,6c65642d-636f-46e7-9472-6f6c6c65722e,v1.0*%
%TF.SameCoordinates,Original*%
%TF.FileFunction,Copper,L2,Bot*%
%TF.FilePolarity,Positive*%
%FSLAX46Y46*%
G04 Gerber Fmt 4.6, Leading zero omitted, Abs format (unit mm)*
G04 Created by KiCad (PCBNEW 5.1.10) date 2021-06-13 22:55:49*
%MOMM*%
%LPD*%
G01*
G04 APERTURE LIST*
%TA.AperFunction,ComponentPad*%
%ADD10C,1.600000*%
%TD*%
%TA.AperFunction,ComponentPad*%
%ADD11R,1.600000X1.600000*%
%TD*%
%TA.AperFunction,ComponentPad*%
%ADD12R,1.700000X1.700000*%
%TD*%
%TA.AperFunction,ComponentPad*%
%ADD13O,1.700000X1.700000*%
%TD*%
%TA.AperFunction,ComponentPad*%
%ADD14O,2.000000X1.700000*%
%TD*%
%TA.AperFunction,ComponentPad*%
%ADD15O,1.950000X1.700000*%
%TD*%
%TA.AperFunction,ComponentPad*%
%ADD16O,1.700000X1.950000*%
%TD*%
%TA.AperFunction,ComponentPad*%
%ADD17C,1.000000*%
%TD*%
%TA.AperFunction,ViaPad*%
%ADD18C,0.800000*%
%TD*%
%TA.AperFunction,Conductor*%
%ADD19C,0.500000*%
%TD*%
%TA.AperFunction,Conductor*%
%ADD20C,0.250000*%
%TD*%
%TA.AperFunction,Conductor*%
%ADD21C,0.100000*%
%TD*%
G04 APERTURE END LIST*
D10*
%TO.P,C14,2*%
%TO.N,GND*%
X123250000Y-59000000D03*
D11*
%TO.P,C14,1*%
%TO.N,VCC*%
X123250000Y-55500000D03*
%TD*%
D12*
%TO.P,J1,1*%
%TO.N,+3V3*%
X153000000Y-78500000D03*
D13*
%TO.P,J1,2*%
%TO.N,/SWDIO*%
X153000000Y-75960000D03*
%TO.P,J1,3*%
%TO.N,GND*%
X155540000Y-78500000D03*
%TO.P,J1,4*%
%TO.N,/SWCLK*%
X155540000Y-75960000D03*
%TO.P,J1,5*%
%TO.N,GND*%
X158080000Y-78500000D03*
%TO.P,J1,6*%
%TO.N,/SWO*%
X158080000Y-75960000D03*
%TO.P,J1,7*%
%TO.N,N/C*%
X160620000Y-78500000D03*
%TO.P,J1,8*%
X160620000Y-75960000D03*
%TO.P,J1,9*%
%TO.N,GND*%
X163160000Y-78500000D03*
%TO.P,J1,10*%
%TO.N,/~RESET*%
X163160000Y-75960000D03*
%TD*%
%TO.P,J2,1*%
%TO.N,+5V*%
%TA.AperFunction,ComponentPad*%
G36*
G01*
X117250000Y-104850000D02*
X115750000Y-104850000D01*
G75*
G02*
X115500000Y-104600000I0J250000D01*
G01*
X115500000Y-103400000D01*
G75*
G02*
X115750000Y-103150000I250000J0D01*
G01*
X117250000Y-103150000D01*
G75*
G02*
X117500000Y-103400000I0J-250000D01*
G01*
X117500000Y-104600000D01*
G75*
G02*
X117250000Y-104850000I-250000J0D01*
G01*
G37*
%TD.AperFunction*%
D14*
%TO.P,J2,2*%
%TO.N,GND*%
X116500000Y-101500000D03*
%TD*%
%TO.P,J3,2*%
%TO.N,GND*%
X112250000Y-58500000D03*
%TO.P,J3,1*%
%TO.N,VCC*%
%TA.AperFunction,ComponentPad*%
G36*
G01*
X111500000Y-55150000D02*
X113000000Y-55150000D01*
G75*
G02*
X113250000Y-55400000I0J-250000D01*
G01*
X113250000Y-56600000D01*
G75*
G02*
X113000000Y-56850000I-250000J0D01*
G01*
X111500000Y-56850000D01*
G75*
G02*
X111250000Y-56600000I0J250000D01*
G01*
X111250000Y-55400000D01*
G75*
G02*
X111500000Y-55150000I250000J0D01*
G01*
G37*
%TD.AperFunction*%
%TD*%
%TO.P,J4,1*%
%TO.N,+5V*%
%TA.AperFunction,ComponentPad*%
G36*
G01*
X141750000Y-104850000D02*
X140250000Y-104850000D01*
G75*
G02*
X140000000Y-104600000I0J250000D01*
G01*
X140000000Y-103400000D01*
G75*
G02*
X140250000Y-103150000I250000J0D01*
G01*
X141750000Y-103150000D01*
G75*
G02*
X142000000Y-103400000I0J-250000D01*
G01*
X142000000Y-104600000D01*
G75*
G02*
X141750000Y-104850000I-250000J0D01*
G01*
G37*
%TD.AperFunction*%
%TO.P,J4,2*%
%TO.N,/IN1_5V*%
X141000000Y-101500000D03*
%TD*%
%TO.P,J5,1*%
%TO.N,+5V*%
%TA.AperFunction,ComponentPad*%
G36*
G01*
X149250000Y-104850000D02*
X147750000Y-104850000D01*
G75*
G02*
X147500000Y-104600000I0J250000D01*
G01*
X147500000Y-103400000D01*
G75*
G02*
X147750000Y-103150000I250000J0D01*
G01*
X149250000Y-103150000D01*
G75*
G02*
X149500000Y-103400000I0J-250000D01*
G01*
X149500000Y-104600000D01*
G75*
G02*
X149250000Y-104850000I-250000J0D01*
G01*
G37*
%TD.AperFunction*%
%TO.P,J5,2*%
%TO.N,/IN2_5V*%
X148500000Y-101500000D03*
%TD*%
D15*
%TO.P,J6,4*%
%TO.N,GNDCAN*%
X106000000Y-68750000D03*
%TO.P,J6,3*%
%TO.N,/CAN-*%
X106000000Y-71250000D03*
%TO.P,J6,2*%
%TO.N,/CAN+*%
X106000000Y-73750000D03*
%TO.P,J6,1*%
%TO.N,VCAN*%
%TA.AperFunction,ComponentPad*%
G36*
G01*
X106725000Y-77100000D02*
X105275000Y-77100000D01*
G75*
G02*
X105025000Y-76850000I0J250000D01*
G01*
X105025000Y-75650000D01*
G75*
G02*
X105275000Y-75400000I250000J0D01*
G01*
X106725000Y-75400000D01*
G75*
G02*
X106975000Y-75650000I0J-250000D01*
G01*
X106975000Y-76850000D01*
G75*
G02*
X106725000Y-77100000I-250000J0D01*
G01*
G37*
%TD.AperFunction*%
%TD*%
%TO.P,J7,1*%
%TO.N,VCAN*%
%TA.AperFunction,ComponentPad*%
G36*
G01*
X106725000Y-92100000D02*
X105275000Y-92100000D01*
G75*
G02*
X105025000Y-91850000I0J250000D01*
G01*
X105025000Y-90650000D01*
G75*
G02*
X105275000Y-90400000I250000J0D01*
G01*
X106725000Y-90400000D01*
G75*
G02*
X106975000Y-90650000I0J-250000D01*
G01*
X106975000Y-91850000D01*
G75*
G02*
X106725000Y-92100000I-250000J0D01*
G01*
G37*
%TD.AperFunction*%
%TO.P,J7,2*%
%TO.N,/CAN+*%
X106000000Y-88750000D03*
%TO.P,J7,3*%
%TO.N,/CAN-*%
X106000000Y-86250000D03*
%TO.P,J7,4*%
%TO.N,GNDCAN*%
X106000000Y-83750000D03*
%TD*%
D16*
%TO.P,J8,3*%
%TO.N,GND*%
X169000000Y-76750000D03*
%TO.P,J8,2*%
%TO.N,Net-(J8-Pad2)*%
X171500000Y-76750000D03*
%TO.P,J8,1*%
%TO.N,+5V*%
%TA.AperFunction,ComponentPad*%
G36*
G01*
X174850000Y-76025000D02*
X174850000Y-77475000D01*
G75*
G02*
X174600000Y-77725000I-250000J0D01*
G01*
X173400000Y-77725000D01*
G75*
G02*
X173150000Y-77475000I0J250000D01*
G01*
X173150000Y-76025000D01*
G75*
G02*
X173400000Y-75775000I250000J0D01*
G01*
X174600000Y-75775000D01*
G75*
G02*
X174850000Y-76025000I0J-250000D01*
G01*
G37*
%TD.AperFunction*%
%TD*%
%TO.P,J9,1*%
%TO.N,+5V*%
%TA.AperFunction,ComponentPad*%
G36*
G01*
X174850000Y-83525000D02*
X174850000Y-84975000D01*
G75*
G02*
X174600000Y-85225000I-250000J0D01*
G01*
X173400000Y-85225000D01*
G75*
G02*
X173150000Y-84975000I0J250000D01*
G01*
X173150000Y-83525000D01*
G75*
G02*
X173400000Y-83275000I250000J0D01*
G01*
X174600000Y-83275000D01*
G75*
G02*
X174850000Y-83525000I0J-250000D01*
G01*
G37*
%TD.AperFunction*%
%TO.P,J9,2*%
%TO.N,Net-(J9-Pad2)*%
X171500000Y-84250000D03*
%TO.P,J9,3*%
%TO.N,GND*%
X169000000Y-84250000D03*
%TD*%
D14*
%TO.P,J10,2*%
%TO.N,/IN3_5V*%
X156000000Y-101500000D03*
%TO.P,J10,1*%
%TO.N,+5V*%
%TA.AperFunction,ComponentPad*%
G36*
G01*
X156750000Y-104850000D02*
X155250000Y-104850000D01*
G75*
G02*
X155000000Y-104600000I0J250000D01*
G01*
X155000000Y-103400000D01*
G75*
G02*
X155250000Y-103150000I250000J0D01*
G01*
X156750000Y-103150000D01*
G75*
G02*
X157000000Y-103400000I0J-250000D01*
G01*
X157000000Y-104600000D01*
G75*
G02*
X156750000Y-104850000I-250000J0D01*
G01*
G37*
%TD.AperFunction*%
%TD*%
%TO.P,J11,2*%
%TO.N,/IN4_5V*%
X163500000Y-101500000D03*
%TO.P,J11,1*%
%TO.N,+5V*%
%TA.AperFunction,ComponentPad*%
G36*
G01*
X164250000Y-104850000D02*
X162750000Y-104850000D01*
G75*
G02*
X162500000Y-104600000I0J250000D01*
G01*
X162500000Y-103400000D01*
G75*
G02*
X162750000Y-103150000I250000J0D01*
G01*
X164250000Y-103150000D01*
G75*
G02*
X164500000Y-103400000I0J-250000D01*
G01*
X164500000Y-104600000D01*
G75*
G02*
X164250000Y-104850000I-250000J0D01*
G01*
G37*
%TD.AperFunction*%
%TD*%
%TO.P,J12,1*%
%TO.N,VCC*%
%TA.AperFunction,ComponentPad*%
G36*
G01*
X165500000Y-55150000D02*
X167000000Y-55150000D01*
G75*
G02*
X167250000Y-55400000I0J-250000D01*
G01*
X167250000Y-56600000D01*
G75*
G02*
X167000000Y-56850000I-250000J0D01*
G01*
X165500000Y-56850000D01*
G75*
G02*
X165250000Y-56600000I0J250000D01*
G01*
X165250000Y-55400000D01*
G75*
G02*
X165500000Y-55150000I250000J0D01*
G01*
G37*
%TD.AperFunction*%
%TO.P,J12,2*%
%TO.N,Net-(F1-Pad2)*%
X166250000Y-58500000D03*
%TD*%
%TO.P,J13,2*%
%TO.N,Net-(F2-Pad2)*%
X158750000Y-58500000D03*
%TO.P,J13,1*%
%TO.N,VCC*%
%TA.AperFunction,ComponentPad*%
G36*
G01*
X158000000Y-55150000D02*
X159500000Y-55150000D01*
G75*
G02*
X159750000Y-55400000I0J-250000D01*
G01*
X159750000Y-56600000D01*
G75*
G02*
X159500000Y-56850000I-250000J0D01*
G01*
X158000000Y-56850000D01*
G75*
G02*
X157750000Y-56600000I0J250000D01*
G01*
X157750000Y-55400000D01*
G75*
G02*
X158000000Y-55150000I250000J0D01*
G01*
G37*
%TD.AperFunction*%
%TD*%
%TO.P,J14,1*%
%TO.N,VCC*%
%TA.AperFunction,ComponentPad*%
G36*
G01*
X150500000Y-55150000D02*
X152000000Y-55150000D01*
G75*
G02*
X152250000Y-55400000I0J-250000D01*
G01*
X152250000Y-56600000D01*
G75*
G02*
X152000000Y-56850000I-250000J0D01*
G01*
X150500000Y-56850000D01*
G75*
G02*
X150250000Y-56600000I0J250000D01*
G01*
X150250000Y-55400000D01*
G75*
G02*
X150500000Y-55150000I250000J0D01*
G01*
G37*
%TD.AperFunction*%
%TO.P,J14,2*%
%TO.N,Net-(F3-Pad2)*%
X151250000Y-58500000D03*
%TD*%
%TO.P,J15,2*%
%TO.N,Net-(F4-Pad2)*%
X143750000Y-58500000D03*
%TO.P,J15,1*%
%TO.N,VCC*%
%TA.AperFunction,ComponentPad*%
G36*
G01*
X143000000Y-55150000D02*
X144500000Y-55150000D01*
G75*
G02*
X144750000Y-55400000I0J-250000D01*
G01*
X144750000Y-56600000D01*
G75*
G02*
X144500000Y-56850000I-250000J0D01*
G01*
X143000000Y-56850000D01*
G75*
G02*
X142750000Y-56600000I0J250000D01*
G01*
X142750000Y-55400000D01*
G75*
G02*
X143000000Y-55150000I250000J0D01*
G01*
G37*
%TD.AperFunction*%
%TD*%
D17*
%TO.P,TP11,1*%
%TO.N,/CAN_TX*%
X130000000Y-74500000D03*
%TD*%
%TO.P,TP10,1*%
%TO.N,/CAN_RX*%
X130000000Y-72500000D03*
%TD*%
%TO.P,TP16,1*%
%TO.N,/CAN+*%
X111000000Y-81000000D03*
%TD*%
%TO.P,TP17,1*%
%TO.N,/CAN-*%
X111000000Y-79000000D03*
%TD*%
D11*
%TO.P,C13,1*%
%TO.N,+5V*%
X173750000Y-94500000D03*
D10*
%TO.P,C13,2*%
%TO.N,GND*%
X170250000Y-94500000D03*
%TD*%
D17*
%TO.P,TP1,1*%
%TO.N,/UART_TXO*%
X131500000Y-77500000D03*
%TD*%
%TO.P,TP2,1*%
%TO.N,/UART_RXI*%
X131500000Y-79500000D03*
%TD*%
%TO.P,TP4,1*%
%TO.N,/OUT1*%
X166250000Y-72000000D03*
%TD*%
%TO.P,TP5,1*%
%TO.N,/OUT2*%
X158750000Y-72500000D03*
%TD*%
%TO.P,TP6,1*%
%TO.N,/OUT3*%
X151250000Y-72500000D03*
%TD*%
%TO.P,TP7,1*%
%TO.N,/OUT4*%
X143750000Y-72500000D03*
%TD*%
%TO.P,TP8,1*%
%TO.N,/RGB1*%
X152000000Y-82000000D03*
%TD*%
%TO.P,TP9,1*%
%TO.N,/RGB2*%
X157750000Y-81750000D03*
%TD*%
%TO.P,TP12,1*%
%TO.N,/IN1*%
X148000000Y-91750000D03*
%TD*%
%TO.P,TP13,1*%
%TO.N,/IN2*%
X148500000Y-89750000D03*
%TD*%
%TO.P,TP14,1*%
%TO.N,/IN3*%
X149000000Y-87750000D03*
%TD*%
%TO.P,TP15,1*%
%TO.N,/IN4*%
X149500000Y-85750000D03*
%TD*%
D11*
%TO.P,C15,1*%
%TO.N,VCC*%
X132750000Y-55500000D03*
D10*
%TO.P,C15,2*%
%TO.N,GND*%
X132750000Y-59000000D03*
%TD*%
D18*
%TO.N,+3V3*%
X134750000Y-87250000D03*
X147837500Y-76587500D03*
X144750000Y-83000000D03*
X136250000Y-75250000D03*
X134000000Y-86250000D03*
%TO.N,GND*%
X112000000Y-98000000D03*
X112000000Y-87000000D03*
X121750000Y-87000000D03*
X107500000Y-100500000D03*
X109000000Y-100500000D03*
X110500000Y-100500000D03*
X108250000Y-101250000D03*
X109750000Y-101250000D03*
X101000000Y-64000000D03*
X119250000Y-92750000D03*
X117750000Y-94000000D03*
X123000000Y-90000000D03*
X120500000Y-91250000D03*
X124250000Y-88250000D03*
X120500000Y-92750000D03*
X122000000Y-91250000D03*
X143750000Y-97000000D03*
X151250000Y-97000000D03*
X158750000Y-97000000D03*
X166250000Y-97000000D03*
X162500000Y-93250000D03*
X153750000Y-93000000D03*
X150500000Y-84500000D03*
X140000000Y-92000000D03*
X144000000Y-92000000D03*
X131250000Y-85250000D03*
X131250000Y-82750000D03*
X172100000Y-69500000D03*
X173400000Y-69500000D03*
X174600000Y-69500000D03*
X175900000Y-69500000D03*
X177000000Y-67800000D03*
X171000000Y-67800000D03*
X133500000Y-74500000D03*
X169250000Y-70500000D03*
X168250000Y-71500000D03*
X154750000Y-87000000D03*
X138000000Y-73500000D03*
X150750000Y-75750000D03*
X149000000Y-77250000D03*
X161250000Y-82250000D03*
X145500000Y-84250000D03*
X143250000Y-85000000D03*
X138250000Y-77000000D03*
X147750000Y-72000000D03*
X140250000Y-72000000D03*
X155250000Y-72000000D03*
X162750000Y-72000000D03*
X169250000Y-71500000D03*
X161250000Y-71500000D03*
X160250000Y-71500000D03*
X160750000Y-72250000D03*
X152750000Y-71500000D03*
X153750000Y-71500000D03*
X153250000Y-72250000D03*
X145250000Y-71500000D03*
X146750000Y-71250000D03*
X146000000Y-72000000D03*
X124500000Y-91750000D03*
X123750000Y-93000000D03*
X131000000Y-87250000D03*
X126300000Y-76900000D03*
X128500000Y-85000000D03*
X137500000Y-83750000D03*
X145750000Y-77500000D03*
X101000000Y-58000000D03*
X179000000Y-58000000D03*
X179000000Y-72000000D03*
X128500000Y-88000000D03*
X138750000Y-71000000D03*
X147250000Y-58000000D03*
X154750000Y-58000000D03*
X162250000Y-58000000D03*
X168250000Y-58000000D03*
X167000000Y-64000000D03*
X160500000Y-64000000D03*
X153250000Y-64000000D03*
X145750000Y-64000000D03*
X141750000Y-58000000D03*
X173500000Y-65750000D03*
X164500000Y-86000000D03*
X172000000Y-80250000D03*
X172000000Y-87250000D03*
X112000000Y-75000000D03*
X112000000Y-64000000D03*
X121750000Y-75000000D03*
X149250000Y-94000000D03*
X141750000Y-94500000D03*
X138250000Y-102000000D03*
X144750000Y-102000000D03*
X152500000Y-102000000D03*
X159750000Y-102000000D03*
X165250000Y-100500000D03*
X148000000Y-86500000D03*
X144000000Y-80750000D03*
X137750000Y-80750000D03*
X139750000Y-85000000D03*
X132750000Y-80000000D03*
X133000000Y-77000000D03*
X142750000Y-73500000D03*
X135250000Y-85750000D03*
X136750000Y-88000000D03*
X162000000Y-88500000D03*
X124250000Y-83750000D03*
%TO.N,GNDCAN*%
X120250000Y-76500000D03*
X120250000Y-85500000D03*
X110500000Y-65500000D03*
X118500000Y-84250000D03*
X114000000Y-78000000D03*
X117500000Y-78000000D03*
X101000000Y-65500000D03*
X101000000Y-97750000D03*
X101000000Y-81000000D03*
X110500000Y-96500000D03*
X107500000Y-96500000D03*
X104250000Y-97750000D03*
X110500000Y-85500000D03*
X108250000Y-95750000D03*
X109750000Y-95750000D03*
X109000000Y-96500000D03*
X110500000Y-76500000D03*
%TO.N,/SWCLK*%
X145500000Y-78750000D03*
X148999970Y-78750000D03*
%TO.N,/SWO*%
X149000000Y-79750000D03*
X145500000Y-79750000D03*
%TO.N,/~RESET*%
X145512653Y-80762653D03*
X149000000Y-80750000D03*
%TD*%
D19*
%TO.N,+3V3*%
X153000000Y-78500000D02*
X152000000Y-78500000D01*
X152000000Y-78500000D02*
X149250000Y-75750000D01*
X147837500Y-76587500D02*
X147000000Y-75750000D01*
X147000000Y-75750000D02*
X146750000Y-75750000D01*
X149250000Y-75750000D02*
X146750000Y-75750000D01*
X146750000Y-75750000D02*
X145250000Y-75750000D01*
X136250000Y-75250000D02*
X134750000Y-76750000D01*
X134000000Y-77500000D02*
X134750000Y-76750000D01*
X134000000Y-86250000D02*
X134000000Y-80000000D01*
X140000000Y-83000000D02*
X143000000Y-80000000D01*
X140000000Y-83000000D02*
X135750000Y-87250000D01*
X135750000Y-87250000D02*
X134750000Y-87250000D01*
X145250000Y-75750000D02*
X143000000Y-78000000D01*
X143000000Y-78000000D02*
X143000000Y-80000000D01*
X142000000Y-83000000D02*
X140000000Y-83000000D01*
X144750000Y-83000000D02*
X142000000Y-83000000D01*
X134000000Y-80000000D02*
X134000000Y-77500000D01*
D20*
%TO.N,/SWCLK*%
X145500000Y-78750000D02*
X148750000Y-78750000D01*
X148750000Y-78750000D02*
X148999970Y-78750000D01*
%TO.N,/SWO*%
X149000000Y-79750000D02*
X145500000Y-79750000D01*
%TO.N,/~RESET*%
X148987347Y-80762653D02*
X149000000Y-80750000D01*
X145512653Y-80762653D02*
X148987347Y-80762653D01*
%TO.N,/CAN-*%
X108353554Y-72250000D02*
X107000000Y-72250000D01*
X109600000Y-79450000D02*
X109600000Y-73496446D01*
X107000000Y-72250000D02*
X106000000Y-71250000D01*
X109900000Y-79750000D02*
X109600000Y-79450000D01*
X109600000Y-73496446D02*
X108353554Y-72250000D01*
X110250000Y-79750000D02*
X109900000Y-79750000D01*
X111000000Y-79000000D02*
X110250000Y-79750000D01*
%TO.N,/CAN+*%
X107000000Y-72750000D02*
X106000000Y-73750000D01*
X109100000Y-73703554D02*
X108146446Y-72750000D01*
X109100000Y-79650000D02*
X109100000Y-73703554D01*
X108146446Y-72750000D02*
X107000000Y-72750000D01*
X109700000Y-80250000D02*
X109100000Y-79650000D01*
X110250000Y-80250000D02*
X109700000Y-80250000D01*
X111000000Y-81000000D02*
X110250000Y-80250000D01*
%TD*%
%TO.N,GNDCAN*%
X110875000Y-76000000D02*
X110877402Y-76024386D01*
X110884515Y-76047835D01*
X110896066Y-76069446D01*
X110911612Y-76088388D01*
X110930554Y-76103934D01*
X110952165Y-76115485D01*
X110975614Y-76122598D01*
X111000000Y-76125000D01*
X120625000Y-76125000D01*
X120625000Y-85875000D01*
X111000000Y-85875000D01*
X110975614Y-85877402D01*
X110952165Y-85884515D01*
X110930554Y-85896066D01*
X110911612Y-85911612D01*
X110896066Y-85930554D01*
X110884515Y-85952165D01*
X110877402Y-85975614D01*
X110875000Y-86000000D01*
X110875000Y-98125000D01*
X100650000Y-98125000D01*
X100650000Y-86250000D01*
X104392864Y-86250000D01*
X104421343Y-86539150D01*
X104505685Y-86817189D01*
X104642649Y-87073431D01*
X104826972Y-87298028D01*
X105051569Y-87482351D01*
X105084588Y-87500000D01*
X105051569Y-87517649D01*
X104826972Y-87701972D01*
X104642649Y-87926569D01*
X104505685Y-88182811D01*
X104421343Y-88460850D01*
X104392864Y-88750000D01*
X104421343Y-89039150D01*
X104505685Y-89317189D01*
X104642649Y-89573431D01*
X104826972Y-89798028D01*
X104901250Y-89858987D01*
X104787196Y-89919950D01*
X104654143Y-90029143D01*
X104544950Y-90162196D01*
X104463812Y-90313995D01*
X104413847Y-90478706D01*
X104396976Y-90650000D01*
X104396976Y-91850000D01*
X104413847Y-92021294D01*
X104463812Y-92186005D01*
X104544950Y-92337804D01*
X104654143Y-92470857D01*
X104787196Y-92580050D01*
X104938995Y-92661188D01*
X105103706Y-92711153D01*
X105275000Y-92728024D01*
X106725000Y-92728024D01*
X106776268Y-92722975D01*
X106775000Y-92729348D01*
X106775000Y-92970652D01*
X106822076Y-93207319D01*
X106914419Y-93430255D01*
X107048481Y-93630892D01*
X107219108Y-93801519D01*
X107419745Y-93935581D01*
X107642681Y-94027924D01*
X107879348Y-94075000D01*
X108120652Y-94075000D01*
X108357319Y-94027924D01*
X108580255Y-93935581D01*
X108780892Y-93801519D01*
X108951519Y-93630892D01*
X109085581Y-93430255D01*
X109177924Y-93207319D01*
X109225000Y-92970652D01*
X109225000Y-92729348D01*
X109177924Y-92492681D01*
X109085581Y-92269745D01*
X108951519Y-92069108D01*
X108780892Y-91898481D01*
X108580255Y-91764419D01*
X108357319Y-91672076D01*
X108120652Y-91625000D01*
X107879348Y-91625000D01*
X107642681Y-91672076D01*
X107603024Y-91688502D01*
X107603024Y-90650000D01*
X107586153Y-90478706D01*
X107536188Y-90313995D01*
X107455050Y-90162196D01*
X107345857Y-90029143D01*
X107212804Y-89919950D01*
X107098750Y-89858987D01*
X107173028Y-89798028D01*
X107357351Y-89573431D01*
X107494315Y-89317189D01*
X107578657Y-89039150D01*
X107607136Y-88750000D01*
X107578657Y-88460850D01*
X107494315Y-88182811D01*
X107357351Y-87926569D01*
X107173028Y-87701972D01*
X106948431Y-87517649D01*
X106915412Y-87500000D01*
X106948431Y-87482351D01*
X107173028Y-87298028D01*
X107357351Y-87073431D01*
X107494315Y-86817189D01*
X107578657Y-86539150D01*
X107607136Y-86250000D01*
X107578657Y-85960850D01*
X107494315Y-85682811D01*
X107357351Y-85426569D01*
X107173028Y-85201972D01*
X106948431Y-85017649D01*
X106909769Y-84996984D01*
X107126232Y-84833125D01*
X107318301Y-84616982D01*
X107464512Y-84367522D01*
X107557045Y-84103372D01*
X107437812Y-83875000D01*
X106125000Y-83875000D01*
X106125000Y-83895000D01*
X105875000Y-83895000D01*
X105875000Y-83875000D01*
X104562188Y-83875000D01*
X104442955Y-84103372D01*
X104535488Y-84367522D01*
X104681699Y-84616982D01*
X104873768Y-84833125D01*
X105090231Y-84996984D01*
X105051569Y-85017649D01*
X104826972Y-85201972D01*
X104642649Y-85426569D01*
X104505685Y-85682811D01*
X104421343Y-85960850D01*
X104392864Y-86250000D01*
X100650000Y-86250000D01*
X100650000Y-83396628D01*
X104442955Y-83396628D01*
X104562188Y-83625000D01*
X105875000Y-83625000D01*
X105875000Y-82431250D01*
X106125000Y-82431250D01*
X106125000Y-83625000D01*
X107437812Y-83625000D01*
X107557045Y-83396628D01*
X107464512Y-83132478D01*
X107318301Y-82883018D01*
X107126232Y-82666875D01*
X106895686Y-82492356D01*
X106635523Y-82366168D01*
X106355741Y-82293160D01*
X106125000Y-82431250D01*
X105875000Y-82431250D01*
X105644259Y-82293160D01*
X105364477Y-82366168D01*
X105104314Y-82492356D01*
X104873768Y-82666875D01*
X104681699Y-82883018D01*
X104535488Y-83132478D01*
X104442955Y-83396628D01*
X100650000Y-83396628D01*
X100650000Y-71250000D01*
X104392864Y-71250000D01*
X104421343Y-71539150D01*
X104505685Y-71817189D01*
X104642649Y-72073431D01*
X104826972Y-72298028D01*
X105051569Y-72482351D01*
X105084588Y-72500000D01*
X105051569Y-72517649D01*
X104826972Y-72701972D01*
X104642649Y-72926569D01*
X104505685Y-73182811D01*
X104421343Y-73460850D01*
X104392864Y-73750000D01*
X104421343Y-74039150D01*
X104505685Y-74317189D01*
X104642649Y-74573431D01*
X104826972Y-74798028D01*
X104901250Y-74858987D01*
X104787196Y-74919950D01*
X104654143Y-75029143D01*
X104544950Y-75162196D01*
X104463812Y-75313995D01*
X104413847Y-75478706D01*
X104396976Y-75650000D01*
X104396976Y-76850000D01*
X104413847Y-77021294D01*
X104463812Y-77186005D01*
X104544950Y-77337804D01*
X104654143Y-77470857D01*
X104787196Y-77580050D01*
X104938995Y-77661188D01*
X105103706Y-77711153D01*
X105275000Y-77728024D01*
X106725000Y-77728024D01*
X106776268Y-77722975D01*
X106775000Y-77729348D01*
X106775000Y-77970652D01*
X106822076Y-78207319D01*
X106914419Y-78430255D01*
X107048481Y-78630892D01*
X107219108Y-78801519D01*
X107419745Y-78935581D01*
X107642681Y-79027924D01*
X107879348Y-79075000D01*
X108120652Y-79075000D01*
X108350000Y-79029380D01*
X108350000Y-79613173D01*
X108346373Y-79650000D01*
X108350000Y-79686827D01*
X108350000Y-79686834D01*
X108360853Y-79797025D01*
X108403739Y-79938400D01*
X108473381Y-80068692D01*
X108567105Y-80182895D01*
X108595719Y-80206378D01*
X109143626Y-80754285D01*
X109167105Y-80782895D01*
X109281307Y-80876619D01*
X109411599Y-80946261D01*
X109552974Y-80989147D01*
X109663165Y-81000000D01*
X109663172Y-81000000D01*
X109699999Y-81003627D01*
X109736827Y-81000000D01*
X109875000Y-81000000D01*
X109875000Y-81110803D01*
X109918233Y-81328150D01*
X110003038Y-81532887D01*
X110126156Y-81717145D01*
X110282855Y-81873844D01*
X110467113Y-81996962D01*
X110671850Y-82081767D01*
X110889197Y-82125000D01*
X111110803Y-82125000D01*
X111328150Y-82081767D01*
X111532887Y-81996962D01*
X111717145Y-81873844D01*
X111873844Y-81717145D01*
X111996962Y-81532887D01*
X112081767Y-81328150D01*
X112125000Y-81110803D01*
X112125000Y-80889197D01*
X112081767Y-80671850D01*
X111996962Y-80467113D01*
X111873844Y-80282855D01*
X111717145Y-80126156D01*
X111532887Y-80003038D01*
X111525553Y-80000000D01*
X111532887Y-79996962D01*
X111717145Y-79873844D01*
X111873844Y-79717145D01*
X111996962Y-79532887D01*
X112081767Y-79328150D01*
X112125000Y-79110803D01*
X112125000Y-78889197D01*
X112081767Y-78671850D01*
X111996962Y-78467113D01*
X111873844Y-78282855D01*
X111717145Y-78126156D01*
X111532887Y-78003038D01*
X111328150Y-77918233D01*
X111110803Y-77875000D01*
X110889197Y-77875000D01*
X110671850Y-77918233D01*
X110467113Y-78003038D01*
X110350000Y-78081291D01*
X110350000Y-73533273D01*
X110353627Y-73496446D01*
X110350000Y-73459618D01*
X110350000Y-73459611D01*
X110339147Y-73349420D01*
X110296261Y-73208045D01*
X110226619Y-73077753D01*
X110225948Y-73076935D01*
X110156376Y-72992162D01*
X110156374Y-72992160D01*
X110132895Y-72963551D01*
X110104286Y-72940072D01*
X108909932Y-71745719D01*
X108886449Y-71717105D01*
X108772247Y-71623381D01*
X108641955Y-71553739D01*
X108500580Y-71510853D01*
X108390389Y-71500000D01*
X108390381Y-71500000D01*
X108353554Y-71496373D01*
X108316727Y-71500000D01*
X107582513Y-71500000D01*
X107607136Y-71250000D01*
X107578657Y-70960850D01*
X107494315Y-70682811D01*
X107357351Y-70426569D01*
X107173028Y-70201972D01*
X106948431Y-70017649D01*
X106909769Y-69996984D01*
X107126232Y-69833125D01*
X107318301Y-69616982D01*
X107464512Y-69367522D01*
X107557045Y-69103372D01*
X107437812Y-68875000D01*
X106125000Y-68875000D01*
X106125000Y-68895000D01*
X105875000Y-68895000D01*
X105875000Y-68875000D01*
X104562188Y-68875000D01*
X104442955Y-69103372D01*
X104535488Y-69367522D01*
X104681699Y-69616982D01*
X104873768Y-69833125D01*
X105090231Y-69996984D01*
X105051569Y-70017649D01*
X104826972Y-70201972D01*
X104642649Y-70426569D01*
X104505685Y-70682811D01*
X104421343Y-70960850D01*
X104392864Y-71250000D01*
X100650000Y-71250000D01*
X100650000Y-68396628D01*
X104442955Y-68396628D01*
X104562188Y-68625000D01*
X105875000Y-68625000D01*
X105875000Y-67431250D01*
X106125000Y-67431250D01*
X106125000Y-68625000D01*
X107437812Y-68625000D01*
X107557045Y-68396628D01*
X107464512Y-68132478D01*
X107318301Y-67883018D01*
X107126232Y-67666875D01*
X106895686Y-67492356D01*
X106635523Y-67366168D01*
X106355741Y-67293160D01*
X106125000Y-67431250D01*
X105875000Y-67431250D01*
X105644259Y-67293160D01*
X105364477Y-67366168D01*
X105104314Y-67492356D01*
X104873768Y-67666875D01*
X104681699Y-67883018D01*
X104535488Y-68132478D01*
X104442955Y-68396628D01*
X100650000Y-68396628D01*
X100650000Y-65125000D01*
X110875000Y-65125000D01*
X110875000Y-76000000D01*
%TA.AperFunction,Conductor*%
D21*
G36*
X110875000Y-76000000D02*
G01*
X110877402Y-76024386D01*
X110884515Y-76047835D01*
X110896066Y-76069446D01*
X110911612Y-76088388D01*
X110930554Y-76103934D01*
X110952165Y-76115485D01*
X110975614Y-76122598D01*
X111000000Y-76125000D01*
X120625000Y-76125000D01*
X120625000Y-85875000D01*
X111000000Y-85875000D01*
X110975614Y-85877402D01*
X110952165Y-85884515D01*
X110930554Y-85896066D01*
X110911612Y-85911612D01*
X110896066Y-85930554D01*
X110884515Y-85952165D01*
X110877402Y-85975614D01*
X110875000Y-86000000D01*
X110875000Y-98125000D01*
X100650000Y-98125000D01*
X100650000Y-86250000D01*
X104392864Y-86250000D01*
X104421343Y-86539150D01*
X104505685Y-86817189D01*
X104642649Y-87073431D01*
X104826972Y-87298028D01*
X105051569Y-87482351D01*
X105084588Y-87500000D01*
X105051569Y-87517649D01*
X104826972Y-87701972D01*
X104642649Y-87926569D01*
X104505685Y-88182811D01*
X104421343Y-88460850D01*
X104392864Y-88750000D01*
X104421343Y-89039150D01*
X104505685Y-89317189D01*
X104642649Y-89573431D01*
X104826972Y-89798028D01*
X104901250Y-89858987D01*
X104787196Y-89919950D01*
X104654143Y-90029143D01*
X104544950Y-90162196D01*
X104463812Y-90313995D01*
X104413847Y-90478706D01*
X104396976Y-90650000D01*
X104396976Y-91850000D01*
X104413847Y-92021294D01*
X104463812Y-92186005D01*
X104544950Y-92337804D01*
X104654143Y-92470857D01*
X104787196Y-92580050D01*
X104938995Y-92661188D01*
X105103706Y-92711153D01*
X105275000Y-92728024D01*
X106725000Y-92728024D01*
X106776268Y-92722975D01*
X106775000Y-92729348D01*
X106775000Y-92970652D01*
X106822076Y-93207319D01*
X106914419Y-93430255D01*
X107048481Y-93630892D01*
X107219108Y-93801519D01*
X107419745Y-93935581D01*
X107642681Y-94027924D01*
X107879348Y-94075000D01*
X108120652Y-94075000D01*
X108357319Y-94027924D01*
X108580255Y-93935581D01*
X108780892Y-93801519D01*
X108951519Y-93630892D01*
X109085581Y-93430255D01*
X109177924Y-93207319D01*
X109225000Y-92970652D01*
X109225000Y-92729348D01*
X109177924Y-92492681D01*
X109085581Y-92269745D01*
X108951519Y-92069108D01*
X108780892Y-91898481D01*
X108580255Y-91764419D01*
X108357319Y-91672076D01*
X108120652Y-91625000D01*
X107879348Y-91625000D01*
X107642681Y-91672076D01*
X107603024Y-91688502D01*
X107603024Y-90650000D01*
X107586153Y-90478706D01*
X107536188Y-90313995D01*
X107455050Y-90162196D01*
X107345857Y-90029143D01*
X107212804Y-89919950D01*
X107098750Y-89858987D01*
X107173028Y-89798028D01*
X107357351Y-89573431D01*
X107494315Y-89317189D01*
X107578657Y-89039150D01*
X107607136Y-88750000D01*
X107578657Y-88460850D01*
X107494315Y-88182811D01*
X107357351Y-87926569D01*
X107173028Y-87701972D01*
X106948431Y-87517649D01*
X106915412Y-87500000D01*
X106948431Y-87482351D01*
X107173028Y-87298028D01*
X107357351Y-87073431D01*
X107494315Y-86817189D01*
X107578657Y-86539150D01*
X107607136Y-86250000D01*
X107578657Y-85960850D01*
X107494315Y-85682811D01*
X107357351Y-85426569D01*
X107173028Y-85201972D01*
X106948431Y-85017649D01*
X106909769Y-84996984D01*
X107126232Y-84833125D01*
X107318301Y-84616982D01*
X107464512Y-84367522D01*
X107557045Y-84103372D01*
X107437812Y-83875000D01*
X106125000Y-83875000D01*
X106125000Y-83895000D01*
X105875000Y-83895000D01*
X105875000Y-83875000D01*
X104562188Y-83875000D01*
X104442955Y-84103372D01*
X104535488Y-84367522D01*
X104681699Y-84616982D01*
X104873768Y-84833125D01*
X105090231Y-84996984D01*
X105051569Y-85017649D01*
X104826972Y-85201972D01*
X104642649Y-85426569D01*
X104505685Y-85682811D01*
X104421343Y-85960850D01*
X104392864Y-86250000D01*
X100650000Y-86250000D01*
X100650000Y-83396628D01*
X104442955Y-83396628D01*
X104562188Y-83625000D01*
X105875000Y-83625000D01*
X105875000Y-82431250D01*
X106125000Y-82431250D01*
X106125000Y-83625000D01*
X107437812Y-83625000D01*
X107557045Y-83396628D01*
X107464512Y-83132478D01*
X107318301Y-82883018D01*
X107126232Y-82666875D01*
X106895686Y-82492356D01*
X106635523Y-82366168D01*
X106355741Y-82293160D01*
X106125000Y-82431250D01*
X105875000Y-82431250D01*
X105644259Y-82293160D01*
X105364477Y-82366168D01*
X105104314Y-82492356D01*
X104873768Y-82666875D01*
X104681699Y-82883018D01*
X104535488Y-83132478D01*
X104442955Y-83396628D01*
X100650000Y-83396628D01*
X100650000Y-71250000D01*
X104392864Y-71250000D01*
X104421343Y-71539150D01*
X104505685Y-71817189D01*
X104642649Y-72073431D01*
X104826972Y-72298028D01*
X105051569Y-72482351D01*
X105084588Y-72500000D01*
X105051569Y-72517649D01*
X104826972Y-72701972D01*
X104642649Y-72926569D01*
X104505685Y-73182811D01*
X104421343Y-73460850D01*
X104392864Y-73750000D01*
X104421343Y-74039150D01*
X104505685Y-74317189D01*
X104642649Y-74573431D01*
X104826972Y-74798028D01*
X104901250Y-74858987D01*
X104787196Y-74919950D01*
X104654143Y-75029143D01*
X104544950Y-75162196D01*
X104463812Y-75313995D01*
X104413847Y-75478706D01*
X104396976Y-75650000D01*
X104396976Y-76850000D01*
X104413847Y-77021294D01*
X104463812Y-77186005D01*
X104544950Y-77337804D01*
X104654143Y-77470857D01*
X104787196Y-77580050D01*
X104938995Y-77661188D01*
X105103706Y-77711153D01*
X105275000Y-77728024D01*
X106725000Y-77728024D01*
X106776268Y-77722975D01*
X106775000Y-77729348D01*
X106775000Y-77970652D01*
X106822076Y-78207319D01*
X106914419Y-78430255D01*
X107048481Y-78630892D01*
X107219108Y-78801519D01*
X107419745Y-78935581D01*
X107642681Y-79027924D01*
X107879348Y-79075000D01*
X108120652Y-79075000D01*
X108350000Y-79029380D01*
X108350000Y-79613173D01*
X108346373Y-79650000D01*
X108350000Y-79686827D01*
X108350000Y-79686834D01*
X108360853Y-79797025D01*
X108403739Y-79938400D01*
X108473381Y-80068692D01*
X108567105Y-80182895D01*
X108595719Y-80206378D01*
X109143626Y-80754285D01*
X109167105Y-80782895D01*
X109281307Y-80876619D01*
X109411599Y-80946261D01*
X109552974Y-80989147D01*
X109663165Y-81000000D01*
X109663172Y-81000000D01*
X109699999Y-81003627D01*
X109736827Y-81000000D01*
X109875000Y-81000000D01*
X109875000Y-81110803D01*
X109918233Y-81328150D01*
X110003038Y-81532887D01*
X110126156Y-81717145D01*
X110282855Y-81873844D01*
X110467113Y-81996962D01*
X110671850Y-82081767D01*
X110889197Y-82125000D01*
X111110803Y-82125000D01*
X111328150Y-82081767D01*
X111532887Y-81996962D01*
X111717145Y-81873844D01*
X111873844Y-81717145D01*
X111996962Y-81532887D01*
X112081767Y-81328150D01*
X112125000Y-81110803D01*
X112125000Y-80889197D01*
X112081767Y-80671850D01*
X111996962Y-80467113D01*
X111873844Y-80282855D01*
X111717145Y-80126156D01*
X111532887Y-80003038D01*
X111525553Y-80000000D01*
X111532887Y-79996962D01*
X111717145Y-79873844D01*
X111873844Y-79717145D01*
X111996962Y-79532887D01*
X112081767Y-79328150D01*
X112125000Y-79110803D01*
X112125000Y-78889197D01*
X112081767Y-78671850D01*
X111996962Y-78467113D01*
X111873844Y-78282855D01*
X111717145Y-78126156D01*
X111532887Y-78003038D01*
X111328150Y-77918233D01*
X111110803Y-77875000D01*
X110889197Y-77875000D01*
X110671850Y-77918233D01*
X110467113Y-78003038D01*
X110350000Y-78081291D01*
X110350000Y-73533273D01*
X110353627Y-73496446D01*
X110350000Y-73459618D01*
X110350000Y-73459611D01*
X110339147Y-73349420D01*
X110296261Y-73208045D01*
X110226619Y-73077753D01*
X110225948Y-73076935D01*
X110156376Y-72992162D01*
X110156374Y-72992160D01*
X110132895Y-72963551D01*
X110104286Y-72940072D01*
X108909932Y-71745719D01*
X108886449Y-71717105D01*
X108772247Y-71623381D01*
X108641955Y-71553739D01*
X108500580Y-71510853D01*
X108390389Y-71500000D01*
X108390381Y-71500000D01*
X108353554Y-71496373D01*
X108316727Y-71500000D01*
X107582513Y-71500000D01*
X107607136Y-71250000D01*
X107578657Y-70960850D01*
X107494315Y-70682811D01*
X107357351Y-70426569D01*
X107173028Y-70201972D01*
X106948431Y-70017649D01*
X106909769Y-69996984D01*
X107126232Y-69833125D01*
X107318301Y-69616982D01*
X107464512Y-69367522D01*
X107557045Y-69103372D01*
X107437812Y-68875000D01*
X106125000Y-68875000D01*
X106125000Y-68895000D01*
X105875000Y-68895000D01*
X105875000Y-68875000D01*
X104562188Y-68875000D01*
X104442955Y-69103372D01*
X104535488Y-69367522D01*
X104681699Y-69616982D01*
X104873768Y-69833125D01*
X105090231Y-69996984D01*
X105051569Y-70017649D01*
X104826972Y-70201972D01*
X104642649Y-70426569D01*
X104505685Y-70682811D01*
X104421343Y-70960850D01*
X104392864Y-71250000D01*
X100650000Y-71250000D01*
X100650000Y-68396628D01*
X104442955Y-68396628D01*
X104562188Y-68625000D01*
X105875000Y-68625000D01*
X105875000Y-67431250D01*
X106125000Y-67431250D01*
X106125000Y-68625000D01*
X107437812Y-68625000D01*
X107557045Y-68396628D01*
X107464512Y-68132478D01*
X107318301Y-67883018D01*
X107126232Y-67666875D01*
X106895686Y-67492356D01*
X106635523Y-67366168D01*
X106355741Y-67293160D01*
X106125000Y-67431250D01*
X105875000Y-67431250D01*
X105644259Y-67293160D01*
X105364477Y-67366168D01*
X105104314Y-67492356D01*
X104873768Y-67666875D01*
X104681699Y-67883018D01*
X104535488Y-68132478D01*
X104442955Y-68396628D01*
X100650000Y-68396628D01*
X100650000Y-65125000D01*
X110875000Y-65125000D01*
X110875000Y-76000000D01*
G37*
%TD.AperFunction*%
%TD*%
D20*
%TO.N,GND*%
X174235551Y-50698948D02*
X173625451Y-51106603D01*
X173106603Y-51625451D01*
X172698948Y-52235551D01*
X172418149Y-52913457D01*
X172275000Y-53633119D01*
X172275000Y-54366881D01*
X172418149Y-55086543D01*
X172698948Y-55764449D01*
X173106603Y-56374549D01*
X173625451Y-56893397D01*
X174235551Y-57301052D01*
X174913457Y-57581851D01*
X175633119Y-57725000D01*
X176366881Y-57725000D01*
X177086543Y-57581851D01*
X177764449Y-57301052D01*
X178374549Y-56893397D01*
X178893397Y-56374549D01*
X179301052Y-55764449D01*
X179350000Y-55646279D01*
X179350001Y-104353724D01*
X179301052Y-104235551D01*
X178893397Y-103625451D01*
X178374549Y-103106603D01*
X177764449Y-102698948D01*
X177086543Y-102418149D01*
X176366881Y-102275000D01*
X175633119Y-102275000D01*
X174913457Y-102418149D01*
X174235551Y-102698948D01*
X173625451Y-103106603D01*
X173106603Y-103625451D01*
X172698948Y-104235551D01*
X172418149Y-104913457D01*
X172275000Y-105633119D01*
X172275000Y-106366881D01*
X172418149Y-107086543D01*
X172698948Y-107764449D01*
X173106603Y-108374549D01*
X173625451Y-108893397D01*
X174235551Y-109301052D01*
X174353721Y-109350000D01*
X105646279Y-109350000D01*
X105764449Y-109301052D01*
X106374549Y-108893397D01*
X106893397Y-108374549D01*
X107301052Y-107764449D01*
X107581851Y-107086543D01*
X107725000Y-106366881D01*
X107725000Y-105633119D01*
X107581851Y-104913457D01*
X107301052Y-104235551D01*
X106893397Y-103625451D01*
X106667946Y-103400000D01*
X114871976Y-103400000D01*
X114871976Y-104600000D01*
X114888847Y-104771294D01*
X114938812Y-104936005D01*
X115019950Y-105087804D01*
X115129143Y-105220857D01*
X115262196Y-105330050D01*
X115413995Y-105411188D01*
X115578706Y-105461153D01*
X115750000Y-105478024D01*
X117250000Y-105478024D01*
X117275768Y-105475486D01*
X117275000Y-105479348D01*
X117275000Y-105720652D01*
X117322076Y-105957319D01*
X117414419Y-106180255D01*
X117548481Y-106380892D01*
X117719108Y-106551519D01*
X117919745Y-106685581D01*
X118142681Y-106777924D01*
X118379348Y-106825000D01*
X118620652Y-106825000D01*
X118857319Y-106777924D01*
X119080255Y-106685581D01*
X119280892Y-106551519D01*
X119451519Y-106380892D01*
X119585581Y-106180255D01*
X119677924Y-105957319D01*
X119725000Y-105720652D01*
X119725000Y-105479348D01*
X119677924Y-105242681D01*
X119585581Y-105019745D01*
X119451519Y-104819108D01*
X119280892Y-104648481D01*
X119080255Y-104514419D01*
X118857319Y-104422076D01*
X118620652Y-104375000D01*
X118379348Y-104375000D01*
X118142681Y-104422076D01*
X118128024Y-104428147D01*
X118128024Y-103400000D01*
X118111153Y-103228706D01*
X118061188Y-103063995D01*
X117980050Y-102912196D01*
X117870857Y-102779143D01*
X117737804Y-102669950D01*
X117623020Y-102608597D01*
X117633591Y-102600873D01*
X117829461Y-102387831D01*
X117980005Y-102140670D01*
X118079438Y-101868889D01*
X118082045Y-101853372D01*
X117962812Y-101625000D01*
X116625000Y-101625000D01*
X116625000Y-101645000D01*
X116375000Y-101645000D01*
X116375000Y-101625000D01*
X115037188Y-101625000D01*
X114917955Y-101853372D01*
X114920562Y-101868889D01*
X115019995Y-102140670D01*
X115170539Y-102387831D01*
X115366409Y-102600873D01*
X115376980Y-102608597D01*
X115262196Y-102669950D01*
X115129143Y-102779143D01*
X115019950Y-102912196D01*
X114938812Y-103063995D01*
X114888847Y-103228706D01*
X114871976Y-103400000D01*
X106667946Y-103400000D01*
X106374549Y-103106603D01*
X105764449Y-102698948D01*
X105086543Y-102418149D01*
X104366881Y-102275000D01*
X103633119Y-102275000D01*
X102913457Y-102418149D01*
X102235551Y-102698948D01*
X101625451Y-103106603D01*
X101106603Y-103625451D01*
X100698948Y-104235551D01*
X100650000Y-104353721D01*
X100650000Y-101500000D01*
X139367864Y-101500000D01*
X139396343Y-101789150D01*
X139480685Y-102067189D01*
X139617649Y-102323431D01*
X139801972Y-102548028D01*
X139876250Y-102608987D01*
X139762196Y-102669950D01*
X139629143Y-102779143D01*
X139519950Y-102912196D01*
X139438812Y-103063995D01*
X139388847Y-103228706D01*
X139371976Y-103400000D01*
X139371976Y-104600000D01*
X139388847Y-104771294D01*
X139438812Y-104936005D01*
X139519950Y-105087804D01*
X139629143Y-105220857D01*
X139762196Y-105330050D01*
X139913995Y-105411188D01*
X140078706Y-105461153D01*
X140250000Y-105478024D01*
X141750000Y-105478024D01*
X141775768Y-105475486D01*
X141775000Y-105479348D01*
X141775000Y-105720652D01*
X141822076Y-105957319D01*
X141914419Y-106180255D01*
X142048481Y-106380892D01*
X142219108Y-106551519D01*
X142419745Y-106685581D01*
X142642681Y-106777924D01*
X142879348Y-106825000D01*
X143120652Y-106825000D01*
X143357319Y-106777924D01*
X143580255Y-106685581D01*
X143780892Y-106551519D01*
X143951519Y-106380892D01*
X144085581Y-106180255D01*
X144177924Y-105957319D01*
X144225000Y-105720652D01*
X144225000Y-105479348D01*
X144177924Y-105242681D01*
X144085581Y-105019745D01*
X143951519Y-104819108D01*
X143780892Y-104648481D01*
X143580255Y-104514419D01*
X143357319Y-104422076D01*
X143120652Y-104375000D01*
X142879348Y-104375000D01*
X142642681Y-104422076D01*
X142628024Y-104428147D01*
X142628024Y-103400000D01*
X142611153Y-103228706D01*
X142561188Y-103063995D01*
X142480050Y-102912196D01*
X142370857Y-102779143D01*
X142237804Y-102669950D01*
X142123750Y-102608987D01*
X142198028Y-102548028D01*
X142382351Y-102323431D01*
X142519315Y-102067189D01*
X142603657Y-101789150D01*
X142632136Y-101500000D01*
X146867864Y-101500000D01*
X146896343Y-101789150D01*
X146980685Y-102067189D01*
X147117649Y-102323431D01*
X147301972Y-102548028D01*
X147376250Y-102608987D01*
X147262196Y-102669950D01*
X147129143Y-102779143D01*
X147019950Y-102912196D01*
X146938812Y-103063995D01*
X146888847Y-103228706D01*
X146871976Y-103400000D01*
X146871976Y-104600000D01*
X146888847Y-104771294D01*
X146938812Y-104936005D01*
X147019950Y-105087804D01*
X147129143Y-105220857D01*
X147262196Y-105330050D01*
X147413995Y-105411188D01*
X147578706Y-105461153D01*
X147750000Y-105478024D01*
X149250000Y-105478024D01*
X149275768Y-105475486D01*
X149275000Y-105479348D01*
X149275000Y-105720652D01*
X149322076Y-105957319D01*
X149414419Y-106180255D01*
X149548481Y-106380892D01*
X149719108Y-106551519D01*
X149919745Y-106685581D01*
X150142681Y-106777924D01*
X150379348Y-106825000D01*
X150620652Y-106825000D01*
X150857319Y-106777924D01*
X151080255Y-106685581D01*
X151280892Y-106551519D01*
X151451519Y-106380892D01*
X151585581Y-106180255D01*
X151677924Y-105957319D01*
X151725000Y-105720652D01*
X151725000Y-105479348D01*
X151677924Y-105242681D01*
X151585581Y-105019745D01*
X151451519Y-104819108D01*
X151280892Y-104648481D01*
X151080255Y-104514419D01*
X150857319Y-104422076D01*
X150620652Y-104375000D01*
X150379348Y-104375000D01*
X150142681Y-104422076D01*
X150128024Y-104428147D01*
X150128024Y-103400000D01*
X150111153Y-103228706D01*
X150061188Y-103063995D01*
X149980050Y-102912196D01*
X149870857Y-102779143D01*
X149737804Y-102669950D01*
X149623750Y-102608987D01*
X149698028Y-102548028D01*
X149882351Y-102323431D01*
X150019315Y-102067189D01*
X150103657Y-101789150D01*
X150132136Y-101500000D01*
X154367864Y-101500000D01*
X154396343Y-101789150D01*
X154480685Y-102067189D01*
X154617649Y-102323431D01*
X154801972Y-102548028D01*
X154876250Y-102608987D01*
X154762196Y-102669950D01*
X154629143Y-102779143D01*
X154519950Y-102912196D01*
X154438812Y-103063995D01*
X154388847Y-103228706D01*
X154371976Y-103400000D01*
X154371976Y-104600000D01*
X154388847Y-104771294D01*
X154438812Y-104936005D01*
X154519950Y-105087804D01*
X154629143Y-105220857D01*
X154762196Y-105330050D01*
X154913995Y-105411188D01*
X155078706Y-105461153D01*
X155250000Y-105478024D01*
X156750000Y-105478024D01*
X156775768Y-105475486D01*
X156775000Y-105479348D01*
X156775000Y-105720652D01*
X156822076Y-105957319D01*
X156914419Y-106180255D01*
X157048481Y-106380892D01*
X157219108Y-106551519D01*
X157419745Y-106685581D01*
X157642681Y-106777924D01*
X157879348Y-106825000D01*
X158120652Y-106825000D01*
X158357319Y-106777924D01*
X158580255Y-106685581D01*
X158780892Y-106551519D01*
X158951519Y-106380892D01*
X159085581Y-106180255D01*
X159177924Y-105957319D01*
X159225000Y-105720652D01*
X159225000Y-105479348D01*
X159177924Y-105242681D01*
X159085581Y-105019745D01*
X158951519Y-104819108D01*
X158780892Y-104648481D01*
X158580255Y-104514419D01*
X158357319Y-104422076D01*
X158120652Y-104375000D01*
X157879348Y-104375000D01*
X157642681Y-104422076D01*
X157628024Y-104428147D01*
X157628024Y-103400000D01*
X157611153Y-103228706D01*
X157561188Y-103063995D01*
X157480050Y-102912196D01*
X157370857Y-102779143D01*
X157237804Y-102669950D01*
X157123750Y-102608987D01*
X157198028Y-102548028D01*
X157382351Y-102323431D01*
X157519315Y-102067189D01*
X157603657Y-101789150D01*
X157632136Y-101500000D01*
X161867864Y-101500000D01*
X161896343Y-101789150D01*
X161980685Y-102067189D01*
X162117649Y-102323431D01*
X162301972Y-102548028D01*
X162376250Y-102608987D01*
X162262196Y-102669950D01*
X162129143Y-102779143D01*
X162019950Y-102912196D01*
X161938812Y-103063995D01*
X161888847Y-103228706D01*
X161871976Y-103400000D01*
X161871976Y-104600000D01*
X161888847Y-104771294D01*
X161938812Y-104936005D01*
X162019950Y-105087804D01*
X162129143Y-105220857D01*
X162262196Y-105330050D01*
X162413995Y-105411188D01*
X162578706Y-105461153D01*
X162750000Y-105478024D01*
X164250000Y-105478024D01*
X164275768Y-105475486D01*
X164275000Y-105479348D01*
X164275000Y-105720652D01*
X164322076Y-105957319D01*
X164414419Y-106180255D01*
X164548481Y-106380892D01*
X164719108Y-106551519D01*
X164919745Y-106685581D01*
X165142681Y-106777924D01*
X165379348Y-106825000D01*
X165620652Y-106825000D01*
X165857319Y-106777924D01*
X166080255Y-106685581D01*
X166280892Y-106551519D01*
X166451519Y-106380892D01*
X166585581Y-106180255D01*
X166677924Y-105957319D01*
X166725000Y-105720652D01*
X166725000Y-105479348D01*
X166677924Y-105242681D01*
X166585581Y-105019745D01*
X166451519Y-104819108D01*
X166280892Y-104648481D01*
X166080255Y-104514419D01*
X165857319Y-104422076D01*
X165620652Y-104375000D01*
X165379348Y-104375000D01*
X165142681Y-104422076D01*
X165128024Y-104428147D01*
X165128024Y-103400000D01*
X165111153Y-103228706D01*
X165061188Y-103063995D01*
X164980050Y-102912196D01*
X164870857Y-102779143D01*
X164737804Y-102669950D01*
X164623750Y-102608987D01*
X164698028Y-102548028D01*
X164882351Y-102323431D01*
X165019315Y-102067189D01*
X165103657Y-101789150D01*
X165132136Y-101500000D01*
X165103657Y-101210850D01*
X165019315Y-100932811D01*
X164882351Y-100676569D01*
X164698028Y-100451972D01*
X164473431Y-100267649D01*
X164217189Y-100130685D01*
X163939150Y-100046343D01*
X163722452Y-100025000D01*
X163277548Y-100025000D01*
X163060850Y-100046343D01*
X162782811Y-100130685D01*
X162526569Y-100267649D01*
X162301972Y-100451972D01*
X162117649Y-100676569D01*
X161980685Y-100932811D01*
X161896343Y-101210850D01*
X161867864Y-101500000D01*
X157632136Y-101500000D01*
X157603657Y-101210850D01*
X157519315Y-100932811D01*
X157382351Y-100676569D01*
X157198028Y-100451972D01*
X156973431Y-100267649D01*
X156717189Y-100130685D01*
X156439150Y-100046343D01*
X156222452Y-100025000D01*
X155777548Y-100025000D01*
X155560850Y-100046343D01*
X155282811Y-100130685D01*
X155026569Y-100267649D01*
X154801972Y-100451972D01*
X154617649Y-100676569D01*
X154480685Y-100932811D01*
X154396343Y-101210850D01*
X154367864Y-101500000D01*
X150132136Y-101500000D01*
X150103657Y-101210850D01*
X150019315Y-100932811D01*
X149882351Y-100676569D01*
X149698028Y-100451972D01*
X149473431Y-100267649D01*
X149217189Y-100130685D01*
X148939150Y-100046343D01*
X148722452Y-100025000D01*
X148277548Y-100025000D01*
X148060850Y-100046343D01*
X147782811Y-100130685D01*
X147526569Y-100267649D01*
X147301972Y-100451972D01*
X147117649Y-100676569D01*
X146980685Y-100932811D01*
X146896343Y-101210850D01*
X146867864Y-101500000D01*
X142632136Y-101500000D01*
X142603657Y-101210850D01*
X142519315Y-100932811D01*
X142382351Y-100676569D01*
X142198028Y-100451972D01*
X141973431Y-100267649D01*
X141717189Y-100130685D01*
X141439150Y-100046343D01*
X141222452Y-100025000D01*
X140777548Y-100025000D01*
X140560850Y-100046343D01*
X140282811Y-100130685D01*
X140026569Y-100267649D01*
X139801972Y-100451972D01*
X139617649Y-100676569D01*
X139480685Y-100932811D01*
X139396343Y-101210850D01*
X139367864Y-101500000D01*
X100650000Y-101500000D01*
X100650000Y-101146628D01*
X114917955Y-101146628D01*
X115037188Y-101375000D01*
X116375000Y-101375000D01*
X116375000Y-100180192D01*
X116625000Y-100180192D01*
X116625000Y-101375000D01*
X117962812Y-101375000D01*
X118082045Y-101146628D01*
X118079438Y-101131111D01*
X117980005Y-100859330D01*
X117829461Y-100612169D01*
X117633591Y-100399127D01*
X117399922Y-100228391D01*
X117137434Y-100106522D01*
X116856214Y-100038204D01*
X116625000Y-100180192D01*
X116375000Y-100180192D01*
X116143786Y-100038204D01*
X115862566Y-100106522D01*
X115600078Y-100228391D01*
X115366409Y-100399127D01*
X115170539Y-100612169D01*
X115019995Y-100859330D01*
X114920562Y-101131111D01*
X114917955Y-101146628D01*
X100650000Y-101146628D01*
X100650000Y-98875000D01*
X111000000Y-98875000D01*
X111121931Y-98862991D01*
X111239177Y-98827425D01*
X111347231Y-98769669D01*
X111441942Y-98691942D01*
X111519669Y-98597231D01*
X111577425Y-98489177D01*
X111612991Y-98371931D01*
X111625000Y-98250000D01*
X111625000Y-95486065D01*
X169440712Y-95486065D01*
X169512693Y-95727479D01*
X169766330Y-95847735D01*
X170038553Y-95916198D01*
X170318903Y-95930237D01*
X170596604Y-95889314D01*
X170860986Y-95795000D01*
X170987307Y-95727479D01*
X171059288Y-95486065D01*
X170250000Y-94676777D01*
X169440712Y-95486065D01*
X111625000Y-95486065D01*
X111625000Y-94568903D01*
X168819763Y-94568903D01*
X168860686Y-94846604D01*
X168955000Y-95110986D01*
X169022521Y-95237307D01*
X169263935Y-95309288D01*
X170073223Y-94500000D01*
X170426777Y-94500000D01*
X171236065Y-95309288D01*
X171477479Y-95237307D01*
X171597735Y-94983670D01*
X171666198Y-94711447D01*
X171680237Y-94431097D01*
X171639314Y-94153396D01*
X171545000Y-93889014D01*
X171477479Y-93762693D01*
X171267216Y-93700000D01*
X172321976Y-93700000D01*
X172321976Y-95300000D01*
X172334043Y-95422521D01*
X172369781Y-95540334D01*
X172427817Y-95648911D01*
X172505920Y-95744080D01*
X172601089Y-95822183D01*
X172709666Y-95880219D01*
X172827479Y-95915957D01*
X172950000Y-95928024D01*
X174550000Y-95928024D01*
X174672521Y-95915957D01*
X174790334Y-95880219D01*
X174898911Y-95822183D01*
X174994080Y-95744080D01*
X175072183Y-95648911D01*
X175130219Y-95540334D01*
X175165957Y-95422521D01*
X175178024Y-95300000D01*
X175178024Y-93700000D01*
X175165957Y-93577479D01*
X175130219Y-93459666D01*
X175072183Y-93351089D01*
X174994080Y-93255920D01*
X174898911Y-93177817D01*
X174790334Y-93119781D01*
X174672521Y-93084043D01*
X174550000Y-93071976D01*
X172950000Y-93071976D01*
X172827479Y-93084043D01*
X172709666Y-93119781D01*
X172601089Y-93177817D01*
X172505920Y-93255920D01*
X172427817Y-93351089D01*
X172369781Y-93459666D01*
X172334043Y-93577479D01*
X172321976Y-93700000D01*
X171267216Y-93700000D01*
X171236065Y-93690712D01*
X170426777Y-94500000D01*
X170073223Y-94500000D01*
X169263935Y-93690712D01*
X169022521Y-93762693D01*
X168902265Y-94016330D01*
X168833802Y-94288553D01*
X168819763Y-94568903D01*
X111625000Y-94568903D01*
X111625000Y-93513935D01*
X169440712Y-93513935D01*
X170250000Y-94323223D01*
X171059288Y-93513935D01*
X170987307Y-93272521D01*
X170733670Y-93152265D01*
X170461447Y-93083802D01*
X170181097Y-93069763D01*
X169903396Y-93110686D01*
X169639014Y-93205000D01*
X169512693Y-93272521D01*
X169440712Y-93513935D01*
X111625000Y-93513935D01*
X111625000Y-91639197D01*
X146875000Y-91639197D01*
X146875000Y-91860803D01*
X146918233Y-92078150D01*
X147003038Y-92282887D01*
X147126156Y-92467145D01*
X147282855Y-92623844D01*
X147467113Y-92746962D01*
X147671850Y-92831767D01*
X147889197Y-92875000D01*
X148110803Y-92875000D01*
X148328150Y-92831767D01*
X148532887Y-92746962D01*
X148717145Y-92623844D01*
X148873844Y-92467145D01*
X148996962Y-92282887D01*
X149081767Y-92078150D01*
X149125000Y-91860803D01*
X149125000Y-91639197D01*
X149081767Y-91421850D01*
X148996962Y-91217113D01*
X148873844Y-91032855D01*
X148717145Y-90876156D01*
X148691417Y-90858965D01*
X148828150Y-90831767D01*
X149032887Y-90746962D01*
X149217145Y-90623844D01*
X149373844Y-90467145D01*
X149496962Y-90282887D01*
X149581767Y-90078150D01*
X149625000Y-89860803D01*
X149625000Y-89639197D01*
X149581767Y-89421850D01*
X149496962Y-89217113D01*
X149373844Y-89032855D01*
X149217145Y-88876156D01*
X149191417Y-88858965D01*
X149328150Y-88831767D01*
X149532887Y-88746962D01*
X149717145Y-88623844D01*
X149873844Y-88467145D01*
X149996962Y-88282887D01*
X150081767Y-88078150D01*
X150125000Y-87860803D01*
X150125000Y-87639197D01*
X150081767Y-87421850D01*
X149996962Y-87217113D01*
X149873844Y-87032855D01*
X149717145Y-86876156D01*
X149691417Y-86858965D01*
X149828150Y-86831767D01*
X150032887Y-86746962D01*
X150217145Y-86623844D01*
X150373844Y-86467145D01*
X150496962Y-86282887D01*
X150581767Y-86078150D01*
X150625000Y-85860803D01*
X150625000Y-85639197D01*
X150581767Y-85421850D01*
X150496962Y-85217113D01*
X150373844Y-85032855D01*
X150217145Y-84876156D01*
X150032887Y-84753038D01*
X149828150Y-84668233D01*
X149610803Y-84625000D01*
X149389197Y-84625000D01*
X149171850Y-84668233D01*
X148967113Y-84753038D01*
X148782855Y-84876156D01*
X148626156Y-85032855D01*
X148503038Y-85217113D01*
X148418233Y-85421850D01*
X148375000Y-85639197D01*
X148375000Y-85860803D01*
X148418233Y-86078150D01*
X148503038Y-86282887D01*
X148626156Y-86467145D01*
X148782855Y-86623844D01*
X148808583Y-86641035D01*
X148671850Y-86668233D01*
X148467113Y-86753038D01*
X148282855Y-86876156D01*
X148126156Y-87032855D01*
X148003038Y-87217113D01*
X147918233Y-87421850D01*
X147875000Y-87639197D01*
X147875000Y-87860803D01*
X147918233Y-88078150D01*
X148003038Y-88282887D01*
X148126156Y-88467145D01*
X148282855Y-88623844D01*
X148308583Y-88641035D01*
X148171850Y-88668233D01*
X147967113Y-88753038D01*
X147782855Y-88876156D01*
X147626156Y-89032855D01*
X147503038Y-89217113D01*
X147418233Y-89421850D01*
X147375000Y-89639197D01*
X147375000Y-89860803D01*
X147418233Y-90078150D01*
X147503038Y-90282887D01*
X147626156Y-90467145D01*
X147782855Y-90623844D01*
X147808583Y-90641035D01*
X147671850Y-90668233D01*
X147467113Y-90753038D01*
X147282855Y-90876156D01*
X147126156Y-91032855D01*
X147003038Y-91217113D01*
X146918233Y-91421850D01*
X146875000Y-91639197D01*
X111625000Y-91639197D01*
X111625000Y-86625000D01*
X120750000Y-86625000D01*
X120871931Y-86612991D01*
X120989177Y-86577425D01*
X121097231Y-86519669D01*
X121191942Y-86441942D01*
X121269669Y-86347231D01*
X121327425Y-86239177D01*
X121354765Y-86149046D01*
X132975000Y-86149046D01*
X132975000Y-86350954D01*
X133014390Y-86548982D01*
X133091656Y-86735520D01*
X133203830Y-86903400D01*
X133346600Y-87046170D01*
X133514480Y-87158344D01*
X133701018Y-87235610D01*
X133725000Y-87240380D01*
X133725000Y-87350954D01*
X133764390Y-87548982D01*
X133841656Y-87735520D01*
X133953830Y-87903400D01*
X134096600Y-88046170D01*
X134264480Y-88158344D01*
X134451018Y-88235610D01*
X134649046Y-88275000D01*
X134850954Y-88275000D01*
X135048982Y-88235610D01*
X135235520Y-88158344D01*
X135285423Y-88125000D01*
X135707021Y-88125000D01*
X135750000Y-88129233D01*
X135792979Y-88125000D01*
X135921530Y-88112339D01*
X136086468Y-88062305D01*
X136238476Y-87981056D01*
X136371712Y-87871712D01*
X136399117Y-87838319D01*
X139631695Y-84605741D01*
X167543160Y-84605741D01*
X167616168Y-84885523D01*
X167742356Y-85145686D01*
X167916875Y-85376232D01*
X168133018Y-85568301D01*
X168382478Y-85714512D01*
X168646628Y-85807045D01*
X168875000Y-85687812D01*
X168875000Y-84375000D01*
X167681250Y-84375000D01*
X167543160Y-84605741D01*
X139631695Y-84605741D01*
X140362437Y-83875000D01*
X144214577Y-83875000D01*
X144264480Y-83908344D01*
X144451018Y-83985610D01*
X144649046Y-84025000D01*
X144850954Y-84025000D01*
X145048982Y-83985610D01*
X145235520Y-83908344D01*
X145256599Y-83894259D01*
X167543160Y-83894259D01*
X167681250Y-84125000D01*
X168875000Y-84125000D01*
X168875000Y-82812188D01*
X169125000Y-82812188D01*
X169125000Y-84125000D01*
X169145000Y-84125000D01*
X169145000Y-84375000D01*
X169125000Y-84375000D01*
X169125000Y-85687812D01*
X169353372Y-85807045D01*
X169617522Y-85714512D01*
X169866982Y-85568301D01*
X170083125Y-85376232D01*
X170246984Y-85159768D01*
X170267649Y-85198430D01*
X170451972Y-85423027D01*
X170676569Y-85607351D01*
X170932811Y-85744315D01*
X171210850Y-85828657D01*
X171500000Y-85857136D01*
X171789149Y-85828657D01*
X172067188Y-85744315D01*
X172323430Y-85607351D01*
X172548027Y-85423028D01*
X172608987Y-85348749D01*
X172669950Y-85462804D01*
X172779143Y-85595857D01*
X172912196Y-85705050D01*
X173063995Y-85786188D01*
X173228706Y-85836153D01*
X173400000Y-85853024D01*
X174600000Y-85853024D01*
X174771294Y-85836153D01*
X174936005Y-85786188D01*
X175087804Y-85705050D01*
X175220857Y-85595857D01*
X175330050Y-85462804D01*
X175411188Y-85311005D01*
X175461153Y-85146294D01*
X175478024Y-84975000D01*
X175478024Y-83525000D01*
X175472975Y-83473732D01*
X175479348Y-83475000D01*
X175720652Y-83475000D01*
X175957319Y-83427924D01*
X176180255Y-83335581D01*
X176380892Y-83201519D01*
X176551519Y-83030892D01*
X176685581Y-82830255D01*
X176777924Y-82607319D01*
X176825000Y-82370652D01*
X176825000Y-82129348D01*
X176777924Y-81892681D01*
X176685581Y-81669745D01*
X176551519Y-81469108D01*
X176380892Y-81298481D01*
X176180255Y-81164419D01*
X175957319Y-81072076D01*
X175720652Y-81025000D01*
X175479348Y-81025000D01*
X175242681Y-81072076D01*
X175019745Y-81164419D01*
X174819108Y-81298481D01*
X174648481Y-81469108D01*
X174514419Y-81669745D01*
X174422076Y-81892681D01*
X174375000Y-82129348D01*
X174375000Y-82370652D01*
X174422076Y-82607319D01*
X174438502Y-82646976D01*
X173400000Y-82646976D01*
X173228706Y-82663847D01*
X173063995Y-82713812D01*
X172912196Y-82794950D01*
X172779143Y-82904143D01*
X172669950Y-83037196D01*
X172608987Y-83151250D01*
X172548028Y-83076972D01*
X172323431Y-82892649D01*
X172067189Y-82755685D01*
X171789150Y-82671343D01*
X171500000Y-82642864D01*
X171210851Y-82671343D01*
X170932812Y-82755685D01*
X170676570Y-82892649D01*
X170451973Y-83076972D01*
X170267649Y-83301569D01*
X170246984Y-83340231D01*
X170083125Y-83123768D01*
X169866982Y-82931699D01*
X169617522Y-82785488D01*
X169353372Y-82692955D01*
X169125000Y-82812188D01*
X168875000Y-82812188D01*
X168646628Y-82692955D01*
X168382478Y-82785488D01*
X168133018Y-82931699D01*
X167916875Y-83123768D01*
X167742356Y-83354314D01*
X167616168Y-83614477D01*
X167543160Y-83894259D01*
X145256599Y-83894259D01*
X145403400Y-83796170D01*
X145546170Y-83653400D01*
X145658344Y-83485520D01*
X145735610Y-83298982D01*
X145775000Y-83100954D01*
X145775000Y-82899046D01*
X145735610Y-82701018D01*
X145658344Y-82514480D01*
X145546170Y-82346600D01*
X145403400Y-82203830D01*
X145235520Y-82091656D01*
X145048982Y-82014390D01*
X144850954Y-81975000D01*
X144649046Y-81975000D01*
X144451018Y-82014390D01*
X144264480Y-82091656D01*
X144214577Y-82125000D01*
X142112436Y-82125000D01*
X142348239Y-81889197D01*
X150875000Y-81889197D01*
X150875000Y-82110803D01*
X150918233Y-82328150D01*
X151003038Y-82532887D01*
X151126156Y-82717145D01*
X151282855Y-82873844D01*
X151467113Y-82996962D01*
X151671850Y-83081767D01*
X151889197Y-83125000D01*
X152110803Y-83125000D01*
X152328150Y-83081767D01*
X152532887Y-82996962D01*
X152717145Y-82873844D01*
X152873844Y-82717145D01*
X152996962Y-82532887D01*
X153081767Y-82328150D01*
X153125000Y-82110803D01*
X153125000Y-81889197D01*
X153081767Y-81671850D01*
X153068242Y-81639197D01*
X156625000Y-81639197D01*
X156625000Y-81860803D01*
X156668233Y-82078150D01*
X156753038Y-82282887D01*
X156876156Y-82467145D01*
X157032855Y-82623844D01*
X157217113Y-82746962D01*
X157421850Y-82831767D01*
X157639197Y-82875000D01*
X157860803Y-82875000D01*
X158078150Y-82831767D01*
X158282887Y-82746962D01*
X158467145Y-82623844D01*
X158623844Y-82467145D01*
X158746962Y-82282887D01*
X158831767Y-82078150D01*
X158875000Y-81860803D01*
X158875000Y-81639197D01*
X158831767Y-81421850D01*
X158746962Y-81217113D01*
X158623844Y-81032855D01*
X158467145Y-80876156D01*
X158282887Y-80753038D01*
X158078150Y-80668233D01*
X157860803Y-80625000D01*
X157639197Y-80625000D01*
X157421850Y-80668233D01*
X157217113Y-80753038D01*
X157032855Y-80876156D01*
X156876156Y-81032855D01*
X156753038Y-81217113D01*
X156668233Y-81421850D01*
X156625000Y-81639197D01*
X153068242Y-81639197D01*
X152996962Y-81467113D01*
X152873844Y-81282855D01*
X152717145Y-81126156D01*
X152532887Y-81003038D01*
X152328150Y-80918233D01*
X152110803Y-80875000D01*
X151889197Y-80875000D01*
X151671850Y-80918233D01*
X151467113Y-81003038D01*
X151282855Y-81126156D01*
X151126156Y-81282855D01*
X151003038Y-81467113D01*
X150918233Y-81671850D01*
X150875000Y-81889197D01*
X142348239Y-81889197D01*
X143588325Y-80649112D01*
X143621712Y-80621712D01*
X143731056Y-80488476D01*
X143812305Y-80336468D01*
X143862339Y-80171530D01*
X143875000Y-80042979D01*
X143875000Y-80042978D01*
X143879233Y-80000000D01*
X143875000Y-79957021D01*
X143875000Y-78649046D01*
X144475000Y-78649046D01*
X144475000Y-78850954D01*
X144514390Y-79048982D01*
X144591656Y-79235520D01*
X144601331Y-79250000D01*
X144591656Y-79264480D01*
X144514390Y-79451018D01*
X144475000Y-79649046D01*
X144475000Y-79850954D01*
X144514390Y-80048982D01*
X144591656Y-80235520D01*
X144611885Y-80265795D01*
X144604309Y-80277133D01*
X144527043Y-80463671D01*
X144487653Y-80661699D01*
X144487653Y-80863607D01*
X144527043Y-81061635D01*
X144604309Y-81248173D01*
X144716483Y-81416053D01*
X144859253Y-81558823D01*
X145027133Y-81670997D01*
X145213671Y-81748263D01*
X145411699Y-81787653D01*
X145613607Y-81787653D01*
X145811635Y-81748263D01*
X145998173Y-81670997D01*
X146166053Y-81558823D01*
X146212223Y-81512653D01*
X148313083Y-81512653D01*
X148346600Y-81546170D01*
X148514480Y-81658344D01*
X148701018Y-81735610D01*
X148899046Y-81775000D01*
X149100954Y-81775000D01*
X149298982Y-81735610D01*
X149485520Y-81658344D01*
X149653400Y-81546170D01*
X149796170Y-81403400D01*
X149908344Y-81235520D01*
X149985610Y-81048982D01*
X150025000Y-80850954D01*
X150025000Y-80649046D01*
X149985610Y-80451018D01*
X149908344Y-80264480D01*
X149898669Y-80250000D01*
X149908344Y-80235520D01*
X149985610Y-80048982D01*
X150025000Y-79850954D01*
X150025000Y-79649046D01*
X149985610Y-79451018D01*
X149908344Y-79264480D01*
X149898654Y-79249978D01*
X149908314Y-79235520D01*
X149985580Y-79048982D01*
X150024970Y-78850954D01*
X150024970Y-78649046D01*
X149985580Y-78451018D01*
X149908314Y-78264480D01*
X149796140Y-78096600D01*
X149653370Y-77953830D01*
X149485490Y-77841656D01*
X149298952Y-77764390D01*
X149100924Y-77725000D01*
X148899016Y-77725000D01*
X148700988Y-77764390D01*
X148514450Y-77841656D01*
X148346570Y-77953830D01*
X148300400Y-78000000D01*
X146199570Y-78000000D01*
X146153400Y-77953830D01*
X145985520Y-77841656D01*
X145798982Y-77764390D01*
X145600954Y-77725000D01*
X145399046Y-77725000D01*
X145201018Y-77764390D01*
X145014480Y-77841656D01*
X144846600Y-77953830D01*
X144703830Y-78096600D01*
X144591656Y-78264480D01*
X144514390Y-78451018D01*
X144475000Y-78649046D01*
X143875000Y-78649046D01*
X143875000Y-78362436D01*
X145612437Y-76625000D01*
X146637564Y-76625000D01*
X146840181Y-76827618D01*
X146851890Y-76886482D01*
X146929156Y-77073020D01*
X147041330Y-77240900D01*
X147184100Y-77383670D01*
X147351980Y-77495844D01*
X147538518Y-77573110D01*
X147736546Y-77612500D01*
X147938454Y-77612500D01*
X148136482Y-77573110D01*
X148323020Y-77495844D01*
X148490900Y-77383670D01*
X148633670Y-77240900D01*
X148745844Y-77073020D01*
X148823110Y-76886482D01*
X148862500Y-76688454D01*
X148862500Y-76625000D01*
X148887564Y-76625000D01*
X151350883Y-79088319D01*
X151378288Y-79121712D01*
X151511524Y-79231056D01*
X151521976Y-79236643D01*
X151521976Y-79350000D01*
X151534043Y-79472521D01*
X151569781Y-79590334D01*
X151627817Y-79698911D01*
X151705920Y-79794080D01*
X151801089Y-79872183D01*
X151909666Y-79930219D01*
X152027479Y-79965957D01*
X152150000Y-79978024D01*
X153850000Y-79978024D01*
X153972521Y-79965957D01*
X154090334Y-79930219D01*
X154198911Y-79872183D01*
X154294080Y-79794080D01*
X154372183Y-79698911D01*
X154430219Y-79590334D01*
X154459516Y-79493753D01*
X154545617Y-79589423D01*
X154777260Y-79762485D01*
X155038214Y-79887030D01*
X155186628Y-79932045D01*
X155415000Y-79812812D01*
X155415000Y-78625000D01*
X155665000Y-78625000D01*
X155665000Y-79812812D01*
X155893372Y-79932045D01*
X156041786Y-79887030D01*
X156302740Y-79762485D01*
X156534383Y-79589423D01*
X156727812Y-79374496D01*
X156810000Y-79236275D01*
X156892188Y-79374496D01*
X157085617Y-79589423D01*
X157317260Y-79762485D01*
X157578214Y-79887030D01*
X157726628Y-79932045D01*
X157955000Y-79812812D01*
X157955000Y-78625000D01*
X155665000Y-78625000D01*
X155415000Y-78625000D01*
X155395000Y-78625000D01*
X155395000Y-78375000D01*
X155415000Y-78375000D01*
X155415000Y-78355000D01*
X155665000Y-78355000D01*
X155665000Y-78375000D01*
X157955000Y-78375000D01*
X157955000Y-78355000D01*
X158205000Y-78355000D01*
X158205000Y-78375000D01*
X158225000Y-78375000D01*
X158225000Y-78625000D01*
X158205000Y-78625000D01*
X158205000Y-79812812D01*
X158433372Y-79932045D01*
X158581786Y-79887030D01*
X158842740Y-79762485D01*
X159074383Y-79589423D01*
X159267812Y-79374496D01*
X159344348Y-79245781D01*
X159474293Y-79440258D01*
X159679742Y-79645707D01*
X159921325Y-79807128D01*
X160189758Y-79918317D01*
X160474725Y-79975000D01*
X160765275Y-79975000D01*
X161050242Y-79918317D01*
X161318675Y-79807128D01*
X161560258Y-79645707D01*
X161765707Y-79440258D01*
X161895652Y-79245781D01*
X161972188Y-79374496D01*
X162165617Y-79589423D01*
X162397260Y-79762485D01*
X162658214Y-79887030D01*
X162806628Y-79932045D01*
X163035000Y-79812812D01*
X163035000Y-78625000D01*
X163285000Y-78625000D01*
X163285000Y-79812812D01*
X163513372Y-79932045D01*
X163661786Y-79887030D01*
X163922740Y-79762485D01*
X164154383Y-79589423D01*
X164347812Y-79374496D01*
X164495594Y-79125962D01*
X164592050Y-78853373D01*
X164473449Y-78625000D01*
X163285000Y-78625000D01*
X163035000Y-78625000D01*
X163015000Y-78625000D01*
X163015000Y-78375000D01*
X163035000Y-78375000D01*
X163035000Y-78355000D01*
X163285000Y-78355000D01*
X163285000Y-78375000D01*
X164473449Y-78375000D01*
X164592050Y-78146627D01*
X164495594Y-77874038D01*
X164347812Y-77625504D01*
X164154383Y-77410577D01*
X163922740Y-77237515D01*
X163911221Y-77232018D01*
X164100207Y-77105741D01*
X167543160Y-77105741D01*
X167616168Y-77385523D01*
X167742356Y-77645686D01*
X167916875Y-77876232D01*
X168133018Y-78068301D01*
X168382478Y-78214512D01*
X168646628Y-78307045D01*
X168875000Y-78187812D01*
X168875000Y-76875000D01*
X167681250Y-76875000D01*
X167543160Y-77105741D01*
X164100207Y-77105741D01*
X164100258Y-77105707D01*
X164305707Y-76900258D01*
X164467128Y-76658675D01*
X164576653Y-76394259D01*
X167543160Y-76394259D01*
X167681250Y-76625000D01*
X168875000Y-76625000D01*
X168875000Y-75312188D01*
X169125000Y-75312188D01*
X169125000Y-76625000D01*
X169145000Y-76625000D01*
X169145000Y-76875000D01*
X169125000Y-76875000D01*
X169125000Y-78187812D01*
X169353372Y-78307045D01*
X169617522Y-78214512D01*
X169866982Y-78068301D01*
X170083125Y-77876232D01*
X170246984Y-77659768D01*
X170267649Y-77698430D01*
X170451972Y-77923027D01*
X170676569Y-78107351D01*
X170932811Y-78244315D01*
X171210850Y-78328657D01*
X171500000Y-78357136D01*
X171789149Y-78328657D01*
X172067188Y-78244315D01*
X172323430Y-78107351D01*
X172548027Y-77923028D01*
X172608987Y-77848749D01*
X172669950Y-77962804D01*
X172779143Y-78095857D01*
X172912196Y-78205050D01*
X173063995Y-78286188D01*
X173228706Y-78336153D01*
X173400000Y-78353024D01*
X174600000Y-78353024D01*
X174771294Y-78336153D01*
X174936005Y-78286188D01*
X175087804Y-78205050D01*
X175220857Y-78095857D01*
X175330050Y-77962804D01*
X175411188Y-77811005D01*
X175461153Y-77646294D01*
X175478024Y-77475000D01*
X175478024Y-76025000D01*
X175472975Y-75973732D01*
X175479348Y-75975000D01*
X175720652Y-75975000D01*
X175957319Y-75927924D01*
X176180255Y-75835581D01*
X176380892Y-75701519D01*
X176551519Y-75530892D01*
X176685581Y-75330255D01*
X176777924Y-75107319D01*
X176825000Y-74870652D01*
X176825000Y-74629348D01*
X176777924Y-74392681D01*
X176685581Y-74169745D01*
X176551519Y-73969108D01*
X176380892Y-73798481D01*
X176180255Y-73664419D01*
X175957319Y-73572076D01*
X175720652Y-73525000D01*
X175479348Y-73525000D01*
X175242681Y-73572076D01*
X175019745Y-73664419D01*
X174819108Y-73798481D01*
X174648481Y-73969108D01*
X174514419Y-74169745D01*
X174422076Y-74392681D01*
X174375000Y-74629348D01*
X174375000Y-74870652D01*
X174422076Y-75107319D01*
X174438502Y-75146976D01*
X173400000Y-75146976D01*
X173228706Y-75163847D01*
X173063995Y-75213812D01*
X172912196Y-75294950D01*
X172779143Y-75404143D01*
X172669950Y-75537196D01*
X172608987Y-75651250D01*
X172548028Y-75576972D01*
X172323431Y-75392649D01*
X172067189Y-75255685D01*
X171789150Y-75171343D01*
X171500000Y-75142864D01*
X171210851Y-75171343D01*
X170932812Y-75255685D01*
X170676570Y-75392649D01*
X170451973Y-75576972D01*
X170267649Y-75801569D01*
X170246984Y-75840231D01*
X170083125Y-75623768D01*
X169866982Y-75431699D01*
X169617522Y-75285488D01*
X169353372Y-75192955D01*
X169125000Y-75312188D01*
X168875000Y-75312188D01*
X168646628Y-75192955D01*
X168382478Y-75285488D01*
X168133018Y-75431699D01*
X167916875Y-75623768D01*
X167742356Y-75854314D01*
X167616168Y-76114477D01*
X167543160Y-76394259D01*
X164576653Y-76394259D01*
X164578317Y-76390242D01*
X164635000Y-76105275D01*
X164635000Y-75814725D01*
X164578317Y-75529758D01*
X164467128Y-75261325D01*
X164305707Y-75019742D01*
X164100258Y-74814293D01*
X163858675Y-74652872D01*
X163590242Y-74541683D01*
X163305275Y-74485000D01*
X163014725Y-74485000D01*
X162729758Y-74541683D01*
X162461325Y-74652872D01*
X162219742Y-74814293D01*
X162014293Y-75019742D01*
X161890000Y-75205759D01*
X161765707Y-75019742D01*
X161560258Y-74814293D01*
X161318675Y-74652872D01*
X161050242Y-74541683D01*
X160765275Y-74485000D01*
X160474725Y-74485000D01*
X160189758Y-74541683D01*
X159921325Y-74652872D01*
X159679742Y-74814293D01*
X159474293Y-75019742D01*
X159350000Y-75205759D01*
X159225707Y-75019742D01*
X159020258Y-74814293D01*
X158778675Y-74652872D01*
X158510242Y-74541683D01*
X158225275Y-74485000D01*
X157934725Y-74485000D01*
X157649758Y-74541683D01*
X157381325Y-74652872D01*
X157139742Y-74814293D01*
X156934293Y-75019742D01*
X156810000Y-75205759D01*
X156685707Y-75019742D01*
X156480258Y-74814293D01*
X156238675Y-74652872D01*
X155970242Y-74541683D01*
X155685275Y-74485000D01*
X155394725Y-74485000D01*
X155109758Y-74541683D01*
X154841325Y-74652872D01*
X154599742Y-74814293D01*
X154394293Y-75019742D01*
X154270000Y-75205759D01*
X154145707Y-75019742D01*
X153940258Y-74814293D01*
X153698675Y-74652872D01*
X153430242Y-74541683D01*
X153145275Y-74485000D01*
X152854725Y-74485000D01*
X152569758Y-74541683D01*
X152301325Y-74652872D01*
X152059742Y-74814293D01*
X151854293Y-75019742D01*
X151692872Y-75261325D01*
X151581683Y-75529758D01*
X151525000Y-75814725D01*
X151525000Y-76105275D01*
X151581683Y-76390242D01*
X151692872Y-76658675D01*
X151854293Y-76900258D01*
X151997248Y-77043213D01*
X151909666Y-77069781D01*
X151842903Y-77105467D01*
X149899117Y-75161681D01*
X149871712Y-75128288D01*
X149738476Y-75018944D01*
X149586468Y-74937695D01*
X149421530Y-74887661D01*
X149292979Y-74875000D01*
X149250000Y-74870767D01*
X149207021Y-74875000D01*
X147042979Y-74875000D01*
X147000000Y-74870767D01*
X146957021Y-74875000D01*
X145292979Y-74875000D01*
X145250000Y-74870767D01*
X145207021Y-74875000D01*
X145078470Y-74887661D01*
X144913532Y-74937695D01*
X144761524Y-75018944D01*
X144628288Y-75128288D01*
X144600888Y-75161675D01*
X142411681Y-77350883D01*
X142378288Y-77378288D01*
X142268944Y-77511525D01*
X142188948Y-77661188D01*
X142187695Y-77663533D01*
X142137661Y-77828471D01*
X142120767Y-78000000D01*
X142125000Y-78042979D01*
X142125001Y-79637562D01*
X139411681Y-82350883D01*
X139378288Y-82378288D01*
X139350890Y-82411673D01*
X135387564Y-86375000D01*
X135285423Y-86375000D01*
X135235520Y-86341656D01*
X135048982Y-86264390D01*
X135025000Y-86259620D01*
X135025000Y-86149046D01*
X134985610Y-85951018D01*
X134908344Y-85764480D01*
X134875000Y-85714577D01*
X134875000Y-77862436D01*
X135399109Y-77338328D01*
X135399114Y-77338322D01*
X136490117Y-76247319D01*
X136548982Y-76235610D01*
X136735520Y-76158344D01*
X136903400Y-76046170D01*
X137046170Y-75903400D01*
X137158344Y-75735520D01*
X137235610Y-75548982D01*
X137275000Y-75350954D01*
X137275000Y-75149046D01*
X137235610Y-74951018D01*
X137158344Y-74764480D01*
X137046170Y-74596600D01*
X136903400Y-74453830D01*
X136735520Y-74341656D01*
X136548982Y-74264390D01*
X136350954Y-74225000D01*
X136149046Y-74225000D01*
X135951018Y-74264390D01*
X135764480Y-74341656D01*
X135596600Y-74453830D01*
X135453830Y-74596600D01*
X135341656Y-74764480D01*
X135264390Y-74951018D01*
X135252681Y-75009883D01*
X134161678Y-76100886D01*
X134161672Y-76100891D01*
X133411676Y-76850888D01*
X133378289Y-76878288D01*
X133268945Y-77011524D01*
X133236075Y-77073020D01*
X133187695Y-77163533D01*
X133137661Y-77328471D01*
X133120767Y-77500000D01*
X133125001Y-77542989D01*
X133125000Y-80042978D01*
X133125001Y-80042988D01*
X133125000Y-85714577D01*
X133091656Y-85764480D01*
X133014390Y-85951018D01*
X132975000Y-86149046D01*
X121354765Y-86149046D01*
X121362991Y-86121931D01*
X121375000Y-86000000D01*
X121375000Y-77389197D01*
X130375000Y-77389197D01*
X130375000Y-77610803D01*
X130418233Y-77828150D01*
X130503038Y-78032887D01*
X130626156Y-78217145D01*
X130782855Y-78373844D01*
X130967113Y-78496962D01*
X130974447Y-78500000D01*
X130967113Y-78503038D01*
X130782855Y-78626156D01*
X130626156Y-78782855D01*
X130503038Y-78967113D01*
X130418233Y-79171850D01*
X130375000Y-79389197D01*
X130375000Y-79610803D01*
X130418233Y-79828150D01*
X130503038Y-80032887D01*
X130626156Y-80217145D01*
X130782855Y-80373844D01*
X130967113Y-80496962D01*
X131171850Y-80581767D01*
X131389197Y-80625000D01*
X131610803Y-80625000D01*
X131828150Y-80581767D01*
X132032887Y-80496962D01*
X132217145Y-80373844D01*
X132373844Y-80217145D01*
X132496962Y-80032887D01*
X132581767Y-79828150D01*
X132625000Y-79610803D01*
X132625000Y-79389197D01*
X132581767Y-79171850D01*
X132496962Y-78967113D01*
X132373844Y-78782855D01*
X132217145Y-78626156D01*
X132032887Y-78503038D01*
X132025553Y-78500000D01*
X132032887Y-78496962D01*
X132217145Y-78373844D01*
X132373844Y-78217145D01*
X132496962Y-78032887D01*
X132581767Y-77828150D01*
X132625000Y-77610803D01*
X132625000Y-77389197D01*
X132581767Y-77171850D01*
X132496962Y-76967113D01*
X132373844Y-76782855D01*
X132217145Y-76626156D01*
X132032887Y-76503038D01*
X131828150Y-76418233D01*
X131610803Y-76375000D01*
X131389197Y-76375000D01*
X131171850Y-76418233D01*
X130967113Y-76503038D01*
X130782855Y-76626156D01*
X130626156Y-76782855D01*
X130503038Y-76967113D01*
X130418233Y-77171850D01*
X130375000Y-77389197D01*
X121375000Y-77389197D01*
X121375000Y-76000000D01*
X121362991Y-75878069D01*
X121327425Y-75760823D01*
X121269669Y-75652769D01*
X121191942Y-75558058D01*
X121097231Y-75480331D01*
X120989177Y-75422575D01*
X120871931Y-75387009D01*
X120750000Y-75375000D01*
X111625000Y-75375000D01*
X111625000Y-72389197D01*
X128875000Y-72389197D01*
X128875000Y-72610803D01*
X128918233Y-72828150D01*
X129003038Y-73032887D01*
X129126156Y-73217145D01*
X129282855Y-73373844D01*
X129467113Y-73496962D01*
X129474447Y-73500000D01*
X129467113Y-73503038D01*
X129282855Y-73626156D01*
X129126156Y-73782855D01*
X129003038Y-73967113D01*
X128918233Y-74171850D01*
X128875000Y-74389197D01*
X128875000Y-74610803D01*
X128918233Y-74828150D01*
X129003038Y-75032887D01*
X129126156Y-75217145D01*
X129282855Y-75373844D01*
X129467113Y-75496962D01*
X129671850Y-75581767D01*
X129889197Y-75625000D01*
X130110803Y-75625000D01*
X130328150Y-75581767D01*
X130532887Y-75496962D01*
X130717145Y-75373844D01*
X130873844Y-75217145D01*
X130996962Y-75032887D01*
X131081767Y-74828150D01*
X131125000Y-74610803D01*
X131125000Y-74389197D01*
X131081767Y-74171850D01*
X130996962Y-73967113D01*
X130873844Y-73782855D01*
X130717145Y-73626156D01*
X130532887Y-73503038D01*
X130525553Y-73500000D01*
X130532887Y-73496962D01*
X130717145Y-73373844D01*
X130873844Y-73217145D01*
X130996962Y-73032887D01*
X131081767Y-72828150D01*
X131125000Y-72610803D01*
X131125000Y-72389197D01*
X142625000Y-72389197D01*
X142625000Y-72610803D01*
X142668233Y-72828150D01*
X142753038Y-73032887D01*
X142876156Y-73217145D01*
X143032855Y-73373844D01*
X143217113Y-73496962D01*
X143421850Y-73581767D01*
X143639197Y-73625000D01*
X143860803Y-73625000D01*
X144078150Y-73581767D01*
X144282887Y-73496962D01*
X144467145Y-73373844D01*
X144623844Y-73217145D01*
X144746962Y-73032887D01*
X144831767Y-72828150D01*
X144875000Y-72610803D01*
X144875000Y-72389197D01*
X150125000Y-72389197D01*
X150125000Y-72610803D01*
X150168233Y-72828150D01*
X150253038Y-73032887D01*
X150376156Y-73217145D01*
X150532855Y-73373844D01*
X150717113Y-73496962D01*
X150921850Y-73581767D01*
X151139197Y-73625000D01*
X151360803Y-73625000D01*
X151578150Y-73581767D01*
X151782887Y-73496962D01*
X151967145Y-73373844D01*
X152123844Y-73217145D01*
X152246962Y-73032887D01*
X152331767Y-72828150D01*
X152375000Y-72610803D01*
X152375000Y-72389197D01*
X157625000Y-72389197D01*
X157625000Y-72610803D01*
X157668233Y-72828150D01*
X157753038Y-73032887D01*
X157876156Y-73217145D01*
X158032855Y-73373844D01*
X158217113Y-73496962D01*
X158421850Y-73581767D01*
X158639197Y-73625000D01*
X158860803Y-73625000D01*
X159078150Y-73581767D01*
X159282887Y-73496962D01*
X159467145Y-73373844D01*
X159623844Y-73217145D01*
X159746962Y-73032887D01*
X159831767Y-72828150D01*
X159875000Y-72610803D01*
X159875000Y-72389197D01*
X159831767Y-72171850D01*
X159746962Y-71967113D01*
X159694900Y-71889197D01*
X165125000Y-71889197D01*
X165125000Y-72110803D01*
X165168233Y-72328150D01*
X165253038Y-72532887D01*
X165376156Y-72717145D01*
X165532855Y-72873844D01*
X165717113Y-72996962D01*
X165921850Y-73081767D01*
X166139197Y-73125000D01*
X166360803Y-73125000D01*
X166578150Y-73081767D01*
X166782887Y-72996962D01*
X166967145Y-72873844D01*
X167123844Y-72717145D01*
X167246962Y-72532887D01*
X167331767Y-72328150D01*
X167375000Y-72110803D01*
X167375000Y-71889197D01*
X167331767Y-71671850D01*
X167246962Y-71467113D01*
X167123844Y-71282855D01*
X166967145Y-71126156D01*
X166782887Y-71003038D01*
X166578150Y-70918233D01*
X166360803Y-70875000D01*
X166139197Y-70875000D01*
X165921850Y-70918233D01*
X165717113Y-71003038D01*
X165532855Y-71126156D01*
X165376156Y-71282855D01*
X165253038Y-71467113D01*
X165168233Y-71671850D01*
X165125000Y-71889197D01*
X159694900Y-71889197D01*
X159623844Y-71782855D01*
X159467145Y-71626156D01*
X159282887Y-71503038D01*
X159078150Y-71418233D01*
X158860803Y-71375000D01*
X158639197Y-71375000D01*
X158421850Y-71418233D01*
X158217113Y-71503038D01*
X158032855Y-71626156D01*
X157876156Y-71782855D01*
X157753038Y-71967113D01*
X157668233Y-72171850D01*
X157625000Y-72389197D01*
X152375000Y-72389197D01*
X152331767Y-72171850D01*
X152246962Y-71967113D01*
X152123844Y-71782855D01*
X151967145Y-71626156D01*
X151782887Y-71503038D01*
X151578150Y-71418233D01*
X151360803Y-71375000D01*
X151139197Y-71375000D01*
X150921850Y-71418233D01*
X150717113Y-71503038D01*
X150532855Y-71626156D01*
X150376156Y-71782855D01*
X150253038Y-71967113D01*
X150168233Y-72171850D01*
X150125000Y-72389197D01*
X144875000Y-72389197D01*
X144831767Y-72171850D01*
X144746962Y-71967113D01*
X144623844Y-71782855D01*
X144467145Y-71626156D01*
X144282887Y-71503038D01*
X144078150Y-71418233D01*
X143860803Y-71375000D01*
X143639197Y-71375000D01*
X143421850Y-71418233D01*
X143217113Y-71503038D01*
X143032855Y-71626156D01*
X142876156Y-71782855D01*
X142753038Y-71967113D01*
X142668233Y-72171850D01*
X142625000Y-72389197D01*
X131125000Y-72389197D01*
X131081767Y-72171850D01*
X130996962Y-71967113D01*
X130873844Y-71782855D01*
X130717145Y-71626156D01*
X130532887Y-71503038D01*
X130328150Y-71418233D01*
X130110803Y-71375000D01*
X129889197Y-71375000D01*
X129671850Y-71418233D01*
X129467113Y-71503038D01*
X129282855Y-71626156D01*
X129126156Y-71782855D01*
X129003038Y-71967113D01*
X128918233Y-72171850D01*
X128875000Y-72389197D01*
X111625000Y-72389197D01*
X111625000Y-65000000D01*
X111612991Y-64878069D01*
X111577425Y-64760823D01*
X111519669Y-64652769D01*
X111441942Y-64558058D01*
X111347231Y-64480331D01*
X111239177Y-64422575D01*
X111121931Y-64387009D01*
X111000000Y-64375000D01*
X100650000Y-64375000D01*
X100650000Y-59986065D01*
X122440712Y-59986065D01*
X122512693Y-60227479D01*
X122766330Y-60347735D01*
X123038553Y-60416198D01*
X123318903Y-60430237D01*
X123596604Y-60389314D01*
X123860986Y-60295000D01*
X123987307Y-60227479D01*
X124059288Y-59986065D01*
X131940712Y-59986065D01*
X132012693Y-60227479D01*
X132266330Y-60347735D01*
X132538553Y-60416198D01*
X132818903Y-60430237D01*
X133096604Y-60389314D01*
X133360986Y-60295000D01*
X133487307Y-60227479D01*
X133559288Y-59986065D01*
X132750000Y-59176777D01*
X131940712Y-59986065D01*
X124059288Y-59986065D01*
X123250000Y-59176777D01*
X122440712Y-59986065D01*
X100650000Y-59986065D01*
X100650000Y-58853372D01*
X110667955Y-58853372D01*
X110670562Y-58868889D01*
X110769995Y-59140670D01*
X110920539Y-59387831D01*
X111116409Y-59600873D01*
X111350078Y-59771609D01*
X111612566Y-59893478D01*
X111893786Y-59961796D01*
X112125000Y-59819808D01*
X112125000Y-58625000D01*
X112375000Y-58625000D01*
X112375000Y-59819808D01*
X112606214Y-59961796D01*
X112887434Y-59893478D01*
X113149922Y-59771609D01*
X113383591Y-59600873D01*
X113579461Y-59387831D01*
X113730005Y-59140670D01*
X113756261Y-59068903D01*
X121819763Y-59068903D01*
X121860686Y-59346604D01*
X121955000Y-59610986D01*
X122022521Y-59737307D01*
X122263935Y-59809288D01*
X123073223Y-59000000D01*
X123426777Y-59000000D01*
X124236065Y-59809288D01*
X124477479Y-59737307D01*
X124597735Y-59483670D01*
X124666198Y-59211447D01*
X124673336Y-59068903D01*
X131319763Y-59068903D01*
X131360686Y-59346604D01*
X131455000Y-59610986D01*
X131522521Y-59737307D01*
X131763935Y-59809288D01*
X132573223Y-59000000D01*
X132926777Y-59000000D01*
X133736065Y-59809288D01*
X133977479Y-59737307D01*
X134097735Y-59483670D01*
X134166198Y-59211447D01*
X134180237Y-58931097D01*
X134139314Y-58653396D01*
X134045000Y-58389014D01*
X133977479Y-58262693D01*
X133736065Y-58190712D01*
X132926777Y-59000000D01*
X132573223Y-59000000D01*
X131763935Y-58190712D01*
X131522521Y-58262693D01*
X131402265Y-58516330D01*
X131333802Y-58788553D01*
X131319763Y-59068903D01*
X124673336Y-59068903D01*
X124680237Y-58931097D01*
X124639314Y-58653396D01*
X124545000Y-58389014D01*
X124477479Y-58262693D01*
X124236065Y-58190712D01*
X123426777Y-59000000D01*
X123073223Y-59000000D01*
X122263935Y-58190712D01*
X122022521Y-58262693D01*
X121902265Y-58516330D01*
X121833802Y-58788553D01*
X121819763Y-59068903D01*
X113756261Y-59068903D01*
X113829438Y-58868889D01*
X113832045Y-58853372D01*
X113712812Y-58625000D01*
X112375000Y-58625000D01*
X112125000Y-58625000D01*
X110787188Y-58625000D01*
X110667955Y-58853372D01*
X100650000Y-58853372D01*
X100650000Y-55646279D01*
X100698948Y-55764449D01*
X101106603Y-56374549D01*
X101625451Y-56893397D01*
X102235551Y-57301052D01*
X102913457Y-57581851D01*
X103633119Y-57725000D01*
X104366881Y-57725000D01*
X105086543Y-57581851D01*
X105764449Y-57301052D01*
X106374549Y-56893397D01*
X106893397Y-56374549D01*
X107301052Y-55764449D01*
X107581851Y-55086543D01*
X107725000Y-54366881D01*
X107725000Y-54279348D01*
X109025000Y-54279348D01*
X109025000Y-54520652D01*
X109072076Y-54757319D01*
X109164419Y-54980255D01*
X109298481Y-55180892D01*
X109469108Y-55351519D01*
X109669745Y-55485581D01*
X109892681Y-55577924D01*
X110129348Y-55625000D01*
X110370652Y-55625000D01*
X110607319Y-55577924D01*
X110621976Y-55571853D01*
X110621976Y-56600000D01*
X110638847Y-56771294D01*
X110688812Y-56936005D01*
X110769950Y-57087804D01*
X110879143Y-57220857D01*
X111012196Y-57330050D01*
X111126980Y-57391403D01*
X111116409Y-57399127D01*
X110920539Y-57612169D01*
X110769995Y-57859330D01*
X110670562Y-58131111D01*
X110667955Y-58146628D01*
X110787188Y-58375000D01*
X112125000Y-58375000D01*
X112125000Y-58355000D01*
X112375000Y-58355000D01*
X112375000Y-58375000D01*
X113712812Y-58375000D01*
X113832045Y-58146628D01*
X113829438Y-58131111D01*
X113786569Y-58013935D01*
X122440712Y-58013935D01*
X123250000Y-58823223D01*
X124059288Y-58013935D01*
X131940712Y-58013935D01*
X132750000Y-58823223D01*
X133559288Y-58013935D01*
X133487307Y-57772521D01*
X133233670Y-57652265D01*
X132961447Y-57583802D01*
X132681097Y-57569763D01*
X132403396Y-57610686D01*
X132139014Y-57705000D01*
X132012693Y-57772521D01*
X131940712Y-58013935D01*
X124059288Y-58013935D01*
X123987307Y-57772521D01*
X123733670Y-57652265D01*
X123461447Y-57583802D01*
X123181097Y-57569763D01*
X122903396Y-57610686D01*
X122639014Y-57705000D01*
X122512693Y-57772521D01*
X122440712Y-58013935D01*
X113786569Y-58013935D01*
X113730005Y-57859330D01*
X113579461Y-57612169D01*
X113383591Y-57399127D01*
X113373020Y-57391403D01*
X113487804Y-57330050D01*
X113620857Y-57220857D01*
X113730050Y-57087804D01*
X113811188Y-56936005D01*
X113861153Y-56771294D01*
X113878024Y-56600000D01*
X113878024Y-55400000D01*
X113861153Y-55228706D01*
X113811188Y-55063995D01*
X113730050Y-54912196D01*
X113620857Y-54779143D01*
X113524421Y-54700000D01*
X121821976Y-54700000D01*
X121821976Y-56300000D01*
X121834043Y-56422521D01*
X121869781Y-56540334D01*
X121927817Y-56648911D01*
X122005920Y-56744080D01*
X122101089Y-56822183D01*
X122209666Y-56880219D01*
X122327479Y-56915957D01*
X122450000Y-56928024D01*
X124050000Y-56928024D01*
X124172521Y-56915957D01*
X124290334Y-56880219D01*
X124398911Y-56822183D01*
X124494080Y-56744080D01*
X124572183Y-56648911D01*
X124630219Y-56540334D01*
X124665957Y-56422521D01*
X124678024Y-56300000D01*
X124678024Y-54700000D01*
X131321976Y-54700000D01*
X131321976Y-56300000D01*
X131334043Y-56422521D01*
X131369781Y-56540334D01*
X131427817Y-56648911D01*
X131505920Y-56744080D01*
X131601089Y-56822183D01*
X131709666Y-56880219D01*
X131827479Y-56915957D01*
X131950000Y-56928024D01*
X133550000Y-56928024D01*
X133672521Y-56915957D01*
X133790334Y-56880219D01*
X133898911Y-56822183D01*
X133994080Y-56744080D01*
X134072183Y-56648911D01*
X134130219Y-56540334D01*
X134165957Y-56422521D01*
X134178024Y-56300000D01*
X134178024Y-54700000D01*
X134165957Y-54577479D01*
X134130219Y-54459666D01*
X134072183Y-54351089D01*
X134013307Y-54279348D01*
X140525000Y-54279348D01*
X140525000Y-54520652D01*
X140572076Y-54757319D01*
X140664419Y-54980255D01*
X140798481Y-55180892D01*
X140969108Y-55351519D01*
X141169745Y-55485581D01*
X141392681Y-55577924D01*
X141629348Y-55625000D01*
X141870652Y-55625000D01*
X142107319Y-55577924D01*
X142121976Y-55571853D01*
X142121976Y-56600000D01*
X142138847Y-56771294D01*
X142188812Y-56936005D01*
X142269950Y-57087804D01*
X142379143Y-57220857D01*
X142512196Y-57330050D01*
X142626250Y-57391013D01*
X142551972Y-57451972D01*
X142367649Y-57676569D01*
X142230685Y-57932811D01*
X142146343Y-58210850D01*
X142117864Y-58500000D01*
X142146343Y-58789150D01*
X142230685Y-59067189D01*
X142367649Y-59323431D01*
X142551972Y-59548028D01*
X142776569Y-59732351D01*
X143032811Y-59869315D01*
X143310850Y-59953657D01*
X143527548Y-59975000D01*
X143972452Y-59975000D01*
X144189150Y-59953657D01*
X144467189Y-59869315D01*
X144723431Y-59732351D01*
X144948028Y-59548028D01*
X145132351Y-59323431D01*
X145269315Y-59067189D01*
X145353657Y-58789150D01*
X145382136Y-58500000D01*
X145353657Y-58210850D01*
X145269315Y-57932811D01*
X145132351Y-57676569D01*
X144948028Y-57451972D01*
X144873750Y-57391013D01*
X144987804Y-57330050D01*
X145120857Y-57220857D01*
X145230050Y-57087804D01*
X145311188Y-56936005D01*
X145361153Y-56771294D01*
X145378024Y-56600000D01*
X145378024Y-55400000D01*
X145361153Y-55228706D01*
X145311188Y-55063995D01*
X145230050Y-54912196D01*
X145120857Y-54779143D01*
X144987804Y-54669950D01*
X144836005Y-54588812D01*
X144671294Y-54538847D01*
X144500000Y-54521976D01*
X143000000Y-54521976D01*
X142974232Y-54524514D01*
X142975000Y-54520652D01*
X142975000Y-54279348D01*
X148025000Y-54279348D01*
X148025000Y-54520652D01*
X148072076Y-54757319D01*
X148164419Y-54980255D01*
X148298481Y-55180892D01*
X148469108Y-55351519D01*
X148669745Y-55485581D01*
X148892681Y-55577924D01*
X149129348Y-55625000D01*
X149370652Y-55625000D01*
X149607319Y-55577924D01*
X149621976Y-55571853D01*
X149621976Y-56600000D01*
X149638847Y-56771294D01*
X149688812Y-56936005D01*
X149769950Y-57087804D01*
X149879143Y-57220857D01*
X150012196Y-57330050D01*
X150126250Y-57391013D01*
X150051972Y-57451972D01*
X149867649Y-57676569D01*
X149730685Y-57932811D01*
X149646343Y-58210850D01*
X149617864Y-58500000D01*
X149646343Y-58789150D01*
X149730685Y-59067189D01*
X149867649Y-59323431D01*
X150051972Y-59548028D01*
X150276569Y-59732351D01*
X150532811Y-59869315D01*
X150810850Y-59953657D01*
X151027548Y-59975000D01*
X151472452Y-59975000D01*
X151689150Y-59953657D01*
X151967189Y-59869315D01*
X152223431Y-59732351D01*
X152448028Y-59548028D01*
X152632351Y-59323431D01*
X152769315Y-59067189D01*
X152853657Y-58789150D01*
X152882136Y-58500000D01*
X152853657Y-58210850D01*
X152769315Y-57932811D01*
X152632351Y-57676569D01*
X152448028Y-57451972D01*
X152373750Y-57391013D01*
X152487804Y-57330050D01*
X152620857Y-57220857D01*
X152730050Y-57087804D01*
X152811188Y-56936005D01*
X152861153Y-56771294D01*
X152878024Y-56600000D01*
X152878024Y-55400000D01*
X152861153Y-55228706D01*
X152811188Y-55063995D01*
X152730050Y-54912196D01*
X152620857Y-54779143D01*
X152487804Y-54669950D01*
X152336005Y-54588812D01*
X152171294Y-54538847D01*
X152000000Y-54521976D01*
X150500000Y-54521976D01*
X150474232Y-54524514D01*
X150475000Y-54520652D01*
X150475000Y-54279348D01*
X155525000Y-54279348D01*
X155525000Y-54520652D01*
X155572076Y-54757319D01*
X155664419Y-54980255D01*
X155798481Y-55180892D01*
X155969108Y-55351519D01*
X156169745Y-55485581D01*
X156392681Y-55577924D01*
X156629348Y-55625000D01*
X156870652Y-55625000D01*
X157107319Y-55577924D01*
X157121976Y-55571853D01*
X157121976Y-56600000D01*
X157138847Y-56771294D01*
X157188812Y-56936005D01*
X157269950Y-57087804D01*
X157379143Y-57220857D01*
X157512196Y-57330050D01*
X157626250Y-57391013D01*
X157551972Y-57451972D01*
X157367649Y-57676569D01*
X157230685Y-57932811D01*
X157146343Y-58210850D01*
X157117864Y-58500000D01*
X157146343Y-58789150D01*
X157230685Y-59067189D01*
X157367649Y-59323431D01*
X157551972Y-59548028D01*
X157776569Y-59732351D01*
X158032811Y-59869315D01*
X158310850Y-59953657D01*
X158527548Y-59975000D01*
X158972452Y-59975000D01*
X159189150Y-59953657D01*
X159467189Y-59869315D01*
X159723431Y-59732351D01*
X159948028Y-59548028D01*
X160132351Y-59323431D01*
X160269315Y-59067189D01*
X160353657Y-58789150D01*
X160382136Y-58500000D01*
X160353657Y-58210850D01*
X160269315Y-57932811D01*
X160132351Y-57676569D01*
X159948028Y-57451972D01*
X159873750Y-57391013D01*
X159987804Y-57330050D01*
X160120857Y-57220857D01*
X160230050Y-57087804D01*
X160311188Y-56936005D01*
X160361153Y-56771294D01*
X160378024Y-56600000D01*
X160378024Y-55400000D01*
X160361153Y-55228706D01*
X160311188Y-55063995D01*
X160230050Y-54912196D01*
X160120857Y-54779143D01*
X159987804Y-54669950D01*
X159836005Y-54588812D01*
X159671294Y-54538847D01*
X159500000Y-54521976D01*
X158000000Y-54521976D01*
X157974232Y-54524514D01*
X157975000Y-54520652D01*
X157975000Y-54279348D01*
X163025000Y-54279348D01*
X163025000Y-54520652D01*
X163072076Y-54757319D01*
X163164419Y-54980255D01*
X163298481Y-55180892D01*
X163469108Y-55351519D01*
X163669745Y-55485581D01*
X163892681Y-55577924D01*
X164129348Y-55625000D01*
X164370652Y-55625000D01*
X164607319Y-55577924D01*
X164621976Y-55571853D01*
X164621976Y-56600000D01*
X164638847Y-56771294D01*
X164688812Y-56936005D01*
X164769950Y-57087804D01*
X164879143Y-57220857D01*
X165012196Y-57330050D01*
X165126250Y-57391013D01*
X165051972Y-57451972D01*
X164867649Y-57676569D01*
X164730685Y-57932811D01*
X164646343Y-58210850D01*
X164617864Y-58500000D01*
X164646343Y-58789150D01*
X164730685Y-59067189D01*
X164867649Y-59323431D01*
X165051972Y-59548028D01*
X165276569Y-59732351D01*
X165532811Y-59869315D01*
X165810850Y-59953657D01*
X166027548Y-59975000D01*
X166472452Y-59975000D01*
X166689150Y-59953657D01*
X166967189Y-59869315D01*
X167223431Y-59732351D01*
X167448028Y-59548028D01*
X167632351Y-59323431D01*
X167769315Y-59067189D01*
X167853657Y-58789150D01*
X167882136Y-58500000D01*
X167853657Y-58210850D01*
X167769315Y-57932811D01*
X167632351Y-57676569D01*
X167448028Y-57451972D01*
X167373750Y-57391013D01*
X167487804Y-57330050D01*
X167620857Y-57220857D01*
X167730050Y-57087804D01*
X167811188Y-56936005D01*
X167861153Y-56771294D01*
X167878024Y-56600000D01*
X167878024Y-55400000D01*
X167861153Y-55228706D01*
X167811188Y-55063995D01*
X167730050Y-54912196D01*
X167620857Y-54779143D01*
X167487804Y-54669950D01*
X167336005Y-54588812D01*
X167171294Y-54538847D01*
X167000000Y-54521976D01*
X165500000Y-54521976D01*
X165474232Y-54524514D01*
X165475000Y-54520652D01*
X165475000Y-54279348D01*
X165427924Y-54042681D01*
X165335581Y-53819745D01*
X165201519Y-53619108D01*
X165030892Y-53448481D01*
X164830255Y-53314419D01*
X164607319Y-53222076D01*
X164370652Y-53175000D01*
X164129348Y-53175000D01*
X163892681Y-53222076D01*
X163669745Y-53314419D01*
X163469108Y-53448481D01*
X163298481Y-53619108D01*
X163164419Y-53819745D01*
X163072076Y-54042681D01*
X163025000Y-54279348D01*
X157975000Y-54279348D01*
X157927924Y-54042681D01*
X157835581Y-53819745D01*
X157701519Y-53619108D01*
X157530892Y-53448481D01*
X157330255Y-53314419D01*
X157107319Y-53222076D01*
X156870652Y-53175000D01*
X156629348Y-53175000D01*
X156392681Y-53222076D01*
X156169745Y-53314419D01*
X155969108Y-53448481D01*
X155798481Y-53619108D01*
X155664419Y-53819745D01*
X155572076Y-54042681D01*
X155525000Y-54279348D01*
X150475000Y-54279348D01*
X150427924Y-54042681D01*
X150335581Y-53819745D01*
X150201519Y-53619108D01*
X150030892Y-53448481D01*
X149830255Y-53314419D01*
X149607319Y-53222076D01*
X149370652Y-53175000D01*
X149129348Y-53175000D01*
X148892681Y-53222076D01*
X148669745Y-53314419D01*
X148469108Y-53448481D01*
X148298481Y-53619108D01*
X148164419Y-53819745D01*
X148072076Y-54042681D01*
X148025000Y-54279348D01*
X142975000Y-54279348D01*
X142927924Y-54042681D01*
X142835581Y-53819745D01*
X142701519Y-53619108D01*
X142530892Y-53448481D01*
X142330255Y-53314419D01*
X142107319Y-53222076D01*
X141870652Y-53175000D01*
X141629348Y-53175000D01*
X141392681Y-53222076D01*
X141169745Y-53314419D01*
X140969108Y-53448481D01*
X140798481Y-53619108D01*
X140664419Y-53819745D01*
X140572076Y-54042681D01*
X140525000Y-54279348D01*
X134013307Y-54279348D01*
X133994080Y-54255920D01*
X133898911Y-54177817D01*
X133790334Y-54119781D01*
X133672521Y-54084043D01*
X133550000Y-54071976D01*
X131950000Y-54071976D01*
X131827479Y-54084043D01*
X131709666Y-54119781D01*
X131601089Y-54177817D01*
X131505920Y-54255920D01*
X131427817Y-54351089D01*
X131369781Y-54459666D01*
X131334043Y-54577479D01*
X131321976Y-54700000D01*
X124678024Y-54700000D01*
X124665957Y-54577479D01*
X124630219Y-54459666D01*
X124572183Y-54351089D01*
X124494080Y-54255920D01*
X124398911Y-54177817D01*
X124290334Y-54119781D01*
X124172521Y-54084043D01*
X124050000Y-54071976D01*
X122450000Y-54071976D01*
X122327479Y-54084043D01*
X122209666Y-54119781D01*
X122101089Y-54177817D01*
X122005920Y-54255920D01*
X121927817Y-54351089D01*
X121869781Y-54459666D01*
X121834043Y-54577479D01*
X121821976Y-54700000D01*
X113524421Y-54700000D01*
X113487804Y-54669950D01*
X113336005Y-54588812D01*
X113171294Y-54538847D01*
X113000000Y-54521976D01*
X111500000Y-54521976D01*
X111474232Y-54524514D01*
X111475000Y-54520652D01*
X111475000Y-54279348D01*
X111427924Y-54042681D01*
X111335581Y-53819745D01*
X111201519Y-53619108D01*
X111030892Y-53448481D01*
X110830255Y-53314419D01*
X110607319Y-53222076D01*
X110370652Y-53175000D01*
X110129348Y-53175000D01*
X109892681Y-53222076D01*
X109669745Y-53314419D01*
X109469108Y-53448481D01*
X109298481Y-53619108D01*
X109164419Y-53819745D01*
X109072076Y-54042681D01*
X109025000Y-54279348D01*
X107725000Y-54279348D01*
X107725000Y-53633119D01*
X107581851Y-52913457D01*
X107301052Y-52235551D01*
X106893397Y-51625451D01*
X106374549Y-51106603D01*
X105764449Y-50698948D01*
X105646279Y-50650000D01*
X174353721Y-50650000D01*
X174235551Y-50698948D01*
%TA.AperFunction,Conductor*%
D21*
G36*
X174235551Y-50698948D02*
G01*
X173625451Y-51106603D01*
X173106603Y-51625451D01*
X172698948Y-52235551D01*
X172418149Y-52913457D01*
X172275000Y-53633119D01*
X172275000Y-54366881D01*
X172418149Y-55086543D01*
X172698948Y-55764449D01*
X173106603Y-56374549D01*
X173625451Y-56893397D01*
X174235551Y-57301052D01*
X174913457Y-57581851D01*
X175633119Y-57725000D01*
X176366881Y-57725000D01*
X177086543Y-57581851D01*
X177764449Y-57301052D01*
X178374549Y-56893397D01*
X178893397Y-56374549D01*
X179301052Y-55764449D01*
X179350000Y-55646279D01*
X179350001Y-104353724D01*
X179301052Y-104235551D01*
X178893397Y-103625451D01*
X178374549Y-103106603D01*
X177764449Y-102698948D01*
X177086543Y-102418149D01*
X176366881Y-102275000D01*
X175633119Y-102275000D01*
X174913457Y-102418149D01*
X174235551Y-102698948D01*
X173625451Y-103106603D01*
X173106603Y-103625451D01*
X172698948Y-104235551D01*
X172418149Y-104913457D01*
X172275000Y-105633119D01*
X172275000Y-106366881D01*
X172418149Y-107086543D01*
X172698948Y-107764449D01*
X173106603Y-108374549D01*
X173625451Y-108893397D01*
X174235551Y-109301052D01*
X174353721Y-109350000D01*
X105646279Y-109350000D01*
X105764449Y-109301052D01*
X106374549Y-108893397D01*
X106893397Y-108374549D01*
X107301052Y-107764449D01*
X107581851Y-107086543D01*
X107725000Y-106366881D01*
X107725000Y-105633119D01*
X107581851Y-104913457D01*
X107301052Y-104235551D01*
X106893397Y-103625451D01*
X106667946Y-103400000D01*
X114871976Y-103400000D01*
X114871976Y-104600000D01*
X114888847Y-104771294D01*
X114938812Y-104936005D01*
X115019950Y-105087804D01*
X115129143Y-105220857D01*
X115262196Y-105330050D01*
X115413995Y-105411188D01*
X115578706Y-105461153D01*
X115750000Y-105478024D01*
X117250000Y-105478024D01*
X117275768Y-105475486D01*
X117275000Y-105479348D01*
X117275000Y-105720652D01*
X117322076Y-105957319D01*
X117414419Y-106180255D01*
X117548481Y-106380892D01*
X117719108Y-106551519D01*
X117919745Y-106685581D01*
X118142681Y-106777924D01*
X118379348Y-106825000D01*
X118620652Y-106825000D01*
X118857319Y-106777924D01*
X119080255Y-106685581D01*
X119280892Y-106551519D01*
X119451519Y-106380892D01*
X119585581Y-106180255D01*
X119677924Y-105957319D01*
X119725000Y-105720652D01*
X119725000Y-105479348D01*
X119677924Y-105242681D01*
X119585581Y-105019745D01*
X119451519Y-104819108D01*
X119280892Y-104648481D01*
X119080255Y-104514419D01*
X118857319Y-104422076D01*
X118620652Y-104375000D01*
X118379348Y-104375000D01*
X118142681Y-104422076D01*
X118128024Y-104428147D01*
X118128024Y-103400000D01*
X118111153Y-103228706D01*
X118061188Y-103063995D01*
X117980050Y-102912196D01*
X117870857Y-102779143D01*
X117737804Y-102669950D01*
X117623020Y-102608597D01*
X117633591Y-102600873D01*
X117829461Y-102387831D01*
X117980005Y-102140670D01*
X118079438Y-101868889D01*
X118082045Y-101853372D01*
X117962812Y-101625000D01*
X116625000Y-101625000D01*
X116625000Y-101645000D01*
X116375000Y-101645000D01*
X116375000Y-101625000D01*
X115037188Y-101625000D01*
X114917955Y-101853372D01*
X114920562Y-101868889D01*
X115019995Y-102140670D01*
X115170539Y-102387831D01*
X115366409Y-102600873D01*
X115376980Y-102608597D01*
X115262196Y-102669950D01*
X115129143Y-102779143D01*
X115019950Y-102912196D01*
X114938812Y-103063995D01*
X114888847Y-103228706D01*
X114871976Y-103400000D01*
X106667946Y-103400000D01*
X106374549Y-103106603D01*
X105764449Y-102698948D01*
X105086543Y-102418149D01*
X104366881Y-102275000D01*
X103633119Y-102275000D01*
X102913457Y-102418149D01*
X102235551Y-102698948D01*
X101625451Y-103106603D01*
X101106603Y-103625451D01*
X100698948Y-104235551D01*
X100650000Y-104353721D01*
X100650000Y-101500000D01*
X139367864Y-101500000D01*
X139396343Y-101789150D01*
X139480685Y-102067189D01*
X139617649Y-102323431D01*
X139801972Y-102548028D01*
X139876250Y-102608987D01*
X139762196Y-102669950D01*
X139629143Y-102779143D01*
X139519950Y-102912196D01*
X139438812Y-103063995D01*
X139388847Y-103228706D01*
X139371976Y-103400000D01*
X139371976Y-104600000D01*
X139388847Y-104771294D01*
X139438812Y-104936005D01*
X139519950Y-105087804D01*
X139629143Y-105220857D01*
X139762196Y-105330050D01*
X139913995Y-105411188D01*
X140078706Y-105461153D01*
X140250000Y-105478024D01*
X141750000Y-105478024D01*
X141775768Y-105475486D01*
X141775000Y-105479348D01*
X141775000Y-105720652D01*
X141822076Y-105957319D01*
X141914419Y-106180255D01*
X142048481Y-106380892D01*
X142219108Y-106551519D01*
X142419745Y-106685581D01*
X142642681Y-106777924D01*
X142879348Y-106825000D01*
X143120652Y-106825000D01*
X143357319Y-106777924D01*
X143580255Y-106685581D01*
X143780892Y-106551519D01*
X143951519Y-106380892D01*
X144085581Y-106180255D01*
X144177924Y-105957319D01*
X144225000Y-105720652D01*
X144225000Y-105479348D01*
X144177924Y-105242681D01*
X144085581Y-105019745D01*
X143951519Y-104819108D01*
X143780892Y-104648481D01*
X143580255Y-104514419D01*
X143357319Y-104422076D01*
X143120652Y-104375000D01*
X142879348Y-104375000D01*
X142642681Y-104422076D01*
X142628024Y-104428147D01*
X142628024Y-103400000D01*
X142611153Y-103228706D01*
X142561188Y-103063995D01*
X142480050Y-102912196D01*
X142370857Y-102779143D01*
X142237804Y-102669950D01*
X142123750Y-102608987D01*
X142198028Y-102548028D01*
X142382351Y-102323431D01*
X142519315Y-102067189D01*
X142603657Y-101789150D01*
X142632136Y-101500000D01*
X146867864Y-101500000D01*
X146896343Y-101789150D01*
X146980685Y-102067189D01*
X147117649Y-102323431D01*
X147301972Y-102548028D01*
X147376250Y-102608987D01*
X147262196Y-102669950D01*
X147129143Y-102779143D01*
X147019950Y-102912196D01*
X146938812Y-103063995D01*
X146888847Y-103228706D01*
X146871976Y-103400000D01*
X146871976Y-104600000D01*
X146888847Y-104771294D01*
X146938812Y-104936005D01*
X147019950Y-105087804D01*
X147129143Y-105220857D01*
X147262196Y-105330050D01*
X147413995Y-105411188D01*
X147578706Y-105461153D01*
X147750000Y-105478024D01*
X149250000Y-105478024D01*
X149275768Y-105475486D01*
X149275000Y-105479348D01*
X149275000Y-105720652D01*
X149322076Y-105957319D01*
X149414419Y-106180255D01*
X149548481Y-106380892D01*
X149719108Y-106551519D01*
X149919745Y-106685581D01*
X150142681Y-106777924D01*
X150379348Y-106825000D01*
X150620652Y-106825000D01*
X150857319Y-106777924D01*
X151080255Y-106685581D01*
X151280892Y-106551519D01*
X151451519Y-106380892D01*
X151585581Y-106180255D01*
X151677924Y-105957319D01*
X151725000Y-105720652D01*
X151725000Y-105479348D01*
X151677924Y-105242681D01*
X151585581Y-105019745D01*
X151451519Y-104819108D01*
X151280892Y-104648481D01*
X151080255Y-104514419D01*
X150857319Y-104422076D01*
X150620652Y-104375000D01*
X150379348Y-104375000D01*
X150142681Y-104422076D01*
X150128024Y-104428147D01*
X150128024Y-103400000D01*
X150111153Y-103228706D01*
X150061188Y-103063995D01*
X149980050Y-102912196D01*
X149870857Y-102779143D01*
X149737804Y-102669950D01*
X149623750Y-102608987D01*
X149698028Y-102548028D01*
X149882351Y-102323431D01*
X150019315Y-102067189D01*
X150103657Y-101789150D01*
X150132136Y-101500000D01*
X154367864Y-101500000D01*
X154396343Y-101789150D01*
X154480685Y-102067189D01*
X154617649Y-102323431D01*
X154801972Y-102548028D01*
X154876250Y-102608987D01*
X154762196Y-102669950D01*
X154629143Y-102779143D01*
X154519950Y-102912196D01*
X154438812Y-103063995D01*
X154388847Y-103228706D01*
X154371976Y-103400000D01*
X154371976Y-104600000D01*
X154388847Y-104771294D01*
X154438812Y-104936005D01*
X154519950Y-105087804D01*
X154629143Y-105220857D01*
X154762196Y-105330050D01*
X154913995Y-105411188D01*
X155078706Y-105461153D01*
X155250000Y-105478024D01*
X156750000Y-105478024D01*
X156775768Y-105475486D01*
X156775000Y-105479348D01*
X156775000Y-105720652D01*
X156822076Y-105957319D01*
X156914419Y-106180255D01*
X157048481Y-106380892D01*
X157219108Y-106551519D01*
X157419745Y-106685581D01*
X157642681Y-106777924D01*
X157879348Y-106825000D01*
X158120652Y-106825000D01*
X158357319Y-106777924D01*
X158580255Y-106685581D01*
X158780892Y-106551519D01*
X158951519Y-106380892D01*
X159085581Y-106180255D01*
X159177924Y-105957319D01*
X159225000Y-105720652D01*
X159225000Y-105479348D01*
X159177924Y-105242681D01*
X159085581Y-105019745D01*
X158951519Y-104819108D01*
X158780892Y-104648481D01*
X158580255Y-104514419D01*
X158357319Y-104422076D01*
X158120652Y-104375000D01*
X157879348Y-104375000D01*
X157642681Y-104422076D01*
X157628024Y-104428147D01*
X157628024Y-103400000D01*
X157611153Y-103228706D01*
X157561188Y-103063995D01*
X157480050Y-102912196D01*
X157370857Y-102779143D01*
X157237804Y-102669950D01*
X157123750Y-102608987D01*
X157198028Y-102548028D01*
X157382351Y-102323431D01*
X157519315Y-102067189D01*
X157603657Y-101789150D01*
X157632136Y-101500000D01*
X161867864Y-101500000D01*
X161896343Y-101789150D01*
X161980685Y-102067189D01*
X162117649Y-102323431D01*
X162301972Y-102548028D01*
X162376250Y-102608987D01*
X162262196Y-102669950D01*
X162129143Y-102779143D01*
X162019950Y-102912196D01*
X161938812Y-103063995D01*
X161888847Y-103228706D01*
X161871976Y-103400000D01*
X161871976Y-104600000D01*
X161888847Y-104771294D01*
X161938812Y-104936005D01*
X162019950Y-105087804D01*
X162129143Y-105220857D01*
X162262196Y-105330050D01*
X162413995Y-105411188D01*
X162578706Y-105461153D01*
X162750000Y-105478024D01*
X164250000Y-105478024D01*
X164275768Y-105475486D01*
X164275000Y-105479348D01*
X164275000Y-105720652D01*
X164322076Y-105957319D01*
X164414419Y-106180255D01*
X164548481Y-106380892D01*
X164719108Y-106551519D01*
X164919745Y-106685581D01*
X165142681Y-106777924D01*
X165379348Y-106825000D01*
X165620652Y-106825000D01*
X165857319Y-106777924D01*
X166080255Y-106685581D01*
X166280892Y-106551519D01*
X166451519Y-106380892D01*
X166585581Y-106180255D01*
X166677924Y-105957319D01*
X166725000Y-105720652D01*
X166725000Y-105479348D01*
X166677924Y-105242681D01*
X166585581Y-105019745D01*
X166451519Y-104819108D01*
X166280892Y-104648481D01*
X166080255Y-104514419D01*
X165857319Y-104422076D01*
X165620652Y-104375000D01*
X165379348Y-104375000D01*
X165142681Y-104422076D01*
X165128024Y-104428147D01*
X165128024Y-103400000D01*
X165111153Y-103228706D01*
X165061188Y-103063995D01*
X164980050Y-102912196D01*
X164870857Y-102779143D01*
X164737804Y-102669950D01*
X164623750Y-102608987D01*
X164698028Y-102548028D01*
X164882351Y-102323431D01*
X165019315Y-102067189D01*
X165103657Y-101789150D01*
X165132136Y-101500000D01*
X165103657Y-101210850D01*
X165019315Y-100932811D01*
X164882351Y-100676569D01*
X164698028Y-100451972D01*
X164473431Y-100267649D01*
X164217189Y-100130685D01*
X163939150Y-100046343D01*
X163722452Y-100025000D01*
X163277548Y-100025000D01*
X163060850Y-100046343D01*
X162782811Y-100130685D01*
X162526569Y-100267649D01*
X162301972Y-100451972D01*
X162117649Y-100676569D01*
X161980685Y-100932811D01*
X161896343Y-101210850D01*
X161867864Y-101500000D01*
X157632136Y-101500000D01*
X157603657Y-101210850D01*
X157519315Y-100932811D01*
X157382351Y-100676569D01*
X157198028Y-100451972D01*
X156973431Y-100267649D01*
X156717189Y-100130685D01*
X156439150Y-100046343D01*
X156222452Y-100025000D01*
X155777548Y-100025000D01*
X155560850Y-100046343D01*
X155282811Y-100130685D01*
X155026569Y-100267649D01*
X154801972Y-100451972D01*
X154617649Y-100676569D01*
X154480685Y-100932811D01*
X154396343Y-101210850D01*
X154367864Y-101500000D01*
X150132136Y-101500000D01*
X150103657Y-101210850D01*
X150019315Y-100932811D01*
X149882351Y-100676569D01*
X149698028Y-100451972D01*
X149473431Y-100267649D01*
X149217189Y-100130685D01*
X148939150Y-100046343D01*
X148722452Y-100025000D01*
X148277548Y-100025000D01*
X148060850Y-100046343D01*
X147782811Y-100130685D01*
X147526569Y-100267649D01*
X147301972Y-100451972D01*
X147117649Y-100676569D01*
X146980685Y-100932811D01*
X146896343Y-101210850D01*
X146867864Y-101500000D01*
X142632136Y-101500000D01*
X142603657Y-101210850D01*
X142519315Y-100932811D01*
X142382351Y-100676569D01*
X142198028Y-100451972D01*
X141973431Y-100267649D01*
X141717189Y-100130685D01*
X141439150Y-100046343D01*
X141222452Y-100025000D01*
X140777548Y-100025000D01*
X140560850Y-100046343D01*
X140282811Y-100130685D01*
X140026569Y-100267649D01*
X139801972Y-100451972D01*
X139617649Y-100676569D01*
X139480685Y-100932811D01*
X139396343Y-101210850D01*
X139367864Y-101500000D01*
X100650000Y-101500000D01*
X100650000Y-101146628D01*
X114917955Y-101146628D01*
X115037188Y-101375000D01*
X116375000Y-101375000D01*
X116375000Y-100180192D01*
X116625000Y-100180192D01*
X116625000Y-101375000D01*
X117962812Y-101375000D01*
X118082045Y-101146628D01*
X118079438Y-101131111D01*
X117980005Y-100859330D01*
X117829461Y-100612169D01*
X117633591Y-100399127D01*
X117399922Y-100228391D01*
X117137434Y-100106522D01*
X116856214Y-100038204D01*
X116625000Y-100180192D01*
X116375000Y-100180192D01*
X116143786Y-100038204D01*
X115862566Y-100106522D01*
X115600078Y-100228391D01*
X115366409Y-100399127D01*
X115170539Y-100612169D01*
X115019995Y-100859330D01*
X114920562Y-101131111D01*
X114917955Y-101146628D01*
X100650000Y-101146628D01*
X100650000Y-98875000D01*
X111000000Y-98875000D01*
X111121931Y-98862991D01*
X111239177Y-98827425D01*
X111347231Y-98769669D01*
X111441942Y-98691942D01*
X111519669Y-98597231D01*
X111577425Y-98489177D01*
X111612991Y-98371931D01*
X111625000Y-98250000D01*
X111625000Y-95486065D01*
X169440712Y-95486065D01*
X169512693Y-95727479D01*
X169766330Y-95847735D01*
X170038553Y-95916198D01*
X170318903Y-95930237D01*
X170596604Y-95889314D01*
X170860986Y-95795000D01*
X170987307Y-95727479D01*
X171059288Y-95486065D01*
X170250000Y-94676777D01*
X169440712Y-95486065D01*
X111625000Y-95486065D01*
X111625000Y-94568903D01*
X168819763Y-94568903D01*
X168860686Y-94846604D01*
X168955000Y-95110986D01*
X169022521Y-95237307D01*
X169263935Y-95309288D01*
X170073223Y-94500000D01*
X170426777Y-94500000D01*
X171236065Y-95309288D01*
X171477479Y-95237307D01*
X171597735Y-94983670D01*
X171666198Y-94711447D01*
X171680237Y-94431097D01*
X171639314Y-94153396D01*
X171545000Y-93889014D01*
X171477479Y-93762693D01*
X171267216Y-93700000D01*
X172321976Y-93700000D01*
X172321976Y-95300000D01*
X172334043Y-95422521D01*
X172369781Y-95540334D01*
X172427817Y-95648911D01*
X172505920Y-95744080D01*
X172601089Y-95822183D01*
X172709666Y-95880219D01*
X172827479Y-95915957D01*
X172950000Y-95928024D01*
X174550000Y-95928024D01*
X174672521Y-95915957D01*
X174790334Y-95880219D01*
X174898911Y-95822183D01*
X174994080Y-95744080D01*
X175072183Y-95648911D01*
X175130219Y-95540334D01*
X175165957Y-95422521D01*
X175178024Y-95300000D01*
X175178024Y-93700000D01*
X175165957Y-93577479D01*
X175130219Y-93459666D01*
X175072183Y-93351089D01*
X174994080Y-93255920D01*
X174898911Y-93177817D01*
X174790334Y-93119781D01*
X174672521Y-93084043D01*
X174550000Y-93071976D01*
X172950000Y-93071976D01*
X172827479Y-93084043D01*
X172709666Y-93119781D01*
X172601089Y-93177817D01*
X172505920Y-93255920D01*
X172427817Y-93351089D01*
X172369781Y-93459666D01*
X172334043Y-93577479D01*
X172321976Y-93700000D01*
X171267216Y-93700000D01*
X171236065Y-93690712D01*
X170426777Y-94500000D01*
X170073223Y-94500000D01*
X169263935Y-93690712D01*
X169022521Y-93762693D01*
X168902265Y-94016330D01*
X168833802Y-94288553D01*
X168819763Y-94568903D01*
X111625000Y-94568903D01*
X111625000Y-93513935D01*
X169440712Y-93513935D01*
X170250000Y-94323223D01*
X171059288Y-93513935D01*
X170987307Y-93272521D01*
X170733670Y-93152265D01*
X170461447Y-93083802D01*
X170181097Y-93069763D01*
X169903396Y-93110686D01*
X169639014Y-93205000D01*
X169512693Y-93272521D01*
X169440712Y-93513935D01*
X111625000Y-93513935D01*
X111625000Y-91639197D01*
X146875000Y-91639197D01*
X146875000Y-91860803D01*
X146918233Y-92078150D01*
X147003038Y-92282887D01*
X147126156Y-92467145D01*
X147282855Y-92623844D01*
X147467113Y-92746962D01*
X147671850Y-92831767D01*
X147889197Y-92875000D01*
X148110803Y-92875000D01*
X148328150Y-92831767D01*
X148532887Y-92746962D01*
X148717145Y-92623844D01*
X148873844Y-92467145D01*
X148996962Y-92282887D01*
X149081767Y-92078150D01*
X149125000Y-91860803D01*
X149125000Y-91639197D01*
X149081767Y-91421850D01*
X148996962Y-91217113D01*
X148873844Y-91032855D01*
X148717145Y-90876156D01*
X148691417Y-90858965D01*
X148828150Y-90831767D01*
X149032887Y-90746962D01*
X149217145Y-90623844D01*
X149373844Y-90467145D01*
X149496962Y-90282887D01*
X149581767Y-90078150D01*
X149625000Y-89860803D01*
X149625000Y-89639197D01*
X149581767Y-89421850D01*
X149496962Y-89217113D01*
X149373844Y-89032855D01*
X149217145Y-88876156D01*
X149191417Y-88858965D01*
X149328150Y-88831767D01*
X149532887Y-88746962D01*
X149717145Y-88623844D01*
X149873844Y-88467145D01*
X149996962Y-88282887D01*
X150081767Y-88078150D01*
X150125000Y-87860803D01*
X150125000Y-87639197D01*
X150081767Y-87421850D01*
X149996962Y-87217113D01*
X149873844Y-87032855D01*
X149717145Y-86876156D01*
X149691417Y-86858965D01*
X149828150Y-86831767D01*
X150032887Y-86746962D01*
X150217145Y-86623844D01*
X150373844Y-86467145D01*
X150496962Y-86282887D01*
X150581767Y-86078150D01*
X150625000Y-85860803D01*
X150625000Y-85639197D01*
X150581767Y-85421850D01*
X150496962Y-85217113D01*
X150373844Y-85032855D01*
X150217145Y-84876156D01*
X150032887Y-84753038D01*
X149828150Y-84668233D01*
X149610803Y-84625000D01*
X149389197Y-84625000D01*
X149171850Y-84668233D01*
X148967113Y-84753038D01*
X148782855Y-84876156D01*
X148626156Y-85032855D01*
X148503038Y-85217113D01*
X148418233Y-85421850D01*
X148375000Y-85639197D01*
X148375000Y-85860803D01*
X148418233Y-86078150D01*
X148503038Y-86282887D01*
X148626156Y-86467145D01*
X148782855Y-86623844D01*
X148808583Y-86641035D01*
X148671850Y-86668233D01*
X148467113Y-86753038D01*
X148282855Y-86876156D01*
X148126156Y-87032855D01*
X148003038Y-87217113D01*
X147918233Y-87421850D01*
X147875000Y-87639197D01*
X147875000Y-87860803D01*
X147918233Y-88078150D01*
X148003038Y-88282887D01*
X148126156Y-88467145D01*
X148282855Y-88623844D01*
X148308583Y-88641035D01*
X148171850Y-88668233D01*
X147967113Y-88753038D01*
X147782855Y-88876156D01*
X147626156Y-89032855D01*
X147503038Y-89217113D01*
X147418233Y-89421850D01*
X147375000Y-89639197D01*
X147375000Y-89860803D01*
X147418233Y-90078150D01*
X147503038Y-90282887D01*
X147626156Y-90467145D01*
X147782855Y-90623844D01*
X147808583Y-90641035D01*
X147671850Y-90668233D01*
X147467113Y-90753038D01*
X147282855Y-90876156D01*
X147126156Y-91032855D01*
X147003038Y-91217113D01*
X146918233Y-91421850D01*
X146875000Y-91639197D01*
X111625000Y-91639197D01*
X111625000Y-86625000D01*
X120750000Y-86625000D01*
X120871931Y-86612991D01*
X120989177Y-86577425D01*
X121097231Y-86519669D01*
X121191942Y-86441942D01*
X121269669Y-86347231D01*
X121327425Y-86239177D01*
X121354765Y-86149046D01*
X132975000Y-86149046D01*
X132975000Y-86350954D01*
X133014390Y-86548982D01*
X133091656Y-86735520D01*
X133203830Y-86903400D01*
X133346600Y-87046170D01*
X133514480Y-87158344D01*
X133701018Y-87235610D01*
X133725000Y-87240380D01*
X133725000Y-87350954D01*
X133764390Y-87548982D01*
X133841656Y-87735520D01*
X133953830Y-87903400D01*
X134096600Y-88046170D01*
X134264480Y-88158344D01*
X134451018Y-88235610D01*
X134649046Y-88275000D01*
X134850954Y-88275000D01*
X135048982Y-88235610D01*
X135235520Y-88158344D01*
X135285423Y-88125000D01*
X135707021Y-88125000D01*
X135750000Y-88129233D01*
X135792979Y-88125000D01*
X135921530Y-88112339D01*
X136086468Y-88062305D01*
X136238476Y-87981056D01*
X136371712Y-87871712D01*
X136399117Y-87838319D01*
X139631695Y-84605741D01*
X167543160Y-84605741D01*
X167616168Y-84885523D01*
X167742356Y-85145686D01*
X167916875Y-85376232D01*
X168133018Y-85568301D01*
X168382478Y-85714512D01*
X168646628Y-85807045D01*
X168875000Y-85687812D01*
X168875000Y-84375000D01*
X167681250Y-84375000D01*
X167543160Y-84605741D01*
X139631695Y-84605741D01*
X140362437Y-83875000D01*
X144214577Y-83875000D01*
X144264480Y-83908344D01*
X144451018Y-83985610D01*
X144649046Y-84025000D01*
X144850954Y-84025000D01*
X145048982Y-83985610D01*
X145235520Y-83908344D01*
X145256599Y-83894259D01*
X167543160Y-83894259D01*
X167681250Y-84125000D01*
X168875000Y-84125000D01*
X168875000Y-82812188D01*
X169125000Y-82812188D01*
X169125000Y-84125000D01*
X169145000Y-84125000D01*
X169145000Y-84375000D01*
X169125000Y-84375000D01*
X169125000Y-85687812D01*
X169353372Y-85807045D01*
X169617522Y-85714512D01*
X169866982Y-85568301D01*
X170083125Y-85376232D01*
X170246984Y-85159768D01*
X170267649Y-85198430D01*
X170451972Y-85423027D01*
X170676569Y-85607351D01*
X170932811Y-85744315D01*
X171210850Y-85828657D01*
X171500000Y-85857136D01*
X171789149Y-85828657D01*
X172067188Y-85744315D01*
X172323430Y-85607351D01*
X172548027Y-85423028D01*
X172608987Y-85348749D01*
X172669950Y-85462804D01*
X172779143Y-85595857D01*
X172912196Y-85705050D01*
X173063995Y-85786188D01*
X173228706Y-85836153D01*
X173400000Y-85853024D01*
X174600000Y-85853024D01*
X174771294Y-85836153D01*
X174936005Y-85786188D01*
X175087804Y-85705050D01*
X175220857Y-85595857D01*
X175330050Y-85462804D01*
X175411188Y-85311005D01*
X175461153Y-85146294D01*
X175478024Y-84975000D01*
X175478024Y-83525000D01*
X175472975Y-83473732D01*
X175479348Y-83475000D01*
X175720652Y-83475000D01*
X175957319Y-83427924D01*
X176180255Y-83335581D01*
X176380892Y-83201519D01*
X176551519Y-83030892D01*
X176685581Y-82830255D01*
X176777924Y-82607319D01*
X176825000Y-82370652D01*
X176825000Y-82129348D01*
X176777924Y-81892681D01*
X176685581Y-81669745D01*
X176551519Y-81469108D01*
X176380892Y-81298481D01*
X176180255Y-81164419D01*
X175957319Y-81072076D01*
X175720652Y-81025000D01*
X175479348Y-81025000D01*
X175242681Y-81072076D01*
X175019745Y-81164419D01*
X174819108Y-81298481D01*
X174648481Y-81469108D01*
X174514419Y-81669745D01*
X174422076Y-81892681D01*
X174375000Y-82129348D01*
X174375000Y-82370652D01*
X174422076Y-82607319D01*
X174438502Y-82646976D01*
X173400000Y-82646976D01*
X173228706Y-82663847D01*
X173063995Y-82713812D01*
X172912196Y-82794950D01*
X172779143Y-82904143D01*
X172669950Y-83037196D01*
X172608987Y-83151250D01*
X172548028Y-83076972D01*
X172323431Y-82892649D01*
X172067189Y-82755685D01*
X171789150Y-82671343D01*
X171500000Y-82642864D01*
X171210851Y-82671343D01*
X170932812Y-82755685D01*
X170676570Y-82892649D01*
X170451973Y-83076972D01*
X170267649Y-83301569D01*
X170246984Y-83340231D01*
X170083125Y-83123768D01*
X169866982Y-82931699D01*
X169617522Y-82785488D01*
X169353372Y-82692955D01*
X169125000Y-82812188D01*
X168875000Y-82812188D01*
X168646628Y-82692955D01*
X168382478Y-82785488D01*
X168133018Y-82931699D01*
X167916875Y-83123768D01*
X167742356Y-83354314D01*
X167616168Y-83614477D01*
X167543160Y-83894259D01*
X145256599Y-83894259D01*
X145403400Y-83796170D01*
X145546170Y-83653400D01*
X145658344Y-83485520D01*
X145735610Y-83298982D01*
X145775000Y-83100954D01*
X145775000Y-82899046D01*
X145735610Y-82701018D01*
X145658344Y-82514480D01*
X145546170Y-82346600D01*
X145403400Y-82203830D01*
X145235520Y-82091656D01*
X145048982Y-82014390D01*
X144850954Y-81975000D01*
X144649046Y-81975000D01*
X144451018Y-82014390D01*
X144264480Y-82091656D01*
X144214577Y-82125000D01*
X142112436Y-82125000D01*
X142348239Y-81889197D01*
X150875000Y-81889197D01*
X150875000Y-82110803D01*
X150918233Y-82328150D01*
X151003038Y-82532887D01*
X151126156Y-82717145D01*
X151282855Y-82873844D01*
X151467113Y-82996962D01*
X151671850Y-83081767D01*
X151889197Y-83125000D01*
X152110803Y-83125000D01*
X152328150Y-83081767D01*
X152532887Y-82996962D01*
X152717145Y-82873844D01*
X152873844Y-82717145D01*
X152996962Y-82532887D01*
X153081767Y-82328150D01*
X153125000Y-82110803D01*
X153125000Y-81889197D01*
X153081767Y-81671850D01*
X153068242Y-81639197D01*
X156625000Y-81639197D01*
X156625000Y-81860803D01*
X156668233Y-82078150D01*
X156753038Y-82282887D01*
X156876156Y-82467145D01*
X157032855Y-82623844D01*
X157217113Y-82746962D01*
X157421850Y-82831767D01*
X157639197Y-82875000D01*
X157860803Y-82875000D01*
X158078150Y-82831767D01*
X158282887Y-82746962D01*
X158467145Y-82623844D01*
X158623844Y-82467145D01*
X158746962Y-82282887D01*
X158831767Y-82078150D01*
X158875000Y-81860803D01*
X158875000Y-81639197D01*
X158831767Y-81421850D01*
X158746962Y-81217113D01*
X158623844Y-81032855D01*
X158467145Y-80876156D01*
X158282887Y-80753038D01*
X158078150Y-80668233D01*
X157860803Y-80625000D01*
X157639197Y-80625000D01*
X157421850Y-80668233D01*
X157217113Y-80753038D01*
X157032855Y-80876156D01*
X156876156Y-81032855D01*
X156753038Y-81217113D01*
X156668233Y-81421850D01*
X156625000Y-81639197D01*
X153068242Y-81639197D01*
X152996962Y-81467113D01*
X152873844Y-81282855D01*
X152717145Y-81126156D01*
X152532887Y-81003038D01*
X152328150Y-80918233D01*
X152110803Y-80875000D01*
X151889197Y-80875000D01*
X151671850Y-80918233D01*
X151467113Y-81003038D01*
X151282855Y-81126156D01*
X151126156Y-81282855D01*
X151003038Y-81467113D01*
X150918233Y-81671850D01*
X150875000Y-81889197D01*
X142348239Y-81889197D01*
X143588325Y-80649112D01*
X143621712Y-80621712D01*
X143731056Y-80488476D01*
X143812305Y-80336468D01*
X143862339Y-80171530D01*
X143875000Y-80042979D01*
X143875000Y-80042978D01*
X143879233Y-80000000D01*
X143875000Y-79957021D01*
X143875000Y-78649046D01*
X144475000Y-78649046D01*
X144475000Y-78850954D01*
X144514390Y-79048982D01*
X144591656Y-79235520D01*
X144601331Y-79250000D01*
X144591656Y-79264480D01*
X144514390Y-79451018D01*
X144475000Y-79649046D01*
X144475000Y-79850954D01*
X144514390Y-80048982D01*
X144591656Y-80235520D01*
X144611885Y-80265795D01*
X144604309Y-80277133D01*
X144527043Y-80463671D01*
X144487653Y-80661699D01*
X144487653Y-80863607D01*
X144527043Y-81061635D01*
X144604309Y-81248173D01*
X144716483Y-81416053D01*
X144859253Y-81558823D01*
X145027133Y-81670997D01*
X145213671Y-81748263D01*
X145411699Y-81787653D01*
X145613607Y-81787653D01*
X145811635Y-81748263D01*
X145998173Y-81670997D01*
X146166053Y-81558823D01*
X146212223Y-81512653D01*
X148313083Y-81512653D01*
X148346600Y-81546170D01*
X148514480Y-81658344D01*
X148701018Y-81735610D01*
X148899046Y-81775000D01*
X149100954Y-81775000D01*
X149298982Y-81735610D01*
X149485520Y-81658344D01*
X149653400Y-81546170D01*
X149796170Y-81403400D01*
X149908344Y-81235520D01*
X149985610Y-81048982D01*
X150025000Y-80850954D01*
X150025000Y-80649046D01*
X149985610Y-80451018D01*
X149908344Y-80264480D01*
X149898669Y-80250000D01*
X149908344Y-80235520D01*
X149985610Y-80048982D01*
X150025000Y-79850954D01*
X150025000Y-79649046D01*
X149985610Y-79451018D01*
X149908344Y-79264480D01*
X149898654Y-79249978D01*
X149908314Y-79235520D01*
X149985580Y-79048982D01*
X150024970Y-78850954D01*
X150024970Y-78649046D01*
X149985580Y-78451018D01*
X149908314Y-78264480D01*
X149796140Y-78096600D01*
X149653370Y-77953830D01*
X149485490Y-77841656D01*
X149298952Y-77764390D01*
X149100924Y-77725000D01*
X148899016Y-77725000D01*
X148700988Y-77764390D01*
X148514450Y-77841656D01*
X148346570Y-77953830D01*
X148300400Y-78000000D01*
X146199570Y-78000000D01*
X146153400Y-77953830D01*
X145985520Y-77841656D01*
X145798982Y-77764390D01*
X145600954Y-77725000D01*
X145399046Y-77725000D01*
X145201018Y-77764390D01*
X145014480Y-77841656D01*
X144846600Y-77953830D01*
X144703830Y-78096600D01*
X144591656Y-78264480D01*
X144514390Y-78451018D01*
X144475000Y-78649046D01*
X143875000Y-78649046D01*
X143875000Y-78362436D01*
X145612437Y-76625000D01*
X146637564Y-76625000D01*
X146840181Y-76827618D01*
X146851890Y-76886482D01*
X146929156Y-77073020D01*
X147041330Y-77240900D01*
X147184100Y-77383670D01*
X147351980Y-77495844D01*
X147538518Y-77573110D01*
X147736546Y-77612500D01*
X147938454Y-77612500D01*
X148136482Y-77573110D01*
X148323020Y-77495844D01*
X148490900Y-77383670D01*
X148633670Y-77240900D01*
X148745844Y-77073020D01*
X148823110Y-76886482D01*
X148862500Y-76688454D01*
X148862500Y-76625000D01*
X148887564Y-76625000D01*
X151350883Y-79088319D01*
X151378288Y-79121712D01*
X151511524Y-79231056D01*
X151521976Y-79236643D01*
X151521976Y-79350000D01*
X151534043Y-79472521D01*
X151569781Y-79590334D01*
X151627817Y-79698911D01*
X151705920Y-79794080D01*
X151801089Y-79872183D01*
X151909666Y-79930219D01*
X152027479Y-79965957D01*
X152150000Y-79978024D01*
X153850000Y-79978024D01*
X153972521Y-79965957D01*
X154090334Y-79930219D01*
X154198911Y-79872183D01*
X154294080Y-79794080D01*
X154372183Y-79698911D01*
X154430219Y-79590334D01*
X154459516Y-79493753D01*
X154545617Y-79589423D01*
X154777260Y-79762485D01*
X155038214Y-79887030D01*
X155186628Y-79932045D01*
X155415000Y-79812812D01*
X155415000Y-78625000D01*
X155665000Y-78625000D01*
X155665000Y-79812812D01*
X155893372Y-79932045D01*
X156041786Y-79887030D01*
X156302740Y-79762485D01*
X156534383Y-79589423D01*
X156727812Y-79374496D01*
X156810000Y-79236275D01*
X156892188Y-79374496D01*
X157085617Y-79589423D01*
X157317260Y-79762485D01*
X157578214Y-79887030D01*
X157726628Y-79932045D01*
X157955000Y-79812812D01*
X157955000Y-78625000D01*
X155665000Y-78625000D01*
X155415000Y-78625000D01*
X155395000Y-78625000D01*
X155395000Y-78375000D01*
X155415000Y-78375000D01*
X155415000Y-78355000D01*
X155665000Y-78355000D01*
X155665000Y-78375000D01*
X157955000Y-78375000D01*
X157955000Y-78355000D01*
X158205000Y-78355000D01*
X158205000Y-78375000D01*
X158225000Y-78375000D01*
X158225000Y-78625000D01*
X158205000Y-78625000D01*
X158205000Y-79812812D01*
X158433372Y-79932045D01*
X158581786Y-79887030D01*
X158842740Y-79762485D01*
X159074383Y-79589423D01*
X159267812Y-79374496D01*
X159344348Y-79245781D01*
X159474293Y-79440258D01*
X159679742Y-79645707D01*
X159921325Y-79807128D01*
X160189758Y-79918317D01*
X160474725Y-79975000D01*
X160765275Y-79975000D01*
X161050242Y-79918317D01*
X161318675Y-79807128D01*
X161560258Y-79645707D01*
X161765707Y-79440258D01*
X161895652Y-79245781D01*
X161972188Y-79374496D01*
X162165617Y-79589423D01*
X162397260Y-79762485D01*
X162658214Y-79887030D01*
X162806628Y-79932045D01*
X163035000Y-79812812D01*
X163035000Y-78625000D01*
X163285000Y-78625000D01*
X163285000Y-79812812D01*
X163513372Y-79932045D01*
X163661786Y-79887030D01*
X163922740Y-79762485D01*
X164154383Y-79589423D01*
X164347812Y-79374496D01*
X164495594Y-79125962D01*
X164592050Y-78853373D01*
X164473449Y-78625000D01*
X163285000Y-78625000D01*
X163035000Y-78625000D01*
X163015000Y-78625000D01*
X163015000Y-78375000D01*
X163035000Y-78375000D01*
X163035000Y-78355000D01*
X163285000Y-78355000D01*
X163285000Y-78375000D01*
X164473449Y-78375000D01*
X164592050Y-78146627D01*
X164495594Y-77874038D01*
X164347812Y-77625504D01*
X164154383Y-77410577D01*
X163922740Y-77237515D01*
X163911221Y-77232018D01*
X164100207Y-77105741D01*
X167543160Y-77105741D01*
X167616168Y-77385523D01*
X167742356Y-77645686D01*
X167916875Y-77876232D01*
X168133018Y-78068301D01*
X168382478Y-78214512D01*
X168646628Y-78307045D01*
X168875000Y-78187812D01*
X168875000Y-76875000D01*
X167681250Y-76875000D01*
X167543160Y-77105741D01*
X164100207Y-77105741D01*
X164100258Y-77105707D01*
X164305707Y-76900258D01*
X164467128Y-76658675D01*
X164576653Y-76394259D01*
X167543160Y-76394259D01*
X167681250Y-76625000D01*
X168875000Y-76625000D01*
X168875000Y-75312188D01*
X169125000Y-75312188D01*
X169125000Y-76625000D01*
X169145000Y-76625000D01*
X169145000Y-76875000D01*
X169125000Y-76875000D01*
X169125000Y-78187812D01*
X169353372Y-78307045D01*
X169617522Y-78214512D01*
X169866982Y-78068301D01*
X170083125Y-77876232D01*
X170246984Y-77659768D01*
X170267649Y-77698430D01*
X170451972Y-77923027D01*
X170676569Y-78107351D01*
X170932811Y-78244315D01*
X171210850Y-78328657D01*
X171500000Y-78357136D01*
X171789149Y-78328657D01*
X172067188Y-78244315D01*
X172323430Y-78107351D01*
X172548027Y-77923028D01*
X172608987Y-77848749D01*
X172669950Y-77962804D01*
X172779143Y-78095857D01*
X172912196Y-78205050D01*
X173063995Y-78286188D01*
X173228706Y-78336153D01*
X173400000Y-78353024D01*
X174600000Y-78353024D01*
X174771294Y-78336153D01*
X174936005Y-78286188D01*
X175087804Y-78205050D01*
X175220857Y-78095857D01*
X175330050Y-77962804D01*
X175411188Y-77811005D01*
X175461153Y-77646294D01*
X175478024Y-77475000D01*
X175478024Y-76025000D01*
X175472975Y-75973732D01*
X175479348Y-75975000D01*
X175720652Y-75975000D01*
X175957319Y-75927924D01*
X176180255Y-75835581D01*
X176380892Y-75701519D01*
X176551519Y-75530892D01*
X176685581Y-75330255D01*
X176777924Y-75107319D01*
X176825000Y-74870652D01*
X176825000Y-74629348D01*
X176777924Y-74392681D01*
X176685581Y-74169745D01*
X176551519Y-73969108D01*
X176380892Y-73798481D01*
X176180255Y-73664419D01*
X175957319Y-73572076D01*
X175720652Y-73525000D01*
X175479348Y-73525000D01*
X175242681Y-73572076D01*
X175019745Y-73664419D01*
X174819108Y-73798481D01*
X174648481Y-73969108D01*
X174514419Y-74169745D01*
X174422076Y-74392681D01*
X174375000Y-74629348D01*
X174375000Y-74870652D01*
X174422076Y-75107319D01*
X174438502Y-75146976D01*
X173400000Y-75146976D01*
X173228706Y-75163847D01*
X173063995Y-75213812D01*
X172912196Y-75294950D01*
X172779143Y-75404143D01*
X172669950Y-75537196D01*
X172608987Y-75651250D01*
X172548028Y-75576972D01*
X172323431Y-75392649D01*
X172067189Y-75255685D01*
X171789150Y-75171343D01*
X171500000Y-75142864D01*
X171210851Y-75171343D01*
X170932812Y-75255685D01*
X170676570Y-75392649D01*
X170451973Y-75576972D01*
X170267649Y-75801569D01*
X170246984Y-75840231D01*
X170083125Y-75623768D01*
X169866982Y-75431699D01*
X169617522Y-75285488D01*
X169353372Y-75192955D01*
X169125000Y-75312188D01*
X168875000Y-75312188D01*
X168646628Y-75192955D01*
X168382478Y-75285488D01*
X168133018Y-75431699D01*
X167916875Y-75623768D01*
X167742356Y-75854314D01*
X167616168Y-76114477D01*
X167543160Y-76394259D01*
X164576653Y-76394259D01*
X164578317Y-76390242D01*
X164635000Y-76105275D01*
X164635000Y-75814725D01*
X164578317Y-75529758D01*
X164467128Y-75261325D01*
X164305707Y-75019742D01*
X164100258Y-74814293D01*
X163858675Y-74652872D01*
X163590242Y-74541683D01*
X163305275Y-74485000D01*
X163014725Y-74485000D01*
X162729758Y-74541683D01*
X162461325Y-74652872D01*
X162219742Y-74814293D01*
X162014293Y-75019742D01*
X161890000Y-75205759D01*
X161765707Y-75019742D01*
X161560258Y-74814293D01*
X161318675Y-74652872D01*
X161050242Y-74541683D01*
X160765275Y-74485000D01*
X160474725Y-74485000D01*
X160189758Y-74541683D01*
X159921325Y-74652872D01*
X159679742Y-74814293D01*
X159474293Y-75019742D01*
X159350000Y-75205759D01*
X159225707Y-75019742D01*
X159020258Y-74814293D01*
X158778675Y-74652872D01*
X158510242Y-74541683D01*
X158225275Y-74485000D01*
X157934725Y-74485000D01*
X157649758Y-74541683D01*
X157381325Y-74652872D01*
X157139742Y-74814293D01*
X156934293Y-75019742D01*
X156810000Y-75205759D01*
X156685707Y-75019742D01*
X156480258Y-74814293D01*
X156238675Y-74652872D01*
X155970242Y-74541683D01*
X155685275Y-74485000D01*
X155394725Y-74485000D01*
X155109758Y-74541683D01*
X154841325Y-74652872D01*
X154599742Y-74814293D01*
X154394293Y-75019742D01*
X154270000Y-75205759D01*
X154145707Y-75019742D01*
X153940258Y-74814293D01*
X153698675Y-74652872D01*
X153430242Y-74541683D01*
X153145275Y-74485000D01*
X152854725Y-74485000D01*
X152569758Y-74541683D01*
X152301325Y-74652872D01*
X152059742Y-74814293D01*
X151854293Y-75019742D01*
X151692872Y-75261325D01*
X151581683Y-75529758D01*
X151525000Y-75814725D01*
X151525000Y-76105275D01*
X151581683Y-76390242D01*
X151692872Y-76658675D01*
X151854293Y-76900258D01*
X151997248Y-77043213D01*
X151909666Y-77069781D01*
X151842903Y-77105467D01*
X149899117Y-75161681D01*
X149871712Y-75128288D01*
X149738476Y-75018944D01*
X149586468Y-74937695D01*
X149421530Y-74887661D01*
X149292979Y-74875000D01*
X149250000Y-74870767D01*
X149207021Y-74875000D01*
X147042979Y-74875000D01*
X147000000Y-74870767D01*
X146957021Y-74875000D01*
X145292979Y-74875000D01*
X145250000Y-74870767D01*
X145207021Y-74875000D01*
X145078470Y-74887661D01*
X144913532Y-74937695D01*
X144761524Y-75018944D01*
X144628288Y-75128288D01*
X144600888Y-75161675D01*
X142411681Y-77350883D01*
X142378288Y-77378288D01*
X142268944Y-77511525D01*
X142188948Y-77661188D01*
X142187695Y-77663533D01*
X142137661Y-77828471D01*
X142120767Y-78000000D01*
X142125000Y-78042979D01*
X142125001Y-79637562D01*
X139411681Y-82350883D01*
X139378288Y-82378288D01*
X139350890Y-82411673D01*
X135387564Y-86375000D01*
X135285423Y-86375000D01*
X135235520Y-86341656D01*
X135048982Y-86264390D01*
X135025000Y-86259620D01*
X135025000Y-86149046D01*
X134985610Y-85951018D01*
X134908344Y-85764480D01*
X134875000Y-85714577D01*
X134875000Y-77862436D01*
X135399109Y-77338328D01*
X135399114Y-77338322D01*
X136490117Y-76247319D01*
X136548982Y-76235610D01*
X136735520Y-76158344D01*
X136903400Y-76046170D01*
X137046170Y-75903400D01*
X137158344Y-75735520D01*
X137235610Y-75548982D01*
X137275000Y-75350954D01*
X137275000Y-75149046D01*
X137235610Y-74951018D01*
X137158344Y-74764480D01*
X137046170Y-74596600D01*
X136903400Y-74453830D01*
X136735520Y-74341656D01*
X136548982Y-74264390D01*
X136350954Y-74225000D01*
X136149046Y-74225000D01*
X135951018Y-74264390D01*
X135764480Y-74341656D01*
X135596600Y-74453830D01*
X135453830Y-74596600D01*
X135341656Y-74764480D01*
X135264390Y-74951018D01*
X135252681Y-75009883D01*
X134161678Y-76100886D01*
X134161672Y-76100891D01*
X133411676Y-76850888D01*
X133378289Y-76878288D01*
X133268945Y-77011524D01*
X133236075Y-77073020D01*
X133187695Y-77163533D01*
X133137661Y-77328471D01*
X133120767Y-77500000D01*
X133125001Y-77542989D01*
X133125000Y-80042978D01*
X133125001Y-80042988D01*
X133125000Y-85714577D01*
X133091656Y-85764480D01*
X133014390Y-85951018D01*
X132975000Y-86149046D01*
X121354765Y-86149046D01*
X121362991Y-86121931D01*
X121375000Y-86000000D01*
X121375000Y-77389197D01*
X130375000Y-77389197D01*
X130375000Y-77610803D01*
X130418233Y-77828150D01*
X130503038Y-78032887D01*
X130626156Y-78217145D01*
X130782855Y-78373844D01*
X130967113Y-78496962D01*
X130974447Y-78500000D01*
X130967113Y-78503038D01*
X130782855Y-78626156D01*
X130626156Y-78782855D01*
X130503038Y-78967113D01*
X130418233Y-79171850D01*
X130375000Y-79389197D01*
X130375000Y-79610803D01*
X130418233Y-79828150D01*
X130503038Y-80032887D01*
X130626156Y-80217145D01*
X130782855Y-80373844D01*
X130967113Y-80496962D01*
X131171850Y-80581767D01*
X131389197Y-80625000D01*
X131610803Y-80625000D01*
X131828150Y-80581767D01*
X132032887Y-80496962D01*
X132217145Y-80373844D01*
X132373844Y-80217145D01*
X132496962Y-80032887D01*
X132581767Y-79828150D01*
X132625000Y-79610803D01*
X132625000Y-79389197D01*
X132581767Y-79171850D01*
X132496962Y-78967113D01*
X132373844Y-78782855D01*
X132217145Y-78626156D01*
X132032887Y-78503038D01*
X132025553Y-78500000D01*
X132032887Y-78496962D01*
X132217145Y-78373844D01*
X132373844Y-78217145D01*
X132496962Y-78032887D01*
X132581767Y-77828150D01*
X132625000Y-77610803D01*
X132625000Y-77389197D01*
X132581767Y-77171850D01*
X132496962Y-76967113D01*
X132373844Y-76782855D01*
X132217145Y-76626156D01*
X132032887Y-76503038D01*
X131828150Y-76418233D01*
X131610803Y-76375000D01*
X131389197Y-76375000D01*
X131171850Y-76418233D01*
X130967113Y-76503038D01*
X130782855Y-76626156D01*
X130626156Y-76782855D01*
X130503038Y-76967113D01*
X130418233Y-77171850D01*
X130375000Y-77389197D01*
X121375000Y-77389197D01*
X121375000Y-76000000D01*
X121362991Y-75878069D01*
X121327425Y-75760823D01*
X121269669Y-75652769D01*
X121191942Y-75558058D01*
X121097231Y-75480331D01*
X120989177Y-75422575D01*
X120871931Y-75387009D01*
X120750000Y-75375000D01*
X111625000Y-75375000D01*
X111625000Y-72389197D01*
X128875000Y-72389197D01*
X128875000Y-72610803D01*
X128918233Y-72828150D01*
X129003038Y-73032887D01*
X129126156Y-73217145D01*
X129282855Y-73373844D01*
X129467113Y-73496962D01*
X129474447Y-73500000D01*
X129467113Y-73503038D01*
X129282855Y-73626156D01*
X129126156Y-73782855D01*
X129003038Y-73967113D01*
X128918233Y-74171850D01*
X128875000Y-74389197D01*
X128875000Y-74610803D01*
X128918233Y-74828150D01*
X129003038Y-75032887D01*
X129126156Y-75217145D01*
X129282855Y-75373844D01*
X129467113Y-75496962D01*
X129671850Y-75581767D01*
X129889197Y-75625000D01*
X130110803Y-75625000D01*
X130328150Y-75581767D01*
X130532887Y-75496962D01*
X130717145Y-75373844D01*
X130873844Y-75217145D01*
X130996962Y-75032887D01*
X131081767Y-74828150D01*
X131125000Y-74610803D01*
X131125000Y-74389197D01*
X131081767Y-74171850D01*
X130996962Y-73967113D01*
X130873844Y-73782855D01*
X130717145Y-73626156D01*
X130532887Y-73503038D01*
X130525553Y-73500000D01*
X130532887Y-73496962D01*
X130717145Y-73373844D01*
X130873844Y-73217145D01*
X130996962Y-73032887D01*
X131081767Y-72828150D01*
X131125000Y-72610803D01*
X131125000Y-72389197D01*
X142625000Y-72389197D01*
X142625000Y-72610803D01*
X142668233Y-72828150D01*
X142753038Y-73032887D01*
X142876156Y-73217145D01*
X143032855Y-73373844D01*
X143217113Y-73496962D01*
X143421850Y-73581767D01*
X143639197Y-73625000D01*
X143860803Y-73625000D01*
X144078150Y-73581767D01*
X144282887Y-73496962D01*
X144467145Y-73373844D01*
X144623844Y-73217145D01*
X144746962Y-73032887D01*
X144831767Y-72828150D01*
X144875000Y-72610803D01*
X144875000Y-72389197D01*
X150125000Y-72389197D01*
X150125000Y-72610803D01*
X150168233Y-72828150D01*
X150253038Y-73032887D01*
X150376156Y-73217145D01*
X150532855Y-73373844D01*
X150717113Y-73496962D01*
X150921850Y-73581767D01*
X151139197Y-73625000D01*
X151360803Y-73625000D01*
X151578150Y-73581767D01*
X151782887Y-73496962D01*
X151967145Y-73373844D01*
X152123844Y-73217145D01*
X152246962Y-73032887D01*
X152331767Y-72828150D01*
X152375000Y-72610803D01*
X152375000Y-72389197D01*
X157625000Y-72389197D01*
X157625000Y-72610803D01*
X157668233Y-72828150D01*
X157753038Y-73032887D01*
X157876156Y-73217145D01*
X158032855Y-73373844D01*
X158217113Y-73496962D01*
X158421850Y-73581767D01*
X158639197Y-73625000D01*
X158860803Y-73625000D01*
X159078150Y-73581767D01*
X159282887Y-73496962D01*
X159467145Y-73373844D01*
X159623844Y-73217145D01*
X159746962Y-73032887D01*
X159831767Y-72828150D01*
X159875000Y-72610803D01*
X159875000Y-72389197D01*
X159831767Y-72171850D01*
X159746962Y-71967113D01*
X159694900Y-71889197D01*
X165125000Y-71889197D01*
X165125000Y-72110803D01*
X165168233Y-72328150D01*
X165253038Y-72532887D01*
X165376156Y-72717145D01*
X165532855Y-72873844D01*
X165717113Y-72996962D01*
X165921850Y-73081767D01*
X166139197Y-73125000D01*
X166360803Y-73125000D01*
X166578150Y-73081767D01*
X166782887Y-72996962D01*
X166967145Y-72873844D01*
X167123844Y-72717145D01*
X167246962Y-72532887D01*
X167331767Y-72328150D01*
X167375000Y-72110803D01*
X167375000Y-71889197D01*
X167331767Y-71671850D01*
X167246962Y-71467113D01*
X167123844Y-71282855D01*
X166967145Y-71126156D01*
X166782887Y-71003038D01*
X166578150Y-70918233D01*
X166360803Y-70875000D01*
X166139197Y-70875000D01*
X165921850Y-70918233D01*
X165717113Y-71003038D01*
X165532855Y-71126156D01*
X165376156Y-71282855D01*
X165253038Y-71467113D01*
X165168233Y-71671850D01*
X165125000Y-71889197D01*
X159694900Y-71889197D01*
X159623844Y-71782855D01*
X159467145Y-71626156D01*
X159282887Y-71503038D01*
X159078150Y-71418233D01*
X158860803Y-71375000D01*
X158639197Y-71375000D01*
X158421850Y-71418233D01*
X158217113Y-71503038D01*
X158032855Y-71626156D01*
X157876156Y-71782855D01*
X157753038Y-71967113D01*
X157668233Y-72171850D01*
X157625000Y-72389197D01*
X152375000Y-72389197D01*
X152331767Y-72171850D01*
X152246962Y-71967113D01*
X152123844Y-71782855D01*
X151967145Y-71626156D01*
X151782887Y-71503038D01*
X151578150Y-71418233D01*
X151360803Y-71375000D01*
X151139197Y-71375000D01*
X150921850Y-71418233D01*
X150717113Y-71503038D01*
X150532855Y-71626156D01*
X150376156Y-71782855D01*
X150253038Y-71967113D01*
X150168233Y-72171850D01*
X150125000Y-72389197D01*
X144875000Y-72389197D01*
X144831767Y-72171850D01*
X144746962Y-71967113D01*
X144623844Y-71782855D01*
X144467145Y-71626156D01*
X144282887Y-71503038D01*
X144078150Y-71418233D01*
X143860803Y-71375000D01*
X143639197Y-71375000D01*
X143421850Y-71418233D01*
X143217113Y-71503038D01*
X143032855Y-71626156D01*
X142876156Y-71782855D01*
X142753038Y-71967113D01*
X142668233Y-72171850D01*
X142625000Y-72389197D01*
X131125000Y-72389197D01*
X131081767Y-72171850D01*
X130996962Y-71967113D01*
X130873844Y-71782855D01*
X130717145Y-71626156D01*
X130532887Y-71503038D01*
X130328150Y-71418233D01*
X130110803Y-71375000D01*
X129889197Y-71375000D01*
X129671850Y-71418233D01*
X129467113Y-71503038D01*
X129282855Y-71626156D01*
X129126156Y-71782855D01*
X129003038Y-71967113D01*
X128918233Y-72171850D01*
X128875000Y-72389197D01*
X111625000Y-72389197D01*
X111625000Y-65000000D01*
X111612991Y-64878069D01*
X111577425Y-64760823D01*
X111519669Y-64652769D01*
X111441942Y-64558058D01*
X111347231Y-64480331D01*
X111239177Y-64422575D01*
X111121931Y-64387009D01*
X111000000Y-64375000D01*
X100650000Y-64375000D01*
X100650000Y-59986065D01*
X122440712Y-59986065D01*
X122512693Y-60227479D01*
X122766330Y-60347735D01*
X123038553Y-60416198D01*
X123318903Y-60430237D01*
X123596604Y-60389314D01*
X123860986Y-60295000D01*
X123987307Y-60227479D01*
X124059288Y-59986065D01*
X131940712Y-59986065D01*
X132012693Y-60227479D01*
X132266330Y-60347735D01*
X132538553Y-60416198D01*
X132818903Y-60430237D01*
X133096604Y-60389314D01*
X133360986Y-60295000D01*
X133487307Y-60227479D01*
X133559288Y-59986065D01*
X132750000Y-59176777D01*
X131940712Y-59986065D01*
X124059288Y-59986065D01*
X123250000Y-59176777D01*
X122440712Y-59986065D01*
X100650000Y-59986065D01*
X100650000Y-58853372D01*
X110667955Y-58853372D01*
X110670562Y-58868889D01*
X110769995Y-59140670D01*
X110920539Y-59387831D01*
X111116409Y-59600873D01*
X111350078Y-59771609D01*
X111612566Y-59893478D01*
X111893786Y-59961796D01*
X112125000Y-59819808D01*
X112125000Y-58625000D01*
X112375000Y-58625000D01*
X112375000Y-59819808D01*
X112606214Y-59961796D01*
X112887434Y-59893478D01*
X113149922Y-59771609D01*
X113383591Y-59600873D01*
X113579461Y-59387831D01*
X113730005Y-59140670D01*
X113756261Y-59068903D01*
X121819763Y-59068903D01*
X121860686Y-59346604D01*
X121955000Y-59610986D01*
X122022521Y-59737307D01*
X122263935Y-59809288D01*
X123073223Y-59000000D01*
X123426777Y-59000000D01*
X124236065Y-59809288D01*
X124477479Y-59737307D01*
X124597735Y-59483670D01*
X124666198Y-59211447D01*
X124673336Y-59068903D01*
X131319763Y-59068903D01*
X131360686Y-59346604D01*
X131455000Y-59610986D01*
X131522521Y-59737307D01*
X131763935Y-59809288D01*
X132573223Y-59000000D01*
X132926777Y-59000000D01*
X133736065Y-59809288D01*
X133977479Y-59737307D01*
X134097735Y-59483670D01*
X134166198Y-59211447D01*
X134180237Y-58931097D01*
X134139314Y-58653396D01*
X134045000Y-58389014D01*
X133977479Y-58262693D01*
X133736065Y-58190712D01*
X132926777Y-59000000D01*
X132573223Y-59000000D01*
X131763935Y-58190712D01*
X131522521Y-58262693D01*
X131402265Y-58516330D01*
X131333802Y-58788553D01*
X131319763Y-59068903D01*
X124673336Y-59068903D01*
X124680237Y-58931097D01*
X124639314Y-58653396D01*
X124545000Y-58389014D01*
X124477479Y-58262693D01*
X124236065Y-58190712D01*
X123426777Y-59000000D01*
X123073223Y-59000000D01*
X122263935Y-58190712D01*
X122022521Y-58262693D01*
X121902265Y-58516330D01*
X121833802Y-58788553D01*
X121819763Y-59068903D01*
X113756261Y-59068903D01*
X113829438Y-58868889D01*
X113832045Y-58853372D01*
X113712812Y-58625000D01*
X112375000Y-58625000D01*
X112125000Y-58625000D01*
X110787188Y-58625000D01*
X110667955Y-58853372D01*
X100650000Y-58853372D01*
X100650000Y-55646279D01*
X100698948Y-55764449D01*
X101106603Y-56374549D01*
X101625451Y-56893397D01*
X102235551Y-57301052D01*
X102913457Y-57581851D01*
X103633119Y-57725000D01*
X104366881Y-57725000D01*
X105086543Y-57581851D01*
X105764449Y-57301052D01*
X106374549Y-56893397D01*
X106893397Y-56374549D01*
X107301052Y-55764449D01*
X107581851Y-55086543D01*
X107725000Y-54366881D01*
X107725000Y-54279348D01*
X109025000Y-54279348D01*
X109025000Y-54520652D01*
X109072076Y-54757319D01*
X109164419Y-54980255D01*
X109298481Y-55180892D01*
X109469108Y-55351519D01*
X109669745Y-55485581D01*
X109892681Y-55577924D01*
X110129348Y-55625000D01*
X110370652Y-55625000D01*
X110607319Y-55577924D01*
X110621976Y-55571853D01*
X110621976Y-56600000D01*
X110638847Y-56771294D01*
X110688812Y-56936005D01*
X110769950Y-57087804D01*
X110879143Y-57220857D01*
X111012196Y-57330050D01*
X111126980Y-57391403D01*
X111116409Y-57399127D01*
X110920539Y-57612169D01*
X110769995Y-57859330D01*
X110670562Y-58131111D01*
X110667955Y-58146628D01*
X110787188Y-58375000D01*
X112125000Y-58375000D01*
X112125000Y-58355000D01*
X112375000Y-58355000D01*
X112375000Y-58375000D01*
X113712812Y-58375000D01*
X113832045Y-58146628D01*
X113829438Y-58131111D01*
X113786569Y-58013935D01*
X122440712Y-58013935D01*
X123250000Y-58823223D01*
X124059288Y-58013935D01*
X131940712Y-58013935D01*
X132750000Y-58823223D01*
X133559288Y-58013935D01*
X133487307Y-57772521D01*
X133233670Y-57652265D01*
X132961447Y-57583802D01*
X132681097Y-57569763D01*
X132403396Y-57610686D01*
X132139014Y-57705000D01*
X132012693Y-57772521D01*
X131940712Y-58013935D01*
X124059288Y-58013935D01*
X123987307Y-57772521D01*
X123733670Y-57652265D01*
X123461447Y-57583802D01*
X123181097Y-57569763D01*
X122903396Y-57610686D01*
X122639014Y-57705000D01*
X122512693Y-57772521D01*
X122440712Y-58013935D01*
X113786569Y-58013935D01*
X113730005Y-57859330D01*
X113579461Y-57612169D01*
X113383591Y-57399127D01*
X113373020Y-57391403D01*
X113487804Y-57330050D01*
X113620857Y-57220857D01*
X113730050Y-57087804D01*
X113811188Y-56936005D01*
X113861153Y-56771294D01*
X113878024Y-56600000D01*
X113878024Y-55400000D01*
X113861153Y-55228706D01*
X113811188Y-55063995D01*
X113730050Y-54912196D01*
X113620857Y-54779143D01*
X113524421Y-54700000D01*
X121821976Y-54700000D01*
X121821976Y-56300000D01*
X121834043Y-56422521D01*
X121869781Y-56540334D01*
X121927817Y-56648911D01*
X122005920Y-56744080D01*
X122101089Y-56822183D01*
X122209666Y-56880219D01*
X122327479Y-56915957D01*
X122450000Y-56928024D01*
X124050000Y-56928024D01*
X124172521Y-56915957D01*
X124290334Y-56880219D01*
X124398911Y-56822183D01*
X124494080Y-56744080D01*
X124572183Y-56648911D01*
X124630219Y-56540334D01*
X124665957Y-56422521D01*
X124678024Y-56300000D01*
X124678024Y-54700000D01*
X131321976Y-54700000D01*
X131321976Y-56300000D01*
X131334043Y-56422521D01*
X131369781Y-56540334D01*
X131427817Y-56648911D01*
X131505920Y-56744080D01*
X131601089Y-56822183D01*
X131709666Y-56880219D01*
X131827479Y-56915957D01*
X131950000Y-56928024D01*
X133550000Y-56928024D01*
X133672521Y-56915957D01*
X133790334Y-56880219D01*
X133898911Y-56822183D01*
X133994080Y-56744080D01*
X134072183Y-56648911D01*
X134130219Y-56540334D01*
X134165957Y-56422521D01*
X134178024Y-56300000D01*
X134178024Y-54700000D01*
X134165957Y-54577479D01*
X134130219Y-54459666D01*
X134072183Y-54351089D01*
X134013307Y-54279348D01*
X140525000Y-54279348D01*
X140525000Y-54520652D01*
X140572076Y-54757319D01*
X140664419Y-54980255D01*
X140798481Y-55180892D01*
X140969108Y-55351519D01*
X141169745Y-55485581D01*
X141392681Y-55577924D01*
X141629348Y-55625000D01*
X141870652Y-55625000D01*
X142107319Y-55577924D01*
X142121976Y-55571853D01*
X142121976Y-56600000D01*
X142138847Y-56771294D01*
X142188812Y-56936005D01*
X142269950Y-57087804D01*
X142379143Y-57220857D01*
X142512196Y-57330050D01*
X142626250Y-57391013D01*
X142551972Y-57451972D01*
X142367649Y-57676569D01*
X142230685Y-57932811D01*
X142146343Y-58210850D01*
X142117864Y-58500000D01*
X142146343Y-58789150D01*
X142230685Y-59067189D01*
X142367649Y-59323431D01*
X142551972Y-59548028D01*
X142776569Y-59732351D01*
X143032811Y-59869315D01*
X143310850Y-59953657D01*
X143527548Y-59975000D01*
X143972452Y-59975000D01*
X144189150Y-59953657D01*
X144467189Y-59869315D01*
X144723431Y-59732351D01*
X144948028Y-59548028D01*
X145132351Y-59323431D01*
X145269315Y-59067189D01*
X145353657Y-58789150D01*
X145382136Y-58500000D01*
X145353657Y-58210850D01*
X145269315Y-57932811D01*
X145132351Y-57676569D01*
X144948028Y-57451972D01*
X144873750Y-57391013D01*
X144987804Y-57330050D01*
X145120857Y-57220857D01*
X145230050Y-57087804D01*
X145311188Y-56936005D01*
X145361153Y-56771294D01*
X145378024Y-56600000D01*
X145378024Y-55400000D01*
X145361153Y-55228706D01*
X145311188Y-55063995D01*
X145230050Y-54912196D01*
X145120857Y-54779143D01*
X144987804Y-54669950D01*
X144836005Y-54588812D01*
X144671294Y-54538847D01*
X144500000Y-54521976D01*
X143000000Y-54521976D01*
X142974232Y-54524514D01*
X142975000Y-54520652D01*
X142975000Y-54279348D01*
X148025000Y-54279348D01*
X148025000Y-54520652D01*
X148072076Y-54757319D01*
X148164419Y-54980255D01*
X148298481Y-55180892D01*
X148469108Y-55351519D01*
X148669745Y-55485581D01*
X148892681Y-55577924D01*
X149129348Y-55625000D01*
X149370652Y-55625000D01*
X149607319Y-55577924D01*
X149621976Y-55571853D01*
X149621976Y-56600000D01*
X149638847Y-56771294D01*
X149688812Y-56936005D01*
X149769950Y-57087804D01*
X149879143Y-57220857D01*
X150012196Y-57330050D01*
X150126250Y-57391013D01*
X150051972Y-57451972D01*
X149867649Y-57676569D01*
X149730685Y-57932811D01*
X149646343Y-58210850D01*
X149617864Y-58500000D01*
X149646343Y-58789150D01*
X149730685Y-59067189D01*
X149867649Y-59323431D01*
X150051972Y-59548028D01*
X150276569Y-59732351D01*
X150532811Y-59869315D01*
X150810850Y-59953657D01*
X151027548Y-59975000D01*
X151472452Y-59975000D01*
X151689150Y-59953657D01*
X151967189Y-59869315D01*
X152223431Y-59732351D01*
X152448028Y-59548028D01*
X152632351Y-59323431D01*
X152769315Y-59067189D01*
X152853657Y-58789150D01*
X152882136Y-58500000D01*
X152853657Y-58210850D01*
X152769315Y-57932811D01*
X152632351Y-57676569D01*
X152448028Y-57451972D01*
X152373750Y-57391013D01*
X152487804Y-57330050D01*
X152620857Y-57220857D01*
X152730050Y-57087804D01*
X152811188Y-56936005D01*
X152861153Y-56771294D01*
X152878024Y-56600000D01*
X152878024Y-55400000D01*
X152861153Y-55228706D01*
X152811188Y-55063995D01*
X152730050Y-54912196D01*
X152620857Y-54779143D01*
X152487804Y-54669950D01*
X152336005Y-54588812D01*
X152171294Y-54538847D01*
X152000000Y-54521976D01*
X150500000Y-54521976D01*
X150474232Y-54524514D01*
X150475000Y-54520652D01*
X150475000Y-54279348D01*
X155525000Y-54279348D01*
X155525000Y-54520652D01*
X155572076Y-54757319D01*
X155664419Y-54980255D01*
X155798481Y-55180892D01*
X155969108Y-55351519D01*
X156169745Y-55485581D01*
X156392681Y-55577924D01*
X156629348Y-55625000D01*
X156870652Y-55625000D01*
X157107319Y-55577924D01*
X157121976Y-55571853D01*
X157121976Y-56600000D01*
X157138847Y-56771294D01*
X157188812Y-56936005D01*
X157269950Y-57087804D01*
X157379143Y-57220857D01*
X157512196Y-57330050D01*
X157626250Y-57391013D01*
X157551972Y-57451972D01*
X157367649Y-57676569D01*
X157230685Y-57932811D01*
X157146343Y-58210850D01*
X157117864Y-58500000D01*
X157146343Y-58789150D01*
X157230685Y-59067189D01*
X157367649Y-59323431D01*
X157551972Y-59548028D01*
X157776569Y-59732351D01*
X158032811Y-59869315D01*
X158310850Y-59953657D01*
X158527548Y-59975000D01*
X158972452Y-59975000D01*
X159189150Y-59953657D01*
X159467189Y-59869315D01*
X159723431Y-59732351D01*
X159948028Y-59548028D01*
X160132351Y-59323431D01*
X160269315Y-59067189D01*
X160353657Y-58789150D01*
X160382136Y-58500000D01*
X160353657Y-58210850D01*
X160269315Y-57932811D01*
X160132351Y-57676569D01*
X159948028Y-57451972D01*
X159873750Y-57391013D01*
X159987804Y-57330050D01*
X160120857Y-57220857D01*
X160230050Y-57087804D01*
X160311188Y-56936005D01*
X160361153Y-56771294D01*
X160378024Y-56600000D01*
X160378024Y-55400000D01*
X160361153Y-55228706D01*
X160311188Y-55063995D01*
X160230050Y-54912196D01*
X160120857Y-54779143D01*
X159987804Y-54669950D01*
X159836005Y-54588812D01*
X159671294Y-54538847D01*
X159500000Y-54521976D01*
X158000000Y-54521976D01*
X157974232Y-54524514D01*
X157975000Y-54520652D01*
X157975000Y-54279348D01*
X163025000Y-54279348D01*
X163025000Y-54520652D01*
X163072076Y-54757319D01*
X163164419Y-54980255D01*
X163298481Y-55180892D01*
X163469108Y-55351519D01*
X163669745Y-55485581D01*
X163892681Y-55577924D01*
X164129348Y-55625000D01*
X164370652Y-55625000D01*
X164607319Y-55577924D01*
X164621976Y-55571853D01*
X164621976Y-56600000D01*
X164638847Y-56771294D01*
X164688812Y-56936005D01*
X164769950Y-57087804D01*
X164879143Y-57220857D01*
X165012196Y-57330050D01*
X165126250Y-57391013D01*
X165051972Y-57451972D01*
X164867649Y-57676569D01*
X164730685Y-57932811D01*
X164646343Y-58210850D01*
X164617864Y-58500000D01*
X164646343Y-58789150D01*
X164730685Y-59067189D01*
X164867649Y-59323431D01*
X165051972Y-59548028D01*
X165276569Y-59732351D01*
X165532811Y-59869315D01*
X165810850Y-59953657D01*
X166027548Y-59975000D01*
X166472452Y-59975000D01*
X166689150Y-59953657D01*
X166967189Y-59869315D01*
X167223431Y-59732351D01*
X167448028Y-59548028D01*
X167632351Y-59323431D01*
X167769315Y-59067189D01*
X167853657Y-58789150D01*
X167882136Y-58500000D01*
X167853657Y-58210850D01*
X167769315Y-57932811D01*
X167632351Y-57676569D01*
X167448028Y-57451972D01*
X167373750Y-57391013D01*
X167487804Y-57330050D01*
X167620857Y-57220857D01*
X167730050Y-57087804D01*
X167811188Y-56936005D01*
X167861153Y-56771294D01*
X167878024Y-56600000D01*
X167878024Y-55400000D01*
X167861153Y-55228706D01*
X167811188Y-55063995D01*
X167730050Y-54912196D01*
X167620857Y-54779143D01*
X167487804Y-54669950D01*
X167336005Y-54588812D01*
X167171294Y-54538847D01*
X167000000Y-54521976D01*
X165500000Y-54521976D01*
X165474232Y-54524514D01*
X165475000Y-54520652D01*
X165475000Y-54279348D01*
X165427924Y-54042681D01*
X165335581Y-53819745D01*
X165201519Y-53619108D01*
X165030892Y-53448481D01*
X164830255Y-53314419D01*
X164607319Y-53222076D01*
X164370652Y-53175000D01*
X164129348Y-53175000D01*
X163892681Y-53222076D01*
X163669745Y-53314419D01*
X163469108Y-53448481D01*
X163298481Y-53619108D01*
X163164419Y-53819745D01*
X163072076Y-54042681D01*
X163025000Y-54279348D01*
X157975000Y-54279348D01*
X157927924Y-54042681D01*
X157835581Y-53819745D01*
X157701519Y-53619108D01*
X157530892Y-53448481D01*
X157330255Y-53314419D01*
X157107319Y-53222076D01*
X156870652Y-53175000D01*
X156629348Y-53175000D01*
X156392681Y-53222076D01*
X156169745Y-53314419D01*
X155969108Y-53448481D01*
X155798481Y-53619108D01*
X155664419Y-53819745D01*
X155572076Y-54042681D01*
X155525000Y-54279348D01*
X150475000Y-54279348D01*
X150427924Y-54042681D01*
X150335581Y-53819745D01*
X150201519Y-53619108D01*
X150030892Y-53448481D01*
X149830255Y-53314419D01*
X149607319Y-53222076D01*
X149370652Y-53175000D01*
X149129348Y-53175000D01*
X148892681Y-53222076D01*
X148669745Y-53314419D01*
X148469108Y-53448481D01*
X148298481Y-53619108D01*
X148164419Y-53819745D01*
X148072076Y-54042681D01*
X148025000Y-54279348D01*
X142975000Y-54279348D01*
X142927924Y-54042681D01*
X142835581Y-53819745D01*
X142701519Y-53619108D01*
X142530892Y-53448481D01*
X142330255Y-53314419D01*
X142107319Y-53222076D01*
X141870652Y-53175000D01*
X141629348Y-53175000D01*
X141392681Y-53222076D01*
X141169745Y-53314419D01*
X140969108Y-53448481D01*
X140798481Y-53619108D01*
X140664419Y-53819745D01*
X140572076Y-54042681D01*
X140525000Y-54279348D01*
X134013307Y-54279348D01*
X133994080Y-54255920D01*
X133898911Y-54177817D01*
X133790334Y-54119781D01*
X133672521Y-54084043D01*
X133550000Y-54071976D01*
X131950000Y-54071976D01*
X131827479Y-54084043D01*
X131709666Y-54119781D01*
X131601089Y-54177817D01*
X131505920Y-54255920D01*
X131427817Y-54351089D01*
X131369781Y-54459666D01*
X131334043Y-54577479D01*
X131321976Y-54700000D01*
X124678024Y-54700000D01*
X124665957Y-54577479D01*
X124630219Y-54459666D01*
X124572183Y-54351089D01*
X124494080Y-54255920D01*
X124398911Y-54177817D01*
X124290334Y-54119781D01*
X124172521Y-54084043D01*
X124050000Y-54071976D01*
X122450000Y-54071976D01*
X122327479Y-54084043D01*
X122209666Y-54119781D01*
X122101089Y-54177817D01*
X122005920Y-54255920D01*
X121927817Y-54351089D01*
X121869781Y-54459666D01*
X121834043Y-54577479D01*
X121821976Y-54700000D01*
X113524421Y-54700000D01*
X113487804Y-54669950D01*
X113336005Y-54588812D01*
X113171294Y-54538847D01*
X113000000Y-54521976D01*
X111500000Y-54521976D01*
X111474232Y-54524514D01*
X111475000Y-54520652D01*
X111475000Y-54279348D01*
X111427924Y-54042681D01*
X111335581Y-53819745D01*
X111201519Y-53619108D01*
X111030892Y-53448481D01*
X110830255Y-53314419D01*
X110607319Y-53222076D01*
X110370652Y-53175000D01*
X110129348Y-53175000D01*
X109892681Y-53222076D01*
X109669745Y-53314419D01*
X109469108Y-53448481D01*
X109298481Y-53619108D01*
X109164419Y-53819745D01*
X109072076Y-54042681D01*
X109025000Y-54279348D01*
X107725000Y-54279348D01*
X107725000Y-53633119D01*
X107581851Y-52913457D01*
X107301052Y-52235551D01*
X106893397Y-51625451D01*
X106374549Y-51106603D01*
X105764449Y-50698948D01*
X105646279Y-50650000D01*
X174353721Y-50650000D01*
X174235551Y-50698948D01*
G37*
%TD.AperFunction*%
%TD*%
M02*
