%TF.GenerationSoftware,KiCad,Pcbnew,5.1.10*%
%TF.CreationDate,2021-06-13T22:55:49-04:00*%
%TF.ProjectId,led-controller,6c65642d-636f-46e7-9472-6f6c6c65722e,v1.0*%
%TF.SameCoordinates,Original*%
%TF.FileFunction,Legend,Top*%
%TF.FilePolarity,Positive*%
%FSLAX46Y46*%
G04 Gerber Fmt 4.6, Leading zero omitted, Abs format (unit mm)*
G04 Created by KiCad (PCBNEW 5.1.10) date 2021-06-13 22:55:49*
%MOMM*%
%LPD*%
G01*
G04 APERTURE LIST*
%ADD10C,0.150000*%
%ADD11C,0.250000*%
%ADD12C,0.120000*%
G04 APERTURE END LIST*
D10*
X117633214Y-59000000D02*
X117728452Y-59047619D01*
X117871309Y-59047619D01*
X118014166Y-59000000D01*
X118109404Y-58904761D01*
X118157023Y-58809523D01*
X118204642Y-58619047D01*
X118204642Y-58476190D01*
X118157023Y-58285714D01*
X118109404Y-58190476D01*
X118014166Y-58095238D01*
X117871309Y-58047619D01*
X117776071Y-58047619D01*
X117633214Y-58095238D01*
X117585595Y-58142857D01*
X117585595Y-58476190D01*
X117776071Y-58476190D01*
X117157023Y-58047619D02*
X117157023Y-59047619D01*
X116585595Y-58047619D01*
X116585595Y-59047619D01*
X116109404Y-58047619D02*
X116109404Y-59047619D01*
X115871309Y-59047619D01*
X115728452Y-59000000D01*
X115633214Y-58904761D01*
X115585595Y-58809523D01*
X115537976Y-58619047D01*
X115537976Y-58476190D01*
X115585595Y-58285714D01*
X115633214Y-58190476D01*
X115728452Y-58095238D01*
X115871309Y-58047619D01*
X116109404Y-58047619D01*
X118109404Y-56547619D02*
X117776071Y-55547619D01*
X117442738Y-56547619D01*
X116537976Y-55642857D02*
X116585595Y-55595238D01*
X116728452Y-55547619D01*
X116823690Y-55547619D01*
X116966547Y-55595238D01*
X117061785Y-55690476D01*
X117109404Y-55785714D01*
X117157023Y-55976190D01*
X117157023Y-56119047D01*
X117109404Y-56309523D01*
X117061785Y-56404761D01*
X116966547Y-56500000D01*
X116823690Y-56547619D01*
X116728452Y-56547619D01*
X116585595Y-56500000D01*
X116537976Y-56452380D01*
X115537976Y-55642857D02*
X115585595Y-55595238D01*
X115728452Y-55547619D01*
X115823690Y-55547619D01*
X115966547Y-55595238D01*
X116061785Y-55690476D01*
X116109404Y-55785714D01*
X116157023Y-55976190D01*
X116157023Y-56119047D01*
X116109404Y-56309523D01*
X116061785Y-56404761D01*
X115966547Y-56500000D01*
X115823690Y-56547619D01*
X115728452Y-56547619D01*
X115585595Y-56500000D01*
X115537976Y-56452380D01*
X107842976Y-60952380D02*
X107789404Y-61000000D01*
X107688214Y-61047619D01*
X107450119Y-61047619D01*
X107360833Y-61000000D01*
X107319166Y-60952380D01*
X107283452Y-60857142D01*
X107295357Y-60761904D01*
X107360833Y-60619047D01*
X108003690Y-60047619D01*
X107384642Y-60047619D01*
X106444166Y-60714285D02*
X106527500Y-60047619D01*
X106634642Y-61095238D02*
X106962023Y-60380952D01*
X106342976Y-60380952D01*
X106021547Y-61047619D02*
X105813214Y-60047619D01*
X105354880Y-61047619D01*
X104384642Y-60047619D02*
X104259642Y-61047619D01*
X104015595Y-60333333D01*
X103592976Y-61047619D01*
X103717976Y-60047619D01*
X103253690Y-60333333D02*
X102777500Y-60333333D01*
X103384642Y-60047619D02*
X102926309Y-61047619D01*
X102717976Y-60047619D01*
X102354880Y-61047619D02*
X101813214Y-60047619D01*
X101688214Y-61047619D02*
X102479880Y-60047619D01*
X138884642Y-55122619D02*
X139456071Y-55122619D01*
X139170357Y-55122619D02*
X139045357Y-56122619D01*
X139158452Y-55979761D01*
X139265595Y-55884523D01*
X139366785Y-55836904D01*
X138467976Y-55408333D02*
X137991785Y-55408333D01*
X138598928Y-55122619D02*
X138140595Y-56122619D01*
X137932261Y-55122619D01*
X139408452Y-53472619D02*
X139283452Y-54472619D01*
X139039404Y-53758333D01*
X138616785Y-54472619D01*
X138741785Y-53472619D01*
X138277500Y-53758333D02*
X137801309Y-53758333D01*
X138408452Y-53472619D02*
X137950119Y-54472619D01*
X137741785Y-53472619D01*
X137378690Y-54472619D02*
X136837023Y-53472619D01*
X136712023Y-54472619D02*
X137503690Y-53472619D01*
X128245119Y-71285714D02*
X128207023Y-71323809D01*
X128092738Y-71361904D01*
X128016547Y-71361904D01*
X127902261Y-71323809D01*
X127826071Y-71247619D01*
X127787976Y-71171428D01*
X127749880Y-71019047D01*
X127749880Y-70904761D01*
X127787976Y-70752380D01*
X127826071Y-70676190D01*
X127902261Y-70600000D01*
X128016547Y-70561904D01*
X128092738Y-70561904D01*
X128207023Y-70600000D01*
X128245119Y-70638095D01*
X128549880Y-71133333D02*
X128930833Y-71133333D01*
X128473690Y-71361904D02*
X128740357Y-70561904D01*
X129007023Y-71361904D01*
X129273690Y-71361904D02*
X129273690Y-70561904D01*
X129730833Y-71361904D01*
X129730833Y-70561904D01*
X131909642Y-75561904D02*
X131909642Y-76209523D01*
X131947738Y-76285714D01*
X131985833Y-76323809D01*
X132062023Y-76361904D01*
X132214404Y-76361904D01*
X132290595Y-76323809D01*
X132328690Y-76285714D01*
X132366785Y-76209523D01*
X132366785Y-75561904D01*
X132709642Y-76133333D02*
X133090595Y-76133333D01*
X132633452Y-76361904D02*
X132900119Y-75561904D01*
X133166785Y-76361904D01*
X133890595Y-76361904D02*
X133623928Y-75980952D01*
X133433452Y-76361904D02*
X133433452Y-75561904D01*
X133738214Y-75561904D01*
X133814404Y-75600000D01*
X133852500Y-75638095D01*
X133890595Y-75714285D01*
X133890595Y-75828571D01*
X133852500Y-75904761D01*
X133814404Y-75942857D01*
X133738214Y-75980952D01*
X133433452Y-75980952D01*
X134119166Y-75561904D02*
X134576309Y-75561904D01*
X134347738Y-76361904D02*
X134347738Y-75561904D01*
X171252261Y-58095238D02*
X171109404Y-58047619D01*
X170871309Y-58047619D01*
X170776071Y-58095238D01*
X170728452Y-58142857D01*
X170680833Y-58238095D01*
X170680833Y-58333333D01*
X170728452Y-58428571D01*
X170776071Y-58476190D01*
X170871309Y-58523809D01*
X171061785Y-58571428D01*
X171157023Y-58619047D01*
X171204642Y-58666666D01*
X171252261Y-58761904D01*
X171252261Y-58857142D01*
X171204642Y-58952380D01*
X171157023Y-59000000D01*
X171061785Y-59047619D01*
X170823690Y-59047619D01*
X170680833Y-59000000D01*
X170347500Y-59047619D02*
X170109404Y-58047619D01*
X169918928Y-58761904D01*
X169728452Y-58047619D01*
X169490357Y-59047619D01*
X172109404Y-56547619D02*
X171776071Y-55547619D01*
X171442738Y-56547619D01*
X170537976Y-55642857D02*
X170585595Y-55595238D01*
X170728452Y-55547619D01*
X170823690Y-55547619D01*
X170966547Y-55595238D01*
X171061785Y-55690476D01*
X171109404Y-55785714D01*
X171157023Y-55976190D01*
X171157023Y-56119047D01*
X171109404Y-56309523D01*
X171061785Y-56404761D01*
X170966547Y-56500000D01*
X170823690Y-56547619D01*
X170728452Y-56547619D01*
X170585595Y-56500000D01*
X170537976Y-56452380D01*
X169537976Y-55642857D02*
X169585595Y-55595238D01*
X169728452Y-55547619D01*
X169823690Y-55547619D01*
X169966547Y-55595238D01*
X170061785Y-55690476D01*
X170109404Y-55785714D01*
X170157023Y-55976190D01*
X170157023Y-56119047D01*
X170109404Y-56309523D01*
X170061785Y-56404761D01*
X169966547Y-56500000D01*
X169823690Y-56547619D01*
X169728452Y-56547619D01*
X169585595Y-56500000D01*
X169537976Y-56452380D01*
D11*
X145571428Y-52684523D02*
X145333333Y-52684523D01*
X145214285Y-52625000D01*
X145095238Y-52505952D01*
X145035714Y-52267857D01*
X145035714Y-51851190D01*
X145095238Y-51613095D01*
X145214285Y-51494047D01*
X145333333Y-51434523D01*
X145571428Y-51434523D01*
X145690476Y-51494047D01*
X145809523Y-51613095D01*
X145869047Y-51851190D01*
X145869047Y-52267857D01*
X145809523Y-52505952D01*
X145690476Y-52625000D01*
X145571428Y-52684523D01*
X144500000Y-52684523D02*
X144500000Y-51672619D01*
X144440476Y-51553571D01*
X144380952Y-51494047D01*
X144261904Y-51434523D01*
X144023809Y-51434523D01*
X143904761Y-51494047D01*
X143845238Y-51553571D01*
X143785714Y-51672619D01*
X143785714Y-52684523D01*
X143369047Y-52684523D02*
X142654761Y-52684523D01*
X143011904Y-51434523D02*
X143011904Y-52684523D01*
X140750000Y-52267857D02*
X140750000Y-51434523D01*
X141047619Y-52744047D02*
X141345238Y-51851190D01*
X140571428Y-51851190D01*
X153071428Y-52684523D02*
X152833333Y-52684523D01*
X152714285Y-52625000D01*
X152595238Y-52505952D01*
X152535714Y-52267857D01*
X152535714Y-51851190D01*
X152595238Y-51613095D01*
X152714285Y-51494047D01*
X152833333Y-51434523D01*
X153071428Y-51434523D01*
X153190476Y-51494047D01*
X153309523Y-51613095D01*
X153369047Y-51851190D01*
X153369047Y-52267857D01*
X153309523Y-52505952D01*
X153190476Y-52625000D01*
X153071428Y-52684523D01*
X152000000Y-52684523D02*
X152000000Y-51672619D01*
X151940476Y-51553571D01*
X151880952Y-51494047D01*
X151761904Y-51434523D01*
X151523809Y-51434523D01*
X151404761Y-51494047D01*
X151345238Y-51553571D01*
X151285714Y-51672619D01*
X151285714Y-52684523D01*
X150869047Y-52684523D02*
X150154761Y-52684523D01*
X150511904Y-51434523D02*
X150511904Y-52684523D01*
X148904761Y-52684523D02*
X148130952Y-52684523D01*
X148547619Y-52208333D01*
X148369047Y-52208333D01*
X148250000Y-52148809D01*
X148190476Y-52089285D01*
X148130952Y-51970238D01*
X148130952Y-51672619D01*
X148190476Y-51553571D01*
X148250000Y-51494047D01*
X148369047Y-51434523D01*
X148726190Y-51434523D01*
X148845238Y-51494047D01*
X148904761Y-51553571D01*
X160571428Y-52684523D02*
X160333333Y-52684523D01*
X160214285Y-52625000D01*
X160095238Y-52505952D01*
X160035714Y-52267857D01*
X160035714Y-51851190D01*
X160095238Y-51613095D01*
X160214285Y-51494047D01*
X160333333Y-51434523D01*
X160571428Y-51434523D01*
X160690476Y-51494047D01*
X160809523Y-51613095D01*
X160869047Y-51851190D01*
X160869047Y-52267857D01*
X160809523Y-52505952D01*
X160690476Y-52625000D01*
X160571428Y-52684523D01*
X159500000Y-52684523D02*
X159500000Y-51672619D01*
X159440476Y-51553571D01*
X159380952Y-51494047D01*
X159261904Y-51434523D01*
X159023809Y-51434523D01*
X158904761Y-51494047D01*
X158845238Y-51553571D01*
X158785714Y-51672619D01*
X158785714Y-52684523D01*
X158369047Y-52684523D02*
X157654761Y-52684523D01*
X158011904Y-51434523D02*
X158011904Y-52684523D01*
X156345238Y-52565476D02*
X156285714Y-52625000D01*
X156166666Y-52684523D01*
X155869047Y-52684523D01*
X155750000Y-52625000D01*
X155690476Y-52565476D01*
X155630952Y-52446428D01*
X155630952Y-52327380D01*
X155690476Y-52148809D01*
X156404761Y-51434523D01*
X155630952Y-51434523D01*
X168071428Y-52684523D02*
X167833333Y-52684523D01*
X167714285Y-52625000D01*
X167595238Y-52505952D01*
X167535714Y-52267857D01*
X167535714Y-51851190D01*
X167595238Y-51613095D01*
X167714285Y-51494047D01*
X167833333Y-51434523D01*
X168071428Y-51434523D01*
X168190476Y-51494047D01*
X168309523Y-51613095D01*
X168369047Y-51851190D01*
X168369047Y-52267857D01*
X168309523Y-52505952D01*
X168190476Y-52625000D01*
X168071428Y-52684523D01*
X167000000Y-52684523D02*
X167000000Y-51672619D01*
X166940476Y-51553571D01*
X166880952Y-51494047D01*
X166761904Y-51434523D01*
X166523809Y-51434523D01*
X166404761Y-51494047D01*
X166345238Y-51553571D01*
X166285714Y-51672619D01*
X166285714Y-52684523D01*
X165869047Y-52684523D02*
X165154761Y-52684523D01*
X165511904Y-51434523D02*
X165511904Y-52684523D01*
X163130952Y-51434523D02*
X163845238Y-51434523D01*
X163488095Y-51434523D02*
X163488095Y-52684523D01*
X163607142Y-52505952D01*
X163726190Y-52386904D01*
X163845238Y-52327380D01*
X115351190Y-52089285D02*
X114934523Y-52089285D01*
X114755952Y-51434523D02*
X115351190Y-51434523D01*
X115351190Y-52684523D01*
X114755952Y-52684523D01*
X114339285Y-52684523D02*
X113505952Y-51434523D01*
X113505952Y-52684523D02*
X114339285Y-51434523D01*
X113208333Y-52684523D02*
X112494047Y-52684523D01*
X112851190Y-51434523D02*
X112851190Y-52684523D01*
X111303571Y-52684523D02*
X110886904Y-51434523D01*
X110470238Y-52684523D01*
X109339285Y-51553571D02*
X109398809Y-51494047D01*
X109577380Y-51434523D01*
X109696428Y-51434523D01*
X109875000Y-51494047D01*
X109994047Y-51613095D01*
X110053571Y-51732142D01*
X110113095Y-51970238D01*
X110113095Y-52148809D01*
X110053571Y-52386904D01*
X109994047Y-52505952D01*
X109875000Y-52625000D01*
X109696428Y-52684523D01*
X109577380Y-52684523D01*
X109398809Y-52625000D01*
X109339285Y-52565476D01*
X108089285Y-51553571D02*
X108148809Y-51494047D01*
X108327380Y-51434523D01*
X108446428Y-51434523D01*
X108625000Y-51494047D01*
X108744047Y-51613095D01*
X108803571Y-51732142D01*
X108863095Y-51970238D01*
X108863095Y-52148809D01*
X108803571Y-52386904D01*
X108744047Y-52505952D01*
X108625000Y-52625000D01*
X108446428Y-52684523D01*
X108327380Y-52684523D01*
X108148809Y-52625000D01*
X108089285Y-52565476D01*
D10*
X168500000Y-89633214D02*
X168452380Y-89728452D01*
X168452380Y-89871309D01*
X168500000Y-90014166D01*
X168595238Y-90109404D01*
X168690476Y-90157023D01*
X168880952Y-90204642D01*
X169023809Y-90204642D01*
X169214285Y-90157023D01*
X169309523Y-90109404D01*
X169404761Y-90014166D01*
X169452380Y-89871309D01*
X169452380Y-89776071D01*
X169404761Y-89633214D01*
X169357142Y-89585595D01*
X169023809Y-89585595D01*
X169023809Y-89776071D01*
X169452380Y-89157023D02*
X168452380Y-89157023D01*
X169452380Y-88585595D01*
X168452380Y-88585595D01*
X169452380Y-88109404D02*
X168452380Y-88109404D01*
X168452380Y-87871309D01*
X168500000Y-87728452D01*
X168595238Y-87633214D01*
X168690476Y-87585595D01*
X168880952Y-87537976D01*
X169023809Y-87537976D01*
X169214285Y-87585595D01*
X169309523Y-87633214D01*
X169404761Y-87728452D01*
X169452380Y-87871309D01*
X169452380Y-88109404D01*
X173452380Y-88442738D02*
X173452380Y-88918928D01*
X173928571Y-88966547D01*
X173880952Y-88918928D01*
X173833333Y-88823690D01*
X173833333Y-88585595D01*
X173880952Y-88490357D01*
X173928571Y-88442738D01*
X174023809Y-88395119D01*
X174261904Y-88395119D01*
X174357142Y-88442738D01*
X174404761Y-88490357D01*
X174452380Y-88585595D01*
X174452380Y-88823690D01*
X174404761Y-88918928D01*
X174357142Y-88966547D01*
X173452380Y-88109404D02*
X174452380Y-87776071D01*
X173452380Y-87442738D01*
X171904761Y-89585595D02*
X171952380Y-89442738D01*
X171952380Y-89204642D01*
X171904761Y-89109404D01*
X171857142Y-89061785D01*
X171761904Y-89014166D01*
X171666666Y-89014166D01*
X171571428Y-89061785D01*
X171523809Y-89109404D01*
X171476190Y-89204642D01*
X171428571Y-89395119D01*
X171380952Y-89490357D01*
X171333333Y-89537976D01*
X171238095Y-89585595D01*
X171142857Y-89585595D01*
X171047619Y-89537976D01*
X171000000Y-89490357D01*
X170952380Y-89395119D01*
X170952380Y-89157023D01*
X171000000Y-89014166D01*
X171952380Y-88585595D02*
X170952380Y-88585595D01*
X171000000Y-87585595D02*
X170952380Y-87680833D01*
X170952380Y-87823690D01*
X171000000Y-87966547D01*
X171095238Y-88061785D01*
X171190476Y-88109404D01*
X171380952Y-88157023D01*
X171523809Y-88157023D01*
X171714285Y-88109404D01*
X171809523Y-88061785D01*
X171904761Y-87966547D01*
X171952380Y-87823690D01*
X171952380Y-87728452D01*
X171904761Y-87585595D01*
X171857142Y-87537976D01*
X171523809Y-87537976D01*
X171523809Y-87728452D01*
D11*
X178565476Y-85684523D02*
X177970238Y-86101190D01*
X178565476Y-86398809D02*
X177315476Y-86398809D01*
X177315476Y-85922619D01*
X177375000Y-85803571D01*
X177434523Y-85744047D01*
X177553571Y-85684523D01*
X177732142Y-85684523D01*
X177851190Y-85744047D01*
X177910714Y-85803571D01*
X177970238Y-85922619D01*
X177970238Y-86398809D01*
X177375000Y-84494047D02*
X177315476Y-84613095D01*
X177315476Y-84791666D01*
X177375000Y-84970238D01*
X177494047Y-85089285D01*
X177613095Y-85148809D01*
X177851190Y-85208333D01*
X178029761Y-85208333D01*
X178267857Y-85148809D01*
X178386904Y-85089285D01*
X178505952Y-84970238D01*
X178565476Y-84791666D01*
X178565476Y-84672619D01*
X178505952Y-84494047D01*
X178446428Y-84434523D01*
X178029761Y-84434523D01*
X178029761Y-84672619D01*
X177910714Y-83482142D02*
X177970238Y-83303571D01*
X178029761Y-83244047D01*
X178148809Y-83184523D01*
X178327380Y-83184523D01*
X178446428Y-83244047D01*
X178505952Y-83303571D01*
X178565476Y-83422619D01*
X178565476Y-83898809D01*
X177315476Y-83898809D01*
X177315476Y-83482142D01*
X177375000Y-83363095D01*
X177434523Y-83303571D01*
X177553571Y-83244047D01*
X177672619Y-83244047D01*
X177791666Y-83303571D01*
X177851190Y-83363095D01*
X177910714Y-83482142D01*
X177910714Y-83898809D01*
X177434523Y-81755952D02*
X177375000Y-81696428D01*
X177315476Y-81577380D01*
X177315476Y-81279761D01*
X177375000Y-81160714D01*
X177434523Y-81101190D01*
X177553571Y-81041666D01*
X177672619Y-81041666D01*
X177851190Y-81101190D01*
X178565476Y-81815476D01*
X178565476Y-81041666D01*
X178565476Y-78184523D02*
X177970238Y-78601190D01*
X178565476Y-78898809D02*
X177315476Y-78898809D01*
X177315476Y-78422619D01*
X177375000Y-78303571D01*
X177434523Y-78244047D01*
X177553571Y-78184523D01*
X177732142Y-78184523D01*
X177851190Y-78244047D01*
X177910714Y-78303571D01*
X177970238Y-78422619D01*
X177970238Y-78898809D01*
X177375000Y-76994047D02*
X177315476Y-77113095D01*
X177315476Y-77291666D01*
X177375000Y-77470238D01*
X177494047Y-77589285D01*
X177613095Y-77648809D01*
X177851190Y-77708333D01*
X178029761Y-77708333D01*
X178267857Y-77648809D01*
X178386904Y-77589285D01*
X178505952Y-77470238D01*
X178565476Y-77291666D01*
X178565476Y-77172619D01*
X178505952Y-76994047D01*
X178446428Y-76934523D01*
X178029761Y-76934523D01*
X178029761Y-77172619D01*
X177910714Y-75982142D02*
X177970238Y-75803571D01*
X178029761Y-75744047D01*
X178148809Y-75684523D01*
X178327380Y-75684523D01*
X178446428Y-75744047D01*
X178505952Y-75803571D01*
X178565476Y-75922619D01*
X178565476Y-76398809D01*
X177315476Y-76398809D01*
X177315476Y-75982142D01*
X177375000Y-75863095D01*
X177434523Y-75803571D01*
X177553571Y-75744047D01*
X177672619Y-75744047D01*
X177791666Y-75803571D01*
X177851190Y-75863095D01*
X177910714Y-75982142D01*
X177910714Y-76398809D01*
X178565476Y-73541666D02*
X178565476Y-74255952D01*
X178565476Y-73898809D02*
X177315476Y-73898809D01*
X177494047Y-74017857D01*
X177613095Y-74136904D01*
X177672619Y-74255952D01*
D10*
X111116785Y-101000000D02*
X111021547Y-100952380D01*
X110878690Y-100952380D01*
X110735833Y-101000000D01*
X110640595Y-101095238D01*
X110592976Y-101190476D01*
X110545357Y-101380952D01*
X110545357Y-101523809D01*
X110592976Y-101714285D01*
X110640595Y-101809523D01*
X110735833Y-101904761D01*
X110878690Y-101952380D01*
X110973928Y-101952380D01*
X111116785Y-101904761D01*
X111164404Y-101857142D01*
X111164404Y-101523809D01*
X110973928Y-101523809D01*
X111592976Y-101952380D02*
X111592976Y-100952380D01*
X112164404Y-101952380D01*
X112164404Y-100952380D01*
X112640595Y-101952380D02*
X112640595Y-100952380D01*
X112878690Y-100952380D01*
X113021547Y-101000000D01*
X113116785Y-101095238D01*
X113164404Y-101190476D01*
X113212023Y-101380952D01*
X113212023Y-101523809D01*
X113164404Y-101714285D01*
X113116785Y-101809523D01*
X113021547Y-101904761D01*
X112878690Y-101952380D01*
X112640595Y-101952380D01*
X112307261Y-103452380D02*
X111831071Y-103452380D01*
X111783452Y-103928571D01*
X111831071Y-103880952D01*
X111926309Y-103833333D01*
X112164404Y-103833333D01*
X112259642Y-103880952D01*
X112307261Y-103928571D01*
X112354880Y-104023809D01*
X112354880Y-104261904D01*
X112307261Y-104357142D01*
X112259642Y-104404761D01*
X112164404Y-104452380D01*
X111926309Y-104452380D01*
X111831071Y-104404761D01*
X111783452Y-104357142D01*
X112640595Y-103452380D02*
X112973928Y-104452380D01*
X113307261Y-103452380D01*
D11*
X115333333Y-107315476D02*
X114738095Y-107315476D01*
X114678571Y-107910714D01*
X114738095Y-107851190D01*
X114857142Y-107791666D01*
X115154761Y-107791666D01*
X115273809Y-107851190D01*
X115333333Y-107910714D01*
X115392857Y-108029761D01*
X115392857Y-108327380D01*
X115333333Y-108446428D01*
X115273809Y-108505952D01*
X115154761Y-108565476D01*
X114857142Y-108565476D01*
X114738095Y-108505952D01*
X114678571Y-108446428D01*
X115750000Y-107315476D02*
X116166666Y-108565476D01*
X116583333Y-107315476D01*
X117952380Y-108565476D02*
X117952380Y-107315476D01*
X118547619Y-108565476D02*
X118547619Y-107315476D01*
X119261904Y-108565476D01*
X119261904Y-107315476D01*
D10*
X136807261Y-103452380D02*
X136331071Y-103452380D01*
X136283452Y-103928571D01*
X136331071Y-103880952D01*
X136426309Y-103833333D01*
X136664404Y-103833333D01*
X136759642Y-103880952D01*
X136807261Y-103928571D01*
X136854880Y-104023809D01*
X136854880Y-104261904D01*
X136807261Y-104357142D01*
X136759642Y-104404761D01*
X136664404Y-104452380D01*
X136426309Y-104452380D01*
X136331071Y-104404761D01*
X136283452Y-104357142D01*
X137140595Y-103452380D02*
X137473928Y-104452380D01*
X137807261Y-103452380D01*
X135664404Y-101904761D02*
X135807261Y-101952380D01*
X136045357Y-101952380D01*
X136140595Y-101904761D01*
X136188214Y-101857142D01*
X136235833Y-101761904D01*
X136235833Y-101666666D01*
X136188214Y-101571428D01*
X136140595Y-101523809D01*
X136045357Y-101476190D01*
X135854880Y-101428571D01*
X135759642Y-101380952D01*
X135712023Y-101333333D01*
X135664404Y-101238095D01*
X135664404Y-101142857D01*
X135712023Y-101047619D01*
X135759642Y-101000000D01*
X135854880Y-100952380D01*
X136092976Y-100952380D01*
X136235833Y-101000000D01*
X136664404Y-101952380D02*
X136664404Y-100952380D01*
X137664404Y-101000000D02*
X137569166Y-100952380D01*
X137426309Y-100952380D01*
X137283452Y-101000000D01*
X137188214Y-101095238D01*
X137140595Y-101190476D01*
X137092976Y-101380952D01*
X137092976Y-101523809D01*
X137140595Y-101714285D01*
X137188214Y-101809523D01*
X137283452Y-101904761D01*
X137426309Y-101952380D01*
X137521547Y-101952380D01*
X137664404Y-101904761D01*
X137712023Y-101857142D01*
X137712023Y-101523809D01*
X137521547Y-101523809D01*
D11*
X162273809Y-108565476D02*
X162273809Y-107315476D01*
X162869047Y-108565476D02*
X162869047Y-107315476D01*
X163583333Y-108565476D01*
X163583333Y-107315476D01*
X165666666Y-107732142D02*
X165666666Y-108565476D01*
X165369047Y-107255952D02*
X165071428Y-108148809D01*
X165845238Y-108148809D01*
X154773809Y-108565476D02*
X154773809Y-107315476D01*
X155369047Y-108565476D02*
X155369047Y-107315476D01*
X156083333Y-108565476D01*
X156083333Y-107315476D01*
X157511904Y-107315476D02*
X158285714Y-107315476D01*
X157869047Y-107791666D01*
X158047619Y-107791666D01*
X158166666Y-107851190D01*
X158226190Y-107910714D01*
X158285714Y-108029761D01*
X158285714Y-108327380D01*
X158226190Y-108446428D01*
X158166666Y-108505952D01*
X158047619Y-108565476D01*
X157690476Y-108565476D01*
X157571428Y-108505952D01*
X157511904Y-108446428D01*
X147273809Y-108565476D02*
X147273809Y-107315476D01*
X147869047Y-108565476D02*
X147869047Y-107315476D01*
X148583333Y-108565476D01*
X148583333Y-107315476D01*
X150071428Y-107434523D02*
X150130952Y-107375000D01*
X150250000Y-107315476D01*
X150547619Y-107315476D01*
X150666666Y-107375000D01*
X150726190Y-107434523D01*
X150785714Y-107553571D01*
X150785714Y-107672619D01*
X150726190Y-107851190D01*
X150011904Y-108565476D01*
X150785714Y-108565476D01*
X139773809Y-108565476D02*
X139773809Y-107315476D01*
X140369047Y-108565476D02*
X140369047Y-107315476D01*
X141083333Y-108565476D01*
X141083333Y-107315476D01*
X143285714Y-108565476D02*
X142571428Y-108565476D01*
X142928571Y-108565476D02*
X142928571Y-107315476D01*
X142809523Y-107494047D01*
X142690476Y-107613095D01*
X142571428Y-107672619D01*
D10*
X110811785Y-90702380D02*
X110335595Y-90702380D01*
X110287976Y-91178571D01*
X110335595Y-91130952D01*
X110430833Y-91083333D01*
X110668928Y-91083333D01*
X110764166Y-91130952D01*
X110811785Y-91178571D01*
X110859404Y-91273809D01*
X110859404Y-91511904D01*
X110811785Y-91607142D01*
X110764166Y-91654761D01*
X110668928Y-91702380D01*
X110430833Y-91702380D01*
X110335595Y-91654761D01*
X110287976Y-91607142D01*
X111145119Y-90702380D02*
X111478452Y-91702380D01*
X111811785Y-90702380D01*
X110859404Y-83250000D02*
X110764166Y-83202380D01*
X110621309Y-83202380D01*
X110478452Y-83250000D01*
X110383214Y-83345238D01*
X110335595Y-83440476D01*
X110287976Y-83630952D01*
X110287976Y-83773809D01*
X110335595Y-83964285D01*
X110383214Y-84059523D01*
X110478452Y-84154761D01*
X110621309Y-84202380D01*
X110716547Y-84202380D01*
X110859404Y-84154761D01*
X110907023Y-84107142D01*
X110907023Y-83773809D01*
X110716547Y-83773809D01*
X111335595Y-84202380D02*
X111335595Y-83202380D01*
X111907023Y-84202380D01*
X111907023Y-83202380D01*
X112383214Y-84202380D02*
X112383214Y-83202380D01*
X112621309Y-83202380D01*
X112764166Y-83250000D01*
X112859404Y-83345238D01*
X112907023Y-83440476D01*
X112954642Y-83630952D01*
X112954642Y-83773809D01*
X112907023Y-83964285D01*
X112859404Y-84059523D01*
X112764166Y-84154761D01*
X112621309Y-84202380D01*
X112383214Y-84202380D01*
X110811785Y-86702380D02*
X110335595Y-86702380D01*
X110335595Y-85702380D01*
X110335595Y-89202380D02*
X110335595Y-88202380D01*
X110335595Y-88678571D02*
X110907023Y-88678571D01*
X110907023Y-89202380D02*
X110907023Y-88202380D01*
X110811785Y-75702380D02*
X110335595Y-75702380D01*
X110287976Y-76178571D01*
X110335595Y-76130952D01*
X110430833Y-76083333D01*
X110668928Y-76083333D01*
X110764166Y-76130952D01*
X110811785Y-76178571D01*
X110859404Y-76273809D01*
X110859404Y-76511904D01*
X110811785Y-76607142D01*
X110764166Y-76654761D01*
X110668928Y-76702380D01*
X110430833Y-76702380D01*
X110335595Y-76654761D01*
X110287976Y-76607142D01*
X111145119Y-75702380D02*
X111478452Y-76702380D01*
X111811785Y-75702380D01*
X110335595Y-74202380D02*
X110335595Y-73202380D01*
X110335595Y-73678571D02*
X110907023Y-73678571D01*
X110907023Y-74202380D02*
X110907023Y-73202380D01*
X110811785Y-71702380D02*
X110335595Y-71702380D01*
X110335595Y-70702380D01*
X110859404Y-68250000D02*
X110764166Y-68202380D01*
X110621309Y-68202380D01*
X110478452Y-68250000D01*
X110383214Y-68345238D01*
X110335595Y-68440476D01*
X110287976Y-68630952D01*
X110287976Y-68773809D01*
X110335595Y-68964285D01*
X110383214Y-69059523D01*
X110478452Y-69154761D01*
X110621309Y-69202380D01*
X110716547Y-69202380D01*
X110859404Y-69154761D01*
X110907023Y-69107142D01*
X110907023Y-68773809D01*
X110716547Y-68773809D01*
X111335595Y-69202380D02*
X111335595Y-68202380D01*
X111907023Y-69202380D01*
X111907023Y-68202380D01*
X112383214Y-69202380D02*
X112383214Y-68202380D01*
X112621309Y-68202380D01*
X112764166Y-68250000D01*
X112859404Y-68345238D01*
X112907023Y-68440476D01*
X112954642Y-68630952D01*
X112954642Y-68773809D01*
X112907023Y-68964285D01*
X112859404Y-69059523D01*
X112764166Y-69154761D01*
X112621309Y-69202380D01*
X112383214Y-69202380D01*
X103139285Y-97985714D02*
X103101190Y-97947619D01*
X103063095Y-97833333D01*
X103063095Y-97757142D01*
X103101190Y-97642857D01*
X103177380Y-97566666D01*
X103253571Y-97528571D01*
X103405952Y-97490476D01*
X103520238Y-97490476D01*
X103672619Y-97528571D01*
X103748809Y-97566666D01*
X103825000Y-97642857D01*
X103863095Y-97757142D01*
X103863095Y-97833333D01*
X103825000Y-97947619D01*
X103786904Y-97985714D01*
X103291666Y-98290476D02*
X103291666Y-98671428D01*
X103063095Y-98214285D02*
X103863095Y-98480952D01*
X103063095Y-98747619D01*
X103063095Y-99014285D02*
X103863095Y-99014285D01*
X103063095Y-99471428D01*
X103863095Y-99471428D01*
X102513095Y-98347619D02*
X102513095Y-97966666D01*
X102132142Y-97928571D01*
X102170238Y-97966666D01*
X102208333Y-98042857D01*
X102208333Y-98233333D01*
X102170238Y-98309523D01*
X102132142Y-98347619D01*
X102055952Y-98385714D01*
X101865476Y-98385714D01*
X101789285Y-98347619D01*
X101751190Y-98309523D01*
X101713095Y-98233333D01*
X101713095Y-98042857D01*
X101751190Y-97966666D01*
X101789285Y-97928571D01*
X102513095Y-98614285D02*
X101713095Y-98880952D01*
X102513095Y-99147619D01*
D11*
X101553571Y-86696428D02*
X101494047Y-86636904D01*
X101434523Y-86458333D01*
X101434523Y-86339285D01*
X101494047Y-86160714D01*
X101613095Y-86041666D01*
X101732142Y-85982142D01*
X101970238Y-85922619D01*
X102148809Y-85922619D01*
X102386904Y-85982142D01*
X102505952Y-86041666D01*
X102625000Y-86160714D01*
X102684523Y-86339285D01*
X102684523Y-86458333D01*
X102625000Y-86636904D01*
X102565476Y-86696428D01*
X101791666Y-87172619D02*
X101791666Y-87767857D01*
X101434523Y-87053571D02*
X102684523Y-87470238D01*
X101434523Y-87886904D01*
X101434523Y-88303571D02*
X102684523Y-88303571D01*
X101434523Y-89017857D01*
X102684523Y-89017857D01*
X101553571Y-71696428D02*
X101494047Y-71636904D01*
X101434523Y-71458333D01*
X101434523Y-71339285D01*
X101494047Y-71160714D01*
X101613095Y-71041666D01*
X101732142Y-70982142D01*
X101970238Y-70922619D01*
X102148809Y-70922619D01*
X102386904Y-70982142D01*
X102505952Y-71041666D01*
X102625000Y-71160714D01*
X102684523Y-71339285D01*
X102684523Y-71458333D01*
X102625000Y-71636904D01*
X102565476Y-71696428D01*
X101791666Y-72172619D02*
X101791666Y-72767857D01*
X101434523Y-72053571D02*
X102684523Y-72470238D01*
X101434523Y-72886904D01*
X101434523Y-73303571D02*
X102684523Y-73303571D01*
X101434523Y-74017857D01*
X102684523Y-74017857D01*
D12*
%TO.C,U2*%
X121150000Y-91590000D02*
X127160000Y-91590000D01*
X123400000Y-98410000D02*
X127160000Y-98410000D01*
X127160000Y-91590000D02*
X127160000Y-92850000D01*
X127160000Y-98410000D02*
X127160000Y-97150000D01*
%TO.C,C14*%
X125965000Y-53240302D02*
X125165000Y-53240302D01*
X125565000Y-52840302D02*
X125565000Y-53640302D01*
X123783000Y-61331000D02*
X122717000Y-61331000D01*
X124018000Y-61291000D02*
X122482000Y-61291000D01*
X124198000Y-61251000D02*
X122302000Y-61251000D01*
X124348000Y-61211000D02*
X122152000Y-61211000D01*
X124479000Y-61171000D02*
X122021000Y-61171000D01*
X124596000Y-61131000D02*
X121904000Y-61131000D01*
X124703000Y-61091000D02*
X121797000Y-61091000D01*
X124802000Y-61051000D02*
X121698000Y-61051000D01*
X124895000Y-61011000D02*
X121605000Y-61011000D01*
X124981000Y-60971000D02*
X121519000Y-60971000D01*
X125063000Y-60931000D02*
X121437000Y-60931000D01*
X125140000Y-60891000D02*
X121360000Y-60891000D01*
X125214000Y-60851000D02*
X121286000Y-60851000D01*
X125284000Y-60811000D02*
X121216000Y-60811000D01*
X125352000Y-60771000D02*
X121148000Y-60771000D01*
X125416000Y-60731000D02*
X121084000Y-60731000D01*
X125478000Y-60691000D02*
X121022000Y-60691000D01*
X125537000Y-60651000D02*
X120963000Y-60651000D01*
X125595000Y-60611000D02*
X120905000Y-60611000D01*
X125650000Y-60571000D02*
X120850000Y-60571000D01*
X125704000Y-60531000D02*
X120796000Y-60531000D01*
X125755000Y-60491000D02*
X120745000Y-60491000D01*
X125806000Y-60451000D02*
X120694000Y-60451000D01*
X125854000Y-60411000D02*
X120646000Y-60411000D01*
X125901000Y-60371000D02*
X120599000Y-60371000D01*
X125947000Y-60331000D02*
X120553000Y-60331000D01*
X125991000Y-60291000D02*
X120509000Y-60291000D01*
X126034000Y-60251000D02*
X120466000Y-60251000D01*
X126076000Y-60211000D02*
X120424000Y-60211000D01*
X126117000Y-60171000D02*
X120383000Y-60171000D01*
X126157000Y-60131000D02*
X120343000Y-60131000D01*
X126195000Y-60091000D02*
X120305000Y-60091000D01*
X126233000Y-60051000D02*
X120267000Y-60051000D01*
X122210000Y-60011000D02*
X120231000Y-60011000D01*
X126269000Y-60011000D02*
X124290000Y-60011000D01*
X122210000Y-59971000D02*
X120195000Y-59971000D01*
X126305000Y-59971000D02*
X124290000Y-59971000D01*
X122210000Y-59931000D02*
X120160000Y-59931000D01*
X126340000Y-59931000D02*
X124290000Y-59931000D01*
X122210000Y-59891000D02*
X120126000Y-59891000D01*
X126374000Y-59891000D02*
X124290000Y-59891000D01*
X122210000Y-59851000D02*
X120094000Y-59851000D01*
X126406000Y-59851000D02*
X124290000Y-59851000D01*
X122210000Y-59811000D02*
X120061000Y-59811000D01*
X126439000Y-59811000D02*
X124290000Y-59811000D01*
X122210000Y-59771000D02*
X120030000Y-59771000D01*
X126470000Y-59771000D02*
X124290000Y-59771000D01*
X122210000Y-59731000D02*
X120000000Y-59731000D01*
X126500000Y-59731000D02*
X124290000Y-59731000D01*
X122210000Y-59691000D02*
X119970000Y-59691000D01*
X126530000Y-59691000D02*
X124290000Y-59691000D01*
X122210000Y-59651000D02*
X119941000Y-59651000D01*
X126559000Y-59651000D02*
X124290000Y-59651000D01*
X122210000Y-59611000D02*
X119912000Y-59611000D01*
X126588000Y-59611000D02*
X124290000Y-59611000D01*
X122210000Y-59571000D02*
X119885000Y-59571000D01*
X126615000Y-59571000D02*
X124290000Y-59571000D01*
X122210000Y-59531000D02*
X119858000Y-59531000D01*
X126642000Y-59531000D02*
X124290000Y-59531000D01*
X122210000Y-59491000D02*
X119832000Y-59491000D01*
X126668000Y-59491000D02*
X124290000Y-59491000D01*
X122210000Y-59451000D02*
X119806000Y-59451000D01*
X126694000Y-59451000D02*
X124290000Y-59451000D01*
X122210000Y-59411000D02*
X119781000Y-59411000D01*
X126719000Y-59411000D02*
X124290000Y-59411000D01*
X122210000Y-59371000D02*
X119757000Y-59371000D01*
X126743000Y-59371000D02*
X124290000Y-59371000D01*
X122210000Y-59331000D02*
X119733000Y-59331000D01*
X126767000Y-59331000D02*
X124290000Y-59331000D01*
X122210000Y-59291000D02*
X119710000Y-59291000D01*
X126790000Y-59291000D02*
X124290000Y-59291000D01*
X122210000Y-59251000D02*
X119688000Y-59251000D01*
X126812000Y-59251000D02*
X124290000Y-59251000D01*
X122210000Y-59211000D02*
X119666000Y-59211000D01*
X126834000Y-59211000D02*
X124290000Y-59211000D01*
X122210000Y-59171000D02*
X119644000Y-59171000D01*
X126856000Y-59171000D02*
X124290000Y-59171000D01*
X122210000Y-59131000D02*
X119623000Y-59131000D01*
X126877000Y-59131000D02*
X124290000Y-59131000D01*
X122210000Y-59091000D02*
X119603000Y-59091000D01*
X126897000Y-59091000D02*
X124290000Y-59091000D01*
X122210000Y-59051000D02*
X119584000Y-59051000D01*
X126916000Y-59051000D02*
X124290000Y-59051000D01*
X122210000Y-59011000D02*
X119564000Y-59011000D01*
X126936000Y-59011000D02*
X124290000Y-59011000D01*
X122210000Y-58971000D02*
X119546000Y-58971000D01*
X126954000Y-58971000D02*
X124290000Y-58971000D01*
X122210000Y-58931000D02*
X119528000Y-58931000D01*
X126972000Y-58931000D02*
X124290000Y-58931000D01*
X122210000Y-58891000D02*
X119510000Y-58891000D01*
X126990000Y-58891000D02*
X124290000Y-58891000D01*
X122210000Y-58851000D02*
X119493000Y-58851000D01*
X127007000Y-58851000D02*
X124290000Y-58851000D01*
X122210000Y-58811000D02*
X119476000Y-58811000D01*
X127024000Y-58811000D02*
X124290000Y-58811000D01*
X122210000Y-58771000D02*
X119460000Y-58771000D01*
X127040000Y-58771000D02*
X124290000Y-58771000D01*
X122210000Y-58731000D02*
X119445000Y-58731000D01*
X127055000Y-58731000D02*
X124290000Y-58731000D01*
X122210000Y-58691000D02*
X119429000Y-58691000D01*
X127071000Y-58691000D02*
X124290000Y-58691000D01*
X122210000Y-58651000D02*
X119415000Y-58651000D01*
X127085000Y-58651000D02*
X124290000Y-58651000D01*
X122210000Y-58611000D02*
X119400000Y-58611000D01*
X127100000Y-58611000D02*
X124290000Y-58611000D01*
X122210000Y-58571000D02*
X119387000Y-58571000D01*
X127113000Y-58571000D02*
X124290000Y-58571000D01*
X122210000Y-58531000D02*
X119373000Y-58531000D01*
X127127000Y-58531000D02*
X124290000Y-58531000D01*
X122210000Y-58491000D02*
X119361000Y-58491000D01*
X127139000Y-58491000D02*
X124290000Y-58491000D01*
X122210000Y-58451000D02*
X119348000Y-58451000D01*
X127152000Y-58451000D02*
X124290000Y-58451000D01*
X122210000Y-58411000D02*
X119336000Y-58411000D01*
X127164000Y-58411000D02*
X124290000Y-58411000D01*
X122210000Y-58371000D02*
X119325000Y-58371000D01*
X127175000Y-58371000D02*
X124290000Y-58371000D01*
X122210000Y-58331000D02*
X119314000Y-58331000D01*
X127186000Y-58331000D02*
X124290000Y-58331000D01*
X122210000Y-58291000D02*
X119303000Y-58291000D01*
X127197000Y-58291000D02*
X124290000Y-58291000D01*
X122210000Y-58251000D02*
X119293000Y-58251000D01*
X127207000Y-58251000D02*
X124290000Y-58251000D01*
X122210000Y-58211000D02*
X119283000Y-58211000D01*
X127217000Y-58211000D02*
X124290000Y-58211000D01*
X122210000Y-58171000D02*
X119274000Y-58171000D01*
X127226000Y-58171000D02*
X124290000Y-58171000D01*
X122210000Y-58131000D02*
X119265000Y-58131000D01*
X127235000Y-58131000D02*
X124290000Y-58131000D01*
X122210000Y-58091000D02*
X119256000Y-58091000D01*
X127244000Y-58091000D02*
X124290000Y-58091000D01*
X122210000Y-58051000D02*
X119248000Y-58051000D01*
X127252000Y-58051000D02*
X124290000Y-58051000D01*
X122210000Y-58011000D02*
X119240000Y-58011000D01*
X127260000Y-58011000D02*
X124290000Y-58011000D01*
X122210000Y-57971000D02*
X119233000Y-57971000D01*
X127267000Y-57971000D02*
X124290000Y-57971000D01*
X127274000Y-57930000D02*
X119226000Y-57930000D01*
X127280000Y-57890000D02*
X119220000Y-57890000D01*
X127287000Y-57850000D02*
X119213000Y-57850000D01*
X127292000Y-57810000D02*
X119208000Y-57810000D01*
X127298000Y-57770000D02*
X119202000Y-57770000D01*
X127302000Y-57730000D02*
X119198000Y-57730000D01*
X127307000Y-57690000D02*
X119193000Y-57690000D01*
X127311000Y-57650000D02*
X119189000Y-57650000D01*
X127315000Y-57610000D02*
X119185000Y-57610000D01*
X127318000Y-57570000D02*
X119182000Y-57570000D01*
X127321000Y-57530000D02*
X119179000Y-57530000D01*
X127324000Y-57490000D02*
X119176000Y-57490000D01*
X127326000Y-57450000D02*
X119174000Y-57450000D01*
X127327000Y-57410000D02*
X119173000Y-57410000D01*
X127329000Y-57370000D02*
X119171000Y-57370000D01*
X127330000Y-57330000D02*
X119170000Y-57330000D01*
X127330000Y-57290000D02*
X119170000Y-57290000D01*
X127330000Y-57250000D02*
X119170000Y-57250000D01*
X127370000Y-57250000D02*
G75*
G03*
X127370000Y-57250000I-4120000J0D01*
G01*
%TO.C,C1*%
X133261252Y-86515000D02*
X132738748Y-86515000D01*
X133261252Y-87985000D02*
X132738748Y-87985000D01*
%TO.C,C2*%
X143490000Y-89859420D02*
X143490000Y-90140580D01*
X144510000Y-89859420D02*
X144510000Y-90140580D01*
%TO.C,C3*%
X149634420Y-82740000D02*
X149915580Y-82740000D01*
X149634420Y-83760000D02*
X149915580Y-83760000D01*
%TO.C,C4*%
X119985000Y-94738748D02*
X119985000Y-95261252D01*
X118515000Y-94738748D02*
X118515000Y-95261252D01*
%TO.C,C5*%
X148609420Y-76260000D02*
X148890580Y-76260000D01*
X148609420Y-75240000D02*
X148890580Y-75240000D01*
%TO.C,C6*%
X135640580Y-75010000D02*
X135359420Y-75010000D01*
X135640580Y-73990000D02*
X135359420Y-73990000D01*
%TO.C,C7*%
X125511252Y-89265000D02*
X124988748Y-89265000D01*
X125511252Y-90735000D02*
X124988748Y-90735000D01*
%TO.C,C8*%
X133365580Y-84740000D02*
X133084420Y-84740000D01*
X133365580Y-85760000D02*
X133084420Y-85760000D01*
%TO.C,C9*%
X160510000Y-83115580D02*
X160510000Y-82834420D01*
X159490000Y-83115580D02*
X159490000Y-82834420D01*
%TO.C,C10*%
X160384420Y-92740000D02*
X160665580Y-92740000D01*
X160384420Y-93760000D02*
X160665580Y-93760000D01*
%TO.C,C11*%
X129010000Y-82884420D02*
X129010000Y-83165580D01*
X127990000Y-82884420D02*
X127990000Y-83165580D01*
%TO.C,C12*%
X116384420Y-84760000D02*
X116665580Y-84760000D01*
X116384420Y-83740000D02*
X116665580Y-83740000D01*
%TO.C,D1*%
X141015000Y-89200000D02*
X141015000Y-91485000D01*
X141015000Y-91485000D02*
X142485000Y-91485000D01*
X142485000Y-91485000D02*
X142485000Y-89200000D01*
%TO.C,D2*%
X126735000Y-86550000D02*
X126735000Y-84265000D01*
X126735000Y-84265000D02*
X125265000Y-84265000D01*
X125265000Y-84265000D02*
X125265000Y-86550000D01*
%TO.C,D3*%
X176465000Y-61490000D02*
X176465000Y-59800000D01*
X177210000Y-61490000D02*
X176465000Y-61490000D01*
X177210000Y-64250000D02*
X177210000Y-61490000D01*
X177210000Y-67010000D02*
X176465000Y-67010000D01*
X177210000Y-64250000D02*
X177210000Y-67010000D01*
X170790000Y-61490000D02*
X171535000Y-61490000D01*
X170790000Y-64250000D02*
X170790000Y-61490000D01*
X170790000Y-67010000D02*
X171535000Y-67010000D01*
X170790000Y-64250000D02*
X170790000Y-67010000D01*
%TO.C,D4*%
X165235000Y-71050000D02*
X165235000Y-68765000D01*
X165235000Y-68765000D02*
X163765000Y-68765000D01*
X163765000Y-68765000D02*
X163765000Y-71050000D01*
%TO.C,D5*%
X156265000Y-68765000D02*
X156265000Y-71050000D01*
X157735000Y-68765000D02*
X156265000Y-68765000D01*
X157735000Y-71050000D02*
X157735000Y-68765000D01*
%TO.C,D6*%
X148765000Y-68765000D02*
X148765000Y-71050000D01*
X150235000Y-68765000D02*
X148765000Y-68765000D01*
X150235000Y-71050000D02*
X150235000Y-68765000D01*
%TO.C,D7*%
X141265000Y-68765000D02*
X141265000Y-71050000D01*
X142735000Y-68765000D02*
X141265000Y-68765000D01*
X142735000Y-71050000D02*
X142735000Y-68765000D01*
%TO.C,J1*%
X151670000Y-79830000D02*
X151670000Y-78500000D01*
X153000000Y-79830000D02*
X151670000Y-79830000D01*
X151670000Y-77230000D02*
X151670000Y-74630000D01*
X154270000Y-77230000D02*
X151670000Y-77230000D01*
X154270000Y-79830000D02*
X154270000Y-77230000D01*
X151670000Y-74630000D02*
X164490000Y-74630000D01*
X154270000Y-79830000D02*
X164490000Y-79830000D01*
X164490000Y-79830000D02*
X164490000Y-74630000D01*
%TO.C,J2*%
X113750000Y-106850000D02*
X115000000Y-106850000D01*
X113750000Y-105600000D02*
X113750000Y-106850000D01*
X119250000Y-99700000D02*
X119250000Y-102750000D01*
X116300000Y-99700000D02*
X119250000Y-99700000D01*
X116300000Y-98950000D02*
X116300000Y-99700000D01*
X119250000Y-102750000D02*
X119250000Y-104740000D01*
X116300000Y-105800000D02*
X117640000Y-105800000D01*
X116300000Y-106550000D02*
X116300000Y-105800000D01*
X114050000Y-98950000D02*
X114050000Y-100750000D01*
X114800000Y-98950000D02*
X114050000Y-98950000D01*
X114800000Y-100750000D02*
X114800000Y-98950000D01*
X114050000Y-100750000D02*
X114800000Y-100750000D01*
X114050000Y-104750000D02*
X114050000Y-106550000D01*
X114800000Y-104750000D02*
X114050000Y-104750000D01*
X114800000Y-106550000D02*
X114800000Y-104750000D01*
X114050000Y-106550000D02*
X114800000Y-106550000D01*
X114050000Y-102250000D02*
X114050000Y-103250000D01*
X114800000Y-102250000D02*
X114050000Y-102250000D01*
X114800000Y-103250000D02*
X114800000Y-102250000D01*
X114050000Y-103250000D02*
X114800000Y-103250000D01*
X114040000Y-98940000D02*
X114040000Y-106560000D01*
X120010000Y-98940000D02*
X114040000Y-98940000D01*
X120010000Y-106560000D02*
X120010000Y-98940000D01*
X114040000Y-106560000D02*
X120010000Y-106560000D01*
%TO.C,J3*%
X114710000Y-53440000D02*
X108740000Y-53440000D01*
X108740000Y-53440000D02*
X108740000Y-61060000D01*
X108740000Y-61060000D02*
X114710000Y-61060000D01*
X114710000Y-61060000D02*
X114710000Y-53440000D01*
X114700000Y-56750000D02*
X113950000Y-56750000D01*
X113950000Y-56750000D02*
X113950000Y-57750000D01*
X113950000Y-57750000D02*
X114700000Y-57750000D01*
X114700000Y-57750000D02*
X114700000Y-56750000D01*
X114700000Y-53450000D02*
X113950000Y-53450000D01*
X113950000Y-53450000D02*
X113950000Y-55250000D01*
X113950000Y-55250000D02*
X114700000Y-55250000D01*
X114700000Y-55250000D02*
X114700000Y-53450000D01*
X114700000Y-59250000D02*
X113950000Y-59250000D01*
X113950000Y-59250000D02*
X113950000Y-61050000D01*
X113950000Y-61050000D02*
X114700000Y-61050000D01*
X114700000Y-61050000D02*
X114700000Y-59250000D01*
X112450000Y-53450000D02*
X112450000Y-54200000D01*
X112450000Y-54200000D02*
X111110000Y-54200000D01*
X109500000Y-57250000D02*
X109500000Y-55260000D01*
X112450000Y-61050000D02*
X112450000Y-60300000D01*
X112450000Y-60300000D02*
X109500000Y-60300000D01*
X109500000Y-60300000D02*
X109500000Y-57250000D01*
X115000000Y-54400000D02*
X115000000Y-53150000D01*
X115000000Y-53150000D02*
X113750000Y-53150000D01*
%TO.C,J4*%
X138250000Y-106850000D02*
X139500000Y-106850000D01*
X138250000Y-105600000D02*
X138250000Y-106850000D01*
X143750000Y-99700000D02*
X143750000Y-102750000D01*
X140800000Y-99700000D02*
X143750000Y-99700000D01*
X140800000Y-98950000D02*
X140800000Y-99700000D01*
X143750000Y-102750000D02*
X143750000Y-104740000D01*
X140800000Y-105800000D02*
X142140000Y-105800000D01*
X140800000Y-106550000D02*
X140800000Y-105800000D01*
X138550000Y-98950000D02*
X138550000Y-100750000D01*
X139300000Y-98950000D02*
X138550000Y-98950000D01*
X139300000Y-100750000D02*
X139300000Y-98950000D01*
X138550000Y-100750000D02*
X139300000Y-100750000D01*
X138550000Y-104750000D02*
X138550000Y-106550000D01*
X139300000Y-104750000D02*
X138550000Y-104750000D01*
X139300000Y-106550000D02*
X139300000Y-104750000D01*
X138550000Y-106550000D02*
X139300000Y-106550000D01*
X138550000Y-102250000D02*
X138550000Y-103250000D01*
X139300000Y-102250000D02*
X138550000Y-102250000D01*
X139300000Y-103250000D02*
X139300000Y-102250000D01*
X138550000Y-103250000D02*
X139300000Y-103250000D01*
X138540000Y-98940000D02*
X138540000Y-106560000D01*
X144510000Y-98940000D02*
X138540000Y-98940000D01*
X144510000Y-106560000D02*
X144510000Y-98940000D01*
X138540000Y-106560000D02*
X144510000Y-106560000D01*
%TO.C,J5*%
X145750000Y-106850000D02*
X147000000Y-106850000D01*
X145750000Y-105600000D02*
X145750000Y-106850000D01*
X151250000Y-99700000D02*
X151250000Y-102750000D01*
X148300000Y-99700000D02*
X151250000Y-99700000D01*
X148300000Y-98950000D02*
X148300000Y-99700000D01*
X151250000Y-102750000D02*
X151250000Y-104740000D01*
X148300000Y-105800000D02*
X149640000Y-105800000D01*
X148300000Y-106550000D02*
X148300000Y-105800000D01*
X146050000Y-98950000D02*
X146050000Y-100750000D01*
X146800000Y-98950000D02*
X146050000Y-98950000D01*
X146800000Y-100750000D02*
X146800000Y-98950000D01*
X146050000Y-100750000D02*
X146800000Y-100750000D01*
X146050000Y-104750000D02*
X146050000Y-106550000D01*
X146800000Y-104750000D02*
X146050000Y-104750000D01*
X146800000Y-106550000D02*
X146800000Y-104750000D01*
X146050000Y-106550000D02*
X146800000Y-106550000D01*
X146050000Y-102250000D02*
X146050000Y-103250000D01*
X146800000Y-102250000D02*
X146050000Y-102250000D01*
X146800000Y-103250000D02*
X146800000Y-102250000D01*
X146050000Y-103250000D02*
X146800000Y-103250000D01*
X146040000Y-98940000D02*
X146040000Y-106560000D01*
X152010000Y-98940000D02*
X146040000Y-98940000D01*
X152010000Y-106560000D02*
X152010000Y-98940000D01*
X146040000Y-106560000D02*
X152010000Y-106560000D01*
%TO.C,J6*%
X103540000Y-78810000D02*
X109510000Y-78810000D01*
X109510000Y-78810000D02*
X109510000Y-66190000D01*
X109510000Y-66190000D02*
X103540000Y-66190000D01*
X103540000Y-66190000D02*
X103540000Y-78810000D01*
X103550000Y-75500000D02*
X104300000Y-75500000D01*
X104300000Y-75500000D02*
X104300000Y-69500000D01*
X104300000Y-69500000D02*
X103550000Y-69500000D01*
X103550000Y-69500000D02*
X103550000Y-75500000D01*
X103550000Y-78800000D02*
X104300000Y-78800000D01*
X104300000Y-78800000D02*
X104300000Y-77000000D01*
X104300000Y-77000000D02*
X103550000Y-77000000D01*
X103550000Y-77000000D02*
X103550000Y-78800000D01*
X103550000Y-68000000D02*
X104300000Y-68000000D01*
X104300000Y-68000000D02*
X104300000Y-66200000D01*
X104300000Y-66200000D02*
X103550000Y-66200000D01*
X103550000Y-66200000D02*
X103550000Y-68000000D01*
X105800000Y-78800000D02*
X105800000Y-78050000D01*
X105800000Y-78050000D02*
X107140000Y-78050000D01*
X108750000Y-72500000D02*
X108750000Y-76990000D01*
X105800000Y-66200000D02*
X105800000Y-66950000D01*
X105800000Y-66950000D02*
X108750000Y-66950000D01*
X108750000Y-66950000D02*
X108750000Y-72500000D01*
X103250000Y-77850000D02*
X103250000Y-79100000D01*
X103250000Y-79100000D02*
X104500000Y-79100000D01*
%TO.C,J7*%
X103250000Y-94100000D02*
X104500000Y-94100000D01*
X103250000Y-92850000D02*
X103250000Y-94100000D01*
X108750000Y-81950000D02*
X108750000Y-87500000D01*
X105800000Y-81950000D02*
X108750000Y-81950000D01*
X105800000Y-81200000D02*
X105800000Y-81950000D01*
X108750000Y-87500000D02*
X108750000Y-91990000D01*
X105800000Y-93050000D02*
X107140000Y-93050000D01*
X105800000Y-93800000D02*
X105800000Y-93050000D01*
X103550000Y-81200000D02*
X103550000Y-83000000D01*
X104300000Y-81200000D02*
X103550000Y-81200000D01*
X104300000Y-83000000D02*
X104300000Y-81200000D01*
X103550000Y-83000000D02*
X104300000Y-83000000D01*
X103550000Y-92000000D02*
X103550000Y-93800000D01*
X104300000Y-92000000D02*
X103550000Y-92000000D01*
X104300000Y-93800000D02*
X104300000Y-92000000D01*
X103550000Y-93800000D02*
X104300000Y-93800000D01*
X103550000Y-84500000D02*
X103550000Y-90500000D01*
X104300000Y-84500000D02*
X103550000Y-84500000D01*
X104300000Y-90500000D02*
X104300000Y-84500000D01*
X103550000Y-90500000D02*
X104300000Y-90500000D01*
X103540000Y-81190000D02*
X103540000Y-93810000D01*
X109510000Y-81190000D02*
X103540000Y-81190000D01*
X109510000Y-93810000D02*
X109510000Y-81190000D01*
X103540000Y-93810000D02*
X109510000Y-93810000D01*
%TO.C,J8*%
X176560000Y-79210000D02*
X176560000Y-73240000D01*
X176560000Y-73240000D02*
X166440000Y-73240000D01*
X166440000Y-73240000D02*
X166440000Y-79210000D01*
X166440000Y-79210000D02*
X176560000Y-79210000D01*
X173250000Y-79200000D02*
X173250000Y-78450000D01*
X173250000Y-78450000D02*
X169750000Y-78450000D01*
X169750000Y-78450000D02*
X169750000Y-79200000D01*
X169750000Y-79200000D02*
X173250000Y-79200000D01*
X176550000Y-79200000D02*
X176550000Y-78450000D01*
X176550000Y-78450000D02*
X174750000Y-78450000D01*
X174750000Y-78450000D02*
X174750000Y-79200000D01*
X174750000Y-79200000D02*
X176550000Y-79200000D01*
X168250000Y-79200000D02*
X168250000Y-78450000D01*
X168250000Y-78450000D02*
X166450000Y-78450000D01*
X166450000Y-78450000D02*
X166450000Y-79200000D01*
X166450000Y-79200000D02*
X168250000Y-79200000D01*
X176550000Y-76950000D02*
X175800000Y-76950000D01*
X175800000Y-76950000D02*
X175800000Y-75610000D01*
X171500000Y-74000000D02*
X174740000Y-74000000D01*
X166450000Y-76950000D02*
X167200000Y-76950000D01*
X167200000Y-76950000D02*
X167200000Y-74000000D01*
X167200000Y-74000000D02*
X171500000Y-74000000D01*
X175600000Y-79500000D02*
X176850000Y-79500000D01*
X176850000Y-79500000D02*
X176850000Y-78250000D01*
%TO.C,J9*%
X176850000Y-87000000D02*
X176850000Y-85750000D01*
X175600000Y-87000000D02*
X176850000Y-87000000D01*
X167200000Y-81500000D02*
X171500000Y-81500000D01*
X167200000Y-84450000D02*
X167200000Y-81500000D01*
X166450000Y-84450000D02*
X167200000Y-84450000D01*
X171500000Y-81500000D02*
X174740000Y-81500000D01*
X175800000Y-84450000D02*
X175800000Y-83110000D01*
X176550000Y-84450000D02*
X175800000Y-84450000D01*
X166450000Y-86700000D02*
X168250000Y-86700000D01*
X166450000Y-85950000D02*
X166450000Y-86700000D01*
X168250000Y-85950000D02*
X166450000Y-85950000D01*
X168250000Y-86700000D02*
X168250000Y-85950000D01*
X174750000Y-86700000D02*
X176550000Y-86700000D01*
X174750000Y-85950000D02*
X174750000Y-86700000D01*
X176550000Y-85950000D02*
X174750000Y-85950000D01*
X176550000Y-86700000D02*
X176550000Y-85950000D01*
X169750000Y-86700000D02*
X173250000Y-86700000D01*
X169750000Y-85950000D02*
X169750000Y-86700000D01*
X173250000Y-85950000D02*
X169750000Y-85950000D01*
X173250000Y-86700000D02*
X173250000Y-85950000D01*
X166440000Y-86710000D02*
X176560000Y-86710000D01*
X166440000Y-80740000D02*
X166440000Y-86710000D01*
X176560000Y-80740000D02*
X166440000Y-80740000D01*
X176560000Y-86710000D02*
X176560000Y-80740000D01*
%TO.C,J10*%
X153540000Y-106560000D02*
X159510000Y-106560000D01*
X159510000Y-106560000D02*
X159510000Y-98940000D01*
X159510000Y-98940000D02*
X153540000Y-98940000D01*
X153540000Y-98940000D02*
X153540000Y-106560000D01*
X153550000Y-103250000D02*
X154300000Y-103250000D01*
X154300000Y-103250000D02*
X154300000Y-102250000D01*
X154300000Y-102250000D02*
X153550000Y-102250000D01*
X153550000Y-102250000D02*
X153550000Y-103250000D01*
X153550000Y-106550000D02*
X154300000Y-106550000D01*
X154300000Y-106550000D02*
X154300000Y-104750000D01*
X154300000Y-104750000D02*
X153550000Y-104750000D01*
X153550000Y-104750000D02*
X153550000Y-106550000D01*
X153550000Y-100750000D02*
X154300000Y-100750000D01*
X154300000Y-100750000D02*
X154300000Y-98950000D01*
X154300000Y-98950000D02*
X153550000Y-98950000D01*
X153550000Y-98950000D02*
X153550000Y-100750000D01*
X155800000Y-106550000D02*
X155800000Y-105800000D01*
X155800000Y-105800000D02*
X157140000Y-105800000D01*
X158750000Y-102750000D02*
X158750000Y-104740000D01*
X155800000Y-98950000D02*
X155800000Y-99700000D01*
X155800000Y-99700000D02*
X158750000Y-99700000D01*
X158750000Y-99700000D02*
X158750000Y-102750000D01*
X153250000Y-105600000D02*
X153250000Y-106850000D01*
X153250000Y-106850000D02*
X154500000Y-106850000D01*
%TO.C,J11*%
X161040000Y-106560000D02*
X167010000Y-106560000D01*
X167010000Y-106560000D02*
X167010000Y-98940000D01*
X167010000Y-98940000D02*
X161040000Y-98940000D01*
X161040000Y-98940000D02*
X161040000Y-106560000D01*
X161050000Y-103250000D02*
X161800000Y-103250000D01*
X161800000Y-103250000D02*
X161800000Y-102250000D01*
X161800000Y-102250000D02*
X161050000Y-102250000D01*
X161050000Y-102250000D02*
X161050000Y-103250000D01*
X161050000Y-106550000D02*
X161800000Y-106550000D01*
X161800000Y-106550000D02*
X161800000Y-104750000D01*
X161800000Y-104750000D02*
X161050000Y-104750000D01*
X161050000Y-104750000D02*
X161050000Y-106550000D01*
X161050000Y-100750000D02*
X161800000Y-100750000D01*
X161800000Y-100750000D02*
X161800000Y-98950000D01*
X161800000Y-98950000D02*
X161050000Y-98950000D01*
X161050000Y-98950000D02*
X161050000Y-100750000D01*
X163300000Y-106550000D02*
X163300000Y-105800000D01*
X163300000Y-105800000D02*
X164640000Y-105800000D01*
X166250000Y-102750000D02*
X166250000Y-104740000D01*
X163300000Y-98950000D02*
X163300000Y-99700000D01*
X163300000Y-99700000D02*
X166250000Y-99700000D01*
X166250000Y-99700000D02*
X166250000Y-102750000D01*
X160750000Y-105600000D02*
X160750000Y-106850000D01*
X160750000Y-106850000D02*
X162000000Y-106850000D01*
%TO.C,J12*%
X169000000Y-53150000D02*
X167750000Y-53150000D01*
X169000000Y-54400000D02*
X169000000Y-53150000D01*
X163500000Y-60300000D02*
X163500000Y-57250000D01*
X166450000Y-60300000D02*
X163500000Y-60300000D01*
X166450000Y-61050000D02*
X166450000Y-60300000D01*
X163500000Y-57250000D02*
X163500000Y-55260000D01*
X166450000Y-54200000D02*
X165110000Y-54200000D01*
X166450000Y-53450000D02*
X166450000Y-54200000D01*
X168700000Y-61050000D02*
X168700000Y-59250000D01*
X167950000Y-61050000D02*
X168700000Y-61050000D01*
X167950000Y-59250000D02*
X167950000Y-61050000D01*
X168700000Y-59250000D02*
X167950000Y-59250000D01*
X168700000Y-55250000D02*
X168700000Y-53450000D01*
X167950000Y-55250000D02*
X168700000Y-55250000D01*
X167950000Y-53450000D02*
X167950000Y-55250000D01*
X168700000Y-53450000D02*
X167950000Y-53450000D01*
X168700000Y-57750000D02*
X168700000Y-56750000D01*
X167950000Y-57750000D02*
X168700000Y-57750000D01*
X167950000Y-56750000D02*
X167950000Y-57750000D01*
X168700000Y-56750000D02*
X167950000Y-56750000D01*
X168710000Y-61060000D02*
X168710000Y-53440000D01*
X162740000Y-61060000D02*
X168710000Y-61060000D01*
X162740000Y-53440000D02*
X162740000Y-61060000D01*
X168710000Y-53440000D02*
X162740000Y-53440000D01*
%TO.C,J13*%
X161210000Y-53440000D02*
X155240000Y-53440000D01*
X155240000Y-53440000D02*
X155240000Y-61060000D01*
X155240000Y-61060000D02*
X161210000Y-61060000D01*
X161210000Y-61060000D02*
X161210000Y-53440000D01*
X161200000Y-56750000D02*
X160450000Y-56750000D01*
X160450000Y-56750000D02*
X160450000Y-57750000D01*
X160450000Y-57750000D02*
X161200000Y-57750000D01*
X161200000Y-57750000D02*
X161200000Y-56750000D01*
X161200000Y-53450000D02*
X160450000Y-53450000D01*
X160450000Y-53450000D02*
X160450000Y-55250000D01*
X160450000Y-55250000D02*
X161200000Y-55250000D01*
X161200000Y-55250000D02*
X161200000Y-53450000D01*
X161200000Y-59250000D02*
X160450000Y-59250000D01*
X160450000Y-59250000D02*
X160450000Y-61050000D01*
X160450000Y-61050000D02*
X161200000Y-61050000D01*
X161200000Y-61050000D02*
X161200000Y-59250000D01*
X158950000Y-53450000D02*
X158950000Y-54200000D01*
X158950000Y-54200000D02*
X157610000Y-54200000D01*
X156000000Y-57250000D02*
X156000000Y-55260000D01*
X158950000Y-61050000D02*
X158950000Y-60300000D01*
X158950000Y-60300000D02*
X156000000Y-60300000D01*
X156000000Y-60300000D02*
X156000000Y-57250000D01*
X161500000Y-54400000D02*
X161500000Y-53150000D01*
X161500000Y-53150000D02*
X160250000Y-53150000D01*
%TO.C,J14*%
X154000000Y-53150000D02*
X152750000Y-53150000D01*
X154000000Y-54400000D02*
X154000000Y-53150000D01*
X148500000Y-60300000D02*
X148500000Y-57250000D01*
X151450000Y-60300000D02*
X148500000Y-60300000D01*
X151450000Y-61050000D02*
X151450000Y-60300000D01*
X148500000Y-57250000D02*
X148500000Y-55260000D01*
X151450000Y-54200000D02*
X150110000Y-54200000D01*
X151450000Y-53450000D02*
X151450000Y-54200000D01*
X153700000Y-61050000D02*
X153700000Y-59250000D01*
X152950000Y-61050000D02*
X153700000Y-61050000D01*
X152950000Y-59250000D02*
X152950000Y-61050000D01*
X153700000Y-59250000D02*
X152950000Y-59250000D01*
X153700000Y-55250000D02*
X153700000Y-53450000D01*
X152950000Y-55250000D02*
X153700000Y-55250000D01*
X152950000Y-53450000D02*
X152950000Y-55250000D01*
X153700000Y-53450000D02*
X152950000Y-53450000D01*
X153700000Y-57750000D02*
X153700000Y-56750000D01*
X152950000Y-57750000D02*
X153700000Y-57750000D01*
X152950000Y-56750000D02*
X152950000Y-57750000D01*
X153700000Y-56750000D02*
X152950000Y-56750000D01*
X153710000Y-61060000D02*
X153710000Y-53440000D01*
X147740000Y-61060000D02*
X153710000Y-61060000D01*
X147740000Y-53440000D02*
X147740000Y-61060000D01*
X153710000Y-53440000D02*
X147740000Y-53440000D01*
%TO.C,J15*%
X146210000Y-53440000D02*
X140240000Y-53440000D01*
X140240000Y-53440000D02*
X140240000Y-61060000D01*
X140240000Y-61060000D02*
X146210000Y-61060000D01*
X146210000Y-61060000D02*
X146210000Y-53440000D01*
X146200000Y-56750000D02*
X145450000Y-56750000D01*
X145450000Y-56750000D02*
X145450000Y-57750000D01*
X145450000Y-57750000D02*
X146200000Y-57750000D01*
X146200000Y-57750000D02*
X146200000Y-56750000D01*
X146200000Y-53450000D02*
X145450000Y-53450000D01*
X145450000Y-53450000D02*
X145450000Y-55250000D01*
X145450000Y-55250000D02*
X146200000Y-55250000D01*
X146200000Y-55250000D02*
X146200000Y-53450000D01*
X146200000Y-59250000D02*
X145450000Y-59250000D01*
X145450000Y-59250000D02*
X145450000Y-61050000D01*
X145450000Y-61050000D02*
X146200000Y-61050000D01*
X146200000Y-61050000D02*
X146200000Y-59250000D01*
X143950000Y-53450000D02*
X143950000Y-54200000D01*
X143950000Y-54200000D02*
X142610000Y-54200000D01*
X141000000Y-57250000D02*
X141000000Y-55260000D01*
X143950000Y-61050000D02*
X143950000Y-60300000D01*
X143950000Y-60300000D02*
X141000000Y-60300000D01*
X141000000Y-60300000D02*
X141000000Y-57250000D01*
X146500000Y-54400000D02*
X146500000Y-53150000D01*
X146500000Y-53150000D02*
X145250000Y-53150000D01*
%TO.C,JP2*%
X106300000Y-99900000D02*
X105700000Y-99900000D01*
X107000000Y-97800000D02*
X107000000Y-99200000D01*
X105700000Y-97100000D02*
X106300000Y-97100000D01*
X105000000Y-99200000D02*
X105000000Y-97800000D01*
X105700000Y-99900000D02*
G75*
G02*
X105000000Y-99200000I0J700000D01*
G01*
X107000000Y-99200000D02*
G75*
G02*
X106300000Y-99900000I-700000J0D01*
G01*
X106300000Y-97100000D02*
G75*
G02*
X107000000Y-97800000I0J-700000D01*
G01*
X105000000Y-97800000D02*
G75*
G02*
X105700000Y-97100000I700000J0D01*
G01*
%TO.C,JP3*%
X108000000Y-99200000D02*
X108000000Y-97800000D01*
X108700000Y-97100000D02*
X109300000Y-97100000D01*
X110000000Y-97800000D02*
X110000000Y-99200000D01*
X109300000Y-99900000D02*
X108700000Y-99900000D01*
X108000000Y-97800000D02*
G75*
G02*
X108700000Y-97100000I700000J0D01*
G01*
X109300000Y-97100000D02*
G75*
G02*
X110000000Y-97800000I0J-700000D01*
G01*
X110000000Y-99200000D02*
G75*
G02*
X109300000Y-99900000I-700000J0D01*
G01*
X108700000Y-99900000D02*
G75*
G02*
X108000000Y-99200000I0J700000D01*
G01*
%TO.C,Q1*%
X168830000Y-68740000D02*
X168830000Y-70200000D01*
X165670000Y-68740000D02*
X165670000Y-70900000D01*
X165670000Y-68740000D02*
X166600000Y-68740000D01*
X168830000Y-68740000D02*
X167900000Y-68740000D01*
%TO.C,Q2*%
X161330000Y-68740000D02*
X160400000Y-68740000D01*
X158170000Y-68740000D02*
X159100000Y-68740000D01*
X158170000Y-68740000D02*
X158170000Y-70900000D01*
X161330000Y-68740000D02*
X161330000Y-70200000D01*
%TO.C,Q3*%
X153830000Y-68740000D02*
X153830000Y-70200000D01*
X150670000Y-68740000D02*
X150670000Y-70900000D01*
X150670000Y-68740000D02*
X151600000Y-68740000D01*
X153830000Y-68740000D02*
X152900000Y-68740000D01*
%TO.C,Q4*%
X146330000Y-68740000D02*
X145400000Y-68740000D01*
X143170000Y-68740000D02*
X144100000Y-68740000D01*
X143170000Y-68740000D02*
X143170000Y-70900000D01*
X146330000Y-68740000D02*
X146330000Y-70200000D01*
%TO.C,R1*%
X139477500Y-89762742D02*
X139477500Y-90237258D01*
X140522500Y-89762742D02*
X140522500Y-90237258D01*
%TO.C,R2*%
X133412258Y-83272500D02*
X132937742Y-83272500D01*
X133412258Y-82227500D02*
X132937742Y-82227500D01*
%TO.C,R3*%
X123727500Y-85987258D02*
X123727500Y-85512742D01*
X124772500Y-85987258D02*
X124772500Y-85512742D01*
%TO.C,R4*%
X162227500Y-70487258D02*
X162227500Y-70012742D01*
X163272500Y-70487258D02*
X163272500Y-70012742D01*
%TO.C,R5*%
X154727500Y-70487258D02*
X154727500Y-70012742D01*
X155772500Y-70487258D02*
X155772500Y-70012742D01*
%TO.C,R6*%
X148272500Y-70487258D02*
X148272500Y-70012742D01*
X147227500Y-70487258D02*
X147227500Y-70012742D01*
%TO.C,R7*%
X140772500Y-70487258D02*
X140772500Y-70012742D01*
X139727500Y-70487258D02*
X139727500Y-70012742D01*
%TO.C,R8*%
X141587742Y-96477500D02*
X142062258Y-96477500D01*
X141587742Y-97522500D02*
X142062258Y-97522500D01*
%TO.C,R9*%
X149087742Y-96477500D02*
X149562258Y-96477500D01*
X149087742Y-97522500D02*
X149562258Y-97522500D01*
%TO.C,R10*%
X156587742Y-97522500D02*
X157062258Y-97522500D01*
X156587742Y-96477500D02*
X157062258Y-96477500D01*
%TO.C,R11*%
X164087742Y-97522500D02*
X164562258Y-97522500D01*
X164087742Y-96477500D02*
X164562258Y-96477500D01*
%TO.C,R12*%
X113522500Y-80237258D02*
X113522500Y-79762742D01*
X112477500Y-80237258D02*
X112477500Y-79762742D01*
%TO.C,R13*%
X162977500Y-88012742D02*
X162977500Y-88487258D01*
X164022500Y-88012742D02*
X164022500Y-88487258D01*
%TO.C,R14*%
X165772500Y-88012742D02*
X165772500Y-88487258D01*
X164727500Y-88012742D02*
X164727500Y-88487258D01*
%TO.C,U1*%
X137340000Y-86110000D02*
X137340000Y-87450000D01*
X136390000Y-86110000D02*
X137340000Y-86110000D01*
X136390000Y-85160000D02*
X136390000Y-86110000D01*
X136390000Y-75890000D02*
X137340000Y-75890000D01*
X136390000Y-76840000D02*
X136390000Y-75890000D01*
X146610000Y-86110000D02*
X145660000Y-86110000D01*
X146610000Y-85160000D02*
X146610000Y-86110000D01*
X146610000Y-75890000D02*
X145660000Y-75890000D01*
X146610000Y-76840000D02*
X146610000Y-75890000D01*
%TO.C,U3*%
X160135000Y-88500000D02*
X160135000Y-84900000D01*
X160135000Y-88500000D02*
X160135000Y-90700000D01*
X153365000Y-88500000D02*
X153365000Y-86300000D01*
X153365000Y-88500000D02*
X153365000Y-90700000D01*
%TO.C,U4*%
X124860000Y-82465000D02*
X127225000Y-82465000D01*
X124860000Y-83035000D02*
X124860000Y-82465000D01*
X121000000Y-83035000D02*
X124860000Y-83035000D01*
X117140000Y-83035000D02*
X117140000Y-82465000D01*
X121000000Y-83035000D02*
X117140000Y-83035000D01*
X124860000Y-76965000D02*
X124860000Y-77535000D01*
X121000000Y-76965000D02*
X124860000Y-76965000D01*
X117140000Y-76965000D02*
X117140000Y-77535000D01*
X121000000Y-76965000D02*
X117140000Y-76965000D01*
%TO.C,F1*%
X162790000Y-66270031D02*
X162790000Y-63729969D01*
X166210000Y-66270031D02*
X166210000Y-63729969D01*
%TO.C,F2*%
X158710000Y-66270031D02*
X158710000Y-63729969D01*
X155290000Y-66270031D02*
X155290000Y-63729969D01*
%TO.C,F3*%
X151210000Y-66270031D02*
X151210000Y-63729969D01*
X147790000Y-66270031D02*
X147790000Y-63729969D01*
%TO.C,F4*%
X140290000Y-66270031D02*
X140290000Y-63729969D01*
X143710000Y-66270031D02*
X143710000Y-63729969D01*
%TO.C,TP11*%
X130700000Y-74500000D02*
G75*
G03*
X130700000Y-74500000I-700000J0D01*
G01*
%TO.C,TP10*%
X130700000Y-72500000D02*
G75*
G03*
X130700000Y-72500000I-700000J0D01*
G01*
%TO.C,TP16*%
X111700000Y-81000000D02*
G75*
G03*
X111700000Y-81000000I-700000J0D01*
G01*
%TO.C,TP17*%
X111700000Y-79000000D02*
G75*
G03*
X111700000Y-79000000I-700000J0D01*
G01*
%TO.C,C13*%
X176120000Y-94500000D02*
G75*
G03*
X176120000Y-94500000I-4120000J0D01*
G01*
X172000000Y-98580000D02*
X172000000Y-90420000D01*
X171960000Y-98580000D02*
X171960000Y-90420000D01*
X171920000Y-98580000D02*
X171920000Y-90420000D01*
X171880000Y-98579000D02*
X171880000Y-90421000D01*
X171840000Y-98577000D02*
X171840000Y-90423000D01*
X171800000Y-98576000D02*
X171800000Y-90424000D01*
X171760000Y-98574000D02*
X171760000Y-90426000D01*
X171720000Y-98571000D02*
X171720000Y-90429000D01*
X171680000Y-98568000D02*
X171680000Y-90432000D01*
X171640000Y-98565000D02*
X171640000Y-90435000D01*
X171600000Y-98561000D02*
X171600000Y-90439000D01*
X171560000Y-98557000D02*
X171560000Y-90443000D01*
X171520000Y-98552000D02*
X171520000Y-90448000D01*
X171480000Y-98548000D02*
X171480000Y-90452000D01*
X171440000Y-98542000D02*
X171440000Y-90458000D01*
X171400000Y-98537000D02*
X171400000Y-90463000D01*
X171360000Y-98530000D02*
X171360000Y-90470000D01*
X171320000Y-98524000D02*
X171320000Y-90476000D01*
X171279000Y-98517000D02*
X171279000Y-95540000D01*
X171279000Y-93460000D02*
X171279000Y-90483000D01*
X171239000Y-98510000D02*
X171239000Y-95540000D01*
X171239000Y-93460000D02*
X171239000Y-90490000D01*
X171199000Y-98502000D02*
X171199000Y-95540000D01*
X171199000Y-93460000D02*
X171199000Y-90498000D01*
X171159000Y-98494000D02*
X171159000Y-95540000D01*
X171159000Y-93460000D02*
X171159000Y-90506000D01*
X171119000Y-98485000D02*
X171119000Y-95540000D01*
X171119000Y-93460000D02*
X171119000Y-90515000D01*
X171079000Y-98476000D02*
X171079000Y-95540000D01*
X171079000Y-93460000D02*
X171079000Y-90524000D01*
X171039000Y-98467000D02*
X171039000Y-95540000D01*
X171039000Y-93460000D02*
X171039000Y-90533000D01*
X170999000Y-98457000D02*
X170999000Y-95540000D01*
X170999000Y-93460000D02*
X170999000Y-90543000D01*
X170959000Y-98447000D02*
X170959000Y-95540000D01*
X170959000Y-93460000D02*
X170959000Y-90553000D01*
X170919000Y-98436000D02*
X170919000Y-95540000D01*
X170919000Y-93460000D02*
X170919000Y-90564000D01*
X170879000Y-98425000D02*
X170879000Y-95540000D01*
X170879000Y-93460000D02*
X170879000Y-90575000D01*
X170839000Y-98414000D02*
X170839000Y-95540000D01*
X170839000Y-93460000D02*
X170839000Y-90586000D01*
X170799000Y-98402000D02*
X170799000Y-95540000D01*
X170799000Y-93460000D02*
X170799000Y-90598000D01*
X170759000Y-98389000D02*
X170759000Y-95540000D01*
X170759000Y-93460000D02*
X170759000Y-90611000D01*
X170719000Y-98377000D02*
X170719000Y-95540000D01*
X170719000Y-93460000D02*
X170719000Y-90623000D01*
X170679000Y-98363000D02*
X170679000Y-95540000D01*
X170679000Y-93460000D02*
X170679000Y-90637000D01*
X170639000Y-98350000D02*
X170639000Y-95540000D01*
X170639000Y-93460000D02*
X170639000Y-90650000D01*
X170599000Y-98335000D02*
X170599000Y-95540000D01*
X170599000Y-93460000D02*
X170599000Y-90665000D01*
X170559000Y-98321000D02*
X170559000Y-95540000D01*
X170559000Y-93460000D02*
X170559000Y-90679000D01*
X170519000Y-98305000D02*
X170519000Y-95540000D01*
X170519000Y-93460000D02*
X170519000Y-90695000D01*
X170479000Y-98290000D02*
X170479000Y-95540000D01*
X170479000Y-93460000D02*
X170479000Y-90710000D01*
X170439000Y-98274000D02*
X170439000Y-95540000D01*
X170439000Y-93460000D02*
X170439000Y-90726000D01*
X170399000Y-98257000D02*
X170399000Y-95540000D01*
X170399000Y-93460000D02*
X170399000Y-90743000D01*
X170359000Y-98240000D02*
X170359000Y-95540000D01*
X170359000Y-93460000D02*
X170359000Y-90760000D01*
X170319000Y-98222000D02*
X170319000Y-95540000D01*
X170319000Y-93460000D02*
X170319000Y-90778000D01*
X170279000Y-98204000D02*
X170279000Y-95540000D01*
X170279000Y-93460000D02*
X170279000Y-90796000D01*
X170239000Y-98186000D02*
X170239000Y-95540000D01*
X170239000Y-93460000D02*
X170239000Y-90814000D01*
X170199000Y-98166000D02*
X170199000Y-95540000D01*
X170199000Y-93460000D02*
X170199000Y-90834000D01*
X170159000Y-98147000D02*
X170159000Y-95540000D01*
X170159000Y-93460000D02*
X170159000Y-90853000D01*
X170119000Y-98127000D02*
X170119000Y-95540000D01*
X170119000Y-93460000D02*
X170119000Y-90873000D01*
X170079000Y-98106000D02*
X170079000Y-95540000D01*
X170079000Y-93460000D02*
X170079000Y-90894000D01*
X170039000Y-98084000D02*
X170039000Y-95540000D01*
X170039000Y-93460000D02*
X170039000Y-90916000D01*
X169999000Y-98062000D02*
X169999000Y-95540000D01*
X169999000Y-93460000D02*
X169999000Y-90938000D01*
X169959000Y-98040000D02*
X169959000Y-95540000D01*
X169959000Y-93460000D02*
X169959000Y-90960000D01*
X169919000Y-98017000D02*
X169919000Y-95540000D01*
X169919000Y-93460000D02*
X169919000Y-90983000D01*
X169879000Y-97993000D02*
X169879000Y-95540000D01*
X169879000Y-93460000D02*
X169879000Y-91007000D01*
X169839000Y-97969000D02*
X169839000Y-95540000D01*
X169839000Y-93460000D02*
X169839000Y-91031000D01*
X169799000Y-97944000D02*
X169799000Y-95540000D01*
X169799000Y-93460000D02*
X169799000Y-91056000D01*
X169759000Y-97918000D02*
X169759000Y-95540000D01*
X169759000Y-93460000D02*
X169759000Y-91082000D01*
X169719000Y-97892000D02*
X169719000Y-95540000D01*
X169719000Y-93460000D02*
X169719000Y-91108000D01*
X169679000Y-97865000D02*
X169679000Y-95540000D01*
X169679000Y-93460000D02*
X169679000Y-91135000D01*
X169639000Y-97838000D02*
X169639000Y-95540000D01*
X169639000Y-93460000D02*
X169639000Y-91162000D01*
X169599000Y-97809000D02*
X169599000Y-95540000D01*
X169599000Y-93460000D02*
X169599000Y-91191000D01*
X169559000Y-97780000D02*
X169559000Y-95540000D01*
X169559000Y-93460000D02*
X169559000Y-91220000D01*
X169519000Y-97750000D02*
X169519000Y-95540000D01*
X169519000Y-93460000D02*
X169519000Y-91250000D01*
X169479000Y-97720000D02*
X169479000Y-95540000D01*
X169479000Y-93460000D02*
X169479000Y-91280000D01*
X169439000Y-97689000D02*
X169439000Y-95540000D01*
X169439000Y-93460000D02*
X169439000Y-91311000D01*
X169399000Y-97656000D02*
X169399000Y-95540000D01*
X169399000Y-93460000D02*
X169399000Y-91344000D01*
X169359000Y-97624000D02*
X169359000Y-95540000D01*
X169359000Y-93460000D02*
X169359000Y-91376000D01*
X169319000Y-97590000D02*
X169319000Y-95540000D01*
X169319000Y-93460000D02*
X169319000Y-91410000D01*
X169279000Y-97555000D02*
X169279000Y-95540000D01*
X169279000Y-93460000D02*
X169279000Y-91445000D01*
X169239000Y-97519000D02*
X169239000Y-95540000D01*
X169239000Y-93460000D02*
X169239000Y-91481000D01*
X169199000Y-97483000D02*
X169199000Y-91517000D01*
X169159000Y-97445000D02*
X169159000Y-91555000D01*
X169119000Y-97407000D02*
X169119000Y-91593000D01*
X169079000Y-97367000D02*
X169079000Y-91633000D01*
X169039000Y-97326000D02*
X169039000Y-91674000D01*
X168999000Y-97284000D02*
X168999000Y-91716000D01*
X168959000Y-97241000D02*
X168959000Y-91759000D01*
X168919000Y-97197000D02*
X168919000Y-91803000D01*
X168879000Y-97151000D02*
X168879000Y-91849000D01*
X168839000Y-97104000D02*
X168839000Y-91896000D01*
X168799000Y-97056000D02*
X168799000Y-91944000D01*
X168759000Y-97005000D02*
X168759000Y-91995000D01*
X168719000Y-96954000D02*
X168719000Y-92046000D01*
X168679000Y-96900000D02*
X168679000Y-92100000D01*
X168639000Y-96845000D02*
X168639000Y-92155000D01*
X168599000Y-96787000D02*
X168599000Y-92213000D01*
X168559000Y-96728000D02*
X168559000Y-92272000D01*
X168519000Y-96666000D02*
X168519000Y-92334000D01*
X168479000Y-96602000D02*
X168479000Y-92398000D01*
X168439000Y-96534000D02*
X168439000Y-92466000D01*
X168399000Y-96464000D02*
X168399000Y-92536000D01*
X168359000Y-96390000D02*
X168359000Y-92610000D01*
X168319000Y-96313000D02*
X168319000Y-92687000D01*
X168279000Y-96231000D02*
X168279000Y-92769000D01*
X168239000Y-96145000D02*
X168239000Y-92855000D01*
X168199000Y-96052000D02*
X168199000Y-92948000D01*
X168159000Y-95953000D02*
X168159000Y-93047000D01*
X168119000Y-95846000D02*
X168119000Y-93154000D01*
X168079000Y-95729000D02*
X168079000Y-93271000D01*
X168039000Y-95598000D02*
X168039000Y-93402000D01*
X167999000Y-95448000D02*
X167999000Y-93552000D01*
X167959000Y-95268000D02*
X167959000Y-93732000D01*
X167919000Y-95033000D02*
X167919000Y-93967000D01*
X176409698Y-96815000D02*
X175609698Y-96815000D01*
X176009698Y-97215000D02*
X176009698Y-96415000D01*
%TO.C,TP1*%
X132200000Y-77500000D02*
G75*
G03*
X132200000Y-77500000I-700000J0D01*
G01*
%TO.C,TP2*%
X132200000Y-79500000D02*
G75*
G03*
X132200000Y-79500000I-700000J0D01*
G01*
%TO.C,TP4*%
X166950000Y-72000000D02*
G75*
G03*
X166950000Y-72000000I-700000J0D01*
G01*
%TO.C,TP5*%
X159450000Y-72500000D02*
G75*
G03*
X159450000Y-72500000I-700000J0D01*
G01*
%TO.C,TP6*%
X151950000Y-72500000D02*
G75*
G03*
X151950000Y-72500000I-700000J0D01*
G01*
%TO.C,TP7*%
X144450000Y-72500000D02*
G75*
G03*
X144450000Y-72500000I-700000J0D01*
G01*
%TO.C,TP8*%
X152700000Y-82000000D02*
G75*
G03*
X152700000Y-82000000I-700000J0D01*
G01*
%TO.C,TP9*%
X158450000Y-81750000D02*
G75*
G03*
X158450000Y-81750000I-700000J0D01*
G01*
%TO.C,TP12*%
X148700000Y-91750000D02*
G75*
G03*
X148700000Y-91750000I-700000J0D01*
G01*
%TO.C,TP13*%
X149200000Y-89750000D02*
G75*
G03*
X149200000Y-89750000I-700000J0D01*
G01*
%TO.C,TP14*%
X149700000Y-87750000D02*
G75*
G03*
X149700000Y-87750000I-700000J0D01*
G01*
%TO.C,TP15*%
X150200000Y-85750000D02*
G75*
G03*
X150200000Y-85750000I-700000J0D01*
G01*
%TO.C,C15*%
X136870000Y-57250000D02*
G75*
G03*
X136870000Y-57250000I-4120000J0D01*
G01*
X136830000Y-57250000D02*
X128670000Y-57250000D01*
X136830000Y-57290000D02*
X128670000Y-57290000D01*
X136830000Y-57330000D02*
X128670000Y-57330000D01*
X136829000Y-57370000D02*
X128671000Y-57370000D01*
X136827000Y-57410000D02*
X128673000Y-57410000D01*
X136826000Y-57450000D02*
X128674000Y-57450000D01*
X136824000Y-57490000D02*
X128676000Y-57490000D01*
X136821000Y-57530000D02*
X128679000Y-57530000D01*
X136818000Y-57570000D02*
X128682000Y-57570000D01*
X136815000Y-57610000D02*
X128685000Y-57610000D01*
X136811000Y-57650000D02*
X128689000Y-57650000D01*
X136807000Y-57690000D02*
X128693000Y-57690000D01*
X136802000Y-57730000D02*
X128698000Y-57730000D01*
X136798000Y-57770000D02*
X128702000Y-57770000D01*
X136792000Y-57810000D02*
X128708000Y-57810000D01*
X136787000Y-57850000D02*
X128713000Y-57850000D01*
X136780000Y-57890000D02*
X128720000Y-57890000D01*
X136774000Y-57930000D02*
X128726000Y-57930000D01*
X136767000Y-57971000D02*
X133790000Y-57971000D01*
X131710000Y-57971000D02*
X128733000Y-57971000D01*
X136760000Y-58011000D02*
X133790000Y-58011000D01*
X131710000Y-58011000D02*
X128740000Y-58011000D01*
X136752000Y-58051000D02*
X133790000Y-58051000D01*
X131710000Y-58051000D02*
X128748000Y-58051000D01*
X136744000Y-58091000D02*
X133790000Y-58091000D01*
X131710000Y-58091000D02*
X128756000Y-58091000D01*
X136735000Y-58131000D02*
X133790000Y-58131000D01*
X131710000Y-58131000D02*
X128765000Y-58131000D01*
X136726000Y-58171000D02*
X133790000Y-58171000D01*
X131710000Y-58171000D02*
X128774000Y-58171000D01*
X136717000Y-58211000D02*
X133790000Y-58211000D01*
X131710000Y-58211000D02*
X128783000Y-58211000D01*
X136707000Y-58251000D02*
X133790000Y-58251000D01*
X131710000Y-58251000D02*
X128793000Y-58251000D01*
X136697000Y-58291000D02*
X133790000Y-58291000D01*
X131710000Y-58291000D02*
X128803000Y-58291000D01*
X136686000Y-58331000D02*
X133790000Y-58331000D01*
X131710000Y-58331000D02*
X128814000Y-58331000D01*
X136675000Y-58371000D02*
X133790000Y-58371000D01*
X131710000Y-58371000D02*
X128825000Y-58371000D01*
X136664000Y-58411000D02*
X133790000Y-58411000D01*
X131710000Y-58411000D02*
X128836000Y-58411000D01*
X136652000Y-58451000D02*
X133790000Y-58451000D01*
X131710000Y-58451000D02*
X128848000Y-58451000D01*
X136639000Y-58491000D02*
X133790000Y-58491000D01*
X131710000Y-58491000D02*
X128861000Y-58491000D01*
X136627000Y-58531000D02*
X133790000Y-58531000D01*
X131710000Y-58531000D02*
X128873000Y-58531000D01*
X136613000Y-58571000D02*
X133790000Y-58571000D01*
X131710000Y-58571000D02*
X128887000Y-58571000D01*
X136600000Y-58611000D02*
X133790000Y-58611000D01*
X131710000Y-58611000D02*
X128900000Y-58611000D01*
X136585000Y-58651000D02*
X133790000Y-58651000D01*
X131710000Y-58651000D02*
X128915000Y-58651000D01*
X136571000Y-58691000D02*
X133790000Y-58691000D01*
X131710000Y-58691000D02*
X128929000Y-58691000D01*
X136555000Y-58731000D02*
X133790000Y-58731000D01*
X131710000Y-58731000D02*
X128945000Y-58731000D01*
X136540000Y-58771000D02*
X133790000Y-58771000D01*
X131710000Y-58771000D02*
X128960000Y-58771000D01*
X136524000Y-58811000D02*
X133790000Y-58811000D01*
X131710000Y-58811000D02*
X128976000Y-58811000D01*
X136507000Y-58851000D02*
X133790000Y-58851000D01*
X131710000Y-58851000D02*
X128993000Y-58851000D01*
X136490000Y-58891000D02*
X133790000Y-58891000D01*
X131710000Y-58891000D02*
X129010000Y-58891000D01*
X136472000Y-58931000D02*
X133790000Y-58931000D01*
X131710000Y-58931000D02*
X129028000Y-58931000D01*
X136454000Y-58971000D02*
X133790000Y-58971000D01*
X131710000Y-58971000D02*
X129046000Y-58971000D01*
X136436000Y-59011000D02*
X133790000Y-59011000D01*
X131710000Y-59011000D02*
X129064000Y-59011000D01*
X136416000Y-59051000D02*
X133790000Y-59051000D01*
X131710000Y-59051000D02*
X129084000Y-59051000D01*
X136397000Y-59091000D02*
X133790000Y-59091000D01*
X131710000Y-59091000D02*
X129103000Y-59091000D01*
X136377000Y-59131000D02*
X133790000Y-59131000D01*
X131710000Y-59131000D02*
X129123000Y-59131000D01*
X136356000Y-59171000D02*
X133790000Y-59171000D01*
X131710000Y-59171000D02*
X129144000Y-59171000D01*
X136334000Y-59211000D02*
X133790000Y-59211000D01*
X131710000Y-59211000D02*
X129166000Y-59211000D01*
X136312000Y-59251000D02*
X133790000Y-59251000D01*
X131710000Y-59251000D02*
X129188000Y-59251000D01*
X136290000Y-59291000D02*
X133790000Y-59291000D01*
X131710000Y-59291000D02*
X129210000Y-59291000D01*
X136267000Y-59331000D02*
X133790000Y-59331000D01*
X131710000Y-59331000D02*
X129233000Y-59331000D01*
X136243000Y-59371000D02*
X133790000Y-59371000D01*
X131710000Y-59371000D02*
X129257000Y-59371000D01*
X136219000Y-59411000D02*
X133790000Y-59411000D01*
X131710000Y-59411000D02*
X129281000Y-59411000D01*
X136194000Y-59451000D02*
X133790000Y-59451000D01*
X131710000Y-59451000D02*
X129306000Y-59451000D01*
X136168000Y-59491000D02*
X133790000Y-59491000D01*
X131710000Y-59491000D02*
X129332000Y-59491000D01*
X136142000Y-59531000D02*
X133790000Y-59531000D01*
X131710000Y-59531000D02*
X129358000Y-59531000D01*
X136115000Y-59571000D02*
X133790000Y-59571000D01*
X131710000Y-59571000D02*
X129385000Y-59571000D01*
X136088000Y-59611000D02*
X133790000Y-59611000D01*
X131710000Y-59611000D02*
X129412000Y-59611000D01*
X136059000Y-59651000D02*
X133790000Y-59651000D01*
X131710000Y-59651000D02*
X129441000Y-59651000D01*
X136030000Y-59691000D02*
X133790000Y-59691000D01*
X131710000Y-59691000D02*
X129470000Y-59691000D01*
X136000000Y-59731000D02*
X133790000Y-59731000D01*
X131710000Y-59731000D02*
X129500000Y-59731000D01*
X135970000Y-59771000D02*
X133790000Y-59771000D01*
X131710000Y-59771000D02*
X129530000Y-59771000D01*
X135939000Y-59811000D02*
X133790000Y-59811000D01*
X131710000Y-59811000D02*
X129561000Y-59811000D01*
X135906000Y-59851000D02*
X133790000Y-59851000D01*
X131710000Y-59851000D02*
X129594000Y-59851000D01*
X135874000Y-59891000D02*
X133790000Y-59891000D01*
X131710000Y-59891000D02*
X129626000Y-59891000D01*
X135840000Y-59931000D02*
X133790000Y-59931000D01*
X131710000Y-59931000D02*
X129660000Y-59931000D01*
X135805000Y-59971000D02*
X133790000Y-59971000D01*
X131710000Y-59971000D02*
X129695000Y-59971000D01*
X135769000Y-60011000D02*
X133790000Y-60011000D01*
X131710000Y-60011000D02*
X129731000Y-60011000D01*
X135733000Y-60051000D02*
X129767000Y-60051000D01*
X135695000Y-60091000D02*
X129805000Y-60091000D01*
X135657000Y-60131000D02*
X129843000Y-60131000D01*
X135617000Y-60171000D02*
X129883000Y-60171000D01*
X135576000Y-60211000D02*
X129924000Y-60211000D01*
X135534000Y-60251000D02*
X129966000Y-60251000D01*
X135491000Y-60291000D02*
X130009000Y-60291000D01*
X135447000Y-60331000D02*
X130053000Y-60331000D01*
X135401000Y-60371000D02*
X130099000Y-60371000D01*
X135354000Y-60411000D02*
X130146000Y-60411000D01*
X135306000Y-60451000D02*
X130194000Y-60451000D01*
X135255000Y-60491000D02*
X130245000Y-60491000D01*
X135204000Y-60531000D02*
X130296000Y-60531000D01*
X135150000Y-60571000D02*
X130350000Y-60571000D01*
X135095000Y-60611000D02*
X130405000Y-60611000D01*
X135037000Y-60651000D02*
X130463000Y-60651000D01*
X134978000Y-60691000D02*
X130522000Y-60691000D01*
X134916000Y-60731000D02*
X130584000Y-60731000D01*
X134852000Y-60771000D02*
X130648000Y-60771000D01*
X134784000Y-60811000D02*
X130716000Y-60811000D01*
X134714000Y-60851000D02*
X130786000Y-60851000D01*
X134640000Y-60891000D02*
X130860000Y-60891000D01*
X134563000Y-60931000D02*
X130937000Y-60931000D01*
X134481000Y-60971000D02*
X131019000Y-60971000D01*
X134395000Y-61011000D02*
X131105000Y-61011000D01*
X134302000Y-61051000D02*
X131198000Y-61051000D01*
X134203000Y-61091000D02*
X131297000Y-61091000D01*
X134096000Y-61131000D02*
X131404000Y-61131000D01*
X133979000Y-61171000D02*
X131521000Y-61171000D01*
X133848000Y-61211000D02*
X131652000Y-61211000D01*
X133698000Y-61251000D02*
X131802000Y-61251000D01*
X133518000Y-61291000D02*
X131982000Y-61291000D01*
X133283000Y-61331000D02*
X132217000Y-61331000D01*
X135065000Y-52840302D02*
X135065000Y-53640302D01*
X135465000Y-53240302D02*
X134665000Y-53240302D01*
%TO.C,U2*%
D10*
X124640476Y-98811904D02*
X124640476Y-99459523D01*
X124678571Y-99535714D01*
X124716666Y-99573809D01*
X124792857Y-99611904D01*
X124945238Y-99611904D01*
X125021428Y-99573809D01*
X125059523Y-99535714D01*
X125097619Y-99459523D01*
X125097619Y-98811904D01*
X125440476Y-98888095D02*
X125478571Y-98850000D01*
X125554761Y-98811904D01*
X125745238Y-98811904D01*
X125821428Y-98850000D01*
X125859523Y-98888095D01*
X125897619Y-98964285D01*
X125897619Y-99040476D01*
X125859523Y-99154761D01*
X125402380Y-99611904D01*
X125897619Y-99611904D01*
%TO.C,C14*%
X127285714Y-61764285D02*
X127323809Y-61802380D01*
X127361904Y-61916666D01*
X127361904Y-61992857D01*
X127323809Y-62107142D01*
X127247619Y-62183333D01*
X127171428Y-62221428D01*
X127019047Y-62259523D01*
X126904761Y-62259523D01*
X126752380Y-62221428D01*
X126676190Y-62183333D01*
X126600000Y-62107142D01*
X126561904Y-61992857D01*
X126561904Y-61916666D01*
X126600000Y-61802380D01*
X126638095Y-61764285D01*
X127361904Y-61002380D02*
X127361904Y-61459523D01*
X127361904Y-61230952D02*
X126561904Y-61230952D01*
X126676190Y-61307142D01*
X126752380Y-61383333D01*
X126790476Y-61459523D01*
X126828571Y-60316666D02*
X127361904Y-60316666D01*
X126523809Y-60507142D02*
X127095238Y-60697619D01*
X127095238Y-60202380D01*
%TO.C,C1*%
X130616666Y-87535714D02*
X130578571Y-87573809D01*
X130464285Y-87611904D01*
X130388095Y-87611904D01*
X130273809Y-87573809D01*
X130197619Y-87497619D01*
X130159523Y-87421428D01*
X130121428Y-87269047D01*
X130121428Y-87154761D01*
X130159523Y-87002380D01*
X130197619Y-86926190D01*
X130273809Y-86850000D01*
X130388095Y-86811904D01*
X130464285Y-86811904D01*
X130578571Y-86850000D01*
X130616666Y-86888095D01*
X131378571Y-87611904D02*
X130921428Y-87611904D01*
X131150000Y-87611904D02*
X131150000Y-86811904D01*
X131073809Y-86926190D01*
X130997619Y-87002380D01*
X130921428Y-87040476D01*
%TO.C,C2*%
X144310714Y-92633333D02*
X144348809Y-92671428D01*
X144386904Y-92785714D01*
X144386904Y-92861904D01*
X144348809Y-92976190D01*
X144272619Y-93052380D01*
X144196428Y-93090476D01*
X144044047Y-93128571D01*
X143929761Y-93128571D01*
X143777380Y-93090476D01*
X143701190Y-93052380D01*
X143625000Y-92976190D01*
X143586904Y-92861904D01*
X143586904Y-92785714D01*
X143625000Y-92671428D01*
X143663095Y-92633333D01*
X143663095Y-92328571D02*
X143625000Y-92290476D01*
X143586904Y-92214285D01*
X143586904Y-92023809D01*
X143625000Y-91947619D01*
X143663095Y-91909523D01*
X143739285Y-91871428D01*
X143815476Y-91871428D01*
X143929761Y-91909523D01*
X144386904Y-92366666D01*
X144386904Y-91871428D01*
%TO.C,C3*%
X149641666Y-82105714D02*
X149603571Y-82143809D01*
X149489285Y-82181904D01*
X149413095Y-82181904D01*
X149298809Y-82143809D01*
X149222619Y-82067619D01*
X149184523Y-81991428D01*
X149146428Y-81839047D01*
X149146428Y-81724761D01*
X149184523Y-81572380D01*
X149222619Y-81496190D01*
X149298809Y-81420000D01*
X149413095Y-81381904D01*
X149489285Y-81381904D01*
X149603571Y-81420000D01*
X149641666Y-81458095D01*
X149908333Y-81381904D02*
X150403571Y-81381904D01*
X150136904Y-81686666D01*
X150251190Y-81686666D01*
X150327380Y-81724761D01*
X150365476Y-81762857D01*
X150403571Y-81839047D01*
X150403571Y-82029523D01*
X150365476Y-82105714D01*
X150327380Y-82143809D01*
X150251190Y-82181904D01*
X150022619Y-82181904D01*
X149946428Y-82143809D01*
X149908333Y-82105714D01*
%TO.C,C4*%
X117785714Y-95133333D02*
X117823809Y-95171428D01*
X117861904Y-95285714D01*
X117861904Y-95361904D01*
X117823809Y-95476190D01*
X117747619Y-95552380D01*
X117671428Y-95590476D01*
X117519047Y-95628571D01*
X117404761Y-95628571D01*
X117252380Y-95590476D01*
X117176190Y-95552380D01*
X117100000Y-95476190D01*
X117061904Y-95361904D01*
X117061904Y-95285714D01*
X117100000Y-95171428D01*
X117138095Y-95133333D01*
X117328571Y-94447619D02*
X117861904Y-94447619D01*
X117023809Y-94638095D02*
X117595238Y-94828571D01*
X117595238Y-94333333D01*
%TO.C,C5*%
X148616666Y-74785714D02*
X148578571Y-74823809D01*
X148464285Y-74861904D01*
X148388095Y-74861904D01*
X148273809Y-74823809D01*
X148197619Y-74747619D01*
X148159523Y-74671428D01*
X148121428Y-74519047D01*
X148121428Y-74404761D01*
X148159523Y-74252380D01*
X148197619Y-74176190D01*
X148273809Y-74100000D01*
X148388095Y-74061904D01*
X148464285Y-74061904D01*
X148578571Y-74100000D01*
X148616666Y-74138095D01*
X149340476Y-74061904D02*
X148959523Y-74061904D01*
X148921428Y-74442857D01*
X148959523Y-74404761D01*
X149035714Y-74366666D01*
X149226190Y-74366666D01*
X149302380Y-74404761D01*
X149340476Y-74442857D01*
X149378571Y-74519047D01*
X149378571Y-74709523D01*
X149340476Y-74785714D01*
X149302380Y-74823809D01*
X149226190Y-74861904D01*
X149035714Y-74861904D01*
X148959523Y-74823809D01*
X148921428Y-74785714D01*
%TO.C,C6*%
X135366666Y-73535714D02*
X135328571Y-73573809D01*
X135214285Y-73611904D01*
X135138095Y-73611904D01*
X135023809Y-73573809D01*
X134947619Y-73497619D01*
X134909523Y-73421428D01*
X134871428Y-73269047D01*
X134871428Y-73154761D01*
X134909523Y-73002380D01*
X134947619Y-72926190D01*
X135023809Y-72850000D01*
X135138095Y-72811904D01*
X135214285Y-72811904D01*
X135328571Y-72850000D01*
X135366666Y-72888095D01*
X136052380Y-72811904D02*
X135900000Y-72811904D01*
X135823809Y-72850000D01*
X135785714Y-72888095D01*
X135709523Y-73002380D01*
X135671428Y-73154761D01*
X135671428Y-73459523D01*
X135709523Y-73535714D01*
X135747619Y-73573809D01*
X135823809Y-73611904D01*
X135976190Y-73611904D01*
X136052380Y-73573809D01*
X136090476Y-73535714D01*
X136128571Y-73459523D01*
X136128571Y-73269047D01*
X136090476Y-73192857D01*
X136052380Y-73154761D01*
X135976190Y-73116666D01*
X135823809Y-73116666D01*
X135747619Y-73154761D01*
X135709523Y-73192857D01*
X135671428Y-73269047D01*
%TO.C,C7*%
X125116666Y-88785714D02*
X125078571Y-88823809D01*
X124964285Y-88861904D01*
X124888095Y-88861904D01*
X124773809Y-88823809D01*
X124697619Y-88747619D01*
X124659523Y-88671428D01*
X124621428Y-88519047D01*
X124621428Y-88404761D01*
X124659523Y-88252380D01*
X124697619Y-88176190D01*
X124773809Y-88100000D01*
X124888095Y-88061904D01*
X124964285Y-88061904D01*
X125078571Y-88100000D01*
X125116666Y-88138095D01*
X125383333Y-88061904D02*
X125916666Y-88061904D01*
X125573809Y-88861904D01*
%TO.C,C8*%
X130866666Y-85535714D02*
X130828571Y-85573809D01*
X130714285Y-85611904D01*
X130638095Y-85611904D01*
X130523809Y-85573809D01*
X130447619Y-85497619D01*
X130409523Y-85421428D01*
X130371428Y-85269047D01*
X130371428Y-85154761D01*
X130409523Y-85002380D01*
X130447619Y-84926190D01*
X130523809Y-84850000D01*
X130638095Y-84811904D01*
X130714285Y-84811904D01*
X130828571Y-84850000D01*
X130866666Y-84888095D01*
X131323809Y-85154761D02*
X131247619Y-85116666D01*
X131209523Y-85078571D01*
X131171428Y-85002380D01*
X131171428Y-84964285D01*
X131209523Y-84888095D01*
X131247619Y-84850000D01*
X131323809Y-84811904D01*
X131476190Y-84811904D01*
X131552380Y-84850000D01*
X131590476Y-84888095D01*
X131628571Y-84964285D01*
X131628571Y-85002380D01*
X131590476Y-85078571D01*
X131552380Y-85116666D01*
X131476190Y-85154761D01*
X131323809Y-85154761D01*
X131247619Y-85192857D01*
X131209523Y-85230952D01*
X131171428Y-85307142D01*
X131171428Y-85459523D01*
X131209523Y-85535714D01*
X131247619Y-85573809D01*
X131323809Y-85611904D01*
X131476190Y-85611904D01*
X131552380Y-85573809D01*
X131590476Y-85535714D01*
X131628571Y-85459523D01*
X131628571Y-85307142D01*
X131590476Y-85230952D01*
X131552380Y-85192857D01*
X131476190Y-85154761D01*
%TO.C,C9*%
X161785714Y-83133333D02*
X161823809Y-83171428D01*
X161861904Y-83285714D01*
X161861904Y-83361904D01*
X161823809Y-83476190D01*
X161747619Y-83552380D01*
X161671428Y-83590476D01*
X161519047Y-83628571D01*
X161404761Y-83628571D01*
X161252380Y-83590476D01*
X161176190Y-83552380D01*
X161100000Y-83476190D01*
X161061904Y-83361904D01*
X161061904Y-83285714D01*
X161100000Y-83171428D01*
X161138095Y-83133333D01*
X161861904Y-82752380D02*
X161861904Y-82600000D01*
X161823809Y-82523809D01*
X161785714Y-82485714D01*
X161671428Y-82409523D01*
X161519047Y-82371428D01*
X161214285Y-82371428D01*
X161138095Y-82409523D01*
X161100000Y-82447619D01*
X161061904Y-82523809D01*
X161061904Y-82676190D01*
X161100000Y-82752380D01*
X161138095Y-82790476D01*
X161214285Y-82828571D01*
X161404761Y-82828571D01*
X161480952Y-82790476D01*
X161519047Y-82752380D01*
X161557142Y-82676190D01*
X161557142Y-82523809D01*
X161519047Y-82447619D01*
X161480952Y-82409523D01*
X161404761Y-82371428D01*
%TO.C,C10*%
X159985714Y-95035714D02*
X159947619Y-95073809D01*
X159833333Y-95111904D01*
X159757142Y-95111904D01*
X159642857Y-95073809D01*
X159566666Y-94997619D01*
X159528571Y-94921428D01*
X159490476Y-94769047D01*
X159490476Y-94654761D01*
X159528571Y-94502380D01*
X159566666Y-94426190D01*
X159642857Y-94350000D01*
X159757142Y-94311904D01*
X159833333Y-94311904D01*
X159947619Y-94350000D01*
X159985714Y-94388095D01*
X160747619Y-95111904D02*
X160290476Y-95111904D01*
X160519047Y-95111904D02*
X160519047Y-94311904D01*
X160442857Y-94426190D01*
X160366666Y-94502380D01*
X160290476Y-94540476D01*
X161242857Y-94311904D02*
X161319047Y-94311904D01*
X161395238Y-94350000D01*
X161433333Y-94388095D01*
X161471428Y-94464285D01*
X161509523Y-94616666D01*
X161509523Y-94807142D01*
X161471428Y-94959523D01*
X161433333Y-95035714D01*
X161395238Y-95073809D01*
X161319047Y-95111904D01*
X161242857Y-95111904D01*
X161166666Y-95073809D01*
X161128571Y-95035714D01*
X161090476Y-94959523D01*
X161052380Y-94807142D01*
X161052380Y-94616666D01*
X161090476Y-94464285D01*
X161128571Y-94388095D01*
X161166666Y-94350000D01*
X161242857Y-94311904D01*
%TO.C,C11*%
X128785714Y-81014285D02*
X128823809Y-81052380D01*
X128861904Y-81166666D01*
X128861904Y-81242857D01*
X128823809Y-81357142D01*
X128747619Y-81433333D01*
X128671428Y-81471428D01*
X128519047Y-81509523D01*
X128404761Y-81509523D01*
X128252380Y-81471428D01*
X128176190Y-81433333D01*
X128100000Y-81357142D01*
X128061904Y-81242857D01*
X128061904Y-81166666D01*
X128100000Y-81052380D01*
X128138095Y-81014285D01*
X128861904Y-80252380D02*
X128861904Y-80709523D01*
X128861904Y-80480952D02*
X128061904Y-80480952D01*
X128176190Y-80557142D01*
X128252380Y-80633333D01*
X128290476Y-80709523D01*
X128861904Y-79490476D02*
X128861904Y-79947619D01*
X128861904Y-79719047D02*
X128061904Y-79719047D01*
X128176190Y-79795238D01*
X128252380Y-79871428D01*
X128290476Y-79947619D01*
%TO.C,C12*%
X116010714Y-86035714D02*
X115972619Y-86073809D01*
X115858333Y-86111904D01*
X115782142Y-86111904D01*
X115667857Y-86073809D01*
X115591666Y-85997619D01*
X115553571Y-85921428D01*
X115515476Y-85769047D01*
X115515476Y-85654761D01*
X115553571Y-85502380D01*
X115591666Y-85426190D01*
X115667857Y-85350000D01*
X115782142Y-85311904D01*
X115858333Y-85311904D01*
X115972619Y-85350000D01*
X116010714Y-85388095D01*
X116772619Y-86111904D02*
X116315476Y-86111904D01*
X116544047Y-86111904D02*
X116544047Y-85311904D01*
X116467857Y-85426190D01*
X116391666Y-85502380D01*
X116315476Y-85540476D01*
X117077380Y-85388095D02*
X117115476Y-85350000D01*
X117191666Y-85311904D01*
X117382142Y-85311904D01*
X117458333Y-85350000D01*
X117496428Y-85388095D01*
X117534523Y-85464285D01*
X117534523Y-85540476D01*
X117496428Y-85654761D01*
X117039285Y-86111904D01*
X117534523Y-86111904D01*
%TO.C,D1*%
X142111904Y-93052976D02*
X141311904Y-93052976D01*
X141311904Y-92862500D01*
X141350000Y-92748214D01*
X141426190Y-92672023D01*
X141502380Y-92633928D01*
X141654761Y-92595833D01*
X141769047Y-92595833D01*
X141921428Y-92633928D01*
X141997619Y-92672023D01*
X142073809Y-92748214D01*
X142111904Y-92862500D01*
X142111904Y-93052976D01*
X142111904Y-91833928D02*
X142111904Y-92291071D01*
X142111904Y-92062500D02*
X141311904Y-92062500D01*
X141426190Y-92138690D01*
X141502380Y-92214880D01*
X141540476Y-92291071D01*
%TO.C,D2*%
X127861904Y-86340476D02*
X127061904Y-86340476D01*
X127061904Y-86150000D01*
X127100000Y-86035714D01*
X127176190Y-85959523D01*
X127252380Y-85921428D01*
X127404761Y-85883333D01*
X127519047Y-85883333D01*
X127671428Y-85921428D01*
X127747619Y-85959523D01*
X127823809Y-86035714D01*
X127861904Y-86150000D01*
X127861904Y-86340476D01*
X127138095Y-85578571D02*
X127100000Y-85540476D01*
X127061904Y-85464285D01*
X127061904Y-85273809D01*
X127100000Y-85197619D01*
X127138095Y-85159523D01*
X127214285Y-85121428D01*
X127290476Y-85121428D01*
X127404761Y-85159523D01*
X127861904Y-85616666D01*
X127861904Y-85121428D01*
%TO.C,D3*%
X178411904Y-64840476D02*
X177611904Y-64840476D01*
X177611904Y-64650000D01*
X177650000Y-64535714D01*
X177726190Y-64459523D01*
X177802380Y-64421428D01*
X177954761Y-64383333D01*
X178069047Y-64383333D01*
X178221428Y-64421428D01*
X178297619Y-64459523D01*
X178373809Y-64535714D01*
X178411904Y-64650000D01*
X178411904Y-64840476D01*
X177611904Y-64116666D02*
X177611904Y-63621428D01*
X177916666Y-63888095D01*
X177916666Y-63773809D01*
X177954761Y-63697619D01*
X177992857Y-63659523D01*
X178069047Y-63621428D01*
X178259523Y-63621428D01*
X178335714Y-63659523D01*
X178373809Y-63697619D01*
X178411904Y-63773809D01*
X178411904Y-64002380D01*
X178373809Y-64078571D01*
X178335714Y-64116666D01*
%TO.C,D4*%
X164861904Y-73090476D02*
X164061904Y-73090476D01*
X164061904Y-72900000D01*
X164100000Y-72785714D01*
X164176190Y-72709523D01*
X164252380Y-72671428D01*
X164404761Y-72633333D01*
X164519047Y-72633333D01*
X164671428Y-72671428D01*
X164747619Y-72709523D01*
X164823809Y-72785714D01*
X164861904Y-72900000D01*
X164861904Y-73090476D01*
X164328571Y-71947619D02*
X164861904Y-71947619D01*
X164023809Y-72138095D02*
X164595238Y-72328571D01*
X164595238Y-71833333D01*
%TO.C,D5*%
X157361904Y-73090476D02*
X156561904Y-73090476D01*
X156561904Y-72900000D01*
X156600000Y-72785714D01*
X156676190Y-72709523D01*
X156752380Y-72671428D01*
X156904761Y-72633333D01*
X157019047Y-72633333D01*
X157171428Y-72671428D01*
X157247619Y-72709523D01*
X157323809Y-72785714D01*
X157361904Y-72900000D01*
X157361904Y-73090476D01*
X156561904Y-71909523D02*
X156561904Y-72290476D01*
X156942857Y-72328571D01*
X156904761Y-72290476D01*
X156866666Y-72214285D01*
X156866666Y-72023809D01*
X156904761Y-71947619D01*
X156942857Y-71909523D01*
X157019047Y-71871428D01*
X157209523Y-71871428D01*
X157285714Y-71909523D01*
X157323809Y-71947619D01*
X157361904Y-72023809D01*
X157361904Y-72214285D01*
X157323809Y-72290476D01*
X157285714Y-72328571D01*
%TO.C,D6*%
X149861904Y-73090476D02*
X149061904Y-73090476D01*
X149061904Y-72900000D01*
X149100000Y-72785714D01*
X149176190Y-72709523D01*
X149252380Y-72671428D01*
X149404761Y-72633333D01*
X149519047Y-72633333D01*
X149671428Y-72671428D01*
X149747619Y-72709523D01*
X149823809Y-72785714D01*
X149861904Y-72900000D01*
X149861904Y-73090476D01*
X149061904Y-71947619D02*
X149061904Y-72100000D01*
X149100000Y-72176190D01*
X149138095Y-72214285D01*
X149252380Y-72290476D01*
X149404761Y-72328571D01*
X149709523Y-72328571D01*
X149785714Y-72290476D01*
X149823809Y-72252380D01*
X149861904Y-72176190D01*
X149861904Y-72023809D01*
X149823809Y-71947619D01*
X149785714Y-71909523D01*
X149709523Y-71871428D01*
X149519047Y-71871428D01*
X149442857Y-71909523D01*
X149404761Y-71947619D01*
X149366666Y-72023809D01*
X149366666Y-72176190D01*
X149404761Y-72252380D01*
X149442857Y-72290476D01*
X149519047Y-72328571D01*
%TO.C,D7*%
X142361904Y-73090476D02*
X141561904Y-73090476D01*
X141561904Y-72900000D01*
X141600000Y-72785714D01*
X141676190Y-72709523D01*
X141752380Y-72671428D01*
X141904761Y-72633333D01*
X142019047Y-72633333D01*
X142171428Y-72671428D01*
X142247619Y-72709523D01*
X142323809Y-72785714D01*
X142361904Y-72900000D01*
X142361904Y-73090476D01*
X141561904Y-72366666D02*
X141561904Y-71833333D01*
X142361904Y-72176190D01*
%TO.C,J1*%
X150311904Y-79516666D02*
X150883333Y-79516666D01*
X150997619Y-79554761D01*
X151073809Y-79630952D01*
X151111904Y-79745238D01*
X151111904Y-79821428D01*
X151111904Y-78716666D02*
X151111904Y-79173809D01*
X151111904Y-78945238D02*
X150311904Y-78945238D01*
X150426190Y-79021428D01*
X150502380Y-79097619D01*
X150540476Y-79173809D01*
%TO.C,J2*%
X114233333Y-97811904D02*
X114233333Y-98383333D01*
X114195238Y-98497619D01*
X114119047Y-98573809D01*
X114004761Y-98611904D01*
X113928571Y-98611904D01*
X114576190Y-97888095D02*
X114614285Y-97850000D01*
X114690476Y-97811904D01*
X114880952Y-97811904D01*
X114957142Y-97850000D01*
X114995238Y-97888095D01*
X115033333Y-97964285D01*
X115033333Y-98040476D01*
X114995238Y-98154761D01*
X114538095Y-98611904D01*
X115033333Y-98611904D01*
%TO.C,J3*%
X108983333Y-61561904D02*
X108983333Y-62133333D01*
X108945238Y-62247619D01*
X108869047Y-62323809D01*
X108754761Y-62361904D01*
X108678571Y-62361904D01*
X109288095Y-61561904D02*
X109783333Y-61561904D01*
X109516666Y-61866666D01*
X109630952Y-61866666D01*
X109707142Y-61904761D01*
X109745238Y-61942857D01*
X109783333Y-62019047D01*
X109783333Y-62209523D01*
X109745238Y-62285714D01*
X109707142Y-62323809D01*
X109630952Y-62361904D01*
X109402380Y-62361904D01*
X109326190Y-62323809D01*
X109288095Y-62285714D01*
%TO.C,J4*%
X143733333Y-97811904D02*
X143733333Y-98383333D01*
X143695238Y-98497619D01*
X143619047Y-98573809D01*
X143504761Y-98611904D01*
X143428571Y-98611904D01*
X144457142Y-98078571D02*
X144457142Y-98611904D01*
X144266666Y-97773809D02*
X144076190Y-98345238D01*
X144571428Y-98345238D01*
%TO.C,J5*%
X151233333Y-97811904D02*
X151233333Y-98383333D01*
X151195238Y-98497619D01*
X151119047Y-98573809D01*
X151004761Y-98611904D01*
X150928571Y-98611904D01*
X151995238Y-97811904D02*
X151614285Y-97811904D01*
X151576190Y-98192857D01*
X151614285Y-98154761D01*
X151690476Y-98116666D01*
X151880952Y-98116666D01*
X151957142Y-98154761D01*
X151995238Y-98192857D01*
X152033333Y-98269047D01*
X152033333Y-98459523D01*
X151995238Y-98535714D01*
X151957142Y-98573809D01*
X151880952Y-98611904D01*
X151690476Y-98611904D01*
X151614285Y-98573809D01*
X151576190Y-98535714D01*
%TO.C,J6*%
X108561904Y-65516666D02*
X109133333Y-65516666D01*
X109247619Y-65554761D01*
X109323809Y-65630952D01*
X109361904Y-65745238D01*
X109361904Y-65821428D01*
X108561904Y-64792857D02*
X108561904Y-64945238D01*
X108600000Y-65021428D01*
X108638095Y-65059523D01*
X108752380Y-65135714D01*
X108904761Y-65173809D01*
X109209523Y-65173809D01*
X109285714Y-65135714D01*
X109323809Y-65097619D01*
X109361904Y-65021428D01*
X109361904Y-64869047D01*
X109323809Y-64792857D01*
X109285714Y-64754761D01*
X109209523Y-64716666D01*
X109019047Y-64716666D01*
X108942857Y-64754761D01*
X108904761Y-64792857D01*
X108866666Y-64869047D01*
X108866666Y-65021428D01*
X108904761Y-65097619D01*
X108942857Y-65135714D01*
X109019047Y-65173809D01*
%TO.C,J7*%
X108561904Y-95016666D02*
X109133333Y-95016666D01*
X109247619Y-95054761D01*
X109323809Y-95130952D01*
X109361904Y-95245238D01*
X109361904Y-95321428D01*
X108561904Y-94711904D02*
X108561904Y-94178571D01*
X109361904Y-94521428D01*
%TO.C,J8*%
X165311904Y-78766666D02*
X165883333Y-78766666D01*
X165997619Y-78804761D01*
X166073809Y-78880952D01*
X166111904Y-78995238D01*
X166111904Y-79071428D01*
X165654761Y-78271428D02*
X165616666Y-78347619D01*
X165578571Y-78385714D01*
X165502380Y-78423809D01*
X165464285Y-78423809D01*
X165388095Y-78385714D01*
X165350000Y-78347619D01*
X165311904Y-78271428D01*
X165311904Y-78119047D01*
X165350000Y-78042857D01*
X165388095Y-78004761D01*
X165464285Y-77966666D01*
X165502380Y-77966666D01*
X165578571Y-78004761D01*
X165616666Y-78042857D01*
X165654761Y-78119047D01*
X165654761Y-78271428D01*
X165692857Y-78347619D01*
X165730952Y-78385714D01*
X165807142Y-78423809D01*
X165959523Y-78423809D01*
X166035714Y-78385714D01*
X166073809Y-78347619D01*
X166111904Y-78271428D01*
X166111904Y-78119047D01*
X166073809Y-78042857D01*
X166035714Y-78004761D01*
X165959523Y-77966666D01*
X165807142Y-77966666D01*
X165730952Y-78004761D01*
X165692857Y-78042857D01*
X165654761Y-78119047D01*
%TO.C,J9*%
X165311904Y-81516666D02*
X165883333Y-81516666D01*
X165997619Y-81554761D01*
X166073809Y-81630952D01*
X166111904Y-81745238D01*
X166111904Y-81821428D01*
X166111904Y-81097619D02*
X166111904Y-80945238D01*
X166073809Y-80869047D01*
X166035714Y-80830952D01*
X165921428Y-80754761D01*
X165769047Y-80716666D01*
X165464285Y-80716666D01*
X165388095Y-80754761D01*
X165350000Y-80792857D01*
X165311904Y-80869047D01*
X165311904Y-81021428D01*
X165350000Y-81097619D01*
X165388095Y-81135714D01*
X165464285Y-81173809D01*
X165654761Y-81173809D01*
X165730952Y-81135714D01*
X165769047Y-81097619D01*
X165807142Y-81021428D01*
X165807142Y-80869047D01*
X165769047Y-80792857D01*
X165730952Y-80754761D01*
X165654761Y-80716666D01*
%TO.C,J10*%
X158102380Y-97811904D02*
X158102380Y-98383333D01*
X158064285Y-98497619D01*
X157988095Y-98573809D01*
X157873809Y-98611904D01*
X157797619Y-98611904D01*
X158902380Y-98611904D02*
X158445238Y-98611904D01*
X158673809Y-98611904D02*
X158673809Y-97811904D01*
X158597619Y-97926190D01*
X158521428Y-98002380D01*
X158445238Y-98040476D01*
X159397619Y-97811904D02*
X159473809Y-97811904D01*
X159550000Y-97850000D01*
X159588095Y-97888095D01*
X159626190Y-97964285D01*
X159664285Y-98116666D01*
X159664285Y-98307142D01*
X159626190Y-98459523D01*
X159588095Y-98535714D01*
X159550000Y-98573809D01*
X159473809Y-98611904D01*
X159397619Y-98611904D01*
X159321428Y-98573809D01*
X159283333Y-98535714D01*
X159245238Y-98459523D01*
X159207142Y-98307142D01*
X159207142Y-98116666D01*
X159245238Y-97964285D01*
X159283333Y-97888095D01*
X159321428Y-97850000D01*
X159397619Y-97811904D01*
%TO.C,J11*%
X165352380Y-97811904D02*
X165352380Y-98383333D01*
X165314285Y-98497619D01*
X165238095Y-98573809D01*
X165123809Y-98611904D01*
X165047619Y-98611904D01*
X166152380Y-98611904D02*
X165695238Y-98611904D01*
X165923809Y-98611904D02*
X165923809Y-97811904D01*
X165847619Y-97926190D01*
X165771428Y-98002380D01*
X165695238Y-98040476D01*
X166914285Y-98611904D02*
X166457142Y-98611904D01*
X166685714Y-98611904D02*
X166685714Y-97811904D01*
X166609523Y-97926190D01*
X166533333Y-98002380D01*
X166457142Y-98040476D01*
%TO.C,J12*%
X167102380Y-61561904D02*
X167102380Y-62133333D01*
X167064285Y-62247619D01*
X166988095Y-62323809D01*
X166873809Y-62361904D01*
X166797619Y-62361904D01*
X167902380Y-62361904D02*
X167445238Y-62361904D01*
X167673809Y-62361904D02*
X167673809Y-61561904D01*
X167597619Y-61676190D01*
X167521428Y-61752380D01*
X167445238Y-61790476D01*
X168207142Y-61638095D02*
X168245238Y-61600000D01*
X168321428Y-61561904D01*
X168511904Y-61561904D01*
X168588095Y-61600000D01*
X168626190Y-61638095D01*
X168664285Y-61714285D01*
X168664285Y-61790476D01*
X168626190Y-61904761D01*
X168169047Y-62361904D01*
X168664285Y-62361904D01*
%TO.C,J13*%
X159602380Y-61561904D02*
X159602380Y-62133333D01*
X159564285Y-62247619D01*
X159488095Y-62323809D01*
X159373809Y-62361904D01*
X159297619Y-62361904D01*
X160402380Y-62361904D02*
X159945238Y-62361904D01*
X160173809Y-62361904D02*
X160173809Y-61561904D01*
X160097619Y-61676190D01*
X160021428Y-61752380D01*
X159945238Y-61790476D01*
X160669047Y-61561904D02*
X161164285Y-61561904D01*
X160897619Y-61866666D01*
X161011904Y-61866666D01*
X161088095Y-61904761D01*
X161126190Y-61942857D01*
X161164285Y-62019047D01*
X161164285Y-62209523D01*
X161126190Y-62285714D01*
X161088095Y-62323809D01*
X161011904Y-62361904D01*
X160783333Y-62361904D01*
X160707142Y-62323809D01*
X160669047Y-62285714D01*
%TO.C,J14*%
X152102380Y-61561904D02*
X152102380Y-62133333D01*
X152064285Y-62247619D01*
X151988095Y-62323809D01*
X151873809Y-62361904D01*
X151797619Y-62361904D01*
X152902380Y-62361904D02*
X152445238Y-62361904D01*
X152673809Y-62361904D02*
X152673809Y-61561904D01*
X152597619Y-61676190D01*
X152521428Y-61752380D01*
X152445238Y-61790476D01*
X153588095Y-61828571D02*
X153588095Y-62361904D01*
X153397619Y-61523809D02*
X153207142Y-62095238D01*
X153702380Y-62095238D01*
%TO.C,J15*%
X144602380Y-61561904D02*
X144602380Y-62133333D01*
X144564285Y-62247619D01*
X144488095Y-62323809D01*
X144373809Y-62361904D01*
X144297619Y-62361904D01*
X145402380Y-62361904D02*
X144945238Y-62361904D01*
X145173809Y-62361904D02*
X145173809Y-61561904D01*
X145097619Y-61676190D01*
X145021428Y-61752380D01*
X144945238Y-61790476D01*
X146126190Y-61561904D02*
X145745238Y-61561904D01*
X145707142Y-61942857D01*
X145745238Y-61904761D01*
X145821428Y-61866666D01*
X146011904Y-61866666D01*
X146088095Y-61904761D01*
X146126190Y-61942857D01*
X146164285Y-62019047D01*
X146164285Y-62209523D01*
X146126190Y-62285714D01*
X146088095Y-62323809D01*
X146011904Y-62361904D01*
X145821428Y-62361904D01*
X145745238Y-62323809D01*
X145707142Y-62285714D01*
%TO.C,Q1*%
X168673809Y-68438095D02*
X168597619Y-68400000D01*
X168521428Y-68323809D01*
X168407142Y-68209523D01*
X168330952Y-68171428D01*
X168254761Y-68171428D01*
X168292857Y-68361904D02*
X168216666Y-68323809D01*
X168140476Y-68247619D01*
X168102380Y-68095238D01*
X168102380Y-67828571D01*
X168140476Y-67676190D01*
X168216666Y-67600000D01*
X168292857Y-67561904D01*
X168445238Y-67561904D01*
X168521428Y-67600000D01*
X168597619Y-67676190D01*
X168635714Y-67828571D01*
X168635714Y-68095238D01*
X168597619Y-68247619D01*
X168521428Y-68323809D01*
X168445238Y-68361904D01*
X168292857Y-68361904D01*
X169397619Y-68361904D02*
X168940476Y-68361904D01*
X169169047Y-68361904D02*
X169169047Y-67561904D01*
X169092857Y-67676190D01*
X169016666Y-67752380D01*
X168940476Y-67790476D01*
%TO.C,Q2*%
X161173809Y-68438095D02*
X161097619Y-68400000D01*
X161021428Y-68323809D01*
X160907142Y-68209523D01*
X160830952Y-68171428D01*
X160754761Y-68171428D01*
X160792857Y-68361904D02*
X160716666Y-68323809D01*
X160640476Y-68247619D01*
X160602380Y-68095238D01*
X160602380Y-67828571D01*
X160640476Y-67676190D01*
X160716666Y-67600000D01*
X160792857Y-67561904D01*
X160945238Y-67561904D01*
X161021428Y-67600000D01*
X161097619Y-67676190D01*
X161135714Y-67828571D01*
X161135714Y-68095238D01*
X161097619Y-68247619D01*
X161021428Y-68323809D01*
X160945238Y-68361904D01*
X160792857Y-68361904D01*
X161440476Y-67638095D02*
X161478571Y-67600000D01*
X161554761Y-67561904D01*
X161745238Y-67561904D01*
X161821428Y-67600000D01*
X161859523Y-67638095D01*
X161897619Y-67714285D01*
X161897619Y-67790476D01*
X161859523Y-67904761D01*
X161402380Y-68361904D01*
X161897619Y-68361904D01*
%TO.C,Q3*%
X153673809Y-68438095D02*
X153597619Y-68400000D01*
X153521428Y-68323809D01*
X153407142Y-68209523D01*
X153330952Y-68171428D01*
X153254761Y-68171428D01*
X153292857Y-68361904D02*
X153216666Y-68323809D01*
X153140476Y-68247619D01*
X153102380Y-68095238D01*
X153102380Y-67828571D01*
X153140476Y-67676190D01*
X153216666Y-67600000D01*
X153292857Y-67561904D01*
X153445238Y-67561904D01*
X153521428Y-67600000D01*
X153597619Y-67676190D01*
X153635714Y-67828571D01*
X153635714Y-68095238D01*
X153597619Y-68247619D01*
X153521428Y-68323809D01*
X153445238Y-68361904D01*
X153292857Y-68361904D01*
X153902380Y-67561904D02*
X154397619Y-67561904D01*
X154130952Y-67866666D01*
X154245238Y-67866666D01*
X154321428Y-67904761D01*
X154359523Y-67942857D01*
X154397619Y-68019047D01*
X154397619Y-68209523D01*
X154359523Y-68285714D01*
X154321428Y-68323809D01*
X154245238Y-68361904D01*
X154016666Y-68361904D01*
X153940476Y-68323809D01*
X153902380Y-68285714D01*
%TO.C,Q4*%
X146173809Y-68438095D02*
X146097619Y-68400000D01*
X146021428Y-68323809D01*
X145907142Y-68209523D01*
X145830952Y-68171428D01*
X145754761Y-68171428D01*
X145792857Y-68361904D02*
X145716666Y-68323809D01*
X145640476Y-68247619D01*
X145602380Y-68095238D01*
X145602380Y-67828571D01*
X145640476Y-67676190D01*
X145716666Y-67600000D01*
X145792857Y-67561904D01*
X145945238Y-67561904D01*
X146021428Y-67600000D01*
X146097619Y-67676190D01*
X146135714Y-67828571D01*
X146135714Y-68095238D01*
X146097619Y-68247619D01*
X146021428Y-68323809D01*
X145945238Y-68361904D01*
X145792857Y-68361904D01*
X146821428Y-67828571D02*
X146821428Y-68361904D01*
X146630952Y-67523809D02*
X146440476Y-68095238D01*
X146935714Y-68095238D01*
%TO.C,R1*%
X140361904Y-92558333D02*
X139980952Y-92825000D01*
X140361904Y-93015476D02*
X139561904Y-93015476D01*
X139561904Y-92710714D01*
X139600000Y-92634523D01*
X139638095Y-92596428D01*
X139714285Y-92558333D01*
X139828571Y-92558333D01*
X139904761Y-92596428D01*
X139942857Y-92634523D01*
X139980952Y-92710714D01*
X139980952Y-93015476D01*
X140361904Y-91796428D02*
X140361904Y-92253571D01*
X140361904Y-92025000D02*
X139561904Y-92025000D01*
X139676190Y-92101190D01*
X139752380Y-92177380D01*
X139790476Y-92253571D01*
%TO.C,R2*%
X133116666Y-81861904D02*
X132850000Y-81480952D01*
X132659523Y-81861904D02*
X132659523Y-81061904D01*
X132964285Y-81061904D01*
X133040476Y-81100000D01*
X133078571Y-81138095D01*
X133116666Y-81214285D01*
X133116666Y-81328571D01*
X133078571Y-81404761D01*
X133040476Y-81442857D01*
X132964285Y-81480952D01*
X132659523Y-81480952D01*
X133421428Y-81138095D02*
X133459523Y-81100000D01*
X133535714Y-81061904D01*
X133726190Y-81061904D01*
X133802380Y-81100000D01*
X133840476Y-81138095D01*
X133878571Y-81214285D01*
X133878571Y-81290476D01*
X133840476Y-81404761D01*
X133383333Y-81861904D01*
X133878571Y-81861904D01*
%TO.C,R3*%
X123361904Y-85883333D02*
X122980952Y-86150000D01*
X123361904Y-86340476D02*
X122561904Y-86340476D01*
X122561904Y-86035714D01*
X122600000Y-85959523D01*
X122638095Y-85921428D01*
X122714285Y-85883333D01*
X122828571Y-85883333D01*
X122904761Y-85921428D01*
X122942857Y-85959523D01*
X122980952Y-86035714D01*
X122980952Y-86340476D01*
X122561904Y-85616666D02*
X122561904Y-85121428D01*
X122866666Y-85388095D01*
X122866666Y-85273809D01*
X122904761Y-85197619D01*
X122942857Y-85159523D01*
X123019047Y-85121428D01*
X123209523Y-85121428D01*
X123285714Y-85159523D01*
X123323809Y-85197619D01*
X123361904Y-85273809D01*
X123361904Y-85502380D01*
X123323809Y-85578571D01*
X123285714Y-85616666D01*
%TO.C,R4*%
X163111904Y-72633333D02*
X162730952Y-72900000D01*
X163111904Y-73090476D02*
X162311904Y-73090476D01*
X162311904Y-72785714D01*
X162350000Y-72709523D01*
X162388095Y-72671428D01*
X162464285Y-72633333D01*
X162578571Y-72633333D01*
X162654761Y-72671428D01*
X162692857Y-72709523D01*
X162730952Y-72785714D01*
X162730952Y-73090476D01*
X162578571Y-71947619D02*
X163111904Y-71947619D01*
X162273809Y-72138095D02*
X162845238Y-72328571D01*
X162845238Y-71833333D01*
%TO.C,R5*%
X155611904Y-72633333D02*
X155230952Y-72900000D01*
X155611904Y-73090476D02*
X154811904Y-73090476D01*
X154811904Y-72785714D01*
X154850000Y-72709523D01*
X154888095Y-72671428D01*
X154964285Y-72633333D01*
X155078571Y-72633333D01*
X155154761Y-72671428D01*
X155192857Y-72709523D01*
X155230952Y-72785714D01*
X155230952Y-73090476D01*
X154811904Y-71909523D02*
X154811904Y-72290476D01*
X155192857Y-72328571D01*
X155154761Y-72290476D01*
X155116666Y-72214285D01*
X155116666Y-72023809D01*
X155154761Y-71947619D01*
X155192857Y-71909523D01*
X155269047Y-71871428D01*
X155459523Y-71871428D01*
X155535714Y-71909523D01*
X155573809Y-71947619D01*
X155611904Y-72023809D01*
X155611904Y-72214285D01*
X155573809Y-72290476D01*
X155535714Y-72328571D01*
%TO.C,R6*%
X148111904Y-72633333D02*
X147730952Y-72900000D01*
X148111904Y-73090476D02*
X147311904Y-73090476D01*
X147311904Y-72785714D01*
X147350000Y-72709523D01*
X147388095Y-72671428D01*
X147464285Y-72633333D01*
X147578571Y-72633333D01*
X147654761Y-72671428D01*
X147692857Y-72709523D01*
X147730952Y-72785714D01*
X147730952Y-73090476D01*
X147311904Y-71947619D02*
X147311904Y-72100000D01*
X147350000Y-72176190D01*
X147388095Y-72214285D01*
X147502380Y-72290476D01*
X147654761Y-72328571D01*
X147959523Y-72328571D01*
X148035714Y-72290476D01*
X148073809Y-72252380D01*
X148111904Y-72176190D01*
X148111904Y-72023809D01*
X148073809Y-71947619D01*
X148035714Y-71909523D01*
X147959523Y-71871428D01*
X147769047Y-71871428D01*
X147692857Y-71909523D01*
X147654761Y-71947619D01*
X147616666Y-72023809D01*
X147616666Y-72176190D01*
X147654761Y-72252380D01*
X147692857Y-72290476D01*
X147769047Y-72328571D01*
%TO.C,R7*%
X140611904Y-72633333D02*
X140230952Y-72900000D01*
X140611904Y-73090476D02*
X139811904Y-73090476D01*
X139811904Y-72785714D01*
X139850000Y-72709523D01*
X139888095Y-72671428D01*
X139964285Y-72633333D01*
X140078571Y-72633333D01*
X140154761Y-72671428D01*
X140192857Y-72709523D01*
X140230952Y-72785714D01*
X140230952Y-73090476D01*
X139811904Y-72366666D02*
X139811904Y-71833333D01*
X140611904Y-72176190D01*
%TO.C,R8*%
X139366666Y-97361904D02*
X139100000Y-96980952D01*
X138909523Y-97361904D02*
X138909523Y-96561904D01*
X139214285Y-96561904D01*
X139290476Y-96600000D01*
X139328571Y-96638095D01*
X139366666Y-96714285D01*
X139366666Y-96828571D01*
X139328571Y-96904761D01*
X139290476Y-96942857D01*
X139214285Y-96980952D01*
X138909523Y-96980952D01*
X139823809Y-96904761D02*
X139747619Y-96866666D01*
X139709523Y-96828571D01*
X139671428Y-96752380D01*
X139671428Y-96714285D01*
X139709523Y-96638095D01*
X139747619Y-96600000D01*
X139823809Y-96561904D01*
X139976190Y-96561904D01*
X140052380Y-96600000D01*
X140090476Y-96638095D01*
X140128571Y-96714285D01*
X140128571Y-96752380D01*
X140090476Y-96828571D01*
X140052380Y-96866666D01*
X139976190Y-96904761D01*
X139823809Y-96904761D01*
X139747619Y-96942857D01*
X139709523Y-96980952D01*
X139671428Y-97057142D01*
X139671428Y-97209523D01*
X139709523Y-97285714D01*
X139747619Y-97323809D01*
X139823809Y-97361904D01*
X139976190Y-97361904D01*
X140052380Y-97323809D01*
X140090476Y-97285714D01*
X140128571Y-97209523D01*
X140128571Y-97057142D01*
X140090476Y-96980952D01*
X140052380Y-96942857D01*
X139976190Y-96904761D01*
%TO.C,R9*%
X146866666Y-97361904D02*
X146600000Y-96980952D01*
X146409523Y-97361904D02*
X146409523Y-96561904D01*
X146714285Y-96561904D01*
X146790476Y-96600000D01*
X146828571Y-96638095D01*
X146866666Y-96714285D01*
X146866666Y-96828571D01*
X146828571Y-96904761D01*
X146790476Y-96942857D01*
X146714285Y-96980952D01*
X146409523Y-96980952D01*
X147247619Y-97361904D02*
X147400000Y-97361904D01*
X147476190Y-97323809D01*
X147514285Y-97285714D01*
X147590476Y-97171428D01*
X147628571Y-97019047D01*
X147628571Y-96714285D01*
X147590476Y-96638095D01*
X147552380Y-96600000D01*
X147476190Y-96561904D01*
X147323809Y-96561904D01*
X147247619Y-96600000D01*
X147209523Y-96638095D01*
X147171428Y-96714285D01*
X147171428Y-96904761D01*
X147209523Y-96980952D01*
X147247619Y-97019047D01*
X147323809Y-97057142D01*
X147476190Y-97057142D01*
X147552380Y-97019047D01*
X147590476Y-96980952D01*
X147628571Y-96904761D01*
%TO.C,R10*%
X153735714Y-97361904D02*
X153469047Y-96980952D01*
X153278571Y-97361904D02*
X153278571Y-96561904D01*
X153583333Y-96561904D01*
X153659523Y-96600000D01*
X153697619Y-96638095D01*
X153735714Y-96714285D01*
X153735714Y-96828571D01*
X153697619Y-96904761D01*
X153659523Y-96942857D01*
X153583333Y-96980952D01*
X153278571Y-96980952D01*
X154497619Y-97361904D02*
X154040476Y-97361904D01*
X154269047Y-97361904D02*
X154269047Y-96561904D01*
X154192857Y-96676190D01*
X154116666Y-96752380D01*
X154040476Y-96790476D01*
X154992857Y-96561904D02*
X155069047Y-96561904D01*
X155145238Y-96600000D01*
X155183333Y-96638095D01*
X155221428Y-96714285D01*
X155259523Y-96866666D01*
X155259523Y-97057142D01*
X155221428Y-97209523D01*
X155183333Y-97285714D01*
X155145238Y-97323809D01*
X155069047Y-97361904D01*
X154992857Y-97361904D01*
X154916666Y-97323809D01*
X154878571Y-97285714D01*
X154840476Y-97209523D01*
X154802380Y-97057142D01*
X154802380Y-96866666D01*
X154840476Y-96714285D01*
X154878571Y-96638095D01*
X154916666Y-96600000D01*
X154992857Y-96561904D01*
%TO.C,R11*%
X161235714Y-97361904D02*
X160969047Y-96980952D01*
X160778571Y-97361904D02*
X160778571Y-96561904D01*
X161083333Y-96561904D01*
X161159523Y-96600000D01*
X161197619Y-96638095D01*
X161235714Y-96714285D01*
X161235714Y-96828571D01*
X161197619Y-96904761D01*
X161159523Y-96942857D01*
X161083333Y-96980952D01*
X160778571Y-96980952D01*
X161997619Y-97361904D02*
X161540476Y-97361904D01*
X161769047Y-97361904D02*
X161769047Y-96561904D01*
X161692857Y-96676190D01*
X161616666Y-96752380D01*
X161540476Y-96790476D01*
X162759523Y-97361904D02*
X162302380Y-97361904D01*
X162530952Y-97361904D02*
X162530952Y-96561904D01*
X162454761Y-96676190D01*
X162378571Y-96752380D01*
X162302380Y-96790476D01*
%TO.C,R12*%
X114611904Y-80514285D02*
X114230952Y-80780952D01*
X114611904Y-80971428D02*
X113811904Y-80971428D01*
X113811904Y-80666666D01*
X113850000Y-80590476D01*
X113888095Y-80552380D01*
X113964285Y-80514285D01*
X114078571Y-80514285D01*
X114154761Y-80552380D01*
X114192857Y-80590476D01*
X114230952Y-80666666D01*
X114230952Y-80971428D01*
X114611904Y-79752380D02*
X114611904Y-80209523D01*
X114611904Y-79980952D02*
X113811904Y-79980952D01*
X113926190Y-80057142D01*
X114002380Y-80133333D01*
X114040476Y-80209523D01*
X113888095Y-79447619D02*
X113850000Y-79409523D01*
X113811904Y-79333333D01*
X113811904Y-79142857D01*
X113850000Y-79066666D01*
X113888095Y-79028571D01*
X113964285Y-78990476D01*
X114040476Y-78990476D01*
X114154761Y-79028571D01*
X114611904Y-79485714D01*
X114611904Y-78990476D01*
%TO.C,R13*%
X163861904Y-86014285D02*
X163480952Y-86280952D01*
X163861904Y-86471428D02*
X163061904Y-86471428D01*
X163061904Y-86166666D01*
X163100000Y-86090476D01*
X163138095Y-86052380D01*
X163214285Y-86014285D01*
X163328571Y-86014285D01*
X163404761Y-86052380D01*
X163442857Y-86090476D01*
X163480952Y-86166666D01*
X163480952Y-86471428D01*
X163861904Y-85252380D02*
X163861904Y-85709523D01*
X163861904Y-85480952D02*
X163061904Y-85480952D01*
X163176190Y-85557142D01*
X163252380Y-85633333D01*
X163290476Y-85709523D01*
X163061904Y-84985714D02*
X163061904Y-84490476D01*
X163366666Y-84757142D01*
X163366666Y-84642857D01*
X163404761Y-84566666D01*
X163442857Y-84528571D01*
X163519047Y-84490476D01*
X163709523Y-84490476D01*
X163785714Y-84528571D01*
X163823809Y-84566666D01*
X163861904Y-84642857D01*
X163861904Y-84871428D01*
X163823809Y-84947619D01*
X163785714Y-84985714D01*
%TO.C,R14*%
X165611904Y-86014285D02*
X165230952Y-86280952D01*
X165611904Y-86471428D02*
X164811904Y-86471428D01*
X164811904Y-86166666D01*
X164850000Y-86090476D01*
X164888095Y-86052380D01*
X164964285Y-86014285D01*
X165078571Y-86014285D01*
X165154761Y-86052380D01*
X165192857Y-86090476D01*
X165230952Y-86166666D01*
X165230952Y-86471428D01*
X165611904Y-85252380D02*
X165611904Y-85709523D01*
X165611904Y-85480952D02*
X164811904Y-85480952D01*
X164926190Y-85557142D01*
X165002380Y-85633333D01*
X165040476Y-85709523D01*
X165078571Y-84566666D02*
X165611904Y-84566666D01*
X164773809Y-84757142D02*
X165345238Y-84947619D01*
X165345238Y-84452380D01*
%TO.C,U1*%
X146061904Y-87609523D02*
X146709523Y-87609523D01*
X146785714Y-87571428D01*
X146823809Y-87533333D01*
X146861904Y-87457142D01*
X146861904Y-87304761D01*
X146823809Y-87228571D01*
X146785714Y-87190476D01*
X146709523Y-87152380D01*
X146061904Y-87152380D01*
X146861904Y-86352380D02*
X146861904Y-86809523D01*
X146861904Y-86580952D02*
X146061904Y-86580952D01*
X146176190Y-86657142D01*
X146252380Y-86733333D01*
X146290476Y-86809523D01*
%TO.C,U3*%
X160511904Y-89109523D02*
X161159523Y-89109523D01*
X161235714Y-89071428D01*
X161273809Y-89033333D01*
X161311904Y-88957142D01*
X161311904Y-88804761D01*
X161273809Y-88728571D01*
X161235714Y-88690476D01*
X161159523Y-88652380D01*
X160511904Y-88652380D01*
X160511904Y-88347619D02*
X160511904Y-87852380D01*
X160816666Y-88119047D01*
X160816666Y-88004761D01*
X160854761Y-87928571D01*
X160892857Y-87890476D01*
X160969047Y-87852380D01*
X161159523Y-87852380D01*
X161235714Y-87890476D01*
X161273809Y-87928571D01*
X161311904Y-88004761D01*
X161311904Y-88233333D01*
X161273809Y-88309523D01*
X161235714Y-88347619D01*
%TO.C,U4*%
X120390476Y-83311904D02*
X120390476Y-83959523D01*
X120428571Y-84035714D01*
X120466666Y-84073809D01*
X120542857Y-84111904D01*
X120695238Y-84111904D01*
X120771428Y-84073809D01*
X120809523Y-84035714D01*
X120847619Y-83959523D01*
X120847619Y-83311904D01*
X121571428Y-83578571D02*
X121571428Y-84111904D01*
X121380952Y-83273809D02*
X121190476Y-83845238D01*
X121685714Y-83845238D01*
%TO.C,F1*%
X161842857Y-65266666D02*
X161842857Y-65533333D01*
X162261904Y-65533333D02*
X161461904Y-65533333D01*
X161461904Y-65152380D01*
X162261904Y-64428571D02*
X162261904Y-64885714D01*
X162261904Y-64657142D02*
X161461904Y-64657142D01*
X161576190Y-64733333D01*
X161652380Y-64809523D01*
X161690476Y-64885714D01*
%TO.C,F2*%
X154342857Y-65266666D02*
X154342857Y-65533333D01*
X154761904Y-65533333D02*
X153961904Y-65533333D01*
X153961904Y-65152380D01*
X154038095Y-64885714D02*
X154000000Y-64847619D01*
X153961904Y-64771428D01*
X153961904Y-64580952D01*
X154000000Y-64504761D01*
X154038095Y-64466666D01*
X154114285Y-64428571D01*
X154190476Y-64428571D01*
X154304761Y-64466666D01*
X154761904Y-64923809D01*
X154761904Y-64428571D01*
%TO.C,F3*%
X146842857Y-65266666D02*
X146842857Y-65533333D01*
X147261904Y-65533333D02*
X146461904Y-65533333D01*
X146461904Y-65152380D01*
X146461904Y-64923809D02*
X146461904Y-64428571D01*
X146766666Y-64695238D01*
X146766666Y-64580952D01*
X146804761Y-64504761D01*
X146842857Y-64466666D01*
X146919047Y-64428571D01*
X147109523Y-64428571D01*
X147185714Y-64466666D01*
X147223809Y-64504761D01*
X147261904Y-64580952D01*
X147261904Y-64809523D01*
X147223809Y-64885714D01*
X147185714Y-64923809D01*
%TO.C,F4*%
X139342857Y-65266666D02*
X139342857Y-65533333D01*
X139761904Y-65533333D02*
X138961904Y-65533333D01*
X138961904Y-65152380D01*
X139228571Y-64504761D02*
X139761904Y-64504761D01*
X138923809Y-64695238D02*
X139495238Y-64885714D01*
X139495238Y-64390476D01*
%TO.C,TP11*%
X127673690Y-74061904D02*
X128130833Y-74061904D01*
X127902261Y-74861904D02*
X127902261Y-74061904D01*
X128321309Y-74061904D02*
X128854642Y-74861904D01*
X128854642Y-74061904D02*
X128321309Y-74861904D01*
%TO.C,TP10*%
X128245119Y-72861904D02*
X127978452Y-72480952D01*
X127787976Y-72861904D02*
X127787976Y-72061904D01*
X128092738Y-72061904D01*
X128168928Y-72100000D01*
X128207023Y-72138095D01*
X128245119Y-72214285D01*
X128245119Y-72328571D01*
X128207023Y-72404761D01*
X128168928Y-72442857D01*
X128092738Y-72480952D01*
X127787976Y-72480952D01*
X128511785Y-72061904D02*
X129045119Y-72861904D01*
X129045119Y-72061904D02*
X128511785Y-72861904D01*
%TO.C,TP16*%
X112611904Y-81995119D02*
X111811904Y-81995119D01*
X112192857Y-81995119D02*
X112192857Y-81537976D01*
X112611904Y-81537976D02*
X111811904Y-81537976D01*
%TO.C,TP17*%
X112611904Y-78081071D02*
X112611904Y-78462023D01*
X111811904Y-78462023D01*
%TO.C,C13*%
X166735714Y-91535714D02*
X166697619Y-91573809D01*
X166583333Y-91611904D01*
X166507142Y-91611904D01*
X166392857Y-91573809D01*
X166316666Y-91497619D01*
X166278571Y-91421428D01*
X166240476Y-91269047D01*
X166240476Y-91154761D01*
X166278571Y-91002380D01*
X166316666Y-90926190D01*
X166392857Y-90850000D01*
X166507142Y-90811904D01*
X166583333Y-90811904D01*
X166697619Y-90850000D01*
X166735714Y-90888095D01*
X167497619Y-91611904D02*
X167040476Y-91611904D01*
X167269047Y-91611904D02*
X167269047Y-90811904D01*
X167192857Y-90926190D01*
X167116666Y-91002380D01*
X167040476Y-91040476D01*
X167764285Y-90811904D02*
X168259523Y-90811904D01*
X167992857Y-91116666D01*
X168107142Y-91116666D01*
X168183333Y-91154761D01*
X168221428Y-91192857D01*
X168259523Y-91269047D01*
X168259523Y-91459523D01*
X168221428Y-91535714D01*
X168183333Y-91573809D01*
X168107142Y-91611904D01*
X167878571Y-91611904D01*
X167802380Y-91573809D01*
X167764285Y-91535714D01*
%TO.C,TP1*%
X132519166Y-77061904D02*
X132976309Y-77061904D01*
X132747738Y-77861904D02*
X132747738Y-77061904D01*
X133166785Y-77061904D02*
X133700119Y-77861904D01*
X133700119Y-77061904D02*
X133166785Y-77861904D01*
X134157261Y-77061904D02*
X134309642Y-77061904D01*
X134385833Y-77100000D01*
X134462023Y-77176190D01*
X134500119Y-77328571D01*
X134500119Y-77595238D01*
X134462023Y-77747619D01*
X134385833Y-77823809D01*
X134309642Y-77861904D01*
X134157261Y-77861904D01*
X134081071Y-77823809D01*
X134004880Y-77747619D01*
X133966785Y-77595238D01*
X133966785Y-77328571D01*
X134004880Y-77176190D01*
X134081071Y-77100000D01*
X134157261Y-77061904D01*
%TO.C,TP2*%
X133357261Y-79861904D02*
X133090595Y-79480952D01*
X132900119Y-79861904D02*
X132900119Y-79061904D01*
X133204880Y-79061904D01*
X133281071Y-79100000D01*
X133319166Y-79138095D01*
X133357261Y-79214285D01*
X133357261Y-79328571D01*
X133319166Y-79404761D01*
X133281071Y-79442857D01*
X133204880Y-79480952D01*
X132900119Y-79480952D01*
X133623928Y-79061904D02*
X134157261Y-79861904D01*
X134157261Y-79061904D02*
X133623928Y-79861904D01*
X134462023Y-79861904D02*
X134462023Y-79061904D01*
%TO.C,TP4*%
X167690357Y-71561904D02*
X167842738Y-71561904D01*
X167918928Y-71600000D01*
X167995119Y-71676190D01*
X168033214Y-71828571D01*
X168033214Y-72095238D01*
X167995119Y-72247619D01*
X167918928Y-72323809D01*
X167842738Y-72361904D01*
X167690357Y-72361904D01*
X167614166Y-72323809D01*
X167537976Y-72247619D01*
X167499880Y-72095238D01*
X167499880Y-71828571D01*
X167537976Y-71676190D01*
X167614166Y-71600000D01*
X167690357Y-71561904D01*
X168376071Y-71561904D02*
X168376071Y-72209523D01*
X168414166Y-72285714D01*
X168452261Y-72323809D01*
X168528452Y-72361904D01*
X168680833Y-72361904D01*
X168757023Y-72323809D01*
X168795119Y-72285714D01*
X168833214Y-72209523D01*
X168833214Y-71561904D01*
X169099880Y-71561904D02*
X169557023Y-71561904D01*
X169328452Y-72361904D02*
X169328452Y-71561904D01*
X170242738Y-72361904D02*
X169785595Y-72361904D01*
X170014166Y-72361904D02*
X170014166Y-71561904D01*
X169937976Y-71676190D01*
X169861785Y-71752380D01*
X169785595Y-71790476D01*
%TO.C,TP5*%
X158819047Y-73561904D02*
X158971428Y-73561904D01*
X159047619Y-73600000D01*
X159123809Y-73676190D01*
X159161904Y-73828571D01*
X159161904Y-74095238D01*
X159123809Y-74247619D01*
X159047619Y-74323809D01*
X158971428Y-74361904D01*
X158819047Y-74361904D01*
X158742857Y-74323809D01*
X158666666Y-74247619D01*
X158628571Y-74095238D01*
X158628571Y-73828571D01*
X158666666Y-73676190D01*
X158742857Y-73600000D01*
X158819047Y-73561904D01*
X159504761Y-73561904D02*
X159504761Y-74209523D01*
X159542857Y-74285714D01*
X159580952Y-74323809D01*
X159657142Y-74361904D01*
X159809523Y-74361904D01*
X159885714Y-74323809D01*
X159923809Y-74285714D01*
X159961904Y-74209523D01*
X159961904Y-73561904D01*
X160228571Y-73561904D02*
X160685714Y-73561904D01*
X160457142Y-74361904D02*
X160457142Y-73561904D01*
X160914285Y-73638095D02*
X160952380Y-73600000D01*
X161028571Y-73561904D01*
X161219047Y-73561904D01*
X161295238Y-73600000D01*
X161333333Y-73638095D01*
X161371428Y-73714285D01*
X161371428Y-73790476D01*
X161333333Y-73904761D01*
X160876190Y-74361904D01*
X161371428Y-74361904D01*
%TO.C,TP6*%
X151319047Y-73561904D02*
X151471428Y-73561904D01*
X151547619Y-73600000D01*
X151623809Y-73676190D01*
X151661904Y-73828571D01*
X151661904Y-74095238D01*
X151623809Y-74247619D01*
X151547619Y-74323809D01*
X151471428Y-74361904D01*
X151319047Y-74361904D01*
X151242857Y-74323809D01*
X151166666Y-74247619D01*
X151128571Y-74095238D01*
X151128571Y-73828571D01*
X151166666Y-73676190D01*
X151242857Y-73600000D01*
X151319047Y-73561904D01*
X152004761Y-73561904D02*
X152004761Y-74209523D01*
X152042857Y-74285714D01*
X152080952Y-74323809D01*
X152157142Y-74361904D01*
X152309523Y-74361904D01*
X152385714Y-74323809D01*
X152423809Y-74285714D01*
X152461904Y-74209523D01*
X152461904Y-73561904D01*
X152728571Y-73561904D02*
X153185714Y-73561904D01*
X152957142Y-74361904D02*
X152957142Y-73561904D01*
X153376190Y-73561904D02*
X153871428Y-73561904D01*
X153604761Y-73866666D01*
X153719047Y-73866666D01*
X153795238Y-73904761D01*
X153833333Y-73942857D01*
X153871428Y-74019047D01*
X153871428Y-74209523D01*
X153833333Y-74285714D01*
X153795238Y-74323809D01*
X153719047Y-74361904D01*
X153490476Y-74361904D01*
X153414285Y-74323809D01*
X153376190Y-74285714D01*
%TO.C,TP7*%
X144319047Y-73311904D02*
X144471428Y-73311904D01*
X144547619Y-73350000D01*
X144623809Y-73426190D01*
X144661904Y-73578571D01*
X144661904Y-73845238D01*
X144623809Y-73997619D01*
X144547619Y-74073809D01*
X144471428Y-74111904D01*
X144319047Y-74111904D01*
X144242857Y-74073809D01*
X144166666Y-73997619D01*
X144128571Y-73845238D01*
X144128571Y-73578571D01*
X144166666Y-73426190D01*
X144242857Y-73350000D01*
X144319047Y-73311904D01*
X145004761Y-73311904D02*
X145004761Y-73959523D01*
X145042857Y-74035714D01*
X145080952Y-74073809D01*
X145157142Y-74111904D01*
X145309523Y-74111904D01*
X145385714Y-74073809D01*
X145423809Y-74035714D01*
X145461904Y-73959523D01*
X145461904Y-73311904D01*
X145728571Y-73311904D02*
X146185714Y-73311904D01*
X145957142Y-74111904D02*
X145957142Y-73311904D01*
X146795238Y-73578571D02*
X146795238Y-74111904D01*
X146604761Y-73273809D02*
X146414285Y-73845238D01*
X146909523Y-73845238D01*
%TO.C,TP8*%
X152816666Y-83861904D02*
X152550000Y-83480952D01*
X152359523Y-83861904D02*
X152359523Y-83061904D01*
X152664285Y-83061904D01*
X152740476Y-83100000D01*
X152778571Y-83138095D01*
X152816666Y-83214285D01*
X152816666Y-83328571D01*
X152778571Y-83404761D01*
X152740476Y-83442857D01*
X152664285Y-83480952D01*
X152359523Y-83480952D01*
X153578571Y-83100000D02*
X153502380Y-83061904D01*
X153388095Y-83061904D01*
X153273809Y-83100000D01*
X153197619Y-83176190D01*
X153159523Y-83252380D01*
X153121428Y-83404761D01*
X153121428Y-83519047D01*
X153159523Y-83671428D01*
X153197619Y-83747619D01*
X153273809Y-83823809D01*
X153388095Y-83861904D01*
X153464285Y-83861904D01*
X153578571Y-83823809D01*
X153616666Y-83785714D01*
X153616666Y-83519047D01*
X153464285Y-83519047D01*
X154226190Y-83442857D02*
X154340476Y-83480952D01*
X154378571Y-83519047D01*
X154416666Y-83595238D01*
X154416666Y-83709523D01*
X154378571Y-83785714D01*
X154340476Y-83823809D01*
X154264285Y-83861904D01*
X153959523Y-83861904D01*
X153959523Y-83061904D01*
X154226190Y-83061904D01*
X154302380Y-83100000D01*
X154340476Y-83138095D01*
X154378571Y-83214285D01*
X154378571Y-83290476D01*
X154340476Y-83366666D01*
X154302380Y-83404761D01*
X154226190Y-83442857D01*
X153959523Y-83442857D01*
X155178571Y-83861904D02*
X154721428Y-83861904D01*
X154950000Y-83861904D02*
X154950000Y-83061904D01*
X154873809Y-83176190D01*
X154797619Y-83252380D01*
X154721428Y-83290476D01*
%TO.C,TP9*%
X154316666Y-82111904D02*
X154050000Y-81730952D01*
X153859523Y-82111904D02*
X153859523Y-81311904D01*
X154164285Y-81311904D01*
X154240476Y-81350000D01*
X154278571Y-81388095D01*
X154316666Y-81464285D01*
X154316666Y-81578571D01*
X154278571Y-81654761D01*
X154240476Y-81692857D01*
X154164285Y-81730952D01*
X153859523Y-81730952D01*
X155078571Y-81350000D02*
X155002380Y-81311904D01*
X154888095Y-81311904D01*
X154773809Y-81350000D01*
X154697619Y-81426190D01*
X154659523Y-81502380D01*
X154621428Y-81654761D01*
X154621428Y-81769047D01*
X154659523Y-81921428D01*
X154697619Y-81997619D01*
X154773809Y-82073809D01*
X154888095Y-82111904D01*
X154964285Y-82111904D01*
X155078571Y-82073809D01*
X155116666Y-82035714D01*
X155116666Y-81769047D01*
X154964285Y-81769047D01*
X155726190Y-81692857D02*
X155840476Y-81730952D01*
X155878571Y-81769047D01*
X155916666Y-81845238D01*
X155916666Y-81959523D01*
X155878571Y-82035714D01*
X155840476Y-82073809D01*
X155764285Y-82111904D01*
X155459523Y-82111904D01*
X155459523Y-81311904D01*
X155726190Y-81311904D01*
X155802380Y-81350000D01*
X155840476Y-81388095D01*
X155878571Y-81464285D01*
X155878571Y-81540476D01*
X155840476Y-81616666D01*
X155802380Y-81654761D01*
X155726190Y-81692857D01*
X155459523Y-81692857D01*
X156221428Y-81388095D02*
X156259523Y-81350000D01*
X156335714Y-81311904D01*
X156526190Y-81311904D01*
X156602380Y-81350000D01*
X156640476Y-81388095D01*
X156678571Y-81464285D01*
X156678571Y-81540476D01*
X156640476Y-81654761D01*
X156183333Y-82111904D01*
X156678571Y-82111904D01*
%TO.C,TP12*%
X149200000Y-92111904D02*
X149200000Y-91311904D01*
X149580952Y-92111904D02*
X149580952Y-91311904D01*
X150038095Y-92111904D01*
X150038095Y-91311904D01*
X150838095Y-92111904D02*
X150380952Y-92111904D01*
X150609523Y-92111904D02*
X150609523Y-91311904D01*
X150533333Y-91426190D01*
X150457142Y-91502380D01*
X150380952Y-91540476D01*
%TO.C,TP13*%
X149700000Y-90111904D02*
X149700000Y-89311904D01*
X150080952Y-90111904D02*
X150080952Y-89311904D01*
X150538095Y-90111904D01*
X150538095Y-89311904D01*
X150880952Y-89388095D02*
X150919047Y-89350000D01*
X150995238Y-89311904D01*
X151185714Y-89311904D01*
X151261904Y-89350000D01*
X151300000Y-89388095D01*
X151338095Y-89464285D01*
X151338095Y-89540476D01*
X151300000Y-89654761D01*
X150842857Y-90111904D01*
X151338095Y-90111904D01*
%TO.C,TP14*%
X150200000Y-88111904D02*
X150200000Y-87311904D01*
X150580952Y-88111904D02*
X150580952Y-87311904D01*
X151038095Y-88111904D01*
X151038095Y-87311904D01*
X151342857Y-87311904D02*
X151838095Y-87311904D01*
X151571428Y-87616666D01*
X151685714Y-87616666D01*
X151761904Y-87654761D01*
X151800000Y-87692857D01*
X151838095Y-87769047D01*
X151838095Y-87959523D01*
X151800000Y-88035714D01*
X151761904Y-88073809D01*
X151685714Y-88111904D01*
X151457142Y-88111904D01*
X151380952Y-88073809D01*
X151342857Y-88035714D01*
%TO.C,TP15*%
X150700000Y-86111904D02*
X150700000Y-85311904D01*
X151080952Y-86111904D02*
X151080952Y-85311904D01*
X151538095Y-86111904D01*
X151538095Y-85311904D01*
X152261904Y-85578571D02*
X152261904Y-86111904D01*
X152071428Y-85273809D02*
X151880952Y-85845238D01*
X152376190Y-85845238D01*
%TO.C,C15*%
X136785714Y-61764285D02*
X136823809Y-61802380D01*
X136861904Y-61916666D01*
X136861904Y-61992857D01*
X136823809Y-62107142D01*
X136747619Y-62183333D01*
X136671428Y-62221428D01*
X136519047Y-62259523D01*
X136404761Y-62259523D01*
X136252380Y-62221428D01*
X136176190Y-62183333D01*
X136100000Y-62107142D01*
X136061904Y-61992857D01*
X136061904Y-61916666D01*
X136100000Y-61802380D01*
X136138095Y-61764285D01*
X136861904Y-61002380D02*
X136861904Y-61459523D01*
X136861904Y-61230952D02*
X136061904Y-61230952D01*
X136176190Y-61307142D01*
X136252380Y-61383333D01*
X136290476Y-61459523D01*
X136061904Y-60278571D02*
X136061904Y-60659523D01*
X136442857Y-60697619D01*
X136404761Y-60659523D01*
X136366666Y-60583333D01*
X136366666Y-60392857D01*
X136404761Y-60316666D01*
X136442857Y-60278571D01*
X136519047Y-60240476D01*
X136709523Y-60240476D01*
X136785714Y-60278571D01*
X136823809Y-60316666D01*
X136861904Y-60392857D01*
X136861904Y-60583333D01*
X136823809Y-60659523D01*
X136785714Y-60697619D01*
%TD*%
M02*
