%TF.GenerationSoftware,KiCad,Pcbnew,5.1.10*%
%TF.CreationDate,2021-06-13T22:55:49-04:00*%
%TF.ProjectId,led-controller,6c65642d-636f-46e7-9472-6f6c6c65722e,v1.0*%
%TF.SameCoordinates,Original*%
%TF.FileFunction,Soldermask,Top*%
%TF.FilePolarity,Negative*%
%FSLAX46Y46*%
G04 Gerber Fmt 4.6, Leading zero omitted, Abs format (unit mm)*
G04 Created by KiCad (PCBNEW 5.1.10) date 2021-06-13 22:55:49*
%MOMM*%
%LPD*%
G01*
G04 APERTURE LIST*
%ADD10C,0.250000*%
%ADD11C,0.400000*%
%ADD12C,0.010000*%
%ADD13R,2.000000X3.800000*%
%ADD14R,2.000000X1.500000*%
%ADD15C,1.600000*%
%ADD16R,1.600000X1.600000*%
%ADD17R,1.700000X1.700000*%
%ADD18O,1.700000X1.700000*%
%ADD19O,2.000000X1.700000*%
%ADD20C,1.200000*%
%ADD21O,1.950000X1.700000*%
%ADD22O,1.700000X1.950000*%
%ADD23C,0.100000*%
%ADD24R,0.800000X0.900000*%
%ADD25C,1.000000*%
%ADD26C,3.200000*%
G04 APERTURE END LIST*
D10*
X127898809Y-105002976D02*
X127898809Y-103752976D01*
X128851190Y-103752976D02*
X128851190Y-104645833D01*
X128791666Y-104824404D01*
X128672619Y-104943452D01*
X128494047Y-105002976D01*
X128375000Y-105002976D01*
X130101190Y-103812500D02*
X129982142Y-103752976D01*
X129803571Y-103752976D01*
X129625000Y-103812500D01*
X129505952Y-103931547D01*
X129446428Y-104050595D01*
X129386904Y-104288690D01*
X129386904Y-104467261D01*
X129446428Y-104705357D01*
X129505952Y-104824404D01*
X129625000Y-104943452D01*
X129803571Y-105002976D01*
X129922619Y-105002976D01*
X130101190Y-104943452D01*
X130160714Y-104883928D01*
X130160714Y-104467261D01*
X129922619Y-104467261D01*
X122928571Y-105997023D02*
X122988095Y-105937500D01*
X123107142Y-105877976D01*
X123404761Y-105877976D01*
X123523809Y-105937500D01*
X123583333Y-105997023D01*
X123642857Y-106116071D01*
X123642857Y-106235119D01*
X123583333Y-106413690D01*
X122869047Y-107127976D01*
X123642857Y-107127976D01*
X124416666Y-105877976D02*
X124535714Y-105877976D01*
X124654761Y-105937500D01*
X124714285Y-105997023D01*
X124773809Y-106116071D01*
X124833333Y-106354166D01*
X124833333Y-106651785D01*
X124773809Y-106889880D01*
X124714285Y-107008928D01*
X124654761Y-107068452D01*
X124535714Y-107127976D01*
X124416666Y-107127976D01*
X124297619Y-107068452D01*
X124238095Y-107008928D01*
X124178571Y-106889880D01*
X124119047Y-106651785D01*
X124119047Y-106354166D01*
X124178571Y-106116071D01*
X124238095Y-105997023D01*
X124297619Y-105937500D01*
X124416666Y-105877976D01*
X125309523Y-105997023D02*
X125369047Y-105937500D01*
X125488095Y-105877976D01*
X125785714Y-105877976D01*
X125904761Y-105937500D01*
X125964285Y-105997023D01*
X126023809Y-106116071D01*
X126023809Y-106235119D01*
X125964285Y-106413690D01*
X125250000Y-107127976D01*
X126023809Y-107127976D01*
X127214285Y-107127976D02*
X126500000Y-107127976D01*
X126857142Y-107127976D02*
X126857142Y-105877976D01*
X126738095Y-106056547D01*
X126619047Y-106175595D01*
X126500000Y-106235119D01*
X127750000Y-106651785D02*
X128702380Y-106651785D01*
X129535714Y-105877976D02*
X129654761Y-105877976D01*
X129773809Y-105937500D01*
X129833333Y-105997023D01*
X129892857Y-106116071D01*
X129952380Y-106354166D01*
X129952380Y-106651785D01*
X129892857Y-106889880D01*
X129833333Y-107008928D01*
X129773809Y-107068452D01*
X129654761Y-107127976D01*
X129535714Y-107127976D01*
X129416666Y-107068452D01*
X129357142Y-107008928D01*
X129297619Y-106889880D01*
X129238095Y-106651785D01*
X129238095Y-106354166D01*
X129297619Y-106116071D01*
X129357142Y-105997023D01*
X129416666Y-105937500D01*
X129535714Y-105877976D01*
X131023809Y-105877976D02*
X130785714Y-105877976D01*
X130666666Y-105937500D01*
X130607142Y-105997023D01*
X130488095Y-106175595D01*
X130428571Y-106413690D01*
X130428571Y-106889880D01*
X130488095Y-107008928D01*
X130547619Y-107068452D01*
X130666666Y-107127976D01*
X130904761Y-107127976D01*
X131023809Y-107068452D01*
X131083333Y-107008928D01*
X131142857Y-106889880D01*
X131142857Y-106592261D01*
X131083333Y-106473214D01*
X131023809Y-106413690D01*
X130904761Y-106354166D01*
X130666666Y-106354166D01*
X130547619Y-106413690D01*
X130488095Y-106473214D01*
X130428571Y-106592261D01*
X131678571Y-106651785D02*
X132630952Y-106651785D01*
X133880952Y-107127976D02*
X133166666Y-107127976D01*
X133523809Y-107127976D02*
X133523809Y-105877976D01*
X133404761Y-106056547D01*
X133285714Y-106175595D01*
X133166666Y-106235119D01*
X134297619Y-105877976D02*
X135071428Y-105877976D01*
X134654761Y-106354166D01*
X134833333Y-106354166D01*
X134952380Y-106413690D01*
X135011904Y-106473214D01*
X135071428Y-106592261D01*
X135071428Y-106889880D01*
X135011904Y-107008928D01*
X134952380Y-107068452D01*
X134833333Y-107127976D01*
X134476190Y-107127976D01*
X134357142Y-107068452D01*
X134297619Y-107008928D01*
X115555357Y-68002976D02*
X114960119Y-68002976D01*
X114960119Y-66752976D01*
X115972023Y-67348214D02*
X116388690Y-67348214D01*
X116567261Y-68002976D02*
X115972023Y-68002976D01*
X115972023Y-66752976D01*
X116567261Y-66752976D01*
X117102976Y-68002976D02*
X117102976Y-66752976D01*
X117400595Y-66752976D01*
X117579166Y-66812500D01*
X117698214Y-66931547D01*
X117757738Y-67050595D01*
X117817261Y-67288690D01*
X117817261Y-67467261D01*
X117757738Y-67705357D01*
X117698214Y-67824404D01*
X117579166Y-67943452D01*
X117400595Y-68002976D01*
X117102976Y-68002976D01*
X120019642Y-67883928D02*
X119960119Y-67943452D01*
X119781547Y-68002976D01*
X119662500Y-68002976D01*
X119483928Y-67943452D01*
X119364880Y-67824404D01*
X119305357Y-67705357D01*
X119245833Y-67467261D01*
X119245833Y-67288690D01*
X119305357Y-67050595D01*
X119364880Y-66931547D01*
X119483928Y-66812500D01*
X119662500Y-66752976D01*
X119781547Y-66752976D01*
X119960119Y-66812500D01*
X120019642Y-66872023D01*
X120793452Y-66752976D02*
X121031547Y-66752976D01*
X121150595Y-66812500D01*
X121269642Y-66931547D01*
X121329166Y-67169642D01*
X121329166Y-67586309D01*
X121269642Y-67824404D01*
X121150595Y-67943452D01*
X121031547Y-68002976D01*
X120793452Y-68002976D01*
X120674404Y-67943452D01*
X120555357Y-67824404D01*
X120495833Y-67586309D01*
X120495833Y-67169642D01*
X120555357Y-66931547D01*
X120674404Y-66812500D01*
X120793452Y-66752976D01*
X121864880Y-68002976D02*
X121864880Y-66752976D01*
X122579166Y-68002976D01*
X122579166Y-66752976D01*
X122995833Y-66752976D02*
X123710119Y-66752976D01*
X123352976Y-68002976D02*
X123352976Y-66752976D01*
X124841071Y-68002976D02*
X124424404Y-67407738D01*
X124126785Y-68002976D02*
X124126785Y-66752976D01*
X124602976Y-66752976D01*
X124722023Y-66812500D01*
X124781547Y-66872023D01*
X124841071Y-66991071D01*
X124841071Y-67169642D01*
X124781547Y-67288690D01*
X124722023Y-67348214D01*
X124602976Y-67407738D01*
X124126785Y-67407738D01*
X125614880Y-66752976D02*
X125852976Y-66752976D01*
X125972023Y-66812500D01*
X126091071Y-66931547D01*
X126150595Y-67169642D01*
X126150595Y-67586309D01*
X126091071Y-67824404D01*
X125972023Y-67943452D01*
X125852976Y-68002976D01*
X125614880Y-68002976D01*
X125495833Y-67943452D01*
X125376785Y-67824404D01*
X125317261Y-67586309D01*
X125317261Y-67169642D01*
X125376785Y-66931547D01*
X125495833Y-66812500D01*
X125614880Y-66752976D01*
X127281547Y-68002976D02*
X126686309Y-68002976D01*
X126686309Y-66752976D01*
X128650595Y-68002976D02*
X128650595Y-66752976D01*
X129067261Y-67645833D01*
X129483928Y-66752976D01*
X129483928Y-68002976D01*
X130317261Y-66752976D02*
X130555357Y-66752976D01*
X130674404Y-66812500D01*
X130793452Y-66931547D01*
X130852976Y-67169642D01*
X130852976Y-67586309D01*
X130793452Y-67824404D01*
X130674404Y-67943452D01*
X130555357Y-68002976D01*
X130317261Y-68002976D01*
X130198214Y-67943452D01*
X130079166Y-67824404D01*
X130019642Y-67586309D01*
X130019642Y-67169642D01*
X130079166Y-66931547D01*
X130198214Y-66812500D01*
X130317261Y-66752976D01*
X131388690Y-68002976D02*
X131388690Y-66752976D01*
X131686309Y-66752976D01*
X131864880Y-66812500D01*
X131983928Y-66931547D01*
X132043452Y-67050595D01*
X132102976Y-67288690D01*
X132102976Y-67467261D01*
X132043452Y-67705357D01*
X131983928Y-67824404D01*
X131864880Y-67943452D01*
X131686309Y-68002976D01*
X131388690Y-68002976D01*
X132638690Y-66752976D02*
X132638690Y-67764880D01*
X132698214Y-67883928D01*
X132757738Y-67943452D01*
X132876785Y-68002976D01*
X133114880Y-68002976D01*
X133233928Y-67943452D01*
X133293452Y-67883928D01*
X133352976Y-67764880D01*
X133352976Y-66752976D01*
X134543452Y-68002976D02*
X133948214Y-68002976D01*
X133948214Y-66752976D01*
X134960119Y-67348214D02*
X135376785Y-67348214D01*
X135555357Y-68002976D02*
X134960119Y-68002976D01*
X134960119Y-66752976D01*
X135555357Y-66752976D01*
X114841071Y-69294642D02*
X115138690Y-70127976D01*
X115436309Y-69294642D01*
X116567261Y-70127976D02*
X115852976Y-70127976D01*
X116210119Y-70127976D02*
X116210119Y-68877976D01*
X116091071Y-69056547D01*
X115972023Y-69175595D01*
X115852976Y-69235119D01*
X117102976Y-70008928D02*
X117162500Y-70068452D01*
X117102976Y-70127976D01*
X117043452Y-70068452D01*
X117102976Y-70008928D01*
X117102976Y-70127976D01*
X117936309Y-68877976D02*
X118055357Y-68877976D01*
X118174404Y-68937500D01*
X118233928Y-68997023D01*
X118293452Y-69116071D01*
X118352976Y-69354166D01*
X118352976Y-69651785D01*
X118293452Y-69889880D01*
X118233928Y-70008928D01*
X118174404Y-70068452D01*
X118055357Y-70127976D01*
X117936309Y-70127976D01*
X117817261Y-70068452D01*
X117757738Y-70008928D01*
X117698214Y-69889880D01*
X117638690Y-69651785D01*
X117638690Y-69354166D01*
X117698214Y-69116071D01*
X117757738Y-68997023D01*
X117817261Y-68937500D01*
X117936309Y-68877976D01*
D11*
X115166250Y-65291666D02*
X115999583Y-65291666D01*
X114937083Y-65791666D02*
X115739166Y-64041666D01*
X116103750Y-65791666D01*
X116905833Y-64041666D02*
X116728750Y-65458333D01*
X116791250Y-65625000D01*
X116864166Y-65708333D01*
X117020416Y-65791666D01*
X117353750Y-65791666D01*
X117530833Y-65708333D01*
X117624583Y-65625000D01*
X117728750Y-65458333D01*
X117905833Y-64041666D01*
X118489166Y-64041666D02*
X119489166Y-64041666D01*
X118770416Y-65791666D02*
X118989166Y-64041666D01*
X120405833Y-64041666D02*
X120739166Y-64041666D01*
X120895416Y-64125000D01*
X121041250Y-64291666D01*
X121082916Y-64625000D01*
X121010000Y-65208333D01*
X120885000Y-65541666D01*
X120697500Y-65708333D01*
X120520416Y-65791666D01*
X120187083Y-65791666D01*
X120030833Y-65708333D01*
X119885000Y-65541666D01*
X119843333Y-65208333D01*
X119916250Y-64625000D01*
X120041250Y-64291666D01*
X120228750Y-64125000D01*
X120405833Y-64041666D01*
X121655833Y-64041666D02*
X122655833Y-64041666D01*
X121937083Y-65791666D02*
X122155833Y-64041666D01*
X122999583Y-65291666D02*
X123832916Y-65291666D01*
X122770416Y-65791666D02*
X123572500Y-64041666D01*
X123937083Y-65791666D01*
X124520416Y-65791666D02*
X124739166Y-64041666D01*
X125520416Y-65791666D01*
X125739166Y-64041666D01*
X126353750Y-65791666D02*
X126572500Y-64041666D01*
X127353750Y-65791666D02*
X126728750Y-64791666D01*
X127572500Y-64041666D02*
X126447500Y-65041666D01*
D12*
%TO.C,REF\u002A\u002A*%
G36*
X131591241Y-96469184D02*
G01*
X131617753Y-96482282D01*
X131650447Y-96505106D01*
X131674275Y-96529996D01*
X131690594Y-96561249D01*
X131700760Y-96603166D01*
X131706128Y-96660044D01*
X131708056Y-96736184D01*
X131708169Y-96768917D01*
X131707839Y-96840656D01*
X131706473Y-96891927D01*
X131703500Y-96927404D01*
X131698351Y-96951763D01*
X131690457Y-96969680D01*
X131682243Y-96981902D01*
X131629813Y-97033905D01*
X131568070Y-97065184D01*
X131501464Y-97074592D01*
X131434442Y-97060980D01*
X131413208Y-97051354D01*
X131362376Y-97024859D01*
X131362376Y-97440052D01*
X131399475Y-97420868D01*
X131448357Y-97406025D01*
X131508439Y-97402222D01*
X131568436Y-97409243D01*
X131613744Y-97425013D01*
X131651325Y-97455047D01*
X131683436Y-97498024D01*
X131685850Y-97502436D01*
X131696033Y-97523221D01*
X131703470Y-97544170D01*
X131708589Y-97569548D01*
X131711819Y-97603618D01*
X131713587Y-97650641D01*
X131714323Y-97714882D01*
X131714456Y-97787176D01*
X131714456Y-98017822D01*
X131576139Y-98017822D01*
X131576139Y-97592533D01*
X131537451Y-97559979D01*
X131497262Y-97533940D01*
X131459203Y-97529205D01*
X131420934Y-97541389D01*
X131400538Y-97553320D01*
X131385358Y-97570313D01*
X131374562Y-97595995D01*
X131367317Y-97633991D01*
X131362792Y-97687926D01*
X131360156Y-97761425D01*
X131359228Y-97810347D01*
X131356089Y-98011535D01*
X131290074Y-98015336D01*
X131224060Y-98019136D01*
X131224060Y-96770650D01*
X131362376Y-96770650D01*
X131365903Y-96840254D01*
X131377785Y-96888569D01*
X131399980Y-96918631D01*
X131434441Y-96933471D01*
X131469258Y-96936436D01*
X131508671Y-96933028D01*
X131534829Y-96919617D01*
X131551186Y-96901896D01*
X131564063Y-96882835D01*
X131571728Y-96861601D01*
X131575139Y-96831849D01*
X131575251Y-96787236D01*
X131574103Y-96749880D01*
X131571468Y-96693604D01*
X131567544Y-96656658D01*
X131560937Y-96633223D01*
X131550251Y-96617480D01*
X131540167Y-96608380D01*
X131498030Y-96588537D01*
X131448160Y-96585332D01*
X131419524Y-96592168D01*
X131391172Y-96616464D01*
X131372391Y-96663728D01*
X131363288Y-96733624D01*
X131362376Y-96770650D01*
X131224060Y-96770650D01*
X131224060Y-96458614D01*
X131293218Y-96458614D01*
X131334740Y-96460256D01*
X131356162Y-96466087D01*
X131362374Y-96477461D01*
X131362376Y-96477798D01*
X131365258Y-96488938D01*
X131377970Y-96487673D01*
X131403243Y-96475433D01*
X131462131Y-96456707D01*
X131528385Y-96454739D01*
X131591241Y-96469184D01*
G37*
X131591241Y-96469184D02*
X131617753Y-96482282D01*
X131650447Y-96505106D01*
X131674275Y-96529996D01*
X131690594Y-96561249D01*
X131700760Y-96603166D01*
X131706128Y-96660044D01*
X131708056Y-96736184D01*
X131708169Y-96768917D01*
X131707839Y-96840656D01*
X131706473Y-96891927D01*
X131703500Y-96927404D01*
X131698351Y-96951763D01*
X131690457Y-96969680D01*
X131682243Y-96981902D01*
X131629813Y-97033905D01*
X131568070Y-97065184D01*
X131501464Y-97074592D01*
X131434442Y-97060980D01*
X131413208Y-97051354D01*
X131362376Y-97024859D01*
X131362376Y-97440052D01*
X131399475Y-97420868D01*
X131448357Y-97406025D01*
X131508439Y-97402222D01*
X131568436Y-97409243D01*
X131613744Y-97425013D01*
X131651325Y-97455047D01*
X131683436Y-97498024D01*
X131685850Y-97502436D01*
X131696033Y-97523221D01*
X131703470Y-97544170D01*
X131708589Y-97569548D01*
X131711819Y-97603618D01*
X131713587Y-97650641D01*
X131714323Y-97714882D01*
X131714456Y-97787176D01*
X131714456Y-98017822D01*
X131576139Y-98017822D01*
X131576139Y-97592533D01*
X131537451Y-97559979D01*
X131497262Y-97533940D01*
X131459203Y-97529205D01*
X131420934Y-97541389D01*
X131400538Y-97553320D01*
X131385358Y-97570313D01*
X131374562Y-97595995D01*
X131367317Y-97633991D01*
X131362792Y-97687926D01*
X131360156Y-97761425D01*
X131359228Y-97810347D01*
X131356089Y-98011535D01*
X131290074Y-98015336D01*
X131224060Y-98019136D01*
X131224060Y-96770650D01*
X131362376Y-96770650D01*
X131365903Y-96840254D01*
X131377785Y-96888569D01*
X131399980Y-96918631D01*
X131434441Y-96933471D01*
X131469258Y-96936436D01*
X131508671Y-96933028D01*
X131534829Y-96919617D01*
X131551186Y-96901896D01*
X131564063Y-96882835D01*
X131571728Y-96861601D01*
X131575139Y-96831849D01*
X131575251Y-96787236D01*
X131574103Y-96749880D01*
X131571468Y-96693604D01*
X131567544Y-96656658D01*
X131560937Y-96633223D01*
X131550251Y-96617480D01*
X131540167Y-96608380D01*
X131498030Y-96588537D01*
X131448160Y-96585332D01*
X131419524Y-96592168D01*
X131391172Y-96616464D01*
X131372391Y-96663728D01*
X131363288Y-96733624D01*
X131362376Y-96770650D01*
X131224060Y-96770650D01*
X131224060Y-96458614D01*
X131293218Y-96458614D01*
X131334740Y-96460256D01*
X131356162Y-96466087D01*
X131362374Y-96477461D01*
X131362376Y-96477798D01*
X131365258Y-96488938D01*
X131377970Y-96487673D01*
X131403243Y-96475433D01*
X131462131Y-96456707D01*
X131528385Y-96454739D01*
X131591241Y-96469184D01*
G36*
X132115790Y-97406555D02*
G01*
X132174945Y-97422339D01*
X132219977Y-97450948D01*
X132251754Y-97488419D01*
X132261634Y-97504411D01*
X132268927Y-97521163D01*
X132274026Y-97542592D01*
X132277321Y-97572616D01*
X132279203Y-97615154D01*
X132280063Y-97674122D01*
X132280293Y-97753440D01*
X132280297Y-97774484D01*
X132280297Y-98017822D01*
X132219941Y-98017822D01*
X132181443Y-98015126D01*
X132152977Y-98008295D01*
X132145845Y-98004083D01*
X132126348Y-97996813D01*
X132106434Y-98004083D01*
X132073647Y-98013160D01*
X132026022Y-98016813D01*
X131973236Y-98015228D01*
X131924964Y-98008589D01*
X131896782Y-98000072D01*
X131842247Y-97965063D01*
X131808165Y-97916479D01*
X131792843Y-97851882D01*
X131792701Y-97850223D01*
X131794045Y-97821566D01*
X131915644Y-97821566D01*
X131926274Y-97854161D01*
X131943590Y-97872505D01*
X131978348Y-97886379D01*
X132024227Y-97891917D01*
X132071012Y-97889191D01*
X132108486Y-97878274D01*
X132118985Y-97871269D01*
X132137332Y-97838904D01*
X132141980Y-97802111D01*
X132141980Y-97753763D01*
X132072418Y-97753763D01*
X132006333Y-97758850D01*
X131956236Y-97773263D01*
X131925071Y-97795729D01*
X131915644Y-97821566D01*
X131794045Y-97821566D01*
X131796013Y-97779647D01*
X131819290Y-97723845D01*
X131863052Y-97681647D01*
X131869101Y-97677808D01*
X131895093Y-97665309D01*
X131927265Y-97657740D01*
X131972240Y-97654061D01*
X132025669Y-97653216D01*
X132141980Y-97653169D01*
X132141980Y-97604411D01*
X132137047Y-97566581D01*
X132124457Y-97541236D01*
X132122983Y-97539887D01*
X132094966Y-97528800D01*
X132052674Y-97524503D01*
X132005936Y-97526615D01*
X131964582Y-97534756D01*
X131940043Y-97546965D01*
X131926747Y-97556746D01*
X131912706Y-97558613D01*
X131893329Y-97550600D01*
X131864024Y-97530739D01*
X131820197Y-97497063D01*
X131816175Y-97493909D01*
X131818236Y-97482236D01*
X131835432Y-97462822D01*
X131861567Y-97441248D01*
X131890448Y-97423096D01*
X131899522Y-97418809D01*
X131932620Y-97410256D01*
X131981120Y-97404155D01*
X132035305Y-97401708D01*
X132037839Y-97401703D01*
X132115790Y-97406555D01*
G37*
X132115790Y-97406555D02*
X132174945Y-97422339D01*
X132219977Y-97450948D01*
X132251754Y-97488419D01*
X132261634Y-97504411D01*
X132268927Y-97521163D01*
X132274026Y-97542592D01*
X132277321Y-97572616D01*
X132279203Y-97615154D01*
X132280063Y-97674122D01*
X132280293Y-97753440D01*
X132280297Y-97774484D01*
X132280297Y-98017822D01*
X132219941Y-98017822D01*
X132181443Y-98015126D01*
X132152977Y-98008295D01*
X132145845Y-98004083D01*
X132126348Y-97996813D01*
X132106434Y-98004083D01*
X132073647Y-98013160D01*
X132026022Y-98016813D01*
X131973236Y-98015228D01*
X131924964Y-98008589D01*
X131896782Y-98000072D01*
X131842247Y-97965063D01*
X131808165Y-97916479D01*
X131792843Y-97851882D01*
X131792701Y-97850223D01*
X131794045Y-97821566D01*
X131915644Y-97821566D01*
X131926274Y-97854161D01*
X131943590Y-97872505D01*
X131978348Y-97886379D01*
X132024227Y-97891917D01*
X132071012Y-97889191D01*
X132108486Y-97878274D01*
X132118985Y-97871269D01*
X132137332Y-97838904D01*
X132141980Y-97802111D01*
X132141980Y-97753763D01*
X132072418Y-97753763D01*
X132006333Y-97758850D01*
X131956236Y-97773263D01*
X131925071Y-97795729D01*
X131915644Y-97821566D01*
X131794045Y-97821566D01*
X131796013Y-97779647D01*
X131819290Y-97723845D01*
X131863052Y-97681647D01*
X131869101Y-97677808D01*
X131895093Y-97665309D01*
X131927265Y-97657740D01*
X131972240Y-97654061D01*
X132025669Y-97653216D01*
X132141980Y-97653169D01*
X132141980Y-97604411D01*
X132137047Y-97566581D01*
X132124457Y-97541236D01*
X132122983Y-97539887D01*
X132094966Y-97528800D01*
X132052674Y-97524503D01*
X132005936Y-97526615D01*
X131964582Y-97534756D01*
X131940043Y-97546965D01*
X131926747Y-97556746D01*
X131912706Y-97558613D01*
X131893329Y-97550600D01*
X131864024Y-97530739D01*
X131820197Y-97497063D01*
X131816175Y-97493909D01*
X131818236Y-97482236D01*
X131835432Y-97462822D01*
X131861567Y-97441248D01*
X131890448Y-97423096D01*
X131899522Y-97418809D01*
X131932620Y-97410256D01*
X131981120Y-97404155D01*
X132035305Y-97401708D01*
X132037839Y-97401703D01*
X132115790Y-97406555D01*
G36*
X132506644Y-97403020D02*
G01*
X132525461Y-97408660D01*
X132531527Y-97421053D01*
X132531782Y-97426647D01*
X132532871Y-97442230D01*
X132540368Y-97444676D01*
X132560619Y-97433993D01*
X132572649Y-97426694D01*
X132610600Y-97411063D01*
X132655928Y-97403334D01*
X132703456Y-97402740D01*
X132748005Y-97408513D01*
X132784398Y-97419884D01*
X132807457Y-97436088D01*
X132812004Y-97456355D01*
X132809709Y-97461843D01*
X132792980Y-97484626D01*
X132767037Y-97512647D01*
X132762345Y-97517177D01*
X132737617Y-97538005D01*
X132716282Y-97544735D01*
X132686445Y-97540038D01*
X132674492Y-97536917D01*
X132637295Y-97529421D01*
X132611141Y-97532792D01*
X132589054Y-97544681D01*
X132568822Y-97560635D01*
X132553921Y-97580700D01*
X132543566Y-97608702D01*
X132536971Y-97648467D01*
X132533351Y-97703823D01*
X132531922Y-97778594D01*
X132531782Y-97823740D01*
X132531782Y-98017822D01*
X132406040Y-98017822D01*
X132406040Y-97401683D01*
X132468911Y-97401683D01*
X132506644Y-97403020D01*
G37*
X132506644Y-97403020D02*
X132525461Y-97408660D01*
X132531527Y-97421053D01*
X132531782Y-97426647D01*
X132532871Y-97442230D01*
X132540368Y-97444676D01*
X132560619Y-97433993D01*
X132572649Y-97426694D01*
X132610600Y-97411063D01*
X132655928Y-97403334D01*
X132703456Y-97402740D01*
X132748005Y-97408513D01*
X132784398Y-97419884D01*
X132807457Y-97436088D01*
X132812004Y-97456355D01*
X132809709Y-97461843D01*
X132792980Y-97484626D01*
X132767037Y-97512647D01*
X132762345Y-97517177D01*
X132737617Y-97538005D01*
X132716282Y-97544735D01*
X132686445Y-97540038D01*
X132674492Y-97536917D01*
X132637295Y-97529421D01*
X132611141Y-97532792D01*
X132589054Y-97544681D01*
X132568822Y-97560635D01*
X132553921Y-97580700D01*
X132543566Y-97608702D01*
X132536971Y-97648467D01*
X132533351Y-97703823D01*
X132531922Y-97778594D01*
X132531782Y-97823740D01*
X132531782Y-98017822D01*
X132406040Y-98017822D01*
X132406040Y-97401683D01*
X132468911Y-97401683D01*
X132506644Y-97403020D01*
G36*
X133298812Y-98017822D02*
G01*
X133229654Y-98017822D01*
X133189512Y-98016645D01*
X133168606Y-98011772D01*
X133161078Y-98001186D01*
X133160495Y-97994029D01*
X133159226Y-97979676D01*
X133151221Y-97976923D01*
X133130185Y-97985771D01*
X133113827Y-97994029D01*
X133051023Y-98013597D01*
X132982752Y-98014729D01*
X132927248Y-98000135D01*
X132875562Y-97964877D01*
X132836162Y-97912835D01*
X132814587Y-97851450D01*
X132814038Y-97848018D01*
X132810833Y-97810571D01*
X132809239Y-97756813D01*
X132809367Y-97716155D01*
X132946721Y-97716155D01*
X132949903Y-97770194D01*
X132957141Y-97814735D01*
X132966940Y-97839888D01*
X133004011Y-97874260D01*
X133048026Y-97886582D01*
X133093416Y-97876618D01*
X133132203Y-97846895D01*
X133146892Y-97826905D01*
X133155481Y-97803050D01*
X133159504Y-97768230D01*
X133160495Y-97715930D01*
X133158722Y-97664139D01*
X133154037Y-97618634D01*
X133147397Y-97588181D01*
X133146290Y-97585452D01*
X133119509Y-97553000D01*
X133080421Y-97535183D01*
X133036685Y-97532306D01*
X132995962Y-97544674D01*
X132965913Y-97572593D01*
X132962796Y-97578148D01*
X132953039Y-97612022D01*
X132947723Y-97660728D01*
X132946721Y-97716155D01*
X132809367Y-97716155D01*
X132809432Y-97695540D01*
X132810336Y-97662563D01*
X132816486Y-97580981D01*
X132829267Y-97519730D01*
X132850529Y-97474449D01*
X132882122Y-97440779D01*
X132912793Y-97421014D01*
X132955646Y-97407120D01*
X133008944Y-97402354D01*
X133063520Y-97406236D01*
X133110208Y-97418282D01*
X133134876Y-97432693D01*
X133160495Y-97455878D01*
X133160495Y-97162773D01*
X133298812Y-97162773D01*
X133298812Y-98017822D01*
G37*
X133298812Y-98017822D02*
X133229654Y-98017822D01*
X133189512Y-98016645D01*
X133168606Y-98011772D01*
X133161078Y-98001186D01*
X133160495Y-97994029D01*
X133159226Y-97979676D01*
X133151221Y-97976923D01*
X133130185Y-97985771D01*
X133113827Y-97994029D01*
X133051023Y-98013597D01*
X132982752Y-98014729D01*
X132927248Y-98000135D01*
X132875562Y-97964877D01*
X132836162Y-97912835D01*
X132814587Y-97851450D01*
X132814038Y-97848018D01*
X132810833Y-97810571D01*
X132809239Y-97756813D01*
X132809367Y-97716155D01*
X132946721Y-97716155D01*
X132949903Y-97770194D01*
X132957141Y-97814735D01*
X132966940Y-97839888D01*
X133004011Y-97874260D01*
X133048026Y-97886582D01*
X133093416Y-97876618D01*
X133132203Y-97846895D01*
X133146892Y-97826905D01*
X133155481Y-97803050D01*
X133159504Y-97768230D01*
X133160495Y-97715930D01*
X133158722Y-97664139D01*
X133154037Y-97618634D01*
X133147397Y-97588181D01*
X133146290Y-97585452D01*
X133119509Y-97553000D01*
X133080421Y-97535183D01*
X133036685Y-97532306D01*
X132995962Y-97544674D01*
X132965913Y-97572593D01*
X132962796Y-97578148D01*
X132953039Y-97612022D01*
X132947723Y-97660728D01*
X132946721Y-97716155D01*
X132809367Y-97716155D01*
X132809432Y-97695540D01*
X132810336Y-97662563D01*
X132816486Y-97580981D01*
X132829267Y-97519730D01*
X132850529Y-97474449D01*
X132882122Y-97440779D01*
X132912793Y-97421014D01*
X132955646Y-97407120D01*
X133008944Y-97402354D01*
X133063520Y-97406236D01*
X133110208Y-97418282D01*
X133134876Y-97432693D01*
X133160495Y-97455878D01*
X133160495Y-97162773D01*
X133298812Y-97162773D01*
X133298812Y-98017822D01*
G36*
X133781524Y-97404237D02*
G01*
X133831255Y-97407971D01*
X133961291Y-97797773D01*
X133981678Y-97728614D01*
X133993946Y-97685874D01*
X134010085Y-97628115D01*
X134027512Y-97564625D01*
X134036726Y-97530570D01*
X134071388Y-97401683D01*
X134214391Y-97401683D01*
X134171646Y-97536857D01*
X134150596Y-97603342D01*
X134125167Y-97683539D01*
X134098610Y-97767193D01*
X134074902Y-97841782D01*
X134020902Y-98011535D01*
X133962598Y-98015328D01*
X133904295Y-98019122D01*
X133872679Y-97914734D01*
X133853182Y-97849889D01*
X133831904Y-97778400D01*
X133813308Y-97715263D01*
X133812574Y-97712750D01*
X133798684Y-97669969D01*
X133786429Y-97640779D01*
X133777846Y-97629741D01*
X133776082Y-97631018D01*
X133769891Y-97648130D01*
X133758128Y-97684787D01*
X133742225Y-97736378D01*
X133723614Y-97798294D01*
X133713543Y-97832352D01*
X133659007Y-98017822D01*
X133543264Y-98017822D01*
X133450737Y-97725471D01*
X133424744Y-97643462D01*
X133401066Y-97568987D01*
X133380820Y-97505544D01*
X133365126Y-97456632D01*
X133355102Y-97425749D01*
X133352055Y-97416726D01*
X133354467Y-97407487D01*
X133373408Y-97403441D01*
X133412823Y-97403846D01*
X133418993Y-97404152D01*
X133492086Y-97407971D01*
X133539957Y-97584010D01*
X133557553Y-97648211D01*
X133573277Y-97704649D01*
X133585746Y-97748422D01*
X133593574Y-97774630D01*
X133595020Y-97778903D01*
X133601014Y-97773990D01*
X133613101Y-97748532D01*
X133629893Y-97705997D01*
X133650003Y-97649850D01*
X133667003Y-97599130D01*
X133731794Y-97400504D01*
X133781524Y-97404237D01*
G37*
X133781524Y-97404237D02*
X133831255Y-97407971D01*
X133961291Y-97797773D01*
X133981678Y-97728614D01*
X133993946Y-97685874D01*
X134010085Y-97628115D01*
X134027512Y-97564625D01*
X134036726Y-97530570D01*
X134071388Y-97401683D01*
X134214391Y-97401683D01*
X134171646Y-97536857D01*
X134150596Y-97603342D01*
X134125167Y-97683539D01*
X134098610Y-97767193D01*
X134074902Y-97841782D01*
X134020902Y-98011535D01*
X133962598Y-98015328D01*
X133904295Y-98019122D01*
X133872679Y-97914734D01*
X133853182Y-97849889D01*
X133831904Y-97778400D01*
X133813308Y-97715263D01*
X133812574Y-97712750D01*
X133798684Y-97669969D01*
X133786429Y-97640779D01*
X133777846Y-97629741D01*
X133776082Y-97631018D01*
X133769891Y-97648130D01*
X133758128Y-97684787D01*
X133742225Y-97736378D01*
X133723614Y-97798294D01*
X133713543Y-97832352D01*
X133659007Y-98017822D01*
X133543264Y-98017822D01*
X133450737Y-97725471D01*
X133424744Y-97643462D01*
X133401066Y-97568987D01*
X133380820Y-97505544D01*
X133365126Y-97456632D01*
X133355102Y-97425749D01*
X133352055Y-97416726D01*
X133354467Y-97407487D01*
X133373408Y-97403441D01*
X133412823Y-97403846D01*
X133418993Y-97404152D01*
X133492086Y-97407971D01*
X133539957Y-97584010D01*
X133557553Y-97648211D01*
X133573277Y-97704649D01*
X133585746Y-97748422D01*
X133593574Y-97774630D01*
X133595020Y-97778903D01*
X133601014Y-97773990D01*
X133613101Y-97748532D01*
X133629893Y-97705997D01*
X133650003Y-97649850D01*
X133667003Y-97599130D01*
X133731794Y-97400504D01*
X133781524Y-97404237D01*
G36*
X134538411Y-97405417D02*
G01*
X134591411Y-97418290D01*
X134606731Y-97425110D01*
X134636428Y-97442974D01*
X134659220Y-97463093D01*
X134676083Y-97488962D01*
X134687998Y-97524073D01*
X134695942Y-97571920D01*
X134700894Y-97635996D01*
X134703831Y-97719794D01*
X134704947Y-97775768D01*
X134709052Y-98017822D01*
X134638932Y-98017822D01*
X134596393Y-98016038D01*
X134574476Y-98009942D01*
X134568812Y-97999706D01*
X134565821Y-97988637D01*
X134552451Y-97990754D01*
X134534233Y-97999629D01*
X134488624Y-98013233D01*
X134430007Y-98016899D01*
X134368354Y-98010903D01*
X134313638Y-97995521D01*
X134308730Y-97993386D01*
X134258723Y-97958255D01*
X134225756Y-97909419D01*
X134210587Y-97852333D01*
X134211746Y-97831824D01*
X134335508Y-97831824D01*
X134346413Y-97859425D01*
X134378745Y-97879204D01*
X134430910Y-97889819D01*
X134458787Y-97891228D01*
X134505247Y-97887620D01*
X134536129Y-97873597D01*
X134543664Y-97866931D01*
X134564076Y-97830666D01*
X134568812Y-97797773D01*
X134568812Y-97753763D01*
X134507513Y-97753763D01*
X134436256Y-97757395D01*
X134386276Y-97768818D01*
X134354696Y-97788824D01*
X134347626Y-97797743D01*
X134335508Y-97831824D01*
X134211746Y-97831824D01*
X134213971Y-97792456D01*
X134236663Y-97735244D01*
X134267624Y-97696580D01*
X134286376Y-97679864D01*
X134304733Y-97668878D01*
X134328619Y-97662180D01*
X134363957Y-97658326D01*
X134416669Y-97655873D01*
X134437577Y-97655168D01*
X134568812Y-97650879D01*
X134568620Y-97611158D01*
X134563537Y-97569405D01*
X134545162Y-97544158D01*
X134508039Y-97528030D01*
X134507043Y-97527742D01*
X134454410Y-97521400D01*
X134402906Y-97529684D01*
X134364630Y-97549827D01*
X134349272Y-97559773D01*
X134332730Y-97558397D01*
X134307275Y-97543987D01*
X134292328Y-97533817D01*
X134263091Y-97512088D01*
X134244980Y-97495800D01*
X134242074Y-97491137D01*
X134254040Y-97467005D01*
X134289396Y-97438185D01*
X134304753Y-97428461D01*
X134348901Y-97411714D01*
X134408398Y-97402227D01*
X134474487Y-97400095D01*
X134538411Y-97405417D01*
G37*
X134538411Y-97405417D02*
X134591411Y-97418290D01*
X134606731Y-97425110D01*
X134636428Y-97442974D01*
X134659220Y-97463093D01*
X134676083Y-97488962D01*
X134687998Y-97524073D01*
X134695942Y-97571920D01*
X134700894Y-97635996D01*
X134703831Y-97719794D01*
X134704947Y-97775768D01*
X134709052Y-98017822D01*
X134638932Y-98017822D01*
X134596393Y-98016038D01*
X134574476Y-98009942D01*
X134568812Y-97999706D01*
X134565821Y-97988637D01*
X134552451Y-97990754D01*
X134534233Y-97999629D01*
X134488624Y-98013233D01*
X134430007Y-98016899D01*
X134368354Y-98010903D01*
X134313638Y-97995521D01*
X134308730Y-97993386D01*
X134258723Y-97958255D01*
X134225756Y-97909419D01*
X134210587Y-97852333D01*
X134211746Y-97831824D01*
X134335508Y-97831824D01*
X134346413Y-97859425D01*
X134378745Y-97879204D01*
X134430910Y-97889819D01*
X134458787Y-97891228D01*
X134505247Y-97887620D01*
X134536129Y-97873597D01*
X134543664Y-97866931D01*
X134564076Y-97830666D01*
X134568812Y-97797773D01*
X134568812Y-97753763D01*
X134507513Y-97753763D01*
X134436256Y-97757395D01*
X134386276Y-97768818D01*
X134354696Y-97788824D01*
X134347626Y-97797743D01*
X134335508Y-97831824D01*
X134211746Y-97831824D01*
X134213971Y-97792456D01*
X134236663Y-97735244D01*
X134267624Y-97696580D01*
X134286376Y-97679864D01*
X134304733Y-97668878D01*
X134328619Y-97662180D01*
X134363957Y-97658326D01*
X134416669Y-97655873D01*
X134437577Y-97655168D01*
X134568812Y-97650879D01*
X134568620Y-97611158D01*
X134563537Y-97569405D01*
X134545162Y-97544158D01*
X134508039Y-97528030D01*
X134507043Y-97527742D01*
X134454410Y-97521400D01*
X134402906Y-97529684D01*
X134364630Y-97549827D01*
X134349272Y-97559773D01*
X134332730Y-97558397D01*
X134307275Y-97543987D01*
X134292328Y-97533817D01*
X134263091Y-97512088D01*
X134244980Y-97495800D01*
X134242074Y-97491137D01*
X134254040Y-97467005D01*
X134289396Y-97438185D01*
X134304753Y-97428461D01*
X134348901Y-97411714D01*
X134408398Y-97402227D01*
X134474487Y-97400095D01*
X134538411Y-97405417D01*
G36*
X135135255Y-97401486D02*
G01*
X135183595Y-97411015D01*
X135211114Y-97425125D01*
X135240064Y-97448568D01*
X135198876Y-97500571D01*
X135173482Y-97532064D01*
X135156238Y-97547428D01*
X135139102Y-97549776D01*
X135114027Y-97542217D01*
X135102257Y-97537941D01*
X135054270Y-97531631D01*
X135010324Y-97545156D01*
X134978060Y-97575710D01*
X134972819Y-97585452D01*
X134967112Y-97611258D01*
X134962706Y-97658817D01*
X134959811Y-97724758D01*
X134958631Y-97805710D01*
X134958614Y-97817226D01*
X134958614Y-98017822D01*
X134820297Y-98017822D01*
X134820297Y-97401683D01*
X134889456Y-97401683D01*
X134929333Y-97402725D01*
X134950107Y-97407358D01*
X134957789Y-97417849D01*
X134958614Y-97427745D01*
X134958614Y-97453806D01*
X134991745Y-97427745D01*
X135029735Y-97409965D01*
X135080770Y-97401174D01*
X135135255Y-97401486D01*
G37*
X135135255Y-97401486D02*
X135183595Y-97411015D01*
X135211114Y-97425125D01*
X135240064Y-97448568D01*
X135198876Y-97500571D01*
X135173482Y-97532064D01*
X135156238Y-97547428D01*
X135139102Y-97549776D01*
X135114027Y-97542217D01*
X135102257Y-97537941D01*
X135054270Y-97531631D01*
X135010324Y-97545156D01*
X134978060Y-97575710D01*
X134972819Y-97585452D01*
X134967112Y-97611258D01*
X134962706Y-97658817D01*
X134959811Y-97724758D01*
X134958631Y-97805710D01*
X134958614Y-97817226D01*
X134958614Y-98017822D01*
X134820297Y-98017822D01*
X134820297Y-97401683D01*
X134889456Y-97401683D01*
X134929333Y-97402725D01*
X134950107Y-97407358D01*
X134957789Y-97417849D01*
X134958614Y-97427745D01*
X134958614Y-97453806D01*
X134991745Y-97427745D01*
X135029735Y-97409965D01*
X135080770Y-97401174D01*
X135135255Y-97401486D01*
G36*
X135532581Y-97404970D02*
G01*
X135592685Y-97420597D01*
X135643021Y-97452848D01*
X135667393Y-97476940D01*
X135707345Y-97533895D01*
X135730242Y-97599965D01*
X135738108Y-97681182D01*
X135738148Y-97687748D01*
X135738218Y-97753763D01*
X135358264Y-97753763D01*
X135366363Y-97788342D01*
X135380987Y-97819659D01*
X135406581Y-97852291D01*
X135411935Y-97857500D01*
X135457943Y-97885694D01*
X135510410Y-97890475D01*
X135570803Y-97871926D01*
X135581040Y-97866931D01*
X135612439Y-97851745D01*
X135633470Y-97843094D01*
X135637139Y-97842293D01*
X135649948Y-97850063D01*
X135674378Y-97869072D01*
X135686779Y-97879460D01*
X135712476Y-97903321D01*
X135720915Y-97919077D01*
X135715058Y-97933571D01*
X135711928Y-97937534D01*
X135690725Y-97954879D01*
X135655738Y-97975959D01*
X135631337Y-97988265D01*
X135562072Y-98009946D01*
X135485388Y-98016971D01*
X135412765Y-98008647D01*
X135392426Y-98002686D01*
X135329476Y-97968952D01*
X135282815Y-97917045D01*
X135252173Y-97846459D01*
X135237282Y-97756692D01*
X135235647Y-97709753D01*
X135240421Y-97641413D01*
X135360990Y-97641413D01*
X135372652Y-97646465D01*
X135403998Y-97650429D01*
X135449571Y-97652768D01*
X135480446Y-97653169D01*
X135535981Y-97652783D01*
X135571033Y-97650975D01*
X135590262Y-97646773D01*
X135598330Y-97639203D01*
X135599901Y-97628218D01*
X135589121Y-97594381D01*
X135561980Y-97560940D01*
X135526277Y-97535272D01*
X135490560Y-97524772D01*
X135442048Y-97534086D01*
X135400053Y-97561013D01*
X135370936Y-97599827D01*
X135360990Y-97641413D01*
X135240421Y-97641413D01*
X135242599Y-97610236D01*
X135264055Y-97530949D01*
X135300470Y-97471263D01*
X135352297Y-97430549D01*
X135419990Y-97408179D01*
X135456662Y-97403871D01*
X135532581Y-97404970D01*
G37*
X135532581Y-97404970D02*
X135592685Y-97420597D01*
X135643021Y-97452848D01*
X135667393Y-97476940D01*
X135707345Y-97533895D01*
X135730242Y-97599965D01*
X135738108Y-97681182D01*
X135738148Y-97687748D01*
X135738218Y-97753763D01*
X135358264Y-97753763D01*
X135366363Y-97788342D01*
X135380987Y-97819659D01*
X135406581Y-97852291D01*
X135411935Y-97857500D01*
X135457943Y-97885694D01*
X135510410Y-97890475D01*
X135570803Y-97871926D01*
X135581040Y-97866931D01*
X135612439Y-97851745D01*
X135633470Y-97843094D01*
X135637139Y-97842293D01*
X135649948Y-97850063D01*
X135674378Y-97869072D01*
X135686779Y-97879460D01*
X135712476Y-97903321D01*
X135720915Y-97919077D01*
X135715058Y-97933571D01*
X135711928Y-97937534D01*
X135690725Y-97954879D01*
X135655738Y-97975959D01*
X135631337Y-97988265D01*
X135562072Y-98009946D01*
X135485388Y-98016971D01*
X135412765Y-98008647D01*
X135392426Y-98002686D01*
X135329476Y-97968952D01*
X135282815Y-97917045D01*
X135252173Y-97846459D01*
X135237282Y-97756692D01*
X135235647Y-97709753D01*
X135240421Y-97641413D01*
X135360990Y-97641413D01*
X135372652Y-97646465D01*
X135403998Y-97650429D01*
X135449571Y-97652768D01*
X135480446Y-97653169D01*
X135535981Y-97652783D01*
X135571033Y-97650975D01*
X135590262Y-97646773D01*
X135598330Y-97639203D01*
X135599901Y-97628218D01*
X135589121Y-97594381D01*
X135561980Y-97560940D01*
X135526277Y-97535272D01*
X135490560Y-97524772D01*
X135442048Y-97534086D01*
X135400053Y-97561013D01*
X135370936Y-97599827D01*
X135360990Y-97641413D01*
X135240421Y-97641413D01*
X135242599Y-97610236D01*
X135264055Y-97530949D01*
X135300470Y-97471263D01*
X135352297Y-97430549D01*
X135419990Y-97408179D01*
X135456662Y-97403871D01*
X135532581Y-97404970D01*
G36*
X130961739Y-96465148D02*
G01*
X131027521Y-96494231D01*
X131077460Y-96542793D01*
X131111626Y-96610908D01*
X131130093Y-96698651D01*
X131131417Y-96712351D01*
X131132454Y-96808939D01*
X131119007Y-96893602D01*
X131091892Y-96962221D01*
X131077373Y-96984294D01*
X131026799Y-97031011D01*
X130962391Y-97061268D01*
X130890334Y-97073824D01*
X130816815Y-97067439D01*
X130760928Y-97047772D01*
X130712868Y-97014629D01*
X130673588Y-96971175D01*
X130672908Y-96970158D01*
X130656956Y-96943338D01*
X130646590Y-96916368D01*
X130640312Y-96882332D01*
X130636627Y-96834310D01*
X130635003Y-96794931D01*
X130634328Y-96759219D01*
X130760045Y-96759219D01*
X130761274Y-96794770D01*
X130765734Y-96842094D01*
X130773603Y-96872465D01*
X130787793Y-96894072D01*
X130801083Y-96906694D01*
X130848198Y-96933122D01*
X130897495Y-96936653D01*
X130943407Y-96917639D01*
X130966362Y-96896331D01*
X130982904Y-96874859D01*
X130992579Y-96854313D01*
X130996826Y-96827574D01*
X130997080Y-96787523D01*
X130995772Y-96750638D01*
X130992957Y-96697947D01*
X130988495Y-96663772D01*
X130980452Y-96641480D01*
X130966897Y-96624442D01*
X130956155Y-96614703D01*
X130911223Y-96589123D01*
X130862751Y-96587847D01*
X130822106Y-96602999D01*
X130787433Y-96634642D01*
X130766776Y-96686620D01*
X130760045Y-96759219D01*
X130634328Y-96759219D01*
X130633521Y-96716621D01*
X130636052Y-96658056D01*
X130643638Y-96614007D01*
X130657319Y-96579248D01*
X130678135Y-96548551D01*
X130685853Y-96539436D01*
X130734111Y-96494021D01*
X130785872Y-96467493D01*
X130849172Y-96456379D01*
X130880039Y-96455471D01*
X130961739Y-96465148D01*
G37*
X130961739Y-96465148D02*
X131027521Y-96494231D01*
X131077460Y-96542793D01*
X131111626Y-96610908D01*
X131130093Y-96698651D01*
X131131417Y-96712351D01*
X131132454Y-96808939D01*
X131119007Y-96893602D01*
X131091892Y-96962221D01*
X131077373Y-96984294D01*
X131026799Y-97031011D01*
X130962391Y-97061268D01*
X130890334Y-97073824D01*
X130816815Y-97067439D01*
X130760928Y-97047772D01*
X130712868Y-97014629D01*
X130673588Y-96971175D01*
X130672908Y-96970158D01*
X130656956Y-96943338D01*
X130646590Y-96916368D01*
X130640312Y-96882332D01*
X130636627Y-96834310D01*
X130635003Y-96794931D01*
X130634328Y-96759219D01*
X130760045Y-96759219D01*
X130761274Y-96794770D01*
X130765734Y-96842094D01*
X130773603Y-96872465D01*
X130787793Y-96894072D01*
X130801083Y-96906694D01*
X130848198Y-96933122D01*
X130897495Y-96936653D01*
X130943407Y-96917639D01*
X130966362Y-96896331D01*
X130982904Y-96874859D01*
X130992579Y-96854313D01*
X130996826Y-96827574D01*
X130997080Y-96787523D01*
X130995772Y-96750638D01*
X130992957Y-96697947D01*
X130988495Y-96663772D01*
X130980452Y-96641480D01*
X130966897Y-96624442D01*
X130956155Y-96614703D01*
X130911223Y-96589123D01*
X130862751Y-96587847D01*
X130822106Y-96602999D01*
X130787433Y-96634642D01*
X130766776Y-96686620D01*
X130760045Y-96759219D01*
X130634328Y-96759219D01*
X130633521Y-96716621D01*
X130636052Y-96658056D01*
X130643638Y-96614007D01*
X130657319Y-96579248D01*
X130678135Y-96548551D01*
X130685853Y-96539436D01*
X130734111Y-96494021D01*
X130785872Y-96467493D01*
X130849172Y-96456379D01*
X130880039Y-96455471D01*
X130961739Y-96465148D01*
G36*
X132143301Y-96472614D02*
G01*
X132155832Y-96478514D01*
X132199201Y-96510283D01*
X132240210Y-96556646D01*
X132270832Y-96607696D01*
X132279541Y-96631166D01*
X132287488Y-96673091D01*
X132292226Y-96723757D01*
X132292801Y-96744679D01*
X132292871Y-96810693D01*
X131912917Y-96810693D01*
X131921017Y-96845273D01*
X131940896Y-96886170D01*
X131975653Y-96921514D01*
X132017002Y-96944282D01*
X132043351Y-96949010D01*
X132079084Y-96943273D01*
X132121718Y-96928882D01*
X132136201Y-96922262D01*
X132189760Y-96895513D01*
X132235467Y-96930376D01*
X132261842Y-96953955D01*
X132275876Y-96973417D01*
X132276586Y-96979129D01*
X132264049Y-96992973D01*
X132236572Y-97014012D01*
X132211634Y-97030425D01*
X132144336Y-97059930D01*
X132068890Y-97073284D01*
X131994112Y-97069812D01*
X131934505Y-97051663D01*
X131873059Y-97012784D01*
X131829392Y-96961595D01*
X131802074Y-96895367D01*
X131789678Y-96811371D01*
X131788579Y-96772936D01*
X131792978Y-96684861D01*
X131793518Y-96682299D01*
X131919418Y-96682299D01*
X131922885Y-96690558D01*
X131937137Y-96695113D01*
X131966530Y-96697065D01*
X132015425Y-96697517D01*
X132034252Y-96697525D01*
X132091533Y-96696843D01*
X132127859Y-96694364D01*
X132147396Y-96689443D01*
X132154310Y-96681434D01*
X132154555Y-96678862D01*
X132146664Y-96658423D01*
X132126915Y-96629789D01*
X132118425Y-96619763D01*
X132086906Y-96591408D01*
X132054051Y-96580259D01*
X132036349Y-96579327D01*
X131988461Y-96590981D01*
X131948301Y-96622285D01*
X131922827Y-96667752D01*
X131922375Y-96669233D01*
X131919418Y-96682299D01*
X131793518Y-96682299D01*
X131807608Y-96615510D01*
X131833962Y-96560025D01*
X131866193Y-96520639D01*
X131925783Y-96477931D01*
X131995832Y-96455109D01*
X132070339Y-96453046D01*
X132143301Y-96472614D01*
G37*
X132143301Y-96472614D02*
X132155832Y-96478514D01*
X132199201Y-96510283D01*
X132240210Y-96556646D01*
X132270832Y-96607696D01*
X132279541Y-96631166D01*
X132287488Y-96673091D01*
X132292226Y-96723757D01*
X132292801Y-96744679D01*
X132292871Y-96810693D01*
X131912917Y-96810693D01*
X131921017Y-96845273D01*
X131940896Y-96886170D01*
X131975653Y-96921514D01*
X132017002Y-96944282D01*
X132043351Y-96949010D01*
X132079084Y-96943273D01*
X132121718Y-96928882D01*
X132136201Y-96922262D01*
X132189760Y-96895513D01*
X132235467Y-96930376D01*
X132261842Y-96953955D01*
X132275876Y-96973417D01*
X132276586Y-96979129D01*
X132264049Y-96992973D01*
X132236572Y-97014012D01*
X132211634Y-97030425D01*
X132144336Y-97059930D01*
X132068890Y-97073284D01*
X131994112Y-97069812D01*
X131934505Y-97051663D01*
X131873059Y-97012784D01*
X131829392Y-96961595D01*
X131802074Y-96895367D01*
X131789678Y-96811371D01*
X131788579Y-96772936D01*
X131792978Y-96684861D01*
X131793518Y-96682299D01*
X131919418Y-96682299D01*
X131922885Y-96690558D01*
X131937137Y-96695113D01*
X131966530Y-96697065D01*
X132015425Y-96697517D01*
X132034252Y-96697525D01*
X132091533Y-96696843D01*
X132127859Y-96694364D01*
X132147396Y-96689443D01*
X132154310Y-96681434D01*
X132154555Y-96678862D01*
X132146664Y-96658423D01*
X132126915Y-96629789D01*
X132118425Y-96619763D01*
X132086906Y-96591408D01*
X132054051Y-96580259D01*
X132036349Y-96579327D01*
X131988461Y-96590981D01*
X131948301Y-96622285D01*
X131922827Y-96667752D01*
X131922375Y-96669233D01*
X131919418Y-96682299D01*
X131793518Y-96682299D01*
X131807608Y-96615510D01*
X131833962Y-96560025D01*
X131866193Y-96520639D01*
X131925783Y-96477931D01*
X131995832Y-96455109D01*
X132070339Y-96453046D01*
X132143301Y-96472614D01*
G36*
X133514017Y-96456452D02*
G01*
X133561634Y-96465482D01*
X133611034Y-96484370D01*
X133616312Y-96486777D01*
X133653774Y-96506476D01*
X133679717Y-96524781D01*
X133688103Y-96536508D01*
X133680117Y-96555632D01*
X133660720Y-96583850D01*
X133652110Y-96594384D01*
X133616628Y-96635847D01*
X133570885Y-96608858D01*
X133527350Y-96590878D01*
X133477050Y-96581267D01*
X133428812Y-96580660D01*
X133391467Y-96589691D01*
X133382505Y-96595327D01*
X133365437Y-96621171D01*
X133363363Y-96650941D01*
X133376134Y-96674197D01*
X133383688Y-96678708D01*
X133406325Y-96684309D01*
X133446115Y-96690892D01*
X133495166Y-96697183D01*
X133504215Y-96698170D01*
X133582996Y-96711798D01*
X133640136Y-96734946D01*
X133678030Y-96769752D01*
X133699079Y-96818354D01*
X133705635Y-96877718D01*
X133696577Y-96945198D01*
X133667164Y-96998188D01*
X133617278Y-97036783D01*
X133546800Y-97061081D01*
X133468565Y-97070667D01*
X133404766Y-97070552D01*
X133353016Y-97061845D01*
X133317673Y-97049825D01*
X133273017Y-97028880D01*
X133231747Y-97004574D01*
X133217079Y-96993876D01*
X133179357Y-96963084D01*
X133224852Y-96917049D01*
X133270347Y-96871013D01*
X133322072Y-96905243D01*
X133373952Y-96930952D01*
X133429351Y-96944399D01*
X133482605Y-96945818D01*
X133528049Y-96935443D01*
X133560016Y-96913507D01*
X133570338Y-96894998D01*
X133568789Y-96865314D01*
X133543140Y-96842615D01*
X133493460Y-96826940D01*
X133439031Y-96819695D01*
X133355264Y-96805873D01*
X133293033Y-96779796D01*
X133251507Y-96740699D01*
X133229853Y-96687820D01*
X133226853Y-96625126D01*
X133241671Y-96559642D01*
X133275454Y-96510144D01*
X133328505Y-96476408D01*
X133401126Y-96458207D01*
X133454928Y-96454639D01*
X133514017Y-96456452D01*
G37*
X133514017Y-96456452D02*
X133561634Y-96465482D01*
X133611034Y-96484370D01*
X133616312Y-96486777D01*
X133653774Y-96506476D01*
X133679717Y-96524781D01*
X133688103Y-96536508D01*
X133680117Y-96555632D01*
X133660720Y-96583850D01*
X133652110Y-96594384D01*
X133616628Y-96635847D01*
X133570885Y-96608858D01*
X133527350Y-96590878D01*
X133477050Y-96581267D01*
X133428812Y-96580660D01*
X133391467Y-96589691D01*
X133382505Y-96595327D01*
X133365437Y-96621171D01*
X133363363Y-96650941D01*
X133376134Y-96674197D01*
X133383688Y-96678708D01*
X133406325Y-96684309D01*
X133446115Y-96690892D01*
X133495166Y-96697183D01*
X133504215Y-96698170D01*
X133582996Y-96711798D01*
X133640136Y-96734946D01*
X133678030Y-96769752D01*
X133699079Y-96818354D01*
X133705635Y-96877718D01*
X133696577Y-96945198D01*
X133667164Y-96998188D01*
X133617278Y-97036783D01*
X133546800Y-97061081D01*
X133468565Y-97070667D01*
X133404766Y-97070552D01*
X133353016Y-97061845D01*
X133317673Y-97049825D01*
X133273017Y-97028880D01*
X133231747Y-97004574D01*
X133217079Y-96993876D01*
X133179357Y-96963084D01*
X133224852Y-96917049D01*
X133270347Y-96871013D01*
X133322072Y-96905243D01*
X133373952Y-96930952D01*
X133429351Y-96944399D01*
X133482605Y-96945818D01*
X133528049Y-96935443D01*
X133560016Y-96913507D01*
X133570338Y-96894998D01*
X133568789Y-96865314D01*
X133543140Y-96842615D01*
X133493460Y-96826940D01*
X133439031Y-96819695D01*
X133355264Y-96805873D01*
X133293033Y-96779796D01*
X133251507Y-96740699D01*
X133229853Y-96687820D01*
X133226853Y-96625126D01*
X133241671Y-96559642D01*
X133275454Y-96510144D01*
X133328505Y-96476408D01*
X133401126Y-96458207D01*
X133454928Y-96454639D01*
X133514017Y-96456452D01*
G36*
X134110762Y-96466055D02*
G01*
X134174363Y-96500692D01*
X134224123Y-96555372D01*
X134247568Y-96599842D01*
X134257634Y-96639121D01*
X134264156Y-96695116D01*
X134266951Y-96759621D01*
X134265836Y-96824429D01*
X134260626Y-96881334D01*
X134254541Y-96911727D01*
X134234014Y-96953306D01*
X134198463Y-96997468D01*
X134155619Y-97036087D01*
X134113211Y-97061034D01*
X134112177Y-97061430D01*
X134059553Y-97072331D01*
X133997188Y-97072601D01*
X133937924Y-97062676D01*
X133915040Y-97054722D01*
X133856102Y-97021300D01*
X133813890Y-96977511D01*
X133786156Y-96919538D01*
X133770651Y-96843565D01*
X133767143Y-96803771D01*
X133767590Y-96753766D01*
X133902376Y-96753766D01*
X133906917Y-96826732D01*
X133919986Y-96882334D01*
X133940756Y-96917861D01*
X133955552Y-96928020D01*
X133993464Y-96935104D01*
X134038527Y-96933007D01*
X134077487Y-96922812D01*
X134087704Y-96917204D01*
X134114659Y-96884538D01*
X134132451Y-96834545D01*
X134140024Y-96773705D01*
X134136325Y-96708497D01*
X134128057Y-96669253D01*
X134104320Y-96623805D01*
X134066849Y-96595396D01*
X134021720Y-96585573D01*
X133975011Y-96595887D01*
X133939132Y-96621112D01*
X133920277Y-96641925D01*
X133909272Y-96662439D01*
X133904026Y-96690203D01*
X133902449Y-96732762D01*
X133902376Y-96753766D01*
X133767590Y-96753766D01*
X133768094Y-96697580D01*
X133785388Y-96610501D01*
X133819029Y-96542530D01*
X133869018Y-96493664D01*
X133935356Y-96463899D01*
X133949601Y-96460448D01*
X134035210Y-96452345D01*
X134110762Y-96466055D01*
G37*
X134110762Y-96466055D02*
X134174363Y-96500692D01*
X134224123Y-96555372D01*
X134247568Y-96599842D01*
X134257634Y-96639121D01*
X134264156Y-96695116D01*
X134266951Y-96759621D01*
X134265836Y-96824429D01*
X134260626Y-96881334D01*
X134254541Y-96911727D01*
X134234014Y-96953306D01*
X134198463Y-96997468D01*
X134155619Y-97036087D01*
X134113211Y-97061034D01*
X134112177Y-97061430D01*
X134059553Y-97072331D01*
X133997188Y-97072601D01*
X133937924Y-97062676D01*
X133915040Y-97054722D01*
X133856102Y-97021300D01*
X133813890Y-96977511D01*
X133786156Y-96919538D01*
X133770651Y-96843565D01*
X133767143Y-96803771D01*
X133767590Y-96753766D01*
X133902376Y-96753766D01*
X133906917Y-96826732D01*
X133919986Y-96882334D01*
X133940756Y-96917861D01*
X133955552Y-96928020D01*
X133993464Y-96935104D01*
X134038527Y-96933007D01*
X134077487Y-96922812D01*
X134087704Y-96917204D01*
X134114659Y-96884538D01*
X134132451Y-96834545D01*
X134140024Y-96773705D01*
X134136325Y-96708497D01*
X134128057Y-96669253D01*
X134104320Y-96623805D01*
X134066849Y-96595396D01*
X134021720Y-96585573D01*
X133975011Y-96595887D01*
X133939132Y-96621112D01*
X133920277Y-96641925D01*
X133909272Y-96662439D01*
X133904026Y-96690203D01*
X133902449Y-96732762D01*
X133902376Y-96753766D01*
X133767590Y-96753766D01*
X133768094Y-96697580D01*
X133785388Y-96610501D01*
X133819029Y-96542530D01*
X133869018Y-96493664D01*
X133935356Y-96463899D01*
X133949601Y-96460448D01*
X134035210Y-96452345D01*
X134110762Y-96466055D01*
G36*
X134493367Y-96654342D02*
G01*
X134494555Y-96746563D01*
X134498897Y-96816610D01*
X134507558Y-96867381D01*
X134521704Y-96901772D01*
X134542500Y-96922679D01*
X134571110Y-96933000D01*
X134606535Y-96935636D01*
X134643636Y-96932682D01*
X134671818Y-96921889D01*
X134692243Y-96900360D01*
X134706079Y-96865199D01*
X134714491Y-96813510D01*
X134718643Y-96742394D01*
X134719703Y-96654342D01*
X134719703Y-96458614D01*
X134858020Y-96458614D01*
X134858020Y-97062179D01*
X134788862Y-97062179D01*
X134747170Y-97060489D01*
X134725701Y-97054556D01*
X134719703Y-97043293D01*
X134716091Y-97033261D01*
X134701714Y-97035383D01*
X134672736Y-97049580D01*
X134606319Y-97071480D01*
X134535875Y-97069928D01*
X134468377Y-97046147D01*
X134436233Y-97027362D01*
X134411715Y-97007022D01*
X134393804Y-96981573D01*
X134381479Y-96947458D01*
X134373723Y-96901121D01*
X134369516Y-96839007D01*
X134367840Y-96757561D01*
X134367624Y-96694578D01*
X134367624Y-96458614D01*
X134493367Y-96458614D01*
X134493367Y-96654342D01*
G37*
X134493367Y-96654342D02*
X134494555Y-96746563D01*
X134498897Y-96816610D01*
X134507558Y-96867381D01*
X134521704Y-96901772D01*
X134542500Y-96922679D01*
X134571110Y-96933000D01*
X134606535Y-96935636D01*
X134643636Y-96932682D01*
X134671818Y-96921889D01*
X134692243Y-96900360D01*
X134706079Y-96865199D01*
X134714491Y-96813510D01*
X134718643Y-96742394D01*
X134719703Y-96654342D01*
X134719703Y-96458614D01*
X134858020Y-96458614D01*
X134858020Y-97062179D01*
X134788862Y-97062179D01*
X134747170Y-97060489D01*
X134725701Y-97054556D01*
X134719703Y-97043293D01*
X134716091Y-97033261D01*
X134701714Y-97035383D01*
X134672736Y-97049580D01*
X134606319Y-97071480D01*
X134535875Y-97069928D01*
X134468377Y-97046147D01*
X134436233Y-97027362D01*
X134411715Y-97007022D01*
X134393804Y-96981573D01*
X134381479Y-96947458D01*
X134373723Y-96901121D01*
X134369516Y-96839007D01*
X134367840Y-96757561D01*
X134367624Y-96694578D01*
X134367624Y-96458614D01*
X134493367Y-96458614D01*
X134493367Y-96654342D01*
G36*
X135717226Y-96463880D02*
G01*
X135790080Y-96494830D01*
X135813027Y-96509895D01*
X135842354Y-96533048D01*
X135860764Y-96551253D01*
X135863961Y-96557183D01*
X135854935Y-96570340D01*
X135831837Y-96592667D01*
X135813344Y-96608250D01*
X135762728Y-96648926D01*
X135722760Y-96615295D01*
X135691874Y-96593584D01*
X135661759Y-96586090D01*
X135627292Y-96587920D01*
X135572561Y-96601528D01*
X135534886Y-96629772D01*
X135511991Y-96675433D01*
X135501597Y-96741289D01*
X135501595Y-96741331D01*
X135502494Y-96814939D01*
X135516463Y-96868946D01*
X135544328Y-96905716D01*
X135563325Y-96918168D01*
X135613776Y-96933673D01*
X135667663Y-96933683D01*
X135714546Y-96918638D01*
X135725644Y-96911287D01*
X135753476Y-96892511D01*
X135775236Y-96889434D01*
X135798704Y-96903409D01*
X135824649Y-96928510D01*
X135865716Y-96970880D01*
X135820121Y-97008464D01*
X135749674Y-97050882D01*
X135670233Y-97071785D01*
X135587215Y-97070272D01*
X135532694Y-97056411D01*
X135468970Y-97022135D01*
X135418005Y-96968212D01*
X135394851Y-96930149D01*
X135376099Y-96875536D01*
X135366715Y-96806369D01*
X135366643Y-96731407D01*
X135375824Y-96659409D01*
X135394199Y-96599137D01*
X135397093Y-96592958D01*
X135439952Y-96532351D01*
X135497979Y-96488224D01*
X135566591Y-96461493D01*
X135641201Y-96453073D01*
X135717226Y-96463880D01*
G37*
X135717226Y-96463880D02*
X135790080Y-96494830D01*
X135813027Y-96509895D01*
X135842354Y-96533048D01*
X135860764Y-96551253D01*
X135863961Y-96557183D01*
X135854935Y-96570340D01*
X135831837Y-96592667D01*
X135813344Y-96608250D01*
X135762728Y-96648926D01*
X135722760Y-96615295D01*
X135691874Y-96593584D01*
X135661759Y-96586090D01*
X135627292Y-96587920D01*
X135572561Y-96601528D01*
X135534886Y-96629772D01*
X135511991Y-96675433D01*
X135501597Y-96741289D01*
X135501595Y-96741331D01*
X135502494Y-96814939D01*
X135516463Y-96868946D01*
X135544328Y-96905716D01*
X135563325Y-96918168D01*
X135613776Y-96933673D01*
X135667663Y-96933683D01*
X135714546Y-96918638D01*
X135725644Y-96911287D01*
X135753476Y-96892511D01*
X135775236Y-96889434D01*
X135798704Y-96903409D01*
X135824649Y-96928510D01*
X135865716Y-96970880D01*
X135820121Y-97008464D01*
X135749674Y-97050882D01*
X135670233Y-97071785D01*
X135587215Y-97070272D01*
X135532694Y-97056411D01*
X135468970Y-97022135D01*
X135418005Y-96968212D01*
X135394851Y-96930149D01*
X135376099Y-96875536D01*
X135366715Y-96806369D01*
X135366643Y-96731407D01*
X135375824Y-96659409D01*
X135394199Y-96599137D01*
X135397093Y-96592958D01*
X135439952Y-96532351D01*
X135497979Y-96488224D01*
X135566591Y-96461493D01*
X135641201Y-96453073D01*
X135717226Y-96463880D01*
G36*
X136177898Y-96456457D02*
G01*
X136210096Y-96464279D01*
X136271825Y-96492921D01*
X136324610Y-96536667D01*
X136361141Y-96589117D01*
X136366160Y-96600893D01*
X136373045Y-96631740D01*
X136377864Y-96677371D01*
X136379505Y-96723492D01*
X136379505Y-96810693D01*
X136197178Y-96810693D01*
X136121979Y-96810978D01*
X136069003Y-96812704D01*
X136035325Y-96817181D01*
X136018020Y-96825720D01*
X136014163Y-96839630D01*
X136020829Y-96860222D01*
X136032770Y-96884315D01*
X136066080Y-96924525D01*
X136112368Y-96944558D01*
X136168944Y-96943905D01*
X136233031Y-96922101D01*
X136288417Y-96895193D01*
X136334375Y-96931532D01*
X136380333Y-96967872D01*
X136337096Y-97007819D01*
X136279374Y-97045563D01*
X136208386Y-97068320D01*
X136132029Y-97074688D01*
X136058199Y-97063268D01*
X136046287Y-97059393D01*
X135981399Y-97025506D01*
X135933130Y-96974986D01*
X135900465Y-96906325D01*
X135882385Y-96818014D01*
X135882175Y-96816121D01*
X135880556Y-96719878D01*
X135887100Y-96685542D01*
X136014852Y-96685542D01*
X136026584Y-96690822D01*
X136058438Y-96694867D01*
X136105397Y-96697176D01*
X136135154Y-96697525D01*
X136190648Y-96697306D01*
X136225346Y-96695916D01*
X136243601Y-96692251D01*
X136249766Y-96685210D01*
X136248195Y-96673690D01*
X136246878Y-96669233D01*
X136224382Y-96627355D01*
X136189003Y-96593604D01*
X136157780Y-96578773D01*
X136116301Y-96579668D01*
X136074269Y-96598164D01*
X136039012Y-96628786D01*
X136017854Y-96666062D01*
X136014852Y-96685542D01*
X135887100Y-96685542D01*
X135896690Y-96635229D01*
X135928698Y-96564191D01*
X135974701Y-96508779D01*
X136032821Y-96471009D01*
X136101180Y-96452896D01*
X136177898Y-96456457D01*
G37*
X136177898Y-96456457D02*
X136210096Y-96464279D01*
X136271825Y-96492921D01*
X136324610Y-96536667D01*
X136361141Y-96589117D01*
X136366160Y-96600893D01*
X136373045Y-96631740D01*
X136377864Y-96677371D01*
X136379505Y-96723492D01*
X136379505Y-96810693D01*
X136197178Y-96810693D01*
X136121979Y-96810978D01*
X136069003Y-96812704D01*
X136035325Y-96817181D01*
X136018020Y-96825720D01*
X136014163Y-96839630D01*
X136020829Y-96860222D01*
X136032770Y-96884315D01*
X136066080Y-96924525D01*
X136112368Y-96944558D01*
X136168944Y-96943905D01*
X136233031Y-96922101D01*
X136288417Y-96895193D01*
X136334375Y-96931532D01*
X136380333Y-96967872D01*
X136337096Y-97007819D01*
X136279374Y-97045563D01*
X136208386Y-97068320D01*
X136132029Y-97074688D01*
X136058199Y-97063268D01*
X136046287Y-97059393D01*
X135981399Y-97025506D01*
X135933130Y-96974986D01*
X135900465Y-96906325D01*
X135882385Y-96818014D01*
X135882175Y-96816121D01*
X135880556Y-96719878D01*
X135887100Y-96685542D01*
X136014852Y-96685542D01*
X136026584Y-96690822D01*
X136058438Y-96694867D01*
X136105397Y-96697176D01*
X136135154Y-96697525D01*
X136190648Y-96697306D01*
X136225346Y-96695916D01*
X136243601Y-96692251D01*
X136249766Y-96685210D01*
X136248195Y-96673690D01*
X136246878Y-96669233D01*
X136224382Y-96627355D01*
X136189003Y-96593604D01*
X136157780Y-96578773D01*
X136116301Y-96579668D01*
X136074269Y-96598164D01*
X136039012Y-96628786D01*
X136017854Y-96666062D01*
X136014852Y-96685542D01*
X135887100Y-96685542D01*
X135896690Y-96635229D01*
X135928698Y-96564191D01*
X135974701Y-96508779D01*
X136032821Y-96471009D01*
X136101180Y-96452896D01*
X136177898Y-96456457D01*
G36*
X132745988Y-96469002D02*
G01*
X132777283Y-96483950D01*
X132807591Y-96505541D01*
X132830682Y-96530391D01*
X132847500Y-96562087D01*
X132858994Y-96604214D01*
X132866109Y-96660358D01*
X132869793Y-96734106D01*
X132870992Y-96829044D01*
X132871011Y-96838985D01*
X132871287Y-97062179D01*
X132732970Y-97062179D01*
X132732970Y-96856418D01*
X132732872Y-96780189D01*
X132732191Y-96724939D01*
X132730349Y-96686501D01*
X132726767Y-96660706D01*
X132720868Y-96643384D01*
X132712073Y-96630368D01*
X132699820Y-96617507D01*
X132656953Y-96589873D01*
X132610157Y-96584745D01*
X132565576Y-96602217D01*
X132550072Y-96615221D01*
X132538690Y-96627447D01*
X132530519Y-96640540D01*
X132525026Y-96658615D01*
X132521680Y-96685787D01*
X132519949Y-96726170D01*
X132519303Y-96783879D01*
X132519208Y-96854132D01*
X132519208Y-97062179D01*
X132380891Y-97062179D01*
X132380891Y-96458614D01*
X132450050Y-96458614D01*
X132491572Y-96460256D01*
X132512994Y-96466087D01*
X132519205Y-96477461D01*
X132519208Y-96477798D01*
X132522090Y-96488938D01*
X132534801Y-96487674D01*
X132560074Y-96475434D01*
X132617395Y-96457424D01*
X132682963Y-96455421D01*
X132745988Y-96469002D01*
G37*
X132745988Y-96469002D02*
X132777283Y-96483950D01*
X132807591Y-96505541D01*
X132830682Y-96530391D01*
X132847500Y-96562087D01*
X132858994Y-96604214D01*
X132866109Y-96660358D01*
X132869793Y-96734106D01*
X132870992Y-96829044D01*
X132871011Y-96838985D01*
X132871287Y-97062179D01*
X132732970Y-97062179D01*
X132732970Y-96856418D01*
X132732872Y-96780189D01*
X132732191Y-96724939D01*
X132730349Y-96686501D01*
X132726767Y-96660706D01*
X132720868Y-96643384D01*
X132712073Y-96630368D01*
X132699820Y-96617507D01*
X132656953Y-96589873D01*
X132610157Y-96584745D01*
X132565576Y-96602217D01*
X132550072Y-96615221D01*
X132538690Y-96627447D01*
X132530519Y-96640540D01*
X132525026Y-96658615D01*
X132521680Y-96685787D01*
X132519949Y-96726170D01*
X132519303Y-96783879D01*
X132519208Y-96854132D01*
X132519208Y-97062179D01*
X132380891Y-97062179D01*
X132380891Y-96458614D01*
X132450050Y-96458614D01*
X132491572Y-96460256D01*
X132512994Y-96466087D01*
X132519205Y-96477461D01*
X132519208Y-96477798D01*
X132522090Y-96488938D01*
X132534801Y-96487674D01*
X132560074Y-96475434D01*
X132617395Y-96457424D01*
X132682963Y-96455421D01*
X132745988Y-96469002D01*
G36*
X135299460Y-96458030D02*
G01*
X135342711Y-96471245D01*
X135370558Y-96487941D01*
X135379629Y-96501145D01*
X135377132Y-96516797D01*
X135360931Y-96541385D01*
X135347232Y-96558800D01*
X135318992Y-96590283D01*
X135297775Y-96603529D01*
X135279688Y-96602664D01*
X135226035Y-96589010D01*
X135186630Y-96589630D01*
X135154632Y-96605104D01*
X135143890Y-96614161D01*
X135109505Y-96646027D01*
X135109505Y-97062179D01*
X134971188Y-97062179D01*
X134971188Y-96458614D01*
X135040347Y-96458614D01*
X135081869Y-96460256D01*
X135103291Y-96466087D01*
X135109502Y-96477461D01*
X135109505Y-96477798D01*
X135112439Y-96489713D01*
X135125704Y-96488159D01*
X135144084Y-96479563D01*
X135182046Y-96463568D01*
X135212872Y-96453945D01*
X135252536Y-96451478D01*
X135299460Y-96458030D01*
G37*
X135299460Y-96458030D02*
X135342711Y-96471245D01*
X135370558Y-96487941D01*
X135379629Y-96501145D01*
X135377132Y-96516797D01*
X135360931Y-96541385D01*
X135347232Y-96558800D01*
X135318992Y-96590283D01*
X135297775Y-96603529D01*
X135279688Y-96602664D01*
X135226035Y-96589010D01*
X135186630Y-96589630D01*
X135154632Y-96605104D01*
X135143890Y-96614161D01*
X135109505Y-96646027D01*
X135109505Y-97062179D01*
X134971188Y-97062179D01*
X134971188Y-96458614D01*
X135040347Y-96458614D01*
X135081869Y-96460256D01*
X135103291Y-96466087D01*
X135109502Y-96477461D01*
X135109505Y-96477798D01*
X135112439Y-96489713D01*
X135125704Y-96488159D01*
X135144084Y-96479563D01*
X135182046Y-96463568D01*
X135212872Y-96453945D01*
X135252536Y-96451478D01*
X135299460Y-96458030D01*
G36*
X133876964Y-92290018D02*
G01*
X133933812Y-92591570D01*
X134353338Y-92764512D01*
X134604984Y-92593395D01*
X134675458Y-92545750D01*
X134739163Y-92503210D01*
X134793126Y-92467715D01*
X134834373Y-92441210D01*
X134859934Y-92425636D01*
X134866895Y-92422278D01*
X134879435Y-92430914D01*
X134906231Y-92454792D01*
X134944280Y-92490859D01*
X134990579Y-92536067D01*
X135042123Y-92587364D01*
X135095909Y-92641701D01*
X135148935Y-92696028D01*
X135198195Y-92747295D01*
X135240687Y-92792451D01*
X135273407Y-92828446D01*
X135293351Y-92852230D01*
X135298119Y-92860190D01*
X135291257Y-92874865D01*
X135272020Y-92907014D01*
X135242430Y-92953492D01*
X135204510Y-93011156D01*
X135160282Y-93076860D01*
X135134654Y-93114336D01*
X135087941Y-93182768D01*
X135046432Y-93244520D01*
X135012140Y-93296519D01*
X134987080Y-93335692D01*
X134973264Y-93358965D01*
X134971188Y-93363855D01*
X134975895Y-93377755D01*
X134988723Y-93410150D01*
X135007738Y-93456485D01*
X135031003Y-93512206D01*
X135056584Y-93572758D01*
X135082545Y-93633586D01*
X135106950Y-93690136D01*
X135127863Y-93737852D01*
X135143349Y-93772181D01*
X135151472Y-93788568D01*
X135151952Y-93789212D01*
X135164707Y-93792341D01*
X135198677Y-93799321D01*
X135250340Y-93809467D01*
X135316176Y-93822092D01*
X135392664Y-93836509D01*
X135437290Y-93844823D01*
X135519021Y-93860384D01*
X135592843Y-93875192D01*
X135655021Y-93888436D01*
X135701822Y-93899305D01*
X135729509Y-93906989D01*
X135735074Y-93909427D01*
X135740526Y-93925930D01*
X135744924Y-93963200D01*
X135748272Y-94016880D01*
X135750574Y-94082612D01*
X135751832Y-94156037D01*
X135752048Y-94232796D01*
X135751227Y-94308532D01*
X135749371Y-94378886D01*
X135746482Y-94439500D01*
X135742565Y-94486016D01*
X135737622Y-94514075D01*
X135734657Y-94519916D01*
X135716934Y-94526917D01*
X135679381Y-94536927D01*
X135626964Y-94548769D01*
X135564652Y-94561267D01*
X135542900Y-94565310D01*
X135438024Y-94584520D01*
X135355180Y-94599991D01*
X135291630Y-94612337D01*
X135244637Y-94622173D01*
X135211463Y-94630114D01*
X135189371Y-94636776D01*
X135175624Y-94642773D01*
X135167484Y-94648719D01*
X135166345Y-94649894D01*
X135154977Y-94668826D01*
X135137635Y-94705669D01*
X135116050Y-94755913D01*
X135091954Y-94815046D01*
X135067079Y-94878556D01*
X135043157Y-94941932D01*
X135021919Y-95000662D01*
X135005097Y-95050235D01*
X134994422Y-95086139D01*
X134991627Y-95103862D01*
X134991860Y-95104483D01*
X135001331Y-95118970D01*
X135022818Y-95150844D01*
X135054063Y-95196789D01*
X135092807Y-95253485D01*
X135136793Y-95317617D01*
X135149319Y-95335842D01*
X135193984Y-95401914D01*
X135233288Y-95462200D01*
X135265088Y-95513235D01*
X135287245Y-95551560D01*
X135297617Y-95573711D01*
X135298119Y-95576432D01*
X135289405Y-95590736D01*
X135265325Y-95619072D01*
X135228976Y-95658396D01*
X135183453Y-95705661D01*
X135131852Y-95757823D01*
X135077267Y-95811835D01*
X135022794Y-95864653D01*
X134971529Y-95913231D01*
X134926567Y-95954523D01*
X134891004Y-95985485D01*
X134867935Y-96003070D01*
X134861554Y-96005941D01*
X134846699Y-95999178D01*
X134816286Y-95980939D01*
X134775268Y-95954297D01*
X134743709Y-95932852D01*
X134686525Y-95893503D01*
X134618806Y-95847171D01*
X134550880Y-95800913D01*
X134514361Y-95776155D01*
X134390752Y-95692547D01*
X134286991Y-95748650D01*
X134239720Y-95773228D01*
X134199523Y-95792331D01*
X134172326Y-95803227D01*
X134165402Y-95804743D01*
X134157077Y-95793549D01*
X134140654Y-95761917D01*
X134117357Y-95712765D01*
X134088414Y-95649010D01*
X134055050Y-95573571D01*
X134018491Y-95489364D01*
X133979964Y-95399308D01*
X133940694Y-95306321D01*
X133901908Y-95213320D01*
X133864830Y-95123223D01*
X133830689Y-95038948D01*
X133800708Y-94963413D01*
X133776116Y-94899534D01*
X133758136Y-94850231D01*
X133747997Y-94818421D01*
X133746366Y-94807496D01*
X133759291Y-94793561D01*
X133787589Y-94770940D01*
X133825346Y-94744333D01*
X133828515Y-94742228D01*
X133926100Y-94664114D01*
X134004786Y-94572982D01*
X134063891Y-94471745D01*
X134102732Y-94363318D01*
X134120628Y-94250614D01*
X134116897Y-94136548D01*
X134090857Y-94024034D01*
X134041825Y-93915985D01*
X134027400Y-93892345D01*
X133952369Y-93796887D01*
X133863730Y-93720232D01*
X133764549Y-93662780D01*
X133657895Y-93624929D01*
X133546836Y-93607078D01*
X133434439Y-93609625D01*
X133323773Y-93632970D01*
X133217906Y-93677510D01*
X133119905Y-93743645D01*
X133089590Y-93770487D01*
X133012438Y-93854512D01*
X132956218Y-93942966D01*
X132917653Y-94042115D01*
X132896174Y-94140303D01*
X132890872Y-94250697D01*
X132908552Y-94361640D01*
X132947419Y-94469381D01*
X133005677Y-94570169D01*
X133081531Y-94660256D01*
X133173183Y-94735892D01*
X133185228Y-94743864D01*
X133223389Y-94769974D01*
X133252399Y-94792595D01*
X133266268Y-94807039D01*
X133266469Y-94807496D01*
X133263492Y-94823121D01*
X133251689Y-94858582D01*
X133232286Y-94910962D01*
X133206512Y-94977345D01*
X133175591Y-95054814D01*
X133140751Y-95140450D01*
X133103217Y-95231337D01*
X133064217Y-95324559D01*
X133024977Y-95417197D01*
X132986724Y-95506335D01*
X132950683Y-95589055D01*
X132918083Y-95662441D01*
X132890148Y-95723575D01*
X132868105Y-95769541D01*
X132853182Y-95797421D01*
X132847172Y-95804743D01*
X132828809Y-95799041D01*
X132794448Y-95783749D01*
X132750016Y-95761599D01*
X132725583Y-95748650D01*
X132621822Y-95692547D01*
X132498213Y-95776155D01*
X132435114Y-95818987D01*
X132366030Y-95866122D01*
X132301293Y-95910503D01*
X132268866Y-95932852D01*
X132223259Y-95963477D01*
X132184640Y-95987747D01*
X132158048Y-96002587D01*
X132149410Y-96005724D01*
X132136839Y-95997261D01*
X132109016Y-95973636D01*
X132068639Y-95937302D01*
X132018405Y-95890711D01*
X131961012Y-95836317D01*
X131924714Y-95801392D01*
X131861210Y-95738996D01*
X131806327Y-95683188D01*
X131762286Y-95636354D01*
X131731305Y-95600882D01*
X131715602Y-95579161D01*
X131714095Y-95574752D01*
X131721086Y-95557985D01*
X131740406Y-95524082D01*
X131769909Y-95476476D01*
X131807455Y-95418599D01*
X131850900Y-95353884D01*
X131863255Y-95335842D01*
X131908273Y-95270267D01*
X131948660Y-95211228D01*
X131982160Y-95162042D01*
X132006514Y-95126028D01*
X132019464Y-95106502D01*
X132020715Y-95104483D01*
X132018844Y-95088922D01*
X132008913Y-95054709D01*
X131992653Y-95006355D01*
X131971795Y-94948371D01*
X131948073Y-94885270D01*
X131923216Y-94821563D01*
X131898958Y-94761761D01*
X131877029Y-94710376D01*
X131859162Y-94671919D01*
X131847087Y-94650902D01*
X131846229Y-94649894D01*
X131838846Y-94643888D01*
X131826375Y-94637948D01*
X131806080Y-94631460D01*
X131775222Y-94623809D01*
X131731066Y-94614380D01*
X131670874Y-94602559D01*
X131591907Y-94587729D01*
X131491430Y-94569277D01*
X131469675Y-94565310D01*
X131405198Y-94552853D01*
X131348989Y-94540666D01*
X131306013Y-94529926D01*
X131281240Y-94521809D01*
X131277918Y-94519916D01*
X131272444Y-94503138D01*
X131267994Y-94465645D01*
X131264572Y-94411794D01*
X131262181Y-94345944D01*
X131260823Y-94272453D01*
X131260501Y-94195680D01*
X131261219Y-94119983D01*
X131262979Y-94049720D01*
X131265784Y-93989250D01*
X131269638Y-93942930D01*
X131274543Y-93915119D01*
X131277500Y-93909427D01*
X131293963Y-93903686D01*
X131331449Y-93894345D01*
X131386225Y-93882215D01*
X131454555Y-93868107D01*
X131532706Y-93852830D01*
X131575284Y-93844823D01*
X131656071Y-93829721D01*
X131728113Y-93816040D01*
X131787889Y-93804467D01*
X131831879Y-93795687D01*
X131856561Y-93790387D01*
X131860623Y-93789212D01*
X131867489Y-93775965D01*
X131882002Y-93744057D01*
X131902229Y-93698047D01*
X131926234Y-93642492D01*
X131952082Y-93581953D01*
X131977840Y-93520986D01*
X132001573Y-93464151D01*
X132021346Y-93416006D01*
X132035224Y-93381110D01*
X132041274Y-93364021D01*
X132041386Y-93363274D01*
X132034528Y-93349793D01*
X132015302Y-93318770D01*
X131985728Y-93273289D01*
X131947827Y-93216432D01*
X131903620Y-93151283D01*
X131877921Y-93113862D01*
X131831093Y-93045247D01*
X131789501Y-92982952D01*
X131755175Y-92930129D01*
X131730143Y-92889927D01*
X131716435Y-92865500D01*
X131714456Y-92860024D01*
X131722966Y-92847278D01*
X131746493Y-92820063D01*
X131782032Y-92781428D01*
X131826577Y-92734423D01*
X131877123Y-92682095D01*
X131930664Y-92627495D01*
X131984195Y-92573670D01*
X132034711Y-92523670D01*
X132079206Y-92480543D01*
X132114675Y-92447339D01*
X132138113Y-92427106D01*
X132145954Y-92422278D01*
X132158720Y-92429067D01*
X132189256Y-92448142D01*
X132234590Y-92477561D01*
X132291756Y-92515381D01*
X132357784Y-92559661D01*
X132407590Y-92593395D01*
X132659236Y-92764512D01*
X132868999Y-92678041D01*
X133078763Y-92591570D01*
X133135611Y-92290018D01*
X133192460Y-91988466D01*
X133820115Y-91988466D01*
X133876964Y-92290018D01*
G37*
X133876964Y-92290018D02*
X133933812Y-92591570D01*
X134353338Y-92764512D01*
X134604984Y-92593395D01*
X134675458Y-92545750D01*
X134739163Y-92503210D01*
X134793126Y-92467715D01*
X134834373Y-92441210D01*
X134859934Y-92425636D01*
X134866895Y-92422278D01*
X134879435Y-92430914D01*
X134906231Y-92454792D01*
X134944280Y-92490859D01*
X134990579Y-92536067D01*
X135042123Y-92587364D01*
X135095909Y-92641701D01*
X135148935Y-92696028D01*
X135198195Y-92747295D01*
X135240687Y-92792451D01*
X135273407Y-92828446D01*
X135293351Y-92852230D01*
X135298119Y-92860190D01*
X135291257Y-92874865D01*
X135272020Y-92907014D01*
X135242430Y-92953492D01*
X135204510Y-93011156D01*
X135160282Y-93076860D01*
X135134654Y-93114336D01*
X135087941Y-93182768D01*
X135046432Y-93244520D01*
X135012140Y-93296519D01*
X134987080Y-93335692D01*
X134973264Y-93358965D01*
X134971188Y-93363855D01*
X134975895Y-93377755D01*
X134988723Y-93410150D01*
X135007738Y-93456485D01*
X135031003Y-93512206D01*
X135056584Y-93572758D01*
X135082545Y-93633586D01*
X135106950Y-93690136D01*
X135127863Y-93737852D01*
X135143349Y-93772181D01*
X135151472Y-93788568D01*
X135151952Y-93789212D01*
X135164707Y-93792341D01*
X135198677Y-93799321D01*
X135250340Y-93809467D01*
X135316176Y-93822092D01*
X135392664Y-93836509D01*
X135437290Y-93844823D01*
X135519021Y-93860384D01*
X135592843Y-93875192D01*
X135655021Y-93888436D01*
X135701822Y-93899305D01*
X135729509Y-93906989D01*
X135735074Y-93909427D01*
X135740526Y-93925930D01*
X135744924Y-93963200D01*
X135748272Y-94016880D01*
X135750574Y-94082612D01*
X135751832Y-94156037D01*
X135752048Y-94232796D01*
X135751227Y-94308532D01*
X135749371Y-94378886D01*
X135746482Y-94439500D01*
X135742565Y-94486016D01*
X135737622Y-94514075D01*
X135734657Y-94519916D01*
X135716934Y-94526917D01*
X135679381Y-94536927D01*
X135626964Y-94548769D01*
X135564652Y-94561267D01*
X135542900Y-94565310D01*
X135438024Y-94584520D01*
X135355180Y-94599991D01*
X135291630Y-94612337D01*
X135244637Y-94622173D01*
X135211463Y-94630114D01*
X135189371Y-94636776D01*
X135175624Y-94642773D01*
X135167484Y-94648719D01*
X135166345Y-94649894D01*
X135154977Y-94668826D01*
X135137635Y-94705669D01*
X135116050Y-94755913D01*
X135091954Y-94815046D01*
X135067079Y-94878556D01*
X135043157Y-94941932D01*
X135021919Y-95000662D01*
X135005097Y-95050235D01*
X134994422Y-95086139D01*
X134991627Y-95103862D01*
X134991860Y-95104483D01*
X135001331Y-95118970D01*
X135022818Y-95150844D01*
X135054063Y-95196789D01*
X135092807Y-95253485D01*
X135136793Y-95317617D01*
X135149319Y-95335842D01*
X135193984Y-95401914D01*
X135233288Y-95462200D01*
X135265088Y-95513235D01*
X135287245Y-95551560D01*
X135297617Y-95573711D01*
X135298119Y-95576432D01*
X135289405Y-95590736D01*
X135265325Y-95619072D01*
X135228976Y-95658396D01*
X135183453Y-95705661D01*
X135131852Y-95757823D01*
X135077267Y-95811835D01*
X135022794Y-95864653D01*
X134971529Y-95913231D01*
X134926567Y-95954523D01*
X134891004Y-95985485D01*
X134867935Y-96003070D01*
X134861554Y-96005941D01*
X134846699Y-95999178D01*
X134816286Y-95980939D01*
X134775268Y-95954297D01*
X134743709Y-95932852D01*
X134686525Y-95893503D01*
X134618806Y-95847171D01*
X134550880Y-95800913D01*
X134514361Y-95776155D01*
X134390752Y-95692547D01*
X134286991Y-95748650D01*
X134239720Y-95773228D01*
X134199523Y-95792331D01*
X134172326Y-95803227D01*
X134165402Y-95804743D01*
X134157077Y-95793549D01*
X134140654Y-95761917D01*
X134117357Y-95712765D01*
X134088414Y-95649010D01*
X134055050Y-95573571D01*
X134018491Y-95489364D01*
X133979964Y-95399308D01*
X133940694Y-95306321D01*
X133901908Y-95213320D01*
X133864830Y-95123223D01*
X133830689Y-95038948D01*
X133800708Y-94963413D01*
X133776116Y-94899534D01*
X133758136Y-94850231D01*
X133747997Y-94818421D01*
X133746366Y-94807496D01*
X133759291Y-94793561D01*
X133787589Y-94770940D01*
X133825346Y-94744333D01*
X133828515Y-94742228D01*
X133926100Y-94664114D01*
X134004786Y-94572982D01*
X134063891Y-94471745D01*
X134102732Y-94363318D01*
X134120628Y-94250614D01*
X134116897Y-94136548D01*
X134090857Y-94024034D01*
X134041825Y-93915985D01*
X134027400Y-93892345D01*
X133952369Y-93796887D01*
X133863730Y-93720232D01*
X133764549Y-93662780D01*
X133657895Y-93624929D01*
X133546836Y-93607078D01*
X133434439Y-93609625D01*
X133323773Y-93632970D01*
X133217906Y-93677510D01*
X133119905Y-93743645D01*
X133089590Y-93770487D01*
X133012438Y-93854512D01*
X132956218Y-93942966D01*
X132917653Y-94042115D01*
X132896174Y-94140303D01*
X132890872Y-94250697D01*
X132908552Y-94361640D01*
X132947419Y-94469381D01*
X133005677Y-94570169D01*
X133081531Y-94660256D01*
X133173183Y-94735892D01*
X133185228Y-94743864D01*
X133223389Y-94769974D01*
X133252399Y-94792595D01*
X133266268Y-94807039D01*
X133266469Y-94807496D01*
X133263492Y-94823121D01*
X133251689Y-94858582D01*
X133232286Y-94910962D01*
X133206512Y-94977345D01*
X133175591Y-95054814D01*
X133140751Y-95140450D01*
X133103217Y-95231337D01*
X133064217Y-95324559D01*
X133024977Y-95417197D01*
X132986724Y-95506335D01*
X132950683Y-95589055D01*
X132918083Y-95662441D01*
X132890148Y-95723575D01*
X132868105Y-95769541D01*
X132853182Y-95797421D01*
X132847172Y-95804743D01*
X132828809Y-95799041D01*
X132794448Y-95783749D01*
X132750016Y-95761599D01*
X132725583Y-95748650D01*
X132621822Y-95692547D01*
X132498213Y-95776155D01*
X132435114Y-95818987D01*
X132366030Y-95866122D01*
X132301293Y-95910503D01*
X132268866Y-95932852D01*
X132223259Y-95963477D01*
X132184640Y-95987747D01*
X132158048Y-96002587D01*
X132149410Y-96005724D01*
X132136839Y-95997261D01*
X132109016Y-95973636D01*
X132068639Y-95937302D01*
X132018405Y-95890711D01*
X131961012Y-95836317D01*
X131924714Y-95801392D01*
X131861210Y-95738996D01*
X131806327Y-95683188D01*
X131762286Y-95636354D01*
X131731305Y-95600882D01*
X131715602Y-95579161D01*
X131714095Y-95574752D01*
X131721086Y-95557985D01*
X131740406Y-95524082D01*
X131769909Y-95476476D01*
X131807455Y-95418599D01*
X131850900Y-95353884D01*
X131863255Y-95335842D01*
X131908273Y-95270267D01*
X131948660Y-95211228D01*
X131982160Y-95162042D01*
X132006514Y-95126028D01*
X132019464Y-95106502D01*
X132020715Y-95104483D01*
X132018844Y-95088922D01*
X132008913Y-95054709D01*
X131992653Y-95006355D01*
X131971795Y-94948371D01*
X131948073Y-94885270D01*
X131923216Y-94821563D01*
X131898958Y-94761761D01*
X131877029Y-94710376D01*
X131859162Y-94671919D01*
X131847087Y-94650902D01*
X131846229Y-94649894D01*
X131838846Y-94643888D01*
X131826375Y-94637948D01*
X131806080Y-94631460D01*
X131775222Y-94623809D01*
X131731066Y-94614380D01*
X131670874Y-94602559D01*
X131591907Y-94587729D01*
X131491430Y-94569277D01*
X131469675Y-94565310D01*
X131405198Y-94552853D01*
X131348989Y-94540666D01*
X131306013Y-94529926D01*
X131281240Y-94521809D01*
X131277918Y-94519916D01*
X131272444Y-94503138D01*
X131267994Y-94465645D01*
X131264572Y-94411794D01*
X131262181Y-94345944D01*
X131260823Y-94272453D01*
X131260501Y-94195680D01*
X131261219Y-94119983D01*
X131262979Y-94049720D01*
X131265784Y-93989250D01*
X131269638Y-93942930D01*
X131274543Y-93915119D01*
X131277500Y-93909427D01*
X131293963Y-93903686D01*
X131331449Y-93894345D01*
X131386225Y-93882215D01*
X131454555Y-93868107D01*
X131532706Y-93852830D01*
X131575284Y-93844823D01*
X131656071Y-93829721D01*
X131728113Y-93816040D01*
X131787889Y-93804467D01*
X131831879Y-93795687D01*
X131856561Y-93790387D01*
X131860623Y-93789212D01*
X131867489Y-93775965D01*
X131882002Y-93744057D01*
X131902229Y-93698047D01*
X131926234Y-93642492D01*
X131952082Y-93581953D01*
X131977840Y-93520986D01*
X132001573Y-93464151D01*
X132021346Y-93416006D01*
X132035224Y-93381110D01*
X132041274Y-93364021D01*
X132041386Y-93363274D01*
X132034528Y-93349793D01*
X132015302Y-93318770D01*
X131985728Y-93273289D01*
X131947827Y-93216432D01*
X131903620Y-93151283D01*
X131877921Y-93113862D01*
X131831093Y-93045247D01*
X131789501Y-92982952D01*
X131755175Y-92930129D01*
X131730143Y-92889927D01*
X131716435Y-92865500D01*
X131714456Y-92860024D01*
X131722966Y-92847278D01*
X131746493Y-92820063D01*
X131782032Y-92781428D01*
X131826577Y-92734423D01*
X131877123Y-92682095D01*
X131930664Y-92627495D01*
X131984195Y-92573670D01*
X132034711Y-92523670D01*
X132079206Y-92480543D01*
X132114675Y-92447339D01*
X132138113Y-92427106D01*
X132145954Y-92422278D01*
X132158720Y-92429067D01*
X132189256Y-92448142D01*
X132234590Y-92477561D01*
X132291756Y-92515381D01*
X132357784Y-92559661D01*
X132407590Y-92593395D01*
X132659236Y-92764512D01*
X132868999Y-92678041D01*
X133078763Y-92591570D01*
X133135611Y-92290018D01*
X133192460Y-91988466D01*
X133820115Y-91988466D01*
X133876964Y-92290018D01*
%TD*%
D13*
%TO.C,U2*%
X128400000Y-95000000D03*
D14*
X122100000Y-95000000D03*
X122100000Y-97300000D03*
X122100000Y-92700000D03*
%TD*%
D15*
%TO.C,C14*%
X123250000Y-59000000D03*
D16*
X123250000Y-55500000D03*
%TD*%
%TO.C,C1*%
G36*
G01*
X134450000Y-86775000D02*
X134450000Y-87725000D01*
G75*
G02*
X134200000Y-87975000I-250000J0D01*
G01*
X133700000Y-87975000D01*
G75*
G02*
X133450000Y-87725000I0J250000D01*
G01*
X133450000Y-86775000D01*
G75*
G02*
X133700000Y-86525000I250000J0D01*
G01*
X134200000Y-86525000D01*
G75*
G02*
X134450000Y-86775000I0J-250000D01*
G01*
G37*
G36*
G01*
X132550000Y-86775000D02*
X132550000Y-87725000D01*
G75*
G02*
X132300000Y-87975000I-250000J0D01*
G01*
X131800000Y-87975000D01*
G75*
G02*
X131550000Y-87725000I0J250000D01*
G01*
X131550000Y-86775000D01*
G75*
G02*
X131800000Y-86525000I250000J0D01*
G01*
X132300000Y-86525000D01*
G75*
G02*
X132550000Y-86775000I0J-250000D01*
G01*
G37*
%TD*%
%TO.C,C2*%
G36*
G01*
X143750000Y-88775000D02*
X144250000Y-88775000D01*
G75*
G02*
X144475000Y-89000000I0J-225000D01*
G01*
X144475000Y-89450000D01*
G75*
G02*
X144250000Y-89675000I-225000J0D01*
G01*
X143750000Y-89675000D01*
G75*
G02*
X143525000Y-89450000I0J225000D01*
G01*
X143525000Y-89000000D01*
G75*
G02*
X143750000Y-88775000I225000J0D01*
G01*
G37*
G36*
G01*
X143750000Y-90325000D02*
X144250000Y-90325000D01*
G75*
G02*
X144475000Y-90550000I0J-225000D01*
G01*
X144475000Y-91000000D01*
G75*
G02*
X144250000Y-91225000I-225000J0D01*
G01*
X143750000Y-91225000D01*
G75*
G02*
X143525000Y-91000000I0J225000D01*
G01*
X143525000Y-90550000D01*
G75*
G02*
X143750000Y-90325000I225000J0D01*
G01*
G37*
%TD*%
%TO.C,C3*%
G36*
G01*
X150100000Y-83500000D02*
X150100000Y-83000000D01*
G75*
G02*
X150325000Y-82775000I225000J0D01*
G01*
X150775000Y-82775000D01*
G75*
G02*
X151000000Y-83000000I0J-225000D01*
G01*
X151000000Y-83500000D01*
G75*
G02*
X150775000Y-83725000I-225000J0D01*
G01*
X150325000Y-83725000D01*
G75*
G02*
X150100000Y-83500000I0J225000D01*
G01*
G37*
G36*
G01*
X148550000Y-83500000D02*
X148550000Y-83000000D01*
G75*
G02*
X148775000Y-82775000I225000J0D01*
G01*
X149225000Y-82775000D01*
G75*
G02*
X149450000Y-83000000I0J-225000D01*
G01*
X149450000Y-83500000D01*
G75*
G02*
X149225000Y-83725000I-225000J0D01*
G01*
X148775000Y-83725000D01*
G75*
G02*
X148550000Y-83500000I0J225000D01*
G01*
G37*
%TD*%
%TO.C,C4*%
G36*
G01*
X118775000Y-95450000D02*
X119725000Y-95450000D01*
G75*
G02*
X119975000Y-95700000I0J-250000D01*
G01*
X119975000Y-96200000D01*
G75*
G02*
X119725000Y-96450000I-250000J0D01*
G01*
X118775000Y-96450000D01*
G75*
G02*
X118525000Y-96200000I0J250000D01*
G01*
X118525000Y-95700000D01*
G75*
G02*
X118775000Y-95450000I250000J0D01*
G01*
G37*
G36*
G01*
X118775000Y-93550000D02*
X119725000Y-93550000D01*
G75*
G02*
X119975000Y-93800000I0J-250000D01*
G01*
X119975000Y-94300000D01*
G75*
G02*
X119725000Y-94550000I-250000J0D01*
G01*
X118775000Y-94550000D01*
G75*
G02*
X118525000Y-94300000I0J250000D01*
G01*
X118525000Y-93800000D01*
G75*
G02*
X118775000Y-93550000I250000J0D01*
G01*
G37*
%TD*%
%TO.C,C5*%
G36*
G01*
X147525000Y-76000000D02*
X147525000Y-75500000D01*
G75*
G02*
X147750000Y-75275000I225000J0D01*
G01*
X148200000Y-75275000D01*
G75*
G02*
X148425000Y-75500000I0J-225000D01*
G01*
X148425000Y-76000000D01*
G75*
G02*
X148200000Y-76225000I-225000J0D01*
G01*
X147750000Y-76225000D01*
G75*
G02*
X147525000Y-76000000I0J225000D01*
G01*
G37*
G36*
G01*
X149075000Y-76000000D02*
X149075000Y-75500000D01*
G75*
G02*
X149300000Y-75275000I225000J0D01*
G01*
X149750000Y-75275000D01*
G75*
G02*
X149975000Y-75500000I0J-225000D01*
G01*
X149975000Y-76000000D01*
G75*
G02*
X149750000Y-76225000I-225000J0D01*
G01*
X149300000Y-76225000D01*
G75*
G02*
X149075000Y-76000000I0J225000D01*
G01*
G37*
%TD*%
%TO.C,C6*%
G36*
G01*
X135175000Y-74250000D02*
X135175000Y-74750000D01*
G75*
G02*
X134950000Y-74975000I-225000J0D01*
G01*
X134500000Y-74975000D01*
G75*
G02*
X134275000Y-74750000I0J225000D01*
G01*
X134275000Y-74250000D01*
G75*
G02*
X134500000Y-74025000I225000J0D01*
G01*
X134950000Y-74025000D01*
G75*
G02*
X135175000Y-74250000I0J-225000D01*
G01*
G37*
G36*
G01*
X136725000Y-74250000D02*
X136725000Y-74750000D01*
G75*
G02*
X136500000Y-74975000I-225000J0D01*
G01*
X136050000Y-74975000D01*
G75*
G02*
X135825000Y-74750000I0J225000D01*
G01*
X135825000Y-74250000D01*
G75*
G02*
X136050000Y-74025000I225000J0D01*
G01*
X136500000Y-74025000D01*
G75*
G02*
X136725000Y-74250000I0J-225000D01*
G01*
G37*
%TD*%
%TO.C,C7*%
G36*
G01*
X126700000Y-89525000D02*
X126700000Y-90475000D01*
G75*
G02*
X126450000Y-90725000I-250000J0D01*
G01*
X125950000Y-90725000D01*
G75*
G02*
X125700000Y-90475000I0J250000D01*
G01*
X125700000Y-89525000D01*
G75*
G02*
X125950000Y-89275000I250000J0D01*
G01*
X126450000Y-89275000D01*
G75*
G02*
X126700000Y-89525000I0J-250000D01*
G01*
G37*
G36*
G01*
X124800000Y-89525000D02*
X124800000Y-90475000D01*
G75*
G02*
X124550000Y-90725000I-250000J0D01*
G01*
X124050000Y-90725000D01*
G75*
G02*
X123800000Y-90475000I0J250000D01*
G01*
X123800000Y-89525000D01*
G75*
G02*
X124050000Y-89275000I250000J0D01*
G01*
X124550000Y-89275000D01*
G75*
G02*
X124800000Y-89525000I0J-250000D01*
G01*
G37*
%TD*%
%TO.C,C8*%
G36*
G01*
X134450000Y-85000000D02*
X134450000Y-85500000D01*
G75*
G02*
X134225000Y-85725000I-225000J0D01*
G01*
X133775000Y-85725000D01*
G75*
G02*
X133550000Y-85500000I0J225000D01*
G01*
X133550000Y-85000000D01*
G75*
G02*
X133775000Y-84775000I225000J0D01*
G01*
X134225000Y-84775000D01*
G75*
G02*
X134450000Y-85000000I0J-225000D01*
G01*
G37*
G36*
G01*
X132900000Y-85000000D02*
X132900000Y-85500000D01*
G75*
G02*
X132675000Y-85725000I-225000J0D01*
G01*
X132225000Y-85725000D01*
G75*
G02*
X132000000Y-85500000I0J225000D01*
G01*
X132000000Y-85000000D01*
G75*
G02*
X132225000Y-84775000I225000J0D01*
G01*
X132675000Y-84775000D01*
G75*
G02*
X132900000Y-85000000I0J-225000D01*
G01*
G37*
%TD*%
%TO.C,C9*%
G36*
G01*
X160250000Y-84200000D02*
X159750000Y-84200000D01*
G75*
G02*
X159525000Y-83975000I0J225000D01*
G01*
X159525000Y-83525000D01*
G75*
G02*
X159750000Y-83300000I225000J0D01*
G01*
X160250000Y-83300000D01*
G75*
G02*
X160475000Y-83525000I0J-225000D01*
G01*
X160475000Y-83975000D01*
G75*
G02*
X160250000Y-84200000I-225000J0D01*
G01*
G37*
G36*
G01*
X160250000Y-82650000D02*
X159750000Y-82650000D01*
G75*
G02*
X159525000Y-82425000I0J225000D01*
G01*
X159525000Y-81975000D01*
G75*
G02*
X159750000Y-81750000I225000J0D01*
G01*
X160250000Y-81750000D01*
G75*
G02*
X160475000Y-81975000I0J-225000D01*
G01*
X160475000Y-82425000D01*
G75*
G02*
X160250000Y-82650000I-225000J0D01*
G01*
G37*
%TD*%
%TO.C,C10*%
G36*
G01*
X160850000Y-93500000D02*
X160850000Y-93000000D01*
G75*
G02*
X161075000Y-92775000I225000J0D01*
G01*
X161525000Y-92775000D01*
G75*
G02*
X161750000Y-93000000I0J-225000D01*
G01*
X161750000Y-93500000D01*
G75*
G02*
X161525000Y-93725000I-225000J0D01*
G01*
X161075000Y-93725000D01*
G75*
G02*
X160850000Y-93500000I0J225000D01*
G01*
G37*
G36*
G01*
X159300000Y-93500000D02*
X159300000Y-93000000D01*
G75*
G02*
X159525000Y-92775000I225000J0D01*
G01*
X159975000Y-92775000D01*
G75*
G02*
X160200000Y-93000000I0J-225000D01*
G01*
X160200000Y-93500000D01*
G75*
G02*
X159975000Y-93725000I-225000J0D01*
G01*
X159525000Y-93725000D01*
G75*
G02*
X159300000Y-93500000I0J225000D01*
G01*
G37*
%TD*%
%TO.C,C11*%
G36*
G01*
X128250000Y-83350000D02*
X128750000Y-83350000D01*
G75*
G02*
X128975000Y-83575000I0J-225000D01*
G01*
X128975000Y-84025000D01*
G75*
G02*
X128750000Y-84250000I-225000J0D01*
G01*
X128250000Y-84250000D01*
G75*
G02*
X128025000Y-84025000I0J225000D01*
G01*
X128025000Y-83575000D01*
G75*
G02*
X128250000Y-83350000I225000J0D01*
G01*
G37*
G36*
G01*
X128250000Y-81800000D02*
X128750000Y-81800000D01*
G75*
G02*
X128975000Y-82025000I0J-225000D01*
G01*
X128975000Y-82475000D01*
G75*
G02*
X128750000Y-82700000I-225000J0D01*
G01*
X128250000Y-82700000D01*
G75*
G02*
X128025000Y-82475000I0J225000D01*
G01*
X128025000Y-82025000D01*
G75*
G02*
X128250000Y-81800000I225000J0D01*
G01*
G37*
%TD*%
%TO.C,C12*%
G36*
G01*
X115300000Y-84500000D02*
X115300000Y-84000000D01*
G75*
G02*
X115525000Y-83775000I225000J0D01*
G01*
X115975000Y-83775000D01*
G75*
G02*
X116200000Y-84000000I0J-225000D01*
G01*
X116200000Y-84500000D01*
G75*
G02*
X115975000Y-84725000I-225000J0D01*
G01*
X115525000Y-84725000D01*
G75*
G02*
X115300000Y-84500000I0J225000D01*
G01*
G37*
G36*
G01*
X116850000Y-84500000D02*
X116850000Y-84000000D01*
G75*
G02*
X117075000Y-83775000I225000J0D01*
G01*
X117525000Y-83775000D01*
G75*
G02*
X117750000Y-84000000I0J-225000D01*
G01*
X117750000Y-84500000D01*
G75*
G02*
X117525000Y-84725000I-225000J0D01*
G01*
X117075000Y-84725000D01*
G75*
G02*
X116850000Y-84500000I0J225000D01*
G01*
G37*
%TD*%
%TO.C,D1*%
G36*
G01*
X142006250Y-89650000D02*
X141493750Y-89650000D01*
G75*
G02*
X141275000Y-89431250I0J218750D01*
G01*
X141275000Y-88993750D01*
G75*
G02*
X141493750Y-88775000I218750J0D01*
G01*
X142006250Y-88775000D01*
G75*
G02*
X142225000Y-88993750I0J-218750D01*
G01*
X142225000Y-89431250D01*
G75*
G02*
X142006250Y-89650000I-218750J0D01*
G01*
G37*
G36*
G01*
X142006250Y-91225000D02*
X141493750Y-91225000D01*
G75*
G02*
X141275000Y-91006250I0J218750D01*
G01*
X141275000Y-90568750D01*
G75*
G02*
X141493750Y-90350000I218750J0D01*
G01*
X142006250Y-90350000D01*
G75*
G02*
X142225000Y-90568750I0J-218750D01*
G01*
X142225000Y-91006250D01*
G75*
G02*
X142006250Y-91225000I-218750J0D01*
G01*
G37*
%TD*%
%TO.C,D2*%
G36*
G01*
X125743750Y-86100000D02*
X126256250Y-86100000D01*
G75*
G02*
X126475000Y-86318750I0J-218750D01*
G01*
X126475000Y-86756250D01*
G75*
G02*
X126256250Y-86975000I-218750J0D01*
G01*
X125743750Y-86975000D01*
G75*
G02*
X125525000Y-86756250I0J218750D01*
G01*
X125525000Y-86318750D01*
G75*
G02*
X125743750Y-86100000I218750J0D01*
G01*
G37*
G36*
G01*
X125743750Y-84525000D02*
X126256250Y-84525000D01*
G75*
G02*
X126475000Y-84743750I0J-218750D01*
G01*
X126475000Y-85181250D01*
G75*
G02*
X126256250Y-85400000I-218750J0D01*
G01*
X125743750Y-85400000D01*
G75*
G02*
X125525000Y-85181250I0J218750D01*
G01*
X125525000Y-84743750D01*
G75*
G02*
X125743750Y-84525000I218750J0D01*
G01*
G37*
%TD*%
%TO.C,D3*%
G36*
G01*
X175755000Y-59800000D02*
X176055000Y-59800000D01*
G75*
G02*
X176205000Y-59950000I0J-150000D01*
G01*
X176205000Y-61550000D01*
G75*
G02*
X176055000Y-61700000I-150000J0D01*
G01*
X175755000Y-61700000D01*
G75*
G02*
X175605000Y-61550000I0J150000D01*
G01*
X175605000Y-59950000D01*
G75*
G02*
X175755000Y-59800000I150000J0D01*
G01*
G37*
G36*
G01*
X174485000Y-59800000D02*
X174785000Y-59800000D01*
G75*
G02*
X174935000Y-59950000I0J-150000D01*
G01*
X174935000Y-61550000D01*
G75*
G02*
X174785000Y-61700000I-150000J0D01*
G01*
X174485000Y-61700000D01*
G75*
G02*
X174335000Y-61550000I0J150000D01*
G01*
X174335000Y-59950000D01*
G75*
G02*
X174485000Y-59800000I150000J0D01*
G01*
G37*
G36*
G01*
X173215000Y-59800000D02*
X173515000Y-59800000D01*
G75*
G02*
X173665000Y-59950000I0J-150000D01*
G01*
X173665000Y-61550000D01*
G75*
G02*
X173515000Y-61700000I-150000J0D01*
G01*
X173215000Y-61700000D01*
G75*
G02*
X173065000Y-61550000I0J150000D01*
G01*
X173065000Y-59950000D01*
G75*
G02*
X173215000Y-59800000I150000J0D01*
G01*
G37*
G36*
G01*
X171945000Y-59800000D02*
X172245000Y-59800000D01*
G75*
G02*
X172395000Y-59950000I0J-150000D01*
G01*
X172395000Y-61550000D01*
G75*
G02*
X172245000Y-61700000I-150000J0D01*
G01*
X171945000Y-61700000D01*
G75*
G02*
X171795000Y-61550000I0J150000D01*
G01*
X171795000Y-59950000D01*
G75*
G02*
X171945000Y-59800000I150000J0D01*
G01*
G37*
G36*
G01*
X171945000Y-66800000D02*
X172245000Y-66800000D01*
G75*
G02*
X172395000Y-66950000I0J-150000D01*
G01*
X172395000Y-68550000D01*
G75*
G02*
X172245000Y-68700000I-150000J0D01*
G01*
X171945000Y-68700000D01*
G75*
G02*
X171795000Y-68550000I0J150000D01*
G01*
X171795000Y-66950000D01*
G75*
G02*
X171945000Y-66800000I150000J0D01*
G01*
G37*
G36*
G01*
X173215000Y-66800000D02*
X173515000Y-66800000D01*
G75*
G02*
X173665000Y-66950000I0J-150000D01*
G01*
X173665000Y-68550000D01*
G75*
G02*
X173515000Y-68700000I-150000J0D01*
G01*
X173215000Y-68700000D01*
G75*
G02*
X173065000Y-68550000I0J150000D01*
G01*
X173065000Y-66950000D01*
G75*
G02*
X173215000Y-66800000I150000J0D01*
G01*
G37*
G36*
G01*
X174485000Y-66800000D02*
X174785000Y-66800000D01*
G75*
G02*
X174935000Y-66950000I0J-150000D01*
G01*
X174935000Y-68550000D01*
G75*
G02*
X174785000Y-68700000I-150000J0D01*
G01*
X174485000Y-68700000D01*
G75*
G02*
X174335000Y-68550000I0J150000D01*
G01*
X174335000Y-66950000D01*
G75*
G02*
X174485000Y-66800000I150000J0D01*
G01*
G37*
G36*
G01*
X175755000Y-66800000D02*
X176055000Y-66800000D01*
G75*
G02*
X176205000Y-66950000I0J-150000D01*
G01*
X176205000Y-68550000D01*
G75*
G02*
X176055000Y-68700000I-150000J0D01*
G01*
X175755000Y-68700000D01*
G75*
G02*
X175605000Y-68550000I0J150000D01*
G01*
X175605000Y-66950000D01*
G75*
G02*
X175755000Y-66800000I150000J0D01*
G01*
G37*
%TD*%
%TO.C,D4*%
G36*
G01*
X164243750Y-70600000D02*
X164756250Y-70600000D01*
G75*
G02*
X164975000Y-70818750I0J-218750D01*
G01*
X164975000Y-71256250D01*
G75*
G02*
X164756250Y-71475000I-218750J0D01*
G01*
X164243750Y-71475000D01*
G75*
G02*
X164025000Y-71256250I0J218750D01*
G01*
X164025000Y-70818750D01*
G75*
G02*
X164243750Y-70600000I218750J0D01*
G01*
G37*
G36*
G01*
X164243750Y-69025000D02*
X164756250Y-69025000D01*
G75*
G02*
X164975000Y-69243750I0J-218750D01*
G01*
X164975000Y-69681250D01*
G75*
G02*
X164756250Y-69900000I-218750J0D01*
G01*
X164243750Y-69900000D01*
G75*
G02*
X164025000Y-69681250I0J218750D01*
G01*
X164025000Y-69243750D01*
G75*
G02*
X164243750Y-69025000I218750J0D01*
G01*
G37*
%TD*%
%TO.C,D5*%
G36*
G01*
X156743750Y-69025000D02*
X157256250Y-69025000D01*
G75*
G02*
X157475000Y-69243750I0J-218750D01*
G01*
X157475000Y-69681250D01*
G75*
G02*
X157256250Y-69900000I-218750J0D01*
G01*
X156743750Y-69900000D01*
G75*
G02*
X156525000Y-69681250I0J218750D01*
G01*
X156525000Y-69243750D01*
G75*
G02*
X156743750Y-69025000I218750J0D01*
G01*
G37*
G36*
G01*
X156743750Y-70600000D02*
X157256250Y-70600000D01*
G75*
G02*
X157475000Y-70818750I0J-218750D01*
G01*
X157475000Y-71256250D01*
G75*
G02*
X157256250Y-71475000I-218750J0D01*
G01*
X156743750Y-71475000D01*
G75*
G02*
X156525000Y-71256250I0J218750D01*
G01*
X156525000Y-70818750D01*
G75*
G02*
X156743750Y-70600000I218750J0D01*
G01*
G37*
%TD*%
%TO.C,D6*%
G36*
G01*
X149243750Y-69025000D02*
X149756250Y-69025000D01*
G75*
G02*
X149975000Y-69243750I0J-218750D01*
G01*
X149975000Y-69681250D01*
G75*
G02*
X149756250Y-69900000I-218750J0D01*
G01*
X149243750Y-69900000D01*
G75*
G02*
X149025000Y-69681250I0J218750D01*
G01*
X149025000Y-69243750D01*
G75*
G02*
X149243750Y-69025000I218750J0D01*
G01*
G37*
G36*
G01*
X149243750Y-70600000D02*
X149756250Y-70600000D01*
G75*
G02*
X149975000Y-70818750I0J-218750D01*
G01*
X149975000Y-71256250D01*
G75*
G02*
X149756250Y-71475000I-218750J0D01*
G01*
X149243750Y-71475000D01*
G75*
G02*
X149025000Y-71256250I0J218750D01*
G01*
X149025000Y-70818750D01*
G75*
G02*
X149243750Y-70600000I218750J0D01*
G01*
G37*
%TD*%
%TO.C,D7*%
G36*
G01*
X141743750Y-69025000D02*
X142256250Y-69025000D01*
G75*
G02*
X142475000Y-69243750I0J-218750D01*
G01*
X142475000Y-69681250D01*
G75*
G02*
X142256250Y-69900000I-218750J0D01*
G01*
X141743750Y-69900000D01*
G75*
G02*
X141525000Y-69681250I0J218750D01*
G01*
X141525000Y-69243750D01*
G75*
G02*
X141743750Y-69025000I218750J0D01*
G01*
G37*
G36*
G01*
X141743750Y-70600000D02*
X142256250Y-70600000D01*
G75*
G02*
X142475000Y-70818750I0J-218750D01*
G01*
X142475000Y-71256250D01*
G75*
G02*
X142256250Y-71475000I-218750J0D01*
G01*
X141743750Y-71475000D01*
G75*
G02*
X141525000Y-71256250I0J218750D01*
G01*
X141525000Y-70818750D01*
G75*
G02*
X141743750Y-70600000I218750J0D01*
G01*
G37*
%TD*%
D17*
%TO.C,J1*%
X153000000Y-78500000D03*
D18*
X153000000Y-75960000D03*
X155540000Y-78500000D03*
X155540000Y-75960000D03*
X158080000Y-78500000D03*
X158080000Y-75960000D03*
X160620000Y-78500000D03*
X160620000Y-75960000D03*
X163160000Y-78500000D03*
X163160000Y-75960000D03*
%TD*%
%TO.C,J2*%
G36*
G01*
X117250000Y-104850000D02*
X115750000Y-104850000D01*
G75*
G02*
X115500000Y-104600000I0J250000D01*
G01*
X115500000Y-103400000D01*
G75*
G02*
X115750000Y-103150000I250000J0D01*
G01*
X117250000Y-103150000D01*
G75*
G02*
X117500000Y-103400000I0J-250000D01*
G01*
X117500000Y-104600000D01*
G75*
G02*
X117250000Y-104850000I-250000J0D01*
G01*
G37*
D19*
X116500000Y-101500000D03*
D20*
X118500000Y-105600000D03*
%TD*%
%TO.C,J3*%
X110250000Y-54400000D03*
D19*
X112250000Y-58500000D03*
G36*
G01*
X111500000Y-55150000D02*
X113000000Y-55150000D01*
G75*
G02*
X113250000Y-55400000I0J-250000D01*
G01*
X113250000Y-56600000D01*
G75*
G02*
X113000000Y-56850000I-250000J0D01*
G01*
X111500000Y-56850000D01*
G75*
G02*
X111250000Y-56600000I0J250000D01*
G01*
X111250000Y-55400000D01*
G75*
G02*
X111500000Y-55150000I250000J0D01*
G01*
G37*
%TD*%
%TO.C,J4*%
G36*
G01*
X141750000Y-104850000D02*
X140250000Y-104850000D01*
G75*
G02*
X140000000Y-104600000I0J250000D01*
G01*
X140000000Y-103400000D01*
G75*
G02*
X140250000Y-103150000I250000J0D01*
G01*
X141750000Y-103150000D01*
G75*
G02*
X142000000Y-103400000I0J-250000D01*
G01*
X142000000Y-104600000D01*
G75*
G02*
X141750000Y-104850000I-250000J0D01*
G01*
G37*
X141000000Y-101500000D03*
D20*
X143000000Y-105600000D03*
%TD*%
%TO.C,J5*%
G36*
G01*
X149250000Y-104850000D02*
X147750000Y-104850000D01*
G75*
G02*
X147500000Y-104600000I0J250000D01*
G01*
X147500000Y-103400000D01*
G75*
G02*
X147750000Y-103150000I250000J0D01*
G01*
X149250000Y-103150000D01*
G75*
G02*
X149500000Y-103400000I0J-250000D01*
G01*
X149500000Y-104600000D01*
G75*
G02*
X149250000Y-104850000I-250000J0D01*
G01*
G37*
D19*
X148500000Y-101500000D03*
D20*
X150500000Y-105600000D03*
%TD*%
%TO.C,J6*%
X108000000Y-77850000D03*
D21*
X106000000Y-68750000D03*
X106000000Y-71250000D03*
X106000000Y-73750000D03*
G36*
G01*
X106725000Y-77100000D02*
X105275000Y-77100000D01*
G75*
G02*
X105025000Y-76850000I0J250000D01*
G01*
X105025000Y-75650000D01*
G75*
G02*
X105275000Y-75400000I250000J0D01*
G01*
X106725000Y-75400000D01*
G75*
G02*
X106975000Y-75650000I0J-250000D01*
G01*
X106975000Y-76850000D01*
G75*
G02*
X106725000Y-77100000I-250000J0D01*
G01*
G37*
%TD*%
%TO.C,J7*%
G36*
G01*
X106725000Y-92100000D02*
X105275000Y-92100000D01*
G75*
G02*
X105025000Y-91850000I0J250000D01*
G01*
X105025000Y-90650000D01*
G75*
G02*
X105275000Y-90400000I250000J0D01*
G01*
X106725000Y-90400000D01*
G75*
G02*
X106975000Y-90650000I0J-250000D01*
G01*
X106975000Y-91850000D01*
G75*
G02*
X106725000Y-92100000I-250000J0D01*
G01*
G37*
X106000000Y-88750000D03*
X106000000Y-86250000D03*
X106000000Y-83750000D03*
D20*
X108000000Y-92850000D03*
%TD*%
%TO.C,J8*%
X175600000Y-74750000D03*
D22*
X169000000Y-76750000D03*
X171500000Y-76750000D03*
G36*
G01*
X174850000Y-76025000D02*
X174850000Y-77475000D01*
G75*
G02*
X174600000Y-77725000I-250000J0D01*
G01*
X173400000Y-77725000D01*
G75*
G02*
X173150000Y-77475000I0J250000D01*
G01*
X173150000Y-76025000D01*
G75*
G02*
X173400000Y-75775000I250000J0D01*
G01*
X174600000Y-75775000D01*
G75*
G02*
X174850000Y-76025000I0J-250000D01*
G01*
G37*
%TD*%
%TO.C,J9*%
G36*
G01*
X174850000Y-83525000D02*
X174850000Y-84975000D01*
G75*
G02*
X174600000Y-85225000I-250000J0D01*
G01*
X173400000Y-85225000D01*
G75*
G02*
X173150000Y-84975000I0J250000D01*
G01*
X173150000Y-83525000D01*
G75*
G02*
X173400000Y-83275000I250000J0D01*
G01*
X174600000Y-83275000D01*
G75*
G02*
X174850000Y-83525000I0J-250000D01*
G01*
G37*
X171500000Y-84250000D03*
X169000000Y-84250000D03*
D20*
X175600000Y-82250000D03*
%TD*%
%TO.C,J10*%
X158000000Y-105600000D03*
D19*
X156000000Y-101500000D03*
G36*
G01*
X156750000Y-104850000D02*
X155250000Y-104850000D01*
G75*
G02*
X155000000Y-104600000I0J250000D01*
G01*
X155000000Y-103400000D01*
G75*
G02*
X155250000Y-103150000I250000J0D01*
G01*
X156750000Y-103150000D01*
G75*
G02*
X157000000Y-103400000I0J-250000D01*
G01*
X157000000Y-104600000D01*
G75*
G02*
X156750000Y-104850000I-250000J0D01*
G01*
G37*
%TD*%
D20*
%TO.C,J11*%
X165500000Y-105600000D03*
D19*
X163500000Y-101500000D03*
G36*
G01*
X164250000Y-104850000D02*
X162750000Y-104850000D01*
G75*
G02*
X162500000Y-104600000I0J250000D01*
G01*
X162500000Y-103400000D01*
G75*
G02*
X162750000Y-103150000I250000J0D01*
G01*
X164250000Y-103150000D01*
G75*
G02*
X164500000Y-103400000I0J-250000D01*
G01*
X164500000Y-104600000D01*
G75*
G02*
X164250000Y-104850000I-250000J0D01*
G01*
G37*
%TD*%
%TO.C,J12*%
G36*
G01*
X165500000Y-55150000D02*
X167000000Y-55150000D01*
G75*
G02*
X167250000Y-55400000I0J-250000D01*
G01*
X167250000Y-56600000D01*
G75*
G02*
X167000000Y-56850000I-250000J0D01*
G01*
X165500000Y-56850000D01*
G75*
G02*
X165250000Y-56600000I0J250000D01*
G01*
X165250000Y-55400000D01*
G75*
G02*
X165500000Y-55150000I250000J0D01*
G01*
G37*
X166250000Y-58500000D03*
D20*
X164250000Y-54400000D03*
%TD*%
%TO.C,J13*%
X156750000Y-54400000D03*
D19*
X158750000Y-58500000D03*
G36*
G01*
X158000000Y-55150000D02*
X159500000Y-55150000D01*
G75*
G02*
X159750000Y-55400000I0J-250000D01*
G01*
X159750000Y-56600000D01*
G75*
G02*
X159500000Y-56850000I-250000J0D01*
G01*
X158000000Y-56850000D01*
G75*
G02*
X157750000Y-56600000I0J250000D01*
G01*
X157750000Y-55400000D01*
G75*
G02*
X158000000Y-55150000I250000J0D01*
G01*
G37*
%TD*%
%TO.C,J14*%
G36*
G01*
X150500000Y-55150000D02*
X152000000Y-55150000D01*
G75*
G02*
X152250000Y-55400000I0J-250000D01*
G01*
X152250000Y-56600000D01*
G75*
G02*
X152000000Y-56850000I-250000J0D01*
G01*
X150500000Y-56850000D01*
G75*
G02*
X150250000Y-56600000I0J250000D01*
G01*
X150250000Y-55400000D01*
G75*
G02*
X150500000Y-55150000I250000J0D01*
G01*
G37*
X151250000Y-58500000D03*
D20*
X149250000Y-54400000D03*
%TD*%
%TO.C,J15*%
X141750000Y-54400000D03*
D19*
X143750000Y-58500000D03*
G36*
G01*
X143000000Y-55150000D02*
X144500000Y-55150000D01*
G75*
G02*
X144750000Y-55400000I0J-250000D01*
G01*
X144750000Y-56600000D01*
G75*
G02*
X144500000Y-56850000I-250000J0D01*
G01*
X143000000Y-56850000D01*
G75*
G02*
X142750000Y-56600000I0J250000D01*
G01*
X142750000Y-55400000D01*
G75*
G02*
X143000000Y-55150000I250000J0D01*
G01*
G37*
%TD*%
D23*
%TO.C,JP2*%
G36*
X105250602Y-97850000D02*
G01*
X105250602Y-97825466D01*
X105255412Y-97776635D01*
X105264984Y-97728510D01*
X105279228Y-97681555D01*
X105298005Y-97636222D01*
X105321136Y-97592949D01*
X105348396Y-97552150D01*
X105379524Y-97514221D01*
X105414221Y-97479524D01*
X105452150Y-97448396D01*
X105492949Y-97421136D01*
X105536222Y-97398005D01*
X105581555Y-97379228D01*
X105628510Y-97364984D01*
X105676635Y-97355412D01*
X105725466Y-97350602D01*
X105750000Y-97350602D01*
X105750000Y-97350000D01*
X106250000Y-97350000D01*
X106250000Y-97350602D01*
X106274534Y-97350602D01*
X106323365Y-97355412D01*
X106371490Y-97364984D01*
X106418445Y-97379228D01*
X106463778Y-97398005D01*
X106507051Y-97421136D01*
X106547850Y-97448396D01*
X106585779Y-97479524D01*
X106620476Y-97514221D01*
X106651604Y-97552150D01*
X106678864Y-97592949D01*
X106701995Y-97636222D01*
X106720772Y-97681555D01*
X106735016Y-97728510D01*
X106744588Y-97776635D01*
X106749398Y-97825466D01*
X106749398Y-97850000D01*
X106750000Y-97850000D01*
X106750000Y-98350000D01*
X105250000Y-98350000D01*
X105250000Y-97850000D01*
X105250602Y-97850000D01*
G37*
G36*
X106750000Y-98650000D02*
G01*
X106750000Y-99150000D01*
X106749398Y-99150000D01*
X106749398Y-99174534D01*
X106744588Y-99223365D01*
X106735016Y-99271490D01*
X106720772Y-99318445D01*
X106701995Y-99363778D01*
X106678864Y-99407051D01*
X106651604Y-99447850D01*
X106620476Y-99485779D01*
X106585779Y-99520476D01*
X106547850Y-99551604D01*
X106507051Y-99578864D01*
X106463778Y-99601995D01*
X106418445Y-99620772D01*
X106371490Y-99635016D01*
X106323365Y-99644588D01*
X106274534Y-99649398D01*
X106250000Y-99649398D01*
X106250000Y-99650000D01*
X105750000Y-99650000D01*
X105750000Y-99649398D01*
X105725466Y-99649398D01*
X105676635Y-99644588D01*
X105628510Y-99635016D01*
X105581555Y-99620772D01*
X105536222Y-99601995D01*
X105492949Y-99578864D01*
X105452150Y-99551604D01*
X105414221Y-99520476D01*
X105379524Y-99485779D01*
X105348396Y-99447850D01*
X105321136Y-99407051D01*
X105298005Y-99363778D01*
X105279228Y-99318445D01*
X105264984Y-99271490D01*
X105255412Y-99223365D01*
X105250602Y-99174534D01*
X105250602Y-99150000D01*
X105250000Y-99150000D01*
X105250000Y-98650000D01*
X106750000Y-98650000D01*
G37*
%TD*%
%TO.C,JP3*%
G36*
X109750000Y-98650000D02*
G01*
X109750000Y-99150000D01*
X109749398Y-99150000D01*
X109749398Y-99174534D01*
X109744588Y-99223365D01*
X109735016Y-99271490D01*
X109720772Y-99318445D01*
X109701995Y-99363778D01*
X109678864Y-99407051D01*
X109651604Y-99447850D01*
X109620476Y-99485779D01*
X109585779Y-99520476D01*
X109547850Y-99551604D01*
X109507051Y-99578864D01*
X109463778Y-99601995D01*
X109418445Y-99620772D01*
X109371490Y-99635016D01*
X109323365Y-99644588D01*
X109274534Y-99649398D01*
X109250000Y-99649398D01*
X109250000Y-99650000D01*
X108750000Y-99650000D01*
X108750000Y-99649398D01*
X108725466Y-99649398D01*
X108676635Y-99644588D01*
X108628510Y-99635016D01*
X108581555Y-99620772D01*
X108536222Y-99601995D01*
X108492949Y-99578864D01*
X108452150Y-99551604D01*
X108414221Y-99520476D01*
X108379524Y-99485779D01*
X108348396Y-99447850D01*
X108321136Y-99407051D01*
X108298005Y-99363778D01*
X108279228Y-99318445D01*
X108264984Y-99271490D01*
X108255412Y-99223365D01*
X108250602Y-99174534D01*
X108250602Y-99150000D01*
X108250000Y-99150000D01*
X108250000Y-98650000D01*
X109750000Y-98650000D01*
G37*
G36*
X108250602Y-97850000D02*
G01*
X108250602Y-97825466D01*
X108255412Y-97776635D01*
X108264984Y-97728510D01*
X108279228Y-97681555D01*
X108298005Y-97636222D01*
X108321136Y-97592949D01*
X108348396Y-97552150D01*
X108379524Y-97514221D01*
X108414221Y-97479524D01*
X108452150Y-97448396D01*
X108492949Y-97421136D01*
X108536222Y-97398005D01*
X108581555Y-97379228D01*
X108628510Y-97364984D01*
X108676635Y-97355412D01*
X108725466Y-97350602D01*
X108750000Y-97350602D01*
X108750000Y-97350000D01*
X109250000Y-97350000D01*
X109250000Y-97350602D01*
X109274534Y-97350602D01*
X109323365Y-97355412D01*
X109371490Y-97364984D01*
X109418445Y-97379228D01*
X109463778Y-97398005D01*
X109507051Y-97421136D01*
X109547850Y-97448396D01*
X109585779Y-97479524D01*
X109620476Y-97514221D01*
X109651604Y-97552150D01*
X109678864Y-97592949D01*
X109701995Y-97636222D01*
X109720772Y-97681555D01*
X109735016Y-97728510D01*
X109744588Y-97776635D01*
X109749398Y-97825466D01*
X109749398Y-97850000D01*
X109750000Y-97850000D01*
X109750000Y-98350000D01*
X108250000Y-98350000D01*
X108250000Y-97850000D01*
X108250602Y-97850000D01*
G37*
%TD*%
D24*
%TO.C,Q1*%
X166300000Y-70500000D03*
X168200000Y-70500000D03*
X167250000Y-68500000D03*
%TD*%
%TO.C,Q2*%
X159750000Y-68500000D03*
X160700000Y-70500000D03*
X158800000Y-70500000D03*
%TD*%
%TO.C,Q3*%
X151300000Y-70500000D03*
X153200000Y-70500000D03*
X152250000Y-68500000D03*
%TD*%
%TO.C,Q4*%
X144750000Y-68500000D03*
X145700000Y-70500000D03*
X143800000Y-70500000D03*
%TD*%
%TO.C,R1*%
G36*
G01*
X139725000Y-88775000D02*
X140275000Y-88775000D01*
G75*
G02*
X140475000Y-88975000I0J-200000D01*
G01*
X140475000Y-89375000D01*
G75*
G02*
X140275000Y-89575000I-200000J0D01*
G01*
X139725000Y-89575000D01*
G75*
G02*
X139525000Y-89375000I0J200000D01*
G01*
X139525000Y-88975000D01*
G75*
G02*
X139725000Y-88775000I200000J0D01*
G01*
G37*
G36*
G01*
X139725000Y-90425000D02*
X140275000Y-90425000D01*
G75*
G02*
X140475000Y-90625000I0J-200000D01*
G01*
X140475000Y-91025000D01*
G75*
G02*
X140275000Y-91225000I-200000J0D01*
G01*
X139725000Y-91225000D01*
G75*
G02*
X139525000Y-91025000I0J200000D01*
G01*
X139525000Y-90625000D01*
G75*
G02*
X139725000Y-90425000I200000J0D01*
G01*
G37*
%TD*%
%TO.C,R2*%
G36*
G01*
X132750000Y-82475000D02*
X132750000Y-83025000D01*
G75*
G02*
X132550000Y-83225000I-200000J0D01*
G01*
X132150000Y-83225000D01*
G75*
G02*
X131950000Y-83025000I0J200000D01*
G01*
X131950000Y-82475000D01*
G75*
G02*
X132150000Y-82275000I200000J0D01*
G01*
X132550000Y-82275000D01*
G75*
G02*
X132750000Y-82475000I0J-200000D01*
G01*
G37*
G36*
G01*
X134400000Y-82475000D02*
X134400000Y-83025000D01*
G75*
G02*
X134200000Y-83225000I-200000J0D01*
G01*
X133800000Y-83225000D01*
G75*
G02*
X133600000Y-83025000I0J200000D01*
G01*
X133600000Y-82475000D01*
G75*
G02*
X133800000Y-82275000I200000J0D01*
G01*
X134200000Y-82275000D01*
G75*
G02*
X134400000Y-82475000I0J-200000D01*
G01*
G37*
%TD*%
%TO.C,R3*%
G36*
G01*
X124525000Y-85325000D02*
X123975000Y-85325000D01*
G75*
G02*
X123775000Y-85125000I0J200000D01*
G01*
X123775000Y-84725000D01*
G75*
G02*
X123975000Y-84525000I200000J0D01*
G01*
X124525000Y-84525000D01*
G75*
G02*
X124725000Y-84725000I0J-200000D01*
G01*
X124725000Y-85125000D01*
G75*
G02*
X124525000Y-85325000I-200000J0D01*
G01*
G37*
G36*
G01*
X124525000Y-86975000D02*
X123975000Y-86975000D01*
G75*
G02*
X123775000Y-86775000I0J200000D01*
G01*
X123775000Y-86375000D01*
G75*
G02*
X123975000Y-86175000I200000J0D01*
G01*
X124525000Y-86175000D01*
G75*
G02*
X124725000Y-86375000I0J-200000D01*
G01*
X124725000Y-86775000D01*
G75*
G02*
X124525000Y-86975000I-200000J0D01*
G01*
G37*
%TD*%
%TO.C,R4*%
G36*
G01*
X163025000Y-69825000D02*
X162475000Y-69825000D01*
G75*
G02*
X162275000Y-69625000I0J200000D01*
G01*
X162275000Y-69225000D01*
G75*
G02*
X162475000Y-69025000I200000J0D01*
G01*
X163025000Y-69025000D01*
G75*
G02*
X163225000Y-69225000I0J-200000D01*
G01*
X163225000Y-69625000D01*
G75*
G02*
X163025000Y-69825000I-200000J0D01*
G01*
G37*
G36*
G01*
X163025000Y-71475000D02*
X162475000Y-71475000D01*
G75*
G02*
X162275000Y-71275000I0J200000D01*
G01*
X162275000Y-70875000D01*
G75*
G02*
X162475000Y-70675000I200000J0D01*
G01*
X163025000Y-70675000D01*
G75*
G02*
X163225000Y-70875000I0J-200000D01*
G01*
X163225000Y-71275000D01*
G75*
G02*
X163025000Y-71475000I-200000J0D01*
G01*
G37*
%TD*%
%TO.C,R5*%
G36*
G01*
X155525000Y-69825000D02*
X154975000Y-69825000D01*
G75*
G02*
X154775000Y-69625000I0J200000D01*
G01*
X154775000Y-69225000D01*
G75*
G02*
X154975000Y-69025000I200000J0D01*
G01*
X155525000Y-69025000D01*
G75*
G02*
X155725000Y-69225000I0J-200000D01*
G01*
X155725000Y-69625000D01*
G75*
G02*
X155525000Y-69825000I-200000J0D01*
G01*
G37*
G36*
G01*
X155525000Y-71475000D02*
X154975000Y-71475000D01*
G75*
G02*
X154775000Y-71275000I0J200000D01*
G01*
X154775000Y-70875000D01*
G75*
G02*
X154975000Y-70675000I200000J0D01*
G01*
X155525000Y-70675000D01*
G75*
G02*
X155725000Y-70875000I0J-200000D01*
G01*
X155725000Y-71275000D01*
G75*
G02*
X155525000Y-71475000I-200000J0D01*
G01*
G37*
%TD*%
%TO.C,R6*%
G36*
G01*
X148025000Y-71475000D02*
X147475000Y-71475000D01*
G75*
G02*
X147275000Y-71275000I0J200000D01*
G01*
X147275000Y-70875000D01*
G75*
G02*
X147475000Y-70675000I200000J0D01*
G01*
X148025000Y-70675000D01*
G75*
G02*
X148225000Y-70875000I0J-200000D01*
G01*
X148225000Y-71275000D01*
G75*
G02*
X148025000Y-71475000I-200000J0D01*
G01*
G37*
G36*
G01*
X148025000Y-69825000D02*
X147475000Y-69825000D01*
G75*
G02*
X147275000Y-69625000I0J200000D01*
G01*
X147275000Y-69225000D01*
G75*
G02*
X147475000Y-69025000I200000J0D01*
G01*
X148025000Y-69025000D01*
G75*
G02*
X148225000Y-69225000I0J-200000D01*
G01*
X148225000Y-69625000D01*
G75*
G02*
X148025000Y-69825000I-200000J0D01*
G01*
G37*
%TD*%
%TO.C,R7*%
G36*
G01*
X140525000Y-71475000D02*
X139975000Y-71475000D01*
G75*
G02*
X139775000Y-71275000I0J200000D01*
G01*
X139775000Y-70875000D01*
G75*
G02*
X139975000Y-70675000I200000J0D01*
G01*
X140525000Y-70675000D01*
G75*
G02*
X140725000Y-70875000I0J-200000D01*
G01*
X140725000Y-71275000D01*
G75*
G02*
X140525000Y-71475000I-200000J0D01*
G01*
G37*
G36*
G01*
X140525000Y-69825000D02*
X139975000Y-69825000D01*
G75*
G02*
X139775000Y-69625000I0J200000D01*
G01*
X139775000Y-69225000D01*
G75*
G02*
X139975000Y-69025000I200000J0D01*
G01*
X140525000Y-69025000D01*
G75*
G02*
X140725000Y-69225000I0J-200000D01*
G01*
X140725000Y-69625000D01*
G75*
G02*
X140525000Y-69825000I-200000J0D01*
G01*
G37*
%TD*%
%TO.C,R8*%
G36*
G01*
X142250000Y-97275000D02*
X142250000Y-96725000D01*
G75*
G02*
X142450000Y-96525000I200000J0D01*
G01*
X142850000Y-96525000D01*
G75*
G02*
X143050000Y-96725000I0J-200000D01*
G01*
X143050000Y-97275000D01*
G75*
G02*
X142850000Y-97475000I-200000J0D01*
G01*
X142450000Y-97475000D01*
G75*
G02*
X142250000Y-97275000I0J200000D01*
G01*
G37*
G36*
G01*
X140600000Y-97275000D02*
X140600000Y-96725000D01*
G75*
G02*
X140800000Y-96525000I200000J0D01*
G01*
X141200000Y-96525000D01*
G75*
G02*
X141400000Y-96725000I0J-200000D01*
G01*
X141400000Y-97275000D01*
G75*
G02*
X141200000Y-97475000I-200000J0D01*
G01*
X140800000Y-97475000D01*
G75*
G02*
X140600000Y-97275000I0J200000D01*
G01*
G37*
%TD*%
%TO.C,R9*%
G36*
G01*
X149750000Y-97275000D02*
X149750000Y-96725000D01*
G75*
G02*
X149950000Y-96525000I200000J0D01*
G01*
X150350000Y-96525000D01*
G75*
G02*
X150550000Y-96725000I0J-200000D01*
G01*
X150550000Y-97275000D01*
G75*
G02*
X150350000Y-97475000I-200000J0D01*
G01*
X149950000Y-97475000D01*
G75*
G02*
X149750000Y-97275000I0J200000D01*
G01*
G37*
G36*
G01*
X148100000Y-97275000D02*
X148100000Y-96725000D01*
G75*
G02*
X148300000Y-96525000I200000J0D01*
G01*
X148700000Y-96525000D01*
G75*
G02*
X148900000Y-96725000I0J-200000D01*
G01*
X148900000Y-97275000D01*
G75*
G02*
X148700000Y-97475000I-200000J0D01*
G01*
X148300000Y-97475000D01*
G75*
G02*
X148100000Y-97275000I0J200000D01*
G01*
G37*
%TD*%
%TO.C,R10*%
G36*
G01*
X155600000Y-97275000D02*
X155600000Y-96725000D01*
G75*
G02*
X155800000Y-96525000I200000J0D01*
G01*
X156200000Y-96525000D01*
G75*
G02*
X156400000Y-96725000I0J-200000D01*
G01*
X156400000Y-97275000D01*
G75*
G02*
X156200000Y-97475000I-200000J0D01*
G01*
X155800000Y-97475000D01*
G75*
G02*
X155600000Y-97275000I0J200000D01*
G01*
G37*
G36*
G01*
X157250000Y-97275000D02*
X157250000Y-96725000D01*
G75*
G02*
X157450000Y-96525000I200000J0D01*
G01*
X157850000Y-96525000D01*
G75*
G02*
X158050000Y-96725000I0J-200000D01*
G01*
X158050000Y-97275000D01*
G75*
G02*
X157850000Y-97475000I-200000J0D01*
G01*
X157450000Y-97475000D01*
G75*
G02*
X157250000Y-97275000I0J200000D01*
G01*
G37*
%TD*%
%TO.C,R11*%
G36*
G01*
X163100000Y-97275000D02*
X163100000Y-96725000D01*
G75*
G02*
X163300000Y-96525000I200000J0D01*
G01*
X163700000Y-96525000D01*
G75*
G02*
X163900000Y-96725000I0J-200000D01*
G01*
X163900000Y-97275000D01*
G75*
G02*
X163700000Y-97475000I-200000J0D01*
G01*
X163300000Y-97475000D01*
G75*
G02*
X163100000Y-97275000I0J200000D01*
G01*
G37*
G36*
G01*
X164750000Y-97275000D02*
X164750000Y-96725000D01*
G75*
G02*
X164950000Y-96525000I200000J0D01*
G01*
X165350000Y-96525000D01*
G75*
G02*
X165550000Y-96725000I0J-200000D01*
G01*
X165550000Y-97275000D01*
G75*
G02*
X165350000Y-97475000I-200000J0D01*
G01*
X164950000Y-97475000D01*
G75*
G02*
X164750000Y-97275000I0J200000D01*
G01*
G37*
%TD*%
%TO.C,R12*%
G36*
G01*
X113275000Y-81225000D02*
X112725000Y-81225000D01*
G75*
G02*
X112525000Y-81025000I0J200000D01*
G01*
X112525000Y-80625000D01*
G75*
G02*
X112725000Y-80425000I200000J0D01*
G01*
X113275000Y-80425000D01*
G75*
G02*
X113475000Y-80625000I0J-200000D01*
G01*
X113475000Y-81025000D01*
G75*
G02*
X113275000Y-81225000I-200000J0D01*
G01*
G37*
G36*
G01*
X113275000Y-79575000D02*
X112725000Y-79575000D01*
G75*
G02*
X112525000Y-79375000I0J200000D01*
G01*
X112525000Y-78975000D01*
G75*
G02*
X112725000Y-78775000I200000J0D01*
G01*
X113275000Y-78775000D01*
G75*
G02*
X113475000Y-78975000I0J-200000D01*
G01*
X113475000Y-79375000D01*
G75*
G02*
X113275000Y-79575000I-200000J0D01*
G01*
G37*
%TD*%
%TO.C,R13*%
G36*
G01*
X163225000Y-87025000D02*
X163775000Y-87025000D01*
G75*
G02*
X163975000Y-87225000I0J-200000D01*
G01*
X163975000Y-87625000D01*
G75*
G02*
X163775000Y-87825000I-200000J0D01*
G01*
X163225000Y-87825000D01*
G75*
G02*
X163025000Y-87625000I0J200000D01*
G01*
X163025000Y-87225000D01*
G75*
G02*
X163225000Y-87025000I200000J0D01*
G01*
G37*
G36*
G01*
X163225000Y-88675000D02*
X163775000Y-88675000D01*
G75*
G02*
X163975000Y-88875000I0J-200000D01*
G01*
X163975000Y-89275000D01*
G75*
G02*
X163775000Y-89475000I-200000J0D01*
G01*
X163225000Y-89475000D01*
G75*
G02*
X163025000Y-89275000I0J200000D01*
G01*
X163025000Y-88875000D01*
G75*
G02*
X163225000Y-88675000I200000J0D01*
G01*
G37*
%TD*%
%TO.C,R14*%
G36*
G01*
X164975000Y-88675000D02*
X165525000Y-88675000D01*
G75*
G02*
X165725000Y-88875000I0J-200000D01*
G01*
X165725000Y-89275000D01*
G75*
G02*
X165525000Y-89475000I-200000J0D01*
G01*
X164975000Y-89475000D01*
G75*
G02*
X164775000Y-89275000I0J200000D01*
G01*
X164775000Y-88875000D01*
G75*
G02*
X164975000Y-88675000I200000J0D01*
G01*
G37*
G36*
G01*
X164975000Y-87025000D02*
X165525000Y-87025000D01*
G75*
G02*
X165725000Y-87225000I0J-200000D01*
G01*
X165725000Y-87625000D01*
G75*
G02*
X165525000Y-87825000I-200000J0D01*
G01*
X164975000Y-87825000D01*
G75*
G02*
X164775000Y-87625000I0J200000D01*
G01*
X164775000Y-87225000D01*
G75*
G02*
X164975000Y-87025000I200000J0D01*
G01*
G37*
%TD*%
%TO.C,U1*%
G36*
G01*
X137825000Y-87450000D02*
X137675000Y-87450000D01*
G75*
G02*
X137600000Y-87375000I0J75000D01*
G01*
X137600000Y-85975000D01*
G75*
G02*
X137675000Y-85900000I75000J0D01*
G01*
X137825000Y-85900000D01*
G75*
G02*
X137900000Y-85975000I0J-75000D01*
G01*
X137900000Y-87375000D01*
G75*
G02*
X137825000Y-87450000I-75000J0D01*
G01*
G37*
G36*
G01*
X138325000Y-87450000D02*
X138175000Y-87450000D01*
G75*
G02*
X138100000Y-87375000I0J75000D01*
G01*
X138100000Y-85975000D01*
G75*
G02*
X138175000Y-85900000I75000J0D01*
G01*
X138325000Y-85900000D01*
G75*
G02*
X138400000Y-85975000I0J-75000D01*
G01*
X138400000Y-87375000D01*
G75*
G02*
X138325000Y-87450000I-75000J0D01*
G01*
G37*
G36*
G01*
X138825000Y-87450000D02*
X138675000Y-87450000D01*
G75*
G02*
X138600000Y-87375000I0J75000D01*
G01*
X138600000Y-85975000D01*
G75*
G02*
X138675000Y-85900000I75000J0D01*
G01*
X138825000Y-85900000D01*
G75*
G02*
X138900000Y-85975000I0J-75000D01*
G01*
X138900000Y-87375000D01*
G75*
G02*
X138825000Y-87450000I-75000J0D01*
G01*
G37*
G36*
G01*
X139325000Y-87450000D02*
X139175000Y-87450000D01*
G75*
G02*
X139100000Y-87375000I0J75000D01*
G01*
X139100000Y-85975000D01*
G75*
G02*
X139175000Y-85900000I75000J0D01*
G01*
X139325000Y-85900000D01*
G75*
G02*
X139400000Y-85975000I0J-75000D01*
G01*
X139400000Y-87375000D01*
G75*
G02*
X139325000Y-87450000I-75000J0D01*
G01*
G37*
G36*
G01*
X139825000Y-87450000D02*
X139675000Y-87450000D01*
G75*
G02*
X139600000Y-87375000I0J75000D01*
G01*
X139600000Y-85975000D01*
G75*
G02*
X139675000Y-85900000I75000J0D01*
G01*
X139825000Y-85900000D01*
G75*
G02*
X139900000Y-85975000I0J-75000D01*
G01*
X139900000Y-87375000D01*
G75*
G02*
X139825000Y-87450000I-75000J0D01*
G01*
G37*
G36*
G01*
X140325000Y-87450000D02*
X140175000Y-87450000D01*
G75*
G02*
X140100000Y-87375000I0J75000D01*
G01*
X140100000Y-85975000D01*
G75*
G02*
X140175000Y-85900000I75000J0D01*
G01*
X140325000Y-85900000D01*
G75*
G02*
X140400000Y-85975000I0J-75000D01*
G01*
X140400000Y-87375000D01*
G75*
G02*
X140325000Y-87450000I-75000J0D01*
G01*
G37*
G36*
G01*
X140825000Y-87450000D02*
X140675000Y-87450000D01*
G75*
G02*
X140600000Y-87375000I0J75000D01*
G01*
X140600000Y-85975000D01*
G75*
G02*
X140675000Y-85900000I75000J0D01*
G01*
X140825000Y-85900000D01*
G75*
G02*
X140900000Y-85975000I0J-75000D01*
G01*
X140900000Y-87375000D01*
G75*
G02*
X140825000Y-87450000I-75000J0D01*
G01*
G37*
G36*
G01*
X141325000Y-87450000D02*
X141175000Y-87450000D01*
G75*
G02*
X141100000Y-87375000I0J75000D01*
G01*
X141100000Y-85975000D01*
G75*
G02*
X141175000Y-85900000I75000J0D01*
G01*
X141325000Y-85900000D01*
G75*
G02*
X141400000Y-85975000I0J-75000D01*
G01*
X141400000Y-87375000D01*
G75*
G02*
X141325000Y-87450000I-75000J0D01*
G01*
G37*
G36*
G01*
X141825000Y-87450000D02*
X141675000Y-87450000D01*
G75*
G02*
X141600000Y-87375000I0J75000D01*
G01*
X141600000Y-85975000D01*
G75*
G02*
X141675000Y-85900000I75000J0D01*
G01*
X141825000Y-85900000D01*
G75*
G02*
X141900000Y-85975000I0J-75000D01*
G01*
X141900000Y-87375000D01*
G75*
G02*
X141825000Y-87450000I-75000J0D01*
G01*
G37*
G36*
G01*
X142325000Y-87450000D02*
X142175000Y-87450000D01*
G75*
G02*
X142100000Y-87375000I0J75000D01*
G01*
X142100000Y-85975000D01*
G75*
G02*
X142175000Y-85900000I75000J0D01*
G01*
X142325000Y-85900000D01*
G75*
G02*
X142400000Y-85975000I0J-75000D01*
G01*
X142400000Y-87375000D01*
G75*
G02*
X142325000Y-87450000I-75000J0D01*
G01*
G37*
G36*
G01*
X142825000Y-87450000D02*
X142675000Y-87450000D01*
G75*
G02*
X142600000Y-87375000I0J75000D01*
G01*
X142600000Y-85975000D01*
G75*
G02*
X142675000Y-85900000I75000J0D01*
G01*
X142825000Y-85900000D01*
G75*
G02*
X142900000Y-85975000I0J-75000D01*
G01*
X142900000Y-87375000D01*
G75*
G02*
X142825000Y-87450000I-75000J0D01*
G01*
G37*
G36*
G01*
X143325000Y-87450000D02*
X143175000Y-87450000D01*
G75*
G02*
X143100000Y-87375000I0J75000D01*
G01*
X143100000Y-85975000D01*
G75*
G02*
X143175000Y-85900000I75000J0D01*
G01*
X143325000Y-85900000D01*
G75*
G02*
X143400000Y-85975000I0J-75000D01*
G01*
X143400000Y-87375000D01*
G75*
G02*
X143325000Y-87450000I-75000J0D01*
G01*
G37*
G36*
G01*
X143825000Y-87450000D02*
X143675000Y-87450000D01*
G75*
G02*
X143600000Y-87375000I0J75000D01*
G01*
X143600000Y-85975000D01*
G75*
G02*
X143675000Y-85900000I75000J0D01*
G01*
X143825000Y-85900000D01*
G75*
G02*
X143900000Y-85975000I0J-75000D01*
G01*
X143900000Y-87375000D01*
G75*
G02*
X143825000Y-87450000I-75000J0D01*
G01*
G37*
G36*
G01*
X144325000Y-87450000D02*
X144175000Y-87450000D01*
G75*
G02*
X144100000Y-87375000I0J75000D01*
G01*
X144100000Y-85975000D01*
G75*
G02*
X144175000Y-85900000I75000J0D01*
G01*
X144325000Y-85900000D01*
G75*
G02*
X144400000Y-85975000I0J-75000D01*
G01*
X144400000Y-87375000D01*
G75*
G02*
X144325000Y-87450000I-75000J0D01*
G01*
G37*
G36*
G01*
X144825000Y-87450000D02*
X144675000Y-87450000D01*
G75*
G02*
X144600000Y-87375000I0J75000D01*
G01*
X144600000Y-85975000D01*
G75*
G02*
X144675000Y-85900000I75000J0D01*
G01*
X144825000Y-85900000D01*
G75*
G02*
X144900000Y-85975000I0J-75000D01*
G01*
X144900000Y-87375000D01*
G75*
G02*
X144825000Y-87450000I-75000J0D01*
G01*
G37*
G36*
G01*
X145325000Y-87450000D02*
X145175000Y-87450000D01*
G75*
G02*
X145100000Y-87375000I0J75000D01*
G01*
X145100000Y-85975000D01*
G75*
G02*
X145175000Y-85900000I75000J0D01*
G01*
X145325000Y-85900000D01*
G75*
G02*
X145400000Y-85975000I0J-75000D01*
G01*
X145400000Y-87375000D01*
G75*
G02*
X145325000Y-87450000I-75000J0D01*
G01*
G37*
G36*
G01*
X147875000Y-84900000D02*
X146475000Y-84900000D01*
G75*
G02*
X146400000Y-84825000I0J75000D01*
G01*
X146400000Y-84675000D01*
G75*
G02*
X146475000Y-84600000I75000J0D01*
G01*
X147875000Y-84600000D01*
G75*
G02*
X147950000Y-84675000I0J-75000D01*
G01*
X147950000Y-84825000D01*
G75*
G02*
X147875000Y-84900000I-75000J0D01*
G01*
G37*
G36*
G01*
X147875000Y-84400000D02*
X146475000Y-84400000D01*
G75*
G02*
X146400000Y-84325000I0J75000D01*
G01*
X146400000Y-84175000D01*
G75*
G02*
X146475000Y-84100000I75000J0D01*
G01*
X147875000Y-84100000D01*
G75*
G02*
X147950000Y-84175000I0J-75000D01*
G01*
X147950000Y-84325000D01*
G75*
G02*
X147875000Y-84400000I-75000J0D01*
G01*
G37*
G36*
G01*
X147875000Y-83900000D02*
X146475000Y-83900000D01*
G75*
G02*
X146400000Y-83825000I0J75000D01*
G01*
X146400000Y-83675000D01*
G75*
G02*
X146475000Y-83600000I75000J0D01*
G01*
X147875000Y-83600000D01*
G75*
G02*
X147950000Y-83675000I0J-75000D01*
G01*
X147950000Y-83825000D01*
G75*
G02*
X147875000Y-83900000I-75000J0D01*
G01*
G37*
G36*
G01*
X147875000Y-83400000D02*
X146475000Y-83400000D01*
G75*
G02*
X146400000Y-83325000I0J75000D01*
G01*
X146400000Y-83175000D01*
G75*
G02*
X146475000Y-83100000I75000J0D01*
G01*
X147875000Y-83100000D01*
G75*
G02*
X147950000Y-83175000I0J-75000D01*
G01*
X147950000Y-83325000D01*
G75*
G02*
X147875000Y-83400000I-75000J0D01*
G01*
G37*
G36*
G01*
X147875000Y-82900000D02*
X146475000Y-82900000D01*
G75*
G02*
X146400000Y-82825000I0J75000D01*
G01*
X146400000Y-82675000D01*
G75*
G02*
X146475000Y-82600000I75000J0D01*
G01*
X147875000Y-82600000D01*
G75*
G02*
X147950000Y-82675000I0J-75000D01*
G01*
X147950000Y-82825000D01*
G75*
G02*
X147875000Y-82900000I-75000J0D01*
G01*
G37*
G36*
G01*
X147875000Y-82400000D02*
X146475000Y-82400000D01*
G75*
G02*
X146400000Y-82325000I0J75000D01*
G01*
X146400000Y-82175000D01*
G75*
G02*
X146475000Y-82100000I75000J0D01*
G01*
X147875000Y-82100000D01*
G75*
G02*
X147950000Y-82175000I0J-75000D01*
G01*
X147950000Y-82325000D01*
G75*
G02*
X147875000Y-82400000I-75000J0D01*
G01*
G37*
G36*
G01*
X147875000Y-81900000D02*
X146475000Y-81900000D01*
G75*
G02*
X146400000Y-81825000I0J75000D01*
G01*
X146400000Y-81675000D01*
G75*
G02*
X146475000Y-81600000I75000J0D01*
G01*
X147875000Y-81600000D01*
G75*
G02*
X147950000Y-81675000I0J-75000D01*
G01*
X147950000Y-81825000D01*
G75*
G02*
X147875000Y-81900000I-75000J0D01*
G01*
G37*
G36*
G01*
X147875000Y-81400000D02*
X146475000Y-81400000D01*
G75*
G02*
X146400000Y-81325000I0J75000D01*
G01*
X146400000Y-81175000D01*
G75*
G02*
X146475000Y-81100000I75000J0D01*
G01*
X147875000Y-81100000D01*
G75*
G02*
X147950000Y-81175000I0J-75000D01*
G01*
X147950000Y-81325000D01*
G75*
G02*
X147875000Y-81400000I-75000J0D01*
G01*
G37*
G36*
G01*
X147875000Y-80900000D02*
X146475000Y-80900000D01*
G75*
G02*
X146400000Y-80825000I0J75000D01*
G01*
X146400000Y-80675000D01*
G75*
G02*
X146475000Y-80600000I75000J0D01*
G01*
X147875000Y-80600000D01*
G75*
G02*
X147950000Y-80675000I0J-75000D01*
G01*
X147950000Y-80825000D01*
G75*
G02*
X147875000Y-80900000I-75000J0D01*
G01*
G37*
G36*
G01*
X147875000Y-80400000D02*
X146475000Y-80400000D01*
G75*
G02*
X146400000Y-80325000I0J75000D01*
G01*
X146400000Y-80175000D01*
G75*
G02*
X146475000Y-80100000I75000J0D01*
G01*
X147875000Y-80100000D01*
G75*
G02*
X147950000Y-80175000I0J-75000D01*
G01*
X147950000Y-80325000D01*
G75*
G02*
X147875000Y-80400000I-75000J0D01*
G01*
G37*
G36*
G01*
X147875000Y-79900000D02*
X146475000Y-79900000D01*
G75*
G02*
X146400000Y-79825000I0J75000D01*
G01*
X146400000Y-79675000D01*
G75*
G02*
X146475000Y-79600000I75000J0D01*
G01*
X147875000Y-79600000D01*
G75*
G02*
X147950000Y-79675000I0J-75000D01*
G01*
X147950000Y-79825000D01*
G75*
G02*
X147875000Y-79900000I-75000J0D01*
G01*
G37*
G36*
G01*
X147875000Y-79400000D02*
X146475000Y-79400000D01*
G75*
G02*
X146400000Y-79325000I0J75000D01*
G01*
X146400000Y-79175000D01*
G75*
G02*
X146475000Y-79100000I75000J0D01*
G01*
X147875000Y-79100000D01*
G75*
G02*
X147950000Y-79175000I0J-75000D01*
G01*
X147950000Y-79325000D01*
G75*
G02*
X147875000Y-79400000I-75000J0D01*
G01*
G37*
G36*
G01*
X147875000Y-78900000D02*
X146475000Y-78900000D01*
G75*
G02*
X146400000Y-78825000I0J75000D01*
G01*
X146400000Y-78675000D01*
G75*
G02*
X146475000Y-78600000I75000J0D01*
G01*
X147875000Y-78600000D01*
G75*
G02*
X147950000Y-78675000I0J-75000D01*
G01*
X147950000Y-78825000D01*
G75*
G02*
X147875000Y-78900000I-75000J0D01*
G01*
G37*
G36*
G01*
X147875000Y-78400000D02*
X146475000Y-78400000D01*
G75*
G02*
X146400000Y-78325000I0J75000D01*
G01*
X146400000Y-78175000D01*
G75*
G02*
X146475000Y-78100000I75000J0D01*
G01*
X147875000Y-78100000D01*
G75*
G02*
X147950000Y-78175000I0J-75000D01*
G01*
X147950000Y-78325000D01*
G75*
G02*
X147875000Y-78400000I-75000J0D01*
G01*
G37*
G36*
G01*
X147875000Y-77900000D02*
X146475000Y-77900000D01*
G75*
G02*
X146400000Y-77825000I0J75000D01*
G01*
X146400000Y-77675000D01*
G75*
G02*
X146475000Y-77600000I75000J0D01*
G01*
X147875000Y-77600000D01*
G75*
G02*
X147950000Y-77675000I0J-75000D01*
G01*
X147950000Y-77825000D01*
G75*
G02*
X147875000Y-77900000I-75000J0D01*
G01*
G37*
G36*
G01*
X147875000Y-77400000D02*
X146475000Y-77400000D01*
G75*
G02*
X146400000Y-77325000I0J75000D01*
G01*
X146400000Y-77175000D01*
G75*
G02*
X146475000Y-77100000I75000J0D01*
G01*
X147875000Y-77100000D01*
G75*
G02*
X147950000Y-77175000I0J-75000D01*
G01*
X147950000Y-77325000D01*
G75*
G02*
X147875000Y-77400000I-75000J0D01*
G01*
G37*
G36*
G01*
X145325000Y-76100000D02*
X145175000Y-76100000D01*
G75*
G02*
X145100000Y-76025000I0J75000D01*
G01*
X145100000Y-74625000D01*
G75*
G02*
X145175000Y-74550000I75000J0D01*
G01*
X145325000Y-74550000D01*
G75*
G02*
X145400000Y-74625000I0J-75000D01*
G01*
X145400000Y-76025000D01*
G75*
G02*
X145325000Y-76100000I-75000J0D01*
G01*
G37*
G36*
G01*
X144825000Y-76100000D02*
X144675000Y-76100000D01*
G75*
G02*
X144600000Y-76025000I0J75000D01*
G01*
X144600000Y-74625000D01*
G75*
G02*
X144675000Y-74550000I75000J0D01*
G01*
X144825000Y-74550000D01*
G75*
G02*
X144900000Y-74625000I0J-75000D01*
G01*
X144900000Y-76025000D01*
G75*
G02*
X144825000Y-76100000I-75000J0D01*
G01*
G37*
G36*
G01*
X144325000Y-76100000D02*
X144175000Y-76100000D01*
G75*
G02*
X144100000Y-76025000I0J75000D01*
G01*
X144100000Y-74625000D01*
G75*
G02*
X144175000Y-74550000I75000J0D01*
G01*
X144325000Y-74550000D01*
G75*
G02*
X144400000Y-74625000I0J-75000D01*
G01*
X144400000Y-76025000D01*
G75*
G02*
X144325000Y-76100000I-75000J0D01*
G01*
G37*
G36*
G01*
X143825000Y-76100000D02*
X143675000Y-76100000D01*
G75*
G02*
X143600000Y-76025000I0J75000D01*
G01*
X143600000Y-74625000D01*
G75*
G02*
X143675000Y-74550000I75000J0D01*
G01*
X143825000Y-74550000D01*
G75*
G02*
X143900000Y-74625000I0J-75000D01*
G01*
X143900000Y-76025000D01*
G75*
G02*
X143825000Y-76100000I-75000J0D01*
G01*
G37*
G36*
G01*
X143325000Y-76100000D02*
X143175000Y-76100000D01*
G75*
G02*
X143100000Y-76025000I0J75000D01*
G01*
X143100000Y-74625000D01*
G75*
G02*
X143175000Y-74550000I75000J0D01*
G01*
X143325000Y-74550000D01*
G75*
G02*
X143400000Y-74625000I0J-75000D01*
G01*
X143400000Y-76025000D01*
G75*
G02*
X143325000Y-76100000I-75000J0D01*
G01*
G37*
G36*
G01*
X142825000Y-76100000D02*
X142675000Y-76100000D01*
G75*
G02*
X142600000Y-76025000I0J75000D01*
G01*
X142600000Y-74625000D01*
G75*
G02*
X142675000Y-74550000I75000J0D01*
G01*
X142825000Y-74550000D01*
G75*
G02*
X142900000Y-74625000I0J-75000D01*
G01*
X142900000Y-76025000D01*
G75*
G02*
X142825000Y-76100000I-75000J0D01*
G01*
G37*
G36*
G01*
X142325000Y-76100000D02*
X142175000Y-76100000D01*
G75*
G02*
X142100000Y-76025000I0J75000D01*
G01*
X142100000Y-74625000D01*
G75*
G02*
X142175000Y-74550000I75000J0D01*
G01*
X142325000Y-74550000D01*
G75*
G02*
X142400000Y-74625000I0J-75000D01*
G01*
X142400000Y-76025000D01*
G75*
G02*
X142325000Y-76100000I-75000J0D01*
G01*
G37*
G36*
G01*
X141825000Y-76100000D02*
X141675000Y-76100000D01*
G75*
G02*
X141600000Y-76025000I0J75000D01*
G01*
X141600000Y-74625000D01*
G75*
G02*
X141675000Y-74550000I75000J0D01*
G01*
X141825000Y-74550000D01*
G75*
G02*
X141900000Y-74625000I0J-75000D01*
G01*
X141900000Y-76025000D01*
G75*
G02*
X141825000Y-76100000I-75000J0D01*
G01*
G37*
G36*
G01*
X141325000Y-76100000D02*
X141175000Y-76100000D01*
G75*
G02*
X141100000Y-76025000I0J75000D01*
G01*
X141100000Y-74625000D01*
G75*
G02*
X141175000Y-74550000I75000J0D01*
G01*
X141325000Y-74550000D01*
G75*
G02*
X141400000Y-74625000I0J-75000D01*
G01*
X141400000Y-76025000D01*
G75*
G02*
X141325000Y-76100000I-75000J0D01*
G01*
G37*
G36*
G01*
X140825000Y-76100000D02*
X140675000Y-76100000D01*
G75*
G02*
X140600000Y-76025000I0J75000D01*
G01*
X140600000Y-74625000D01*
G75*
G02*
X140675000Y-74550000I75000J0D01*
G01*
X140825000Y-74550000D01*
G75*
G02*
X140900000Y-74625000I0J-75000D01*
G01*
X140900000Y-76025000D01*
G75*
G02*
X140825000Y-76100000I-75000J0D01*
G01*
G37*
G36*
G01*
X140325000Y-76100000D02*
X140175000Y-76100000D01*
G75*
G02*
X140100000Y-76025000I0J75000D01*
G01*
X140100000Y-74625000D01*
G75*
G02*
X140175000Y-74550000I75000J0D01*
G01*
X140325000Y-74550000D01*
G75*
G02*
X140400000Y-74625000I0J-75000D01*
G01*
X140400000Y-76025000D01*
G75*
G02*
X140325000Y-76100000I-75000J0D01*
G01*
G37*
G36*
G01*
X139825000Y-76100000D02*
X139675000Y-76100000D01*
G75*
G02*
X139600000Y-76025000I0J75000D01*
G01*
X139600000Y-74625000D01*
G75*
G02*
X139675000Y-74550000I75000J0D01*
G01*
X139825000Y-74550000D01*
G75*
G02*
X139900000Y-74625000I0J-75000D01*
G01*
X139900000Y-76025000D01*
G75*
G02*
X139825000Y-76100000I-75000J0D01*
G01*
G37*
G36*
G01*
X139325000Y-76100000D02*
X139175000Y-76100000D01*
G75*
G02*
X139100000Y-76025000I0J75000D01*
G01*
X139100000Y-74625000D01*
G75*
G02*
X139175000Y-74550000I75000J0D01*
G01*
X139325000Y-74550000D01*
G75*
G02*
X139400000Y-74625000I0J-75000D01*
G01*
X139400000Y-76025000D01*
G75*
G02*
X139325000Y-76100000I-75000J0D01*
G01*
G37*
G36*
G01*
X138825000Y-76100000D02*
X138675000Y-76100000D01*
G75*
G02*
X138600000Y-76025000I0J75000D01*
G01*
X138600000Y-74625000D01*
G75*
G02*
X138675000Y-74550000I75000J0D01*
G01*
X138825000Y-74550000D01*
G75*
G02*
X138900000Y-74625000I0J-75000D01*
G01*
X138900000Y-76025000D01*
G75*
G02*
X138825000Y-76100000I-75000J0D01*
G01*
G37*
G36*
G01*
X138325000Y-76100000D02*
X138175000Y-76100000D01*
G75*
G02*
X138100000Y-76025000I0J75000D01*
G01*
X138100000Y-74625000D01*
G75*
G02*
X138175000Y-74550000I75000J0D01*
G01*
X138325000Y-74550000D01*
G75*
G02*
X138400000Y-74625000I0J-75000D01*
G01*
X138400000Y-76025000D01*
G75*
G02*
X138325000Y-76100000I-75000J0D01*
G01*
G37*
G36*
G01*
X137825000Y-76100000D02*
X137675000Y-76100000D01*
G75*
G02*
X137600000Y-76025000I0J75000D01*
G01*
X137600000Y-74625000D01*
G75*
G02*
X137675000Y-74550000I75000J0D01*
G01*
X137825000Y-74550000D01*
G75*
G02*
X137900000Y-74625000I0J-75000D01*
G01*
X137900000Y-76025000D01*
G75*
G02*
X137825000Y-76100000I-75000J0D01*
G01*
G37*
G36*
G01*
X136525000Y-77400000D02*
X135125000Y-77400000D01*
G75*
G02*
X135050000Y-77325000I0J75000D01*
G01*
X135050000Y-77175000D01*
G75*
G02*
X135125000Y-77100000I75000J0D01*
G01*
X136525000Y-77100000D01*
G75*
G02*
X136600000Y-77175000I0J-75000D01*
G01*
X136600000Y-77325000D01*
G75*
G02*
X136525000Y-77400000I-75000J0D01*
G01*
G37*
G36*
G01*
X136525000Y-77900000D02*
X135125000Y-77900000D01*
G75*
G02*
X135050000Y-77825000I0J75000D01*
G01*
X135050000Y-77675000D01*
G75*
G02*
X135125000Y-77600000I75000J0D01*
G01*
X136525000Y-77600000D01*
G75*
G02*
X136600000Y-77675000I0J-75000D01*
G01*
X136600000Y-77825000D01*
G75*
G02*
X136525000Y-77900000I-75000J0D01*
G01*
G37*
G36*
G01*
X136525000Y-78400000D02*
X135125000Y-78400000D01*
G75*
G02*
X135050000Y-78325000I0J75000D01*
G01*
X135050000Y-78175000D01*
G75*
G02*
X135125000Y-78100000I75000J0D01*
G01*
X136525000Y-78100000D01*
G75*
G02*
X136600000Y-78175000I0J-75000D01*
G01*
X136600000Y-78325000D01*
G75*
G02*
X136525000Y-78400000I-75000J0D01*
G01*
G37*
G36*
G01*
X136525000Y-78900000D02*
X135125000Y-78900000D01*
G75*
G02*
X135050000Y-78825000I0J75000D01*
G01*
X135050000Y-78675000D01*
G75*
G02*
X135125000Y-78600000I75000J0D01*
G01*
X136525000Y-78600000D01*
G75*
G02*
X136600000Y-78675000I0J-75000D01*
G01*
X136600000Y-78825000D01*
G75*
G02*
X136525000Y-78900000I-75000J0D01*
G01*
G37*
G36*
G01*
X136525000Y-79400000D02*
X135125000Y-79400000D01*
G75*
G02*
X135050000Y-79325000I0J75000D01*
G01*
X135050000Y-79175000D01*
G75*
G02*
X135125000Y-79100000I75000J0D01*
G01*
X136525000Y-79100000D01*
G75*
G02*
X136600000Y-79175000I0J-75000D01*
G01*
X136600000Y-79325000D01*
G75*
G02*
X136525000Y-79400000I-75000J0D01*
G01*
G37*
G36*
G01*
X136525000Y-79900000D02*
X135125000Y-79900000D01*
G75*
G02*
X135050000Y-79825000I0J75000D01*
G01*
X135050000Y-79675000D01*
G75*
G02*
X135125000Y-79600000I75000J0D01*
G01*
X136525000Y-79600000D01*
G75*
G02*
X136600000Y-79675000I0J-75000D01*
G01*
X136600000Y-79825000D01*
G75*
G02*
X136525000Y-79900000I-75000J0D01*
G01*
G37*
G36*
G01*
X136525000Y-80400000D02*
X135125000Y-80400000D01*
G75*
G02*
X135050000Y-80325000I0J75000D01*
G01*
X135050000Y-80175000D01*
G75*
G02*
X135125000Y-80100000I75000J0D01*
G01*
X136525000Y-80100000D01*
G75*
G02*
X136600000Y-80175000I0J-75000D01*
G01*
X136600000Y-80325000D01*
G75*
G02*
X136525000Y-80400000I-75000J0D01*
G01*
G37*
G36*
G01*
X136525000Y-80900000D02*
X135125000Y-80900000D01*
G75*
G02*
X135050000Y-80825000I0J75000D01*
G01*
X135050000Y-80675000D01*
G75*
G02*
X135125000Y-80600000I75000J0D01*
G01*
X136525000Y-80600000D01*
G75*
G02*
X136600000Y-80675000I0J-75000D01*
G01*
X136600000Y-80825000D01*
G75*
G02*
X136525000Y-80900000I-75000J0D01*
G01*
G37*
G36*
G01*
X136525000Y-81400000D02*
X135125000Y-81400000D01*
G75*
G02*
X135050000Y-81325000I0J75000D01*
G01*
X135050000Y-81175000D01*
G75*
G02*
X135125000Y-81100000I75000J0D01*
G01*
X136525000Y-81100000D01*
G75*
G02*
X136600000Y-81175000I0J-75000D01*
G01*
X136600000Y-81325000D01*
G75*
G02*
X136525000Y-81400000I-75000J0D01*
G01*
G37*
G36*
G01*
X136525000Y-81900000D02*
X135125000Y-81900000D01*
G75*
G02*
X135050000Y-81825000I0J75000D01*
G01*
X135050000Y-81675000D01*
G75*
G02*
X135125000Y-81600000I75000J0D01*
G01*
X136525000Y-81600000D01*
G75*
G02*
X136600000Y-81675000I0J-75000D01*
G01*
X136600000Y-81825000D01*
G75*
G02*
X136525000Y-81900000I-75000J0D01*
G01*
G37*
G36*
G01*
X136525000Y-82400000D02*
X135125000Y-82400000D01*
G75*
G02*
X135050000Y-82325000I0J75000D01*
G01*
X135050000Y-82175000D01*
G75*
G02*
X135125000Y-82100000I75000J0D01*
G01*
X136525000Y-82100000D01*
G75*
G02*
X136600000Y-82175000I0J-75000D01*
G01*
X136600000Y-82325000D01*
G75*
G02*
X136525000Y-82400000I-75000J0D01*
G01*
G37*
G36*
G01*
X136525000Y-82900000D02*
X135125000Y-82900000D01*
G75*
G02*
X135050000Y-82825000I0J75000D01*
G01*
X135050000Y-82675000D01*
G75*
G02*
X135125000Y-82600000I75000J0D01*
G01*
X136525000Y-82600000D01*
G75*
G02*
X136600000Y-82675000I0J-75000D01*
G01*
X136600000Y-82825000D01*
G75*
G02*
X136525000Y-82900000I-75000J0D01*
G01*
G37*
G36*
G01*
X136525000Y-83400000D02*
X135125000Y-83400000D01*
G75*
G02*
X135050000Y-83325000I0J75000D01*
G01*
X135050000Y-83175000D01*
G75*
G02*
X135125000Y-83100000I75000J0D01*
G01*
X136525000Y-83100000D01*
G75*
G02*
X136600000Y-83175000I0J-75000D01*
G01*
X136600000Y-83325000D01*
G75*
G02*
X136525000Y-83400000I-75000J0D01*
G01*
G37*
G36*
G01*
X136525000Y-83900000D02*
X135125000Y-83900000D01*
G75*
G02*
X135050000Y-83825000I0J75000D01*
G01*
X135050000Y-83675000D01*
G75*
G02*
X135125000Y-83600000I75000J0D01*
G01*
X136525000Y-83600000D01*
G75*
G02*
X136600000Y-83675000I0J-75000D01*
G01*
X136600000Y-83825000D01*
G75*
G02*
X136525000Y-83900000I-75000J0D01*
G01*
G37*
G36*
G01*
X136525000Y-84400000D02*
X135125000Y-84400000D01*
G75*
G02*
X135050000Y-84325000I0J75000D01*
G01*
X135050000Y-84175000D01*
G75*
G02*
X135125000Y-84100000I75000J0D01*
G01*
X136525000Y-84100000D01*
G75*
G02*
X136600000Y-84175000I0J-75000D01*
G01*
X136600000Y-84325000D01*
G75*
G02*
X136525000Y-84400000I-75000J0D01*
G01*
G37*
G36*
G01*
X136525000Y-84900000D02*
X135125000Y-84900000D01*
G75*
G02*
X135050000Y-84825000I0J75000D01*
G01*
X135050000Y-84675000D01*
G75*
G02*
X135125000Y-84600000I75000J0D01*
G01*
X136525000Y-84600000D01*
G75*
G02*
X136600000Y-84675000I0J-75000D01*
G01*
X136600000Y-84825000D01*
G75*
G02*
X136525000Y-84900000I-75000J0D01*
G01*
G37*
%TD*%
%TO.C,U3*%
G36*
G01*
X159575000Y-84900000D02*
X159775000Y-84900000D01*
G75*
G02*
X159875000Y-85000000I0J-100000D01*
G01*
X159875000Y-86275000D01*
G75*
G02*
X159775000Y-86375000I-100000J0D01*
G01*
X159575000Y-86375000D01*
G75*
G02*
X159475000Y-86275000I0J100000D01*
G01*
X159475000Y-85000000D01*
G75*
G02*
X159575000Y-84900000I100000J0D01*
G01*
G37*
G36*
G01*
X158925000Y-84900000D02*
X159125000Y-84900000D01*
G75*
G02*
X159225000Y-85000000I0J-100000D01*
G01*
X159225000Y-86275000D01*
G75*
G02*
X159125000Y-86375000I-100000J0D01*
G01*
X158925000Y-86375000D01*
G75*
G02*
X158825000Y-86275000I0J100000D01*
G01*
X158825000Y-85000000D01*
G75*
G02*
X158925000Y-84900000I100000J0D01*
G01*
G37*
G36*
G01*
X158275000Y-84900000D02*
X158475000Y-84900000D01*
G75*
G02*
X158575000Y-85000000I0J-100000D01*
G01*
X158575000Y-86275000D01*
G75*
G02*
X158475000Y-86375000I-100000J0D01*
G01*
X158275000Y-86375000D01*
G75*
G02*
X158175000Y-86275000I0J100000D01*
G01*
X158175000Y-85000000D01*
G75*
G02*
X158275000Y-84900000I100000J0D01*
G01*
G37*
G36*
G01*
X157625000Y-84900000D02*
X157825000Y-84900000D01*
G75*
G02*
X157925000Y-85000000I0J-100000D01*
G01*
X157925000Y-86275000D01*
G75*
G02*
X157825000Y-86375000I-100000J0D01*
G01*
X157625000Y-86375000D01*
G75*
G02*
X157525000Y-86275000I0J100000D01*
G01*
X157525000Y-85000000D01*
G75*
G02*
X157625000Y-84900000I100000J0D01*
G01*
G37*
G36*
G01*
X156975000Y-84900000D02*
X157175000Y-84900000D01*
G75*
G02*
X157275000Y-85000000I0J-100000D01*
G01*
X157275000Y-86275000D01*
G75*
G02*
X157175000Y-86375000I-100000J0D01*
G01*
X156975000Y-86375000D01*
G75*
G02*
X156875000Y-86275000I0J100000D01*
G01*
X156875000Y-85000000D01*
G75*
G02*
X156975000Y-84900000I100000J0D01*
G01*
G37*
G36*
G01*
X156325000Y-84900000D02*
X156525000Y-84900000D01*
G75*
G02*
X156625000Y-85000000I0J-100000D01*
G01*
X156625000Y-86275000D01*
G75*
G02*
X156525000Y-86375000I-100000J0D01*
G01*
X156325000Y-86375000D01*
G75*
G02*
X156225000Y-86275000I0J100000D01*
G01*
X156225000Y-85000000D01*
G75*
G02*
X156325000Y-84900000I100000J0D01*
G01*
G37*
G36*
G01*
X155675000Y-84900000D02*
X155875000Y-84900000D01*
G75*
G02*
X155975000Y-85000000I0J-100000D01*
G01*
X155975000Y-86275000D01*
G75*
G02*
X155875000Y-86375000I-100000J0D01*
G01*
X155675000Y-86375000D01*
G75*
G02*
X155575000Y-86275000I0J100000D01*
G01*
X155575000Y-85000000D01*
G75*
G02*
X155675000Y-84900000I100000J0D01*
G01*
G37*
G36*
G01*
X155025000Y-84900000D02*
X155225000Y-84900000D01*
G75*
G02*
X155325000Y-85000000I0J-100000D01*
G01*
X155325000Y-86275000D01*
G75*
G02*
X155225000Y-86375000I-100000J0D01*
G01*
X155025000Y-86375000D01*
G75*
G02*
X154925000Y-86275000I0J100000D01*
G01*
X154925000Y-85000000D01*
G75*
G02*
X155025000Y-84900000I100000J0D01*
G01*
G37*
G36*
G01*
X154375000Y-84900000D02*
X154575000Y-84900000D01*
G75*
G02*
X154675000Y-85000000I0J-100000D01*
G01*
X154675000Y-86275000D01*
G75*
G02*
X154575000Y-86375000I-100000J0D01*
G01*
X154375000Y-86375000D01*
G75*
G02*
X154275000Y-86275000I0J100000D01*
G01*
X154275000Y-85000000D01*
G75*
G02*
X154375000Y-84900000I100000J0D01*
G01*
G37*
G36*
G01*
X153725000Y-84900000D02*
X153925000Y-84900000D01*
G75*
G02*
X154025000Y-85000000I0J-100000D01*
G01*
X154025000Y-86275000D01*
G75*
G02*
X153925000Y-86375000I-100000J0D01*
G01*
X153725000Y-86375000D01*
G75*
G02*
X153625000Y-86275000I0J100000D01*
G01*
X153625000Y-85000000D01*
G75*
G02*
X153725000Y-84900000I100000J0D01*
G01*
G37*
G36*
G01*
X153725000Y-90625000D02*
X153925000Y-90625000D01*
G75*
G02*
X154025000Y-90725000I0J-100000D01*
G01*
X154025000Y-92000000D01*
G75*
G02*
X153925000Y-92100000I-100000J0D01*
G01*
X153725000Y-92100000D01*
G75*
G02*
X153625000Y-92000000I0J100000D01*
G01*
X153625000Y-90725000D01*
G75*
G02*
X153725000Y-90625000I100000J0D01*
G01*
G37*
G36*
G01*
X154375000Y-90625000D02*
X154575000Y-90625000D01*
G75*
G02*
X154675000Y-90725000I0J-100000D01*
G01*
X154675000Y-92000000D01*
G75*
G02*
X154575000Y-92100000I-100000J0D01*
G01*
X154375000Y-92100000D01*
G75*
G02*
X154275000Y-92000000I0J100000D01*
G01*
X154275000Y-90725000D01*
G75*
G02*
X154375000Y-90625000I100000J0D01*
G01*
G37*
G36*
G01*
X155025000Y-90625000D02*
X155225000Y-90625000D01*
G75*
G02*
X155325000Y-90725000I0J-100000D01*
G01*
X155325000Y-92000000D01*
G75*
G02*
X155225000Y-92100000I-100000J0D01*
G01*
X155025000Y-92100000D01*
G75*
G02*
X154925000Y-92000000I0J100000D01*
G01*
X154925000Y-90725000D01*
G75*
G02*
X155025000Y-90625000I100000J0D01*
G01*
G37*
G36*
G01*
X155675000Y-90625000D02*
X155875000Y-90625000D01*
G75*
G02*
X155975000Y-90725000I0J-100000D01*
G01*
X155975000Y-92000000D01*
G75*
G02*
X155875000Y-92100000I-100000J0D01*
G01*
X155675000Y-92100000D01*
G75*
G02*
X155575000Y-92000000I0J100000D01*
G01*
X155575000Y-90725000D01*
G75*
G02*
X155675000Y-90625000I100000J0D01*
G01*
G37*
G36*
G01*
X156325000Y-90625000D02*
X156525000Y-90625000D01*
G75*
G02*
X156625000Y-90725000I0J-100000D01*
G01*
X156625000Y-92000000D01*
G75*
G02*
X156525000Y-92100000I-100000J0D01*
G01*
X156325000Y-92100000D01*
G75*
G02*
X156225000Y-92000000I0J100000D01*
G01*
X156225000Y-90725000D01*
G75*
G02*
X156325000Y-90625000I100000J0D01*
G01*
G37*
G36*
G01*
X156975000Y-90625000D02*
X157175000Y-90625000D01*
G75*
G02*
X157275000Y-90725000I0J-100000D01*
G01*
X157275000Y-92000000D01*
G75*
G02*
X157175000Y-92100000I-100000J0D01*
G01*
X156975000Y-92100000D01*
G75*
G02*
X156875000Y-92000000I0J100000D01*
G01*
X156875000Y-90725000D01*
G75*
G02*
X156975000Y-90625000I100000J0D01*
G01*
G37*
G36*
G01*
X157625000Y-90625000D02*
X157825000Y-90625000D01*
G75*
G02*
X157925000Y-90725000I0J-100000D01*
G01*
X157925000Y-92000000D01*
G75*
G02*
X157825000Y-92100000I-100000J0D01*
G01*
X157625000Y-92100000D01*
G75*
G02*
X157525000Y-92000000I0J100000D01*
G01*
X157525000Y-90725000D01*
G75*
G02*
X157625000Y-90625000I100000J0D01*
G01*
G37*
G36*
G01*
X158275000Y-90625000D02*
X158475000Y-90625000D01*
G75*
G02*
X158575000Y-90725000I0J-100000D01*
G01*
X158575000Y-92000000D01*
G75*
G02*
X158475000Y-92100000I-100000J0D01*
G01*
X158275000Y-92100000D01*
G75*
G02*
X158175000Y-92000000I0J100000D01*
G01*
X158175000Y-90725000D01*
G75*
G02*
X158275000Y-90625000I100000J0D01*
G01*
G37*
G36*
G01*
X158925000Y-90625000D02*
X159125000Y-90625000D01*
G75*
G02*
X159225000Y-90725000I0J-100000D01*
G01*
X159225000Y-92000000D01*
G75*
G02*
X159125000Y-92100000I-100000J0D01*
G01*
X158925000Y-92100000D01*
G75*
G02*
X158825000Y-92000000I0J100000D01*
G01*
X158825000Y-90725000D01*
G75*
G02*
X158925000Y-90625000I100000J0D01*
G01*
G37*
G36*
G01*
X159575000Y-90625000D02*
X159775000Y-90625000D01*
G75*
G02*
X159875000Y-90725000I0J-100000D01*
G01*
X159875000Y-92000000D01*
G75*
G02*
X159775000Y-92100000I-100000J0D01*
G01*
X159575000Y-92100000D01*
G75*
G02*
X159475000Y-92000000I0J100000D01*
G01*
X159475000Y-90725000D01*
G75*
G02*
X159575000Y-90625000I100000J0D01*
G01*
G37*
%TD*%
%TO.C,U4*%
G36*
G01*
X127225000Y-81755000D02*
X127225000Y-82055000D01*
G75*
G02*
X127075000Y-82205000I-150000J0D01*
G01*
X125575000Y-82205000D01*
G75*
G02*
X125425000Y-82055000I0J150000D01*
G01*
X125425000Y-81755000D01*
G75*
G02*
X125575000Y-81605000I150000J0D01*
G01*
X127075000Y-81605000D01*
G75*
G02*
X127225000Y-81755000I0J-150000D01*
G01*
G37*
G36*
G01*
X127225000Y-80485000D02*
X127225000Y-80785000D01*
G75*
G02*
X127075000Y-80935000I-150000J0D01*
G01*
X125575000Y-80935000D01*
G75*
G02*
X125425000Y-80785000I0J150000D01*
G01*
X125425000Y-80485000D01*
G75*
G02*
X125575000Y-80335000I150000J0D01*
G01*
X127075000Y-80335000D01*
G75*
G02*
X127225000Y-80485000I0J-150000D01*
G01*
G37*
G36*
G01*
X127225000Y-79215000D02*
X127225000Y-79515000D01*
G75*
G02*
X127075000Y-79665000I-150000J0D01*
G01*
X125575000Y-79665000D01*
G75*
G02*
X125425000Y-79515000I0J150000D01*
G01*
X125425000Y-79215000D01*
G75*
G02*
X125575000Y-79065000I150000J0D01*
G01*
X127075000Y-79065000D01*
G75*
G02*
X127225000Y-79215000I0J-150000D01*
G01*
G37*
G36*
G01*
X127225000Y-77945000D02*
X127225000Y-78245000D01*
G75*
G02*
X127075000Y-78395000I-150000J0D01*
G01*
X125575000Y-78395000D01*
G75*
G02*
X125425000Y-78245000I0J150000D01*
G01*
X125425000Y-77945000D01*
G75*
G02*
X125575000Y-77795000I150000J0D01*
G01*
X127075000Y-77795000D01*
G75*
G02*
X127225000Y-77945000I0J-150000D01*
G01*
G37*
G36*
G01*
X116575000Y-77945000D02*
X116575000Y-78245000D01*
G75*
G02*
X116425000Y-78395000I-150000J0D01*
G01*
X114925000Y-78395000D01*
G75*
G02*
X114775000Y-78245000I0J150000D01*
G01*
X114775000Y-77945000D01*
G75*
G02*
X114925000Y-77795000I150000J0D01*
G01*
X116425000Y-77795000D01*
G75*
G02*
X116575000Y-77945000I0J-150000D01*
G01*
G37*
G36*
G01*
X116575000Y-79215000D02*
X116575000Y-79515000D01*
G75*
G02*
X116425000Y-79665000I-150000J0D01*
G01*
X114925000Y-79665000D01*
G75*
G02*
X114775000Y-79515000I0J150000D01*
G01*
X114775000Y-79215000D01*
G75*
G02*
X114925000Y-79065000I150000J0D01*
G01*
X116425000Y-79065000D01*
G75*
G02*
X116575000Y-79215000I0J-150000D01*
G01*
G37*
G36*
G01*
X116575000Y-80485000D02*
X116575000Y-80785000D01*
G75*
G02*
X116425000Y-80935000I-150000J0D01*
G01*
X114925000Y-80935000D01*
G75*
G02*
X114775000Y-80785000I0J150000D01*
G01*
X114775000Y-80485000D01*
G75*
G02*
X114925000Y-80335000I150000J0D01*
G01*
X116425000Y-80335000D01*
G75*
G02*
X116575000Y-80485000I0J-150000D01*
G01*
G37*
G36*
G01*
X116575000Y-81755000D02*
X116575000Y-82055000D01*
G75*
G02*
X116425000Y-82205000I-150000J0D01*
G01*
X114925000Y-82205000D01*
G75*
G02*
X114775000Y-82055000I0J150000D01*
G01*
X114775000Y-81755000D01*
G75*
G02*
X114925000Y-81605000I150000J0D01*
G01*
X116425000Y-81605000D01*
G75*
G02*
X116575000Y-81755000I0J-150000D01*
G01*
G37*
%TD*%
%TO.C,F1*%
G36*
G01*
X165900000Y-67900000D02*
X163100000Y-67900000D01*
G75*
G02*
X162850000Y-67650000I0J250000D01*
G01*
X162850000Y-66675000D01*
G75*
G02*
X163100000Y-66425000I250000J0D01*
G01*
X165900000Y-66425000D01*
G75*
G02*
X166150000Y-66675000I0J-250000D01*
G01*
X166150000Y-67650000D01*
G75*
G02*
X165900000Y-67900000I-250000J0D01*
G01*
G37*
G36*
G01*
X165900000Y-63575000D02*
X163100000Y-63575000D01*
G75*
G02*
X162850000Y-63325000I0J250000D01*
G01*
X162850000Y-62350000D01*
G75*
G02*
X163100000Y-62100000I250000J0D01*
G01*
X165900000Y-62100000D01*
G75*
G02*
X166150000Y-62350000I0J-250000D01*
G01*
X166150000Y-63325000D01*
G75*
G02*
X165900000Y-63575000I-250000J0D01*
G01*
G37*
%TD*%
%TO.C,F2*%
G36*
G01*
X158400000Y-63575000D02*
X155600000Y-63575000D01*
G75*
G02*
X155350000Y-63325000I0J250000D01*
G01*
X155350000Y-62350000D01*
G75*
G02*
X155600000Y-62100000I250000J0D01*
G01*
X158400000Y-62100000D01*
G75*
G02*
X158650000Y-62350000I0J-250000D01*
G01*
X158650000Y-63325000D01*
G75*
G02*
X158400000Y-63575000I-250000J0D01*
G01*
G37*
G36*
G01*
X158400000Y-67900000D02*
X155600000Y-67900000D01*
G75*
G02*
X155350000Y-67650000I0J250000D01*
G01*
X155350000Y-66675000D01*
G75*
G02*
X155600000Y-66425000I250000J0D01*
G01*
X158400000Y-66425000D01*
G75*
G02*
X158650000Y-66675000I0J-250000D01*
G01*
X158650000Y-67650000D01*
G75*
G02*
X158400000Y-67900000I-250000J0D01*
G01*
G37*
%TD*%
%TO.C,F3*%
G36*
G01*
X150900000Y-63575000D02*
X148100000Y-63575000D01*
G75*
G02*
X147850000Y-63325000I0J250000D01*
G01*
X147850000Y-62350000D01*
G75*
G02*
X148100000Y-62100000I250000J0D01*
G01*
X150900000Y-62100000D01*
G75*
G02*
X151150000Y-62350000I0J-250000D01*
G01*
X151150000Y-63325000D01*
G75*
G02*
X150900000Y-63575000I-250000J0D01*
G01*
G37*
G36*
G01*
X150900000Y-67900000D02*
X148100000Y-67900000D01*
G75*
G02*
X147850000Y-67650000I0J250000D01*
G01*
X147850000Y-66675000D01*
G75*
G02*
X148100000Y-66425000I250000J0D01*
G01*
X150900000Y-66425000D01*
G75*
G02*
X151150000Y-66675000I0J-250000D01*
G01*
X151150000Y-67650000D01*
G75*
G02*
X150900000Y-67900000I-250000J0D01*
G01*
G37*
%TD*%
%TO.C,F4*%
G36*
G01*
X143400000Y-67900000D02*
X140600000Y-67900000D01*
G75*
G02*
X140350000Y-67650000I0J250000D01*
G01*
X140350000Y-66675000D01*
G75*
G02*
X140600000Y-66425000I250000J0D01*
G01*
X143400000Y-66425000D01*
G75*
G02*
X143650000Y-66675000I0J-250000D01*
G01*
X143650000Y-67650000D01*
G75*
G02*
X143400000Y-67900000I-250000J0D01*
G01*
G37*
G36*
G01*
X143400000Y-63575000D02*
X140600000Y-63575000D01*
G75*
G02*
X140350000Y-63325000I0J250000D01*
G01*
X140350000Y-62350000D01*
G75*
G02*
X140600000Y-62100000I250000J0D01*
G01*
X143400000Y-62100000D01*
G75*
G02*
X143650000Y-62350000I0J-250000D01*
G01*
X143650000Y-63325000D01*
G75*
G02*
X143400000Y-63575000I-250000J0D01*
G01*
G37*
%TD*%
D25*
%TO.C,TP11*%
X130000000Y-74500000D03*
%TD*%
%TO.C,TP10*%
X130000000Y-72500000D03*
%TD*%
%TO.C,TP16*%
X111000000Y-81000000D03*
%TD*%
%TO.C,TP17*%
X111000000Y-79000000D03*
%TD*%
D16*
%TO.C,C13*%
X173750000Y-94500000D03*
D15*
X170250000Y-94500000D03*
%TD*%
D25*
%TO.C,TP1*%
X131500000Y-77500000D03*
%TD*%
%TO.C,TP2*%
X131500000Y-79500000D03*
%TD*%
%TO.C,TP4*%
X166250000Y-72000000D03*
%TD*%
%TO.C,TP5*%
X158750000Y-72500000D03*
%TD*%
%TO.C,TP6*%
X151250000Y-72500000D03*
%TD*%
%TO.C,TP7*%
X143750000Y-72500000D03*
%TD*%
%TO.C,TP8*%
X152000000Y-82000000D03*
%TD*%
%TO.C,TP9*%
X157750000Y-81750000D03*
%TD*%
%TO.C,TP12*%
X148000000Y-91750000D03*
%TD*%
%TO.C,TP13*%
X148500000Y-89750000D03*
%TD*%
%TO.C,TP14*%
X149000000Y-87750000D03*
%TD*%
%TO.C,TP15*%
X149500000Y-85750000D03*
%TD*%
D16*
%TO.C,C15*%
X132750000Y-55500000D03*
D15*
X132750000Y-59000000D03*
%TD*%
D26*
%TO.C,H1*%
X104000000Y-54000000D03*
%TD*%
%TO.C,H2*%
X176000000Y-54000000D03*
%TD*%
%TO.C,H3*%
X104000000Y-106000000D03*
%TD*%
%TO.C,H4*%
X176000000Y-106000000D03*
%TD*%
M02*
